<svg xmlns="http://www.w3.org/2000/svg" xmlns:xlink="http://www.w3.org/1999/xlink" width="494.486" height="45.908" viewBox="0 0 494.486 45.908">
  <defs>
    <clipPath id="clip-path">
      <rect id="Rectángulo_39694" data-name="Rectángulo 39694" width="494.486" height="45.908" fill="none"/>
    </clipPath>
  </defs>
  <g id="Grupo_144184" data-name="Grupo 144184" transform="translate(0 0)">
    <rect id="Rectángulo_39684" data-name="Rectángulo 39684" width="45.908" height="45.908" transform="translate(23.218 0)" fill="#161615"/>
    <rect id="Rectángulo_39685" data-name="Rectángulo 39685" width="45.91" height="45.908" transform="translate(70.481 0)" fill="#2e2e2d"/>
    <rect id="Rectángulo_39686" data-name="Rectángulo 39686" width="45.908" height="45.908" transform="translate(117.743 0)" fill="#464545"/>
    <g id="Grupo_144183" data-name="Grupo 144183" transform="translate(0 0)">
      <g id="Grupo_144182" data-name="Grupo 144182" clip-path="url(#clip-path)">
        <path id="Trazado_161077" data-name="Trazado 161077" d="M23.366,23.455V11.826c-.005.012-.056.029-.149.051l-.355.081-.47.1q-.254.053-.513.1c-.171.03-.327.059-.465.088s-.255.051-.352.068l-.144.025V10.936a5.242,5.242,0,0,0,2.9-1.525h1.406V23.455Z" transform="translate(14.476 6.512)" fill="#fff"/>
        <path id="Trazado_161078" data-name="Trazado 161078" d="M28.816,23.662a3.082,3.082,0,0,1-2.6-1.13,4.8,4.8,0,0,1-.876-3.02V13.473a4.844,4.844,0,0,1,.854-3.041,3.108,3.108,0,0,1,2.618-1.1,3.116,3.116,0,0,1,2.618,1.107,4.811,4.811,0,0,1,.865,3.035v6.039a4.806,4.806,0,0,1-.873,3.029,3.1,3.1,0,0,1-2.609,1.122m0-1.525q1.609,0,1.609-2.609V13.456a6.854,6.854,0,0,0-.063-.995,3.148,3.148,0,0,0-.233-.814,1.289,1.289,0,0,0-.5-.592,1.689,1.689,0,0,0-1.624,0,1.289,1.289,0,0,0-.5.592,3.148,3.148,0,0,0-.234.814,6.853,6.853,0,0,0-.063.995v6.073q0,2.609,1.609,2.609" transform="translate(17.539 6.457)" fill="#fff"/>
        <path id="Trazado_161079" data-name="Trazado 161079" d="M33.853,23.662a3.087,3.087,0,0,1-2.6-1.13,4.807,4.807,0,0,1-.876-3.02V13.473a4.844,4.844,0,0,1,.856-3.041,3.108,3.108,0,0,1,2.618-1.1,3.119,3.119,0,0,1,2.618,1.107,4.811,4.811,0,0,1,.863,3.035v6.039a4.816,4.816,0,0,1-.871,3.029,3.1,3.1,0,0,1-2.609,1.122m0-1.525q1.609,0,1.609-2.609V13.456a7.1,7.1,0,0,0-.063-.995,3.288,3.288,0,0,0-.234-.814,1.3,1.3,0,0,0-.5-.592,1.692,1.692,0,0,0-1.626,0,1.286,1.286,0,0,0-.5.592,3.148,3.148,0,0,0-.233.814,6.854,6.854,0,0,0-.063.995v6.073q0,2.609,1.609,2.609" transform="translate(21.023 6.457)" fill="#fff"/>
        <rect id="Rectángulo_39687" data-name="Rectángulo 39687" width="45.908" height="45.908" transform="translate(165.006)" fill="#5d5c5c"/>
        <rect id="Rectángulo_39688" data-name="Rectángulo 39688" width="45.908" height="45.908" transform="translate(212.267)" fill="#757474"/>
        <rect id="Rectángulo_39689" data-name="Rectángulo 39689" width="45.908" height="45.908" transform="translate(259.529)" fill="#8c8b8b"/>
        <rect id="Rectángulo_39690" data-name="Rectángulo 39690" width="45.908" height="45.908" transform="translate(306.79)" fill="#a3a3a3"/>
        <rect id="Rectángulo_39691" data-name="Rectángulo 39691" width="45.908" height="45.908" transform="translate(354.054)" fill="#bababa"/>
        <rect id="Rectángulo_39692" data-name="Rectángulo 39692" width="45.906" height="45.908" transform="translate(401.317)" fill="#d2d1d1"/>
        <rect id="Rectángulo_39693" data-name="Rectángulo 39693" width="45.91" height="45.908" transform="translate(448.577)" fill="#e8e8e8"/>
        <path id="Trazado_161080" data-name="Trazado 161080" d="M54.365,23.662a3.4,3.4,0,0,1-2.533-.9,3.6,3.6,0,0,1-.914-2.58.72.72,0,0,1-.008-.152h1.863a2.874,2.874,0,0,0,.347,1.589,1.407,1.407,0,0,0,1.254.513q1.576,0,1.575-3.015V16.987a2.229,2.229,0,0,1-2.058.966,3.339,3.339,0,0,1-1.445-.284,2.163,2.163,0,0,1-.936-.839,3.977,3.977,0,0,1-.487-1.266,8.262,8.262,0,0,1-.147-1.66,7.675,7.675,0,0,1,.195-1.8,4.678,4.678,0,0,1,.6-1.44,2.8,2.8,0,0,1,1.09-.983,3.444,3.444,0,0,1,1.6-.35,3.3,3.3,0,0,1,1.563.355,2.846,2.846,0,0,1,1.08.986,4.789,4.789,0,0,1,.609,1.453,7.506,7.506,0,0,1,.2,1.8v4.728a11.233,11.233,0,0,1-.1,1.57,6.229,6.229,0,0,1-.35,1.364,3.745,3.745,0,0,1-.636,1.1,2.7,2.7,0,0,1-.986.712,3.411,3.411,0,0,1-1.372.262m-.008-7.115a1.765,1.765,0,0,0,1.592-.958V13.5q0-2.642-1.592-2.643a1.4,1.4,0,0,0-.766.208,1.353,1.353,0,0,0-.5.58,3.151,3.151,0,0,0-.257.816,5.59,5.59,0,0,0-.081,1c0,.3,0,.535.005.707s.015.382.037.631a3.5,3.5,0,0,0,.093.587,2.974,2.974,0,0,0,.178.467,1.069,1.069,0,0,0,.288.384,1.418,1.418,0,0,0,.425.225,1.763,1.763,0,0,0,.584.09" transform="translate(35.207 6.457)" fill="#fff"/>
        <path id="Trazado_161081" data-name="Trazado 161081" d="M59.378,23.662a3.086,3.086,0,0,1-2.6-1.13,4.807,4.807,0,0,1-.876-3.02V13.473a4.834,4.834,0,0,1,.856-3.041A3.653,3.653,0,0,1,62,10.438a4.811,4.811,0,0,1,.865,3.035v6.039a4.806,4.806,0,0,1-.873,3.029,3.1,3.1,0,0,1-2.609,1.122m0-1.525q1.609,0,1.609-2.609V13.456a6.854,6.854,0,0,0-.063-.995,3.149,3.149,0,0,0-.233-.814,1.286,1.286,0,0,0-.5-.592,1.692,1.692,0,0,0-1.626,0,1.3,1.3,0,0,0-.5.592,3.287,3.287,0,0,0-.233.814,7.1,7.1,0,0,0-.063.995v6.073q0,2.609,1.609,2.609" transform="translate(38.688 6.457)" fill="#fff"/>
        <path id="Trazado_161082" data-name="Trazado 161082" d="M82.293,23.662A3.15,3.15,0,0,1,79.641,22.6a4.887,4.887,0,0,1-.822-3.049,4.378,4.378,0,0,1,.445-2.134,3.544,3.544,0,0,1,1.3-1.313A3.525,3.525,0,0,1,79,12.957a3.971,3.971,0,0,1,.817-2.673,3.088,3.088,0,0,1,2.477-.953,3.039,3.039,0,0,1,2.452.953,4.005,4.005,0,0,1,.809,2.673A3.525,3.525,0,0,1,84,16.108a3.729,3.729,0,0,1,1.3,1.33,4.294,4.294,0,0,1,.448,2.117,4.909,4.909,0,0,1-.817,3.049,3.126,3.126,0,0,1-2.638,1.059M81.459,22a1.675,1.675,0,0,0,.834.191,1.634,1.634,0,0,0,.829-.195,1.267,1.267,0,0,0,.518-.567,3.02,3.02,0,0,0,.249-.814,6.311,6.311,0,0,0,.073-1.025,5.03,5.03,0,0,0-.14-1.257,1.945,1.945,0,0,0-.528-.92,1.408,1.408,0,0,0-1-.389,1.569,1.569,0,0,0-.812.22,1.424,1.424,0,0,0-.526.582,3.059,3.059,0,0,0-.271.8,4.98,4.98,0,0,0-.085.961,6.133,6.133,0,0,0,.076,1.034,3.04,3.04,0,0,0,.257.812,1.26,1.26,0,0,0,.526.563m.834-6.738a1.218,1.218,0,0,0,1.161-.775,3.443,3.443,0,0,0,.22-.753,5.347,5.347,0,0,0,.068-.876,2.865,2.865,0,0,0-.347-1.5,1.2,1.2,0,0,0-1.1-.572,1.213,1.213,0,0,0-1.118.567,2.868,2.868,0,0,0-.347,1.509,5.167,5.167,0,0,0,.068.876,3.442,3.442,0,0,0,.22.753,1.252,1.252,0,0,0,.453.563,1.309,1.309,0,0,0,.724.212" transform="translate(54.544 6.457)" fill="#fff"/>
        <path id="Trazado_161083" data-name="Trazado 161083" d="M87.255,23.662a3.087,3.087,0,0,1-2.6-1.13,4.8,4.8,0,0,1-.876-3.02V13.473a4.855,4.855,0,0,1,.854-3.041,3.655,3.655,0,0,1,5.235.005,4.811,4.811,0,0,1,.865,3.035v6.039a4.827,4.827,0,0,1-.871,3.029,3.1,3.1,0,0,1-2.609,1.122m0-1.525q1.607,0,1.609-2.609V13.456a6.833,6.833,0,0,0-.064-.995,3.287,3.287,0,0,0-.234-.814,1.289,1.289,0,0,0-.5-.592,1.689,1.689,0,0,0-1.624,0,1.276,1.276,0,0,0-.5.592,3.083,3.083,0,0,0-.233.814,6.831,6.831,0,0,0-.064.995v6.073q0,2.609,1.611,2.609" transform="translate(57.978 6.457)" fill="#fff"/>
        <path id="Trazado_161084" data-name="Trazado 161084" d="M108.325,23.455l2.541-12.587H107.1V9.411h5.607v.9l-2.6,13.145Z" transform="translate(74.119 6.512)" fill="#fff"/>
        <path id="Trazado_161085" data-name="Trazado 161085" d="M114.707,23.662a3.086,3.086,0,0,1-2.6-1.13,4.807,4.807,0,0,1-.876-3.02V13.473a4.834,4.834,0,0,1,.856-3.041,3.653,3.653,0,0,1,5.233.005,4.8,4.8,0,0,1,.865,3.035v6.039a4.806,4.806,0,0,1-.873,3.029,3.1,3.1,0,0,1-2.609,1.122m0-1.525q1.609,0,1.609-2.609V13.456a6.852,6.852,0,0,0-.063-.995,3.148,3.148,0,0,0-.233-.814,1.286,1.286,0,0,0-.5-.592,1.692,1.692,0,0,0-1.626,0,1.3,1.3,0,0,0-.5.592,3.287,3.287,0,0,0-.234.814,7.1,7.1,0,0,0-.063.995v6.073q0,2.609,1.609,2.609" transform="translate(76.977 6.457)" fill="#fff"/>
        <path id="Trazado_161086" data-name="Trazado 161086" d="M0,26.421V8.173H4.169A5.281,5.281,0,0,1,7.858,9.286a4.5,4.5,0,0,1,1.2,3.455q0,3.49-2.621,3.851A3.744,3.744,0,0,1,8.8,18.117,5.561,5.561,0,0,1,9.541,21.2a5.8,5.8,0,0,1-1.156,3.841,4.356,4.356,0,0,1-3.533,1.376ZM2.541,15.789h1.5a2.8,2.8,0,0,0,2.184-.7,3.561,3.561,0,0,0,.613-2.349,5.084,5.084,0,0,0-.078-.941,3.629,3.629,0,0,0-.2-.689,1.192,1.192,0,0,0-.369-.479,2.517,2.517,0,0,0-.5-.308A2.525,2.525,0,0,0,5,10.149c-.291-.041-.569-.066-.838-.078s-.611-.015-1.029-.015H2.541Zm0,8.805H4.259a2.732,2.732,0,0,0,2.255-.775A4.336,4.336,0,0,0,7.12,21.2,4.02,4.02,0,0,0,6.4,18.591a2.9,2.9,0,0,0-2.35-.865H2.541Z" transform="translate(0 5.655)" fill="#161615"/>
        <path id="Trazado_161087" data-name="Trazado 161087" d="M138.227,23.662a3.3,3.3,0,0,1-1.563-.355,2.832,2.832,0,0,1-1.079-.992,4.828,4.828,0,0,1-.609-1.457,7.517,7.517,0,0,1-.2-1.8V14.319a9.876,9.876,0,0,1,.173-1.934,5.632,5.632,0,0,1,.555-1.569,2.714,2.714,0,0,1,1.074-1.1,3.34,3.34,0,0,1,1.653-.389,3.387,3.387,0,0,1,2.514.885,3.578,3.578,0,0,1,.924,2.536c0,.017,0,.051.005.1s0,.083,0,.107h-1.863a2.853,2.853,0,0,0-.349-1.584,1.366,1.366,0,0,0-1.227-.518q-1.609,0-1.609,3.007V16a2,2,0,0,1,.817-.712,2.767,2.767,0,0,1,1.24-.262,3.459,3.459,0,0,1,1.206.191,2.339,2.339,0,0,1,.865.533,2.642,2.642,0,0,1,.558.86,4.591,4.591,0,0,1,.306,1.118,9.346,9.346,0,0,1,.088,1.355,8.377,8.377,0,0,1-.118,1.46,5.037,5.037,0,0,1-.386,1.254,3.509,3.509,0,0,1-.665.992,2.761,2.761,0,0,1-.986.645,3.6,3.6,0,0,1-1.325.232m0-1.533a1.418,1.418,0,0,0,.772-.2,1.363,1.363,0,0,0,.5-.572,3.1,3.1,0,0,0,.257-.817,5.688,5.688,0,0,0,.081-1.008c0-.293,0-.526-.005-.7s-.015-.384-.037-.635a3.542,3.542,0,0,0-.093-.594,3.065,3.065,0,0,0-.178-.47,1.04,1.04,0,0,0-.288-.384,1.589,1.589,0,0,0-.425-.225,1.677,1.677,0,0,0-.584-.093,1.652,1.652,0,0,0-.953.279,2.106,2.106,0,0,0-.648.687v2.091q0,2.642,1.6,2.643" transform="translate(93.265 6.457)" fill="#fff"/>
        <path id="Trazado_161088" data-name="Trazado 161088" d="M143.175,23.662a3.084,3.084,0,0,1-2.6-1.13,4.807,4.807,0,0,1-.876-3.02V13.473a4.834,4.834,0,0,1,.856-3.041,3.653,3.653,0,0,1,5.233.005,4.811,4.811,0,0,1,.865,3.035v6.039a4.806,4.806,0,0,1-.873,3.029,3.1,3.1,0,0,1-2.609,1.122m0-1.525q1.609,0,1.609-2.609V13.456a6.605,6.605,0,0,0-.064-.995,3.081,3.081,0,0,0-.232-.814,1.3,1.3,0,0,0-.5-.592,1.7,1.7,0,0,0-1.628,0,1.306,1.306,0,0,0-.5.592,3.286,3.286,0,0,0-.233.814,6.849,6.849,0,0,0-.063.995v6.073q0,2.609,1.609,2.609" transform="translate(96.677 6.457)" fill="#fff"/>
        <path id="Trazado_161089" data-name="Trazado 161089" d="M166.109,23.6a3.09,3.09,0,0,1-2.618-1.032,4.972,4.972,0,0,1-.788-3.042h1.854c0,.283.01.536.03.758a4.143,4.143,0,0,0,.127.7,1.951,1.951,0,0,0,.264.6,1.214,1.214,0,0,0,.462.389,1.492,1.492,0,0,0,.694.152,1.7,1.7,0,0,0,.567-.088,1.334,1.334,0,0,0,.416-.234,1.177,1.177,0,0,0,.288-.4,3.157,3.157,0,0,0,.183-.5,4.482,4.482,0,0,0,.1-.631c.024-.257.041-.489.046-.7s.008-.47.008-.787c0-.425-.01-.775-.03-1.056a5.108,5.108,0,0,0-.122-.821,1.645,1.645,0,0,0-.267-.631,1.245,1.245,0,0,0-.462-.369,1.6,1.6,0,0,0-.7-.139,1.441,1.441,0,0,0-.941.333,2.157,2.157,0,0,0-.618.827h-1.584V9.411h6.056v1.846h-4.379l-.11,3.888a2.65,2.65,0,0,1,2.024-.778,3.083,3.083,0,0,1,1.423.3,2.228,2.228,0,0,1,.927.882,4.344,4.344,0,0,1,.487,1.3,8.191,8.191,0,0,1,.152,1.667,12.612,12.612,0,0,1-.1,1.64,6.54,6.54,0,0,1-.34,1.389,3.374,3.374,0,0,1-.629,1.1,2.685,2.685,0,0,1-1.005.7,3.688,3.688,0,0,1-1.418.254" transform="translate(112.594 6.512)" fill="#fff"/>
        <path id="Trazado_161090" data-name="Trazado 161090" d="M171.043,23.662a3.087,3.087,0,0,1-2.6-1.13,4.807,4.807,0,0,1-.876-3.02V13.473a4.844,4.844,0,0,1,.856-3.041,3.653,3.653,0,0,1,5.233.005,4.8,4.8,0,0,1,.865,3.035v6.039a4.806,4.806,0,0,1-.873,3.029,3.1,3.1,0,0,1-2.607,1.122m0-1.525q1.609,0,1.609-2.609V13.456a6.838,6.838,0,0,0-.064-.995,3.214,3.214,0,0,0-.232-.814,1.3,1.3,0,0,0-.5-.592,1.692,1.692,0,0,0-1.626,0,1.286,1.286,0,0,0-.5.592,3.149,3.149,0,0,0-.233.814,6.854,6.854,0,0,0-.063.995v6.073q0,2.609,1.609,2.609" transform="translate(115.961 6.457)" fill="#fff"/>
        <path id="Trazado_161091" data-name="Trazado 161091" d="M194.536,23.458V19.765h-4.049V17.7l3.607-8.293h2.3V18h1.558v1.761H196.4v3.694ZM192.358,18h2.178V11.761Z" transform="translate(131.821 6.509)" fill="#161615"/>
        <path id="Trazado_161092" data-name="Trazado 161092" d="M199.05,23.662a3.086,3.086,0,0,1-2.6-1.13,4.807,4.807,0,0,1-.876-3.02V13.473a4.834,4.834,0,0,1,.856-3.041,3.653,3.653,0,0,1,5.233.005,4.811,4.811,0,0,1,.865,3.035v6.039a4.806,4.806,0,0,1-.873,3.029,3.1,3.1,0,0,1-2.609,1.122m0-1.525q1.609,0,1.609-2.609V13.456a6.6,6.6,0,0,0-.064-.995,3.081,3.081,0,0,0-.232-.814,1.3,1.3,0,0,0-.5-.592,1.692,1.692,0,0,0-1.626,0,1.3,1.3,0,0,0-.5.592,3.286,3.286,0,0,0-.233.814,7.1,7.1,0,0,0-.063.995v6.073q0,2.609,1.609,2.609" transform="translate(135.344 6.457)" fill="#161615"/>
        <path id="Trazado_161093" data-name="Trazado 161093" d="M221.976,23.662a3.314,3.314,0,0,1-2.562-.949,3.774,3.774,0,0,1-.876-2.66v-.465h1.856v.3a4.955,4.955,0,0,0,.08.9,2.623,2.623,0,0,0,.237.694,1.085,1.085,0,0,0,.482.484,1.727,1.727,0,0,0,.783.161,1.76,1.76,0,0,0,.687-.124,1.2,1.2,0,0,0,.467-.338,1.611,1.611,0,0,0,.279-.555,3.848,3.848,0,0,0,.139-.707,8.583,8.583,0,0,0,.037-.868,3.422,3.422,0,0,0-.428-1.854,1.684,1.684,0,0,0-1.4-.738c-.044-.005-.132-.008-.262-.008V15.082h.239a1.905,1.905,0,0,0,1.425-.521,2.43,2.43,0,0,0,.428-1.614,2.891,2.891,0,0,0-.347-1.567A1.361,1.361,0,0,0,222,10.847a1.758,1.758,0,0,0-.794.161,1.126,1.126,0,0,0-.491.482,2.478,2.478,0,0,0-.245.7,5.137,5.137,0,0,0-.08.914v.281h-1.856v-.467a3.738,3.738,0,0,1,.88-2.646A3.369,3.369,0,0,1,222,9.331a3.316,3.316,0,0,1,2.57.953,3.789,3.789,0,0,1,.876,2.663,3.476,3.476,0,0,1-.535,2.012,2.646,2.646,0,0,1-1.474,1.056,2.57,2.57,0,0,1,1.482,1.206,4.553,4.553,0,0,1,.526,2.316,4.871,4.871,0,0,1-.838,3.041,3.126,3.126,0,0,1-2.636,1.085" transform="translate(151.233 6.457)" fill="#161615"/>
        <path id="Trazado_161094" data-name="Trazado 161094" d="M226.857,23.662a3.082,3.082,0,0,1-2.6-1.13,4.8,4.8,0,0,1-.878-3.02V13.473a4.844,4.844,0,0,1,.856-3.041,3.655,3.655,0,0,1,5.235.005,4.811,4.811,0,0,1,.865,3.035v6.039a4.806,4.806,0,0,1-.873,3.029,3.1,3.1,0,0,1-2.609,1.122m0-1.525q1.609,0,1.609-2.609V13.456a6.838,6.838,0,0,0-.064-.995,3.02,3.02,0,0,0-.234-.814,1.286,1.286,0,0,0-.5-.592,1.689,1.689,0,0,0-1.624,0,1.3,1.3,0,0,0-.5.592,3.147,3.147,0,0,0-.233.814,6.849,6.849,0,0,0-.063.995v6.073q0,2.609,1.609,2.609" transform="translate(154.586 6.457)" fill="#161615"/>
        <path id="Trazado_161095" data-name="Trazado 161095" d="M246.423,23.51V22.189L250,16.615c.073-.113.2-.306.377-.579s.3-.47.372-.585.168-.293.293-.53a3.58,3.58,0,0,0,.262-.611,6.1,6.1,0,0,0,.144-.618,4.009,4.009,0,0,0,.068-.744q0-2.091-1.4-2.093-1.67,0-1.668,2.592v.465h-1.854v-.474a4.929,4.929,0,0,1,.812-3.044,3.075,3.075,0,0,1,2.609-1.064,3.2,3.2,0,0,1,2.523.949,3.893,3.893,0,0,1,.848,2.685,6.184,6.184,0,0,1-.1,1.134,4.274,4.274,0,0,1-.343,1.039c-.164.347-.3.619-.425.817s-.306.5-.565.9c-.052.074-.088.13-.112.171l-3.227,4.929h4.438V23.51Z" transform="translate(170.53 6.457)" fill="#161615"/>
        <path id="Trazado_161096" data-name="Trazado 161096" d="M254.848,23.662a3.082,3.082,0,0,1-2.6-1.13,4.8,4.8,0,0,1-.878-3.02V13.473a4.844,4.844,0,0,1,.856-3.041,3.655,3.655,0,0,1,5.235.005,4.811,4.811,0,0,1,.865,3.035v6.039a4.806,4.806,0,0,1-.873,3.029,3.1,3.1,0,0,1-2.609,1.122m0-1.525q1.609,0,1.609-2.609V13.456a6.609,6.609,0,0,0-.064-.995,3.023,3.023,0,0,0-.234-.814,1.286,1.286,0,0,0-.5-.592,1.689,1.689,0,0,0-1.624,0,1.289,1.289,0,0,0-.5.592,3.148,3.148,0,0,0-.234.814,7.1,7.1,0,0,0-.063.995v6.073q0,2.609,1.609,2.609" transform="translate(173.956 6.457)" fill="#161615"/>
        <path id="Trazado_161097" data-name="Trazado 161097" d="M277.274,23.455V11.826q-.008.018-.147.051l-.357.081-.469.1c-.171.036-.34.069-.513.1s-.328.059-.465.088-.257.051-.352.068l-.144.025V10.936a5.254,5.254,0,0,0,2.9-1.525h1.406V23.455Z" transform="translate(190.186 6.512)" fill="#161615"/>
        <path id="Trazado_161098" data-name="Trazado 161098" d="M282.726,23.662a3.084,3.084,0,0,1-2.6-1.13,4.8,4.8,0,0,1-.878-3.02V13.473a4.844,4.844,0,0,1,.856-3.041,3.655,3.655,0,0,1,5.235.005,4.8,4.8,0,0,1,.865,3.035v6.039a4.806,4.806,0,0,1-.873,3.029,3.1,3.1,0,0,1-2.609,1.122m0-1.525q1.609,0,1.609-2.609V13.456a6.854,6.854,0,0,0-.063-.995,3.147,3.147,0,0,0-.234-.814,1.3,1.3,0,0,0-.5-.592,1.689,1.689,0,0,0-1.624,0,1.3,1.3,0,0,0-.5.592,3.081,3.081,0,0,0-.232.814,6.834,6.834,0,0,0-.064.995v6.073q0,2.609,1.609,2.609" transform="translate(193.248 6.457)" fill="#161615"/>
      </g>
    </g>
  </g>
</svg>
