<svg id="Grupo_144359" data-name="Grupo 144359" xmlns="http://www.w3.org/2000/svg" xmlns:xlink="http://www.w3.org/1999/xlink" width="589.652" height="34.546" viewBox="0 0 589.652 34.546">
  <defs>
    <clipPath id="clip-path">
      <rect id="Rectángulo_39920" data-name="Rectángulo 39920" width="589.652" height="34.546" fill="none"/>
    </clipPath>
  </defs>
  <g id="Grupo_144358" data-name="Grupo 144358" transform="translate(0 0)" clip-path="url(#clip-path)">
    <path id="Trazado_161427" data-name="Trazado 161427" d="M321.679,17.511a16.5,16.5,0,1,1-16.5-16.5,16.516,16.516,0,0,1,16.5,16.5m-32.671,0A16.174,16.174,0,1,0,305.182,1.337a16.193,16.193,0,0,0-16.174,16.174" transform="translate(153.224 0.538)" fill="#00adef"/>
    <path id="Trazado_161428" data-name="Trazado 161428" d="M320.8,17.285a15.849,15.849,0,1,1-15.85-15.848A15.867,15.867,0,0,1,320.8,17.285m-31.373,0A15.524,15.524,0,1,0,304.955,1.762a15.542,15.542,0,0,0-15.523,15.524" transform="translate(153.449 0.763)" fill="#00adef"/>
    <path id="Trazado_161429" data-name="Trazado 161429" d="M319.93,17.06a15.2,15.2,0,1,1-15.2-15.2,15.217,15.217,0,0,1,15.2,15.2m-30.073,0A14.875,14.875,0,1,0,304.731,2.186,14.893,14.893,0,0,0,289.857,17.06" transform="translate(153.674 0.988)" fill="#00adef"/>
    <path id="Trazado_161430" data-name="Trazado 161430" d="M319.056,16.835a14.55,14.55,0,1,1-14.55-14.55,14.567,14.567,0,0,1,14.55,14.55m-28.775,0A14.225,14.225,0,1,0,304.506,2.61a14.242,14.242,0,0,0-14.225,14.225" transform="translate(153.899 1.213)" fill="#00adef"/>
    <path id="Trazado_161431" data-name="Trazado 161431" d="M318.18,16.61a13.9,13.9,0,1,1-13.9-13.9,13.916,13.916,0,0,1,13.9,13.9m-27.476,0A13.576,13.576,0,1,0,304.281,3.034,13.592,13.592,0,0,0,290.7,16.61" transform="translate(154.124 1.438)" fill="#00adef"/>
    <path id="Trazado_161432" data-name="Trazado 161432" d="M317.306,16.384a13.251,13.251,0,1,1-13.252-13.25,13.267,13.267,0,0,1,13.252,13.25m-26.178,0A12.927,12.927,0,1,0,304.054,3.459a12.942,12.942,0,0,0-12.926,12.926" transform="translate(154.349 1.664)" fill="#00adef"/>
    <path id="Trazado_161433" data-name="Trazado 161433" d="M316.432,16.159a12.6,12.6,0,1,1-12.6-12.6,12.616,12.616,0,0,1,12.6,12.6m-24.878,0A12.278,12.278,0,1,0,303.83,3.883a12.291,12.291,0,0,0-12.277,12.277" transform="translate(154.575 1.889)" fill="#00adef"/>
    <path id="Trazado_161434" data-name="Trazado 161434" d="M315.557,15.934A11.952,11.952,0,1,1,303.605,3.982a11.965,11.965,0,0,1,11.952,11.952m-23.58,0A11.628,11.628,0,1,0,303.605,4.307a11.641,11.641,0,0,0-11.628,11.628" transform="translate(154.8 2.114)" fill="#00adef"/>
    <path id="Trazado_161435" data-name="Trazado 161435" d="M314.682,15.709a11.3,11.3,0,1,1-11.3-11.3,11.315,11.315,0,0,1,11.3,11.3m-22.28,0A10.979,10.979,0,1,0,303.38,4.731,10.99,10.99,0,0,0,292.4,15.709" transform="translate(155.025 2.339)" fill="#00adef"/>
    <path id="Trazado_161436" data-name="Trazado 161436" d="M313.808,15.484A10.653,10.653,0,1,1,303.154,4.831a10.666,10.666,0,0,1,10.654,10.653m-20.982,0A10.329,10.329,0,1,0,303.154,5.156a10.341,10.341,0,0,0-10.328,10.328" transform="translate(155.25 2.565)" fill="#00adef"/>
    <path id="Trazado_161437" data-name="Trazado 161437" d="M312.935,15.259a10,10,0,1,1-10.005-10,10.016,10.016,0,0,1,10.005,10m-19.684,0A9.68,9.68,0,1,0,302.93,5.58a9.691,9.691,0,0,0-9.679,9.679" transform="translate(155.476 2.79)" fill="#00adef"/>
    <path id="Trazado_161438" data-name="Trazado 161438" d="M312.059,15.034A9.355,9.355,0,1,1,302.7,5.679a9.364,9.364,0,0,1,9.354,9.355m-18.384,0A9.03,9.03,0,1,0,302.7,6a9.04,9.04,0,0,0-9.03,9.03" transform="translate(155.701 3.015)" fill="#00adef"/>
    <path id="Trazado_161439" data-name="Trazado 161439" d="M311.185,14.808A8.706,8.706,0,1,1,302.479,6.1a8.716,8.716,0,0,1,8.706,8.705m-17.086,0a8.381,8.381,0,1,0,8.381-8.381,8.39,8.39,0,0,0-8.381,8.381" transform="translate(155.926 3.24)" fill="#00adef"/>
    <path id="Trazado_161440" data-name="Trazado 161440" d="M310.309,14.583a8.056,8.056,0,1,1-8.056-8.055,8.066,8.066,0,0,1,8.056,8.055m-15.787,0a7.731,7.731,0,1,0,7.73-7.73,7.741,7.741,0,0,0-7.73,7.73" transform="translate(156.151 3.465)" fill="#00adef"/>
    <path id="Trazado_161441" data-name="Trazado 161441" d="M309.436,14.358a7.407,7.407,0,1,1-7.407-7.406,7.416,7.416,0,0,1,7.407,7.406m-14.489,0a7.082,7.082,0,1,0,7.081-7.081,7.09,7.09,0,0,0-7.081,7.081" transform="translate(156.376 3.691)" fill="#00adef"/>
    <path id="Trazado_161442" data-name="Trazado 161442" d="M308.561,14.133A6.757,6.757,0,1,1,301.8,7.376a6.764,6.764,0,0,1,6.757,6.757m-13.189,0A6.432,6.432,0,1,0,301.8,7.7a6.44,6.44,0,0,0-6.432,6.432" transform="translate(156.602 3.916)" fill="#00adef"/>
    <path id="Trazado_161443" data-name="Trazado 161443" d="M307.687,13.908A6.108,6.108,0,1,1,301.579,7.8a6.115,6.115,0,0,1,6.108,6.108m-11.891,0a5.783,5.783,0,1,0,5.783-5.783,5.79,5.79,0,0,0-5.783,5.783" transform="translate(156.827 4.141)" fill="#00adef"/>
    <path id="Trazado_161444" data-name="Trazado 161444" d="M306.811,13.682a5.458,5.458,0,1,1-5.459-5.457,5.465,5.465,0,0,1,5.459,5.457m-10.591,0a5.133,5.133,0,1,0,5.133-5.133,5.139,5.139,0,0,0-5.133,5.133" transform="translate(157.052 4.366)" fill="#00adef"/>
    <path id="Trazado_161445" data-name="Trazado 161445" d="M305.938,13.457a4.809,4.809,0,1,1-4.81-4.808,4.816,4.816,0,0,1,4.81,4.808m-9.293,0a4.484,4.484,0,1,0,4.484-4.484,4.49,4.49,0,0,0-4.484,4.484" transform="translate(157.277 4.591)" fill="#00adef"/>
    <path id="Trazado_161446" data-name="Trazado 161446" d="M305.062,13.232A4.159,4.159,0,1,1,300.9,9.073a4.164,4.164,0,0,1,4.159,4.159m-7.994,0A3.835,3.835,0,1,0,300.9,9.4a3.839,3.839,0,0,0-3.835,3.835" transform="translate(157.502 4.816)" fill="#00adef"/>
    <path id="Trazado_161447" data-name="Trazado 161447" d="M304.188,13.007a3.51,3.51,0,1,1-3.51-3.51,3.515,3.515,0,0,1,3.51,3.51m-6.7,0a3.186,3.186,0,1,0,3.186-3.186,3.189,3.189,0,0,0-3.186,3.186" transform="translate(157.727 5.041)" fill="#00adef"/>
    <path id="Trazado_161448" data-name="Trazado 161448" d="M303.313,12.781a2.86,2.86,0,1,1-2.861-2.859,2.863,2.863,0,0,1,2.861,2.859m-5.4,0a2.536,2.536,0,1,0,2.535-2.535,2.538,2.538,0,0,0-2.535,2.535" transform="translate(157.952 5.267)" fill="#00adef"/>
    <path id="Trazado_161449" data-name="Trazado 161449" d="M302.439,12.556a2.211,2.211,0,1,1-2.212-2.21,2.214,2.214,0,0,1,2.212,2.21m-4.1,0a1.887,1.887,0,1,0,1.886-1.886,1.889,1.889,0,0,0-1.886,1.886" transform="translate(158.178 5.492)" fill="#00adef"/>
    <path id="Trazado_161450" data-name="Trazado 161450" d="M301.564,12.331A1.561,1.561,0,1,1,300,10.77a1.562,1.562,0,0,1,1.561,1.561m-2.8,0A1.237,1.237,0,1,0,300,11.095a1.238,1.238,0,0,0-1.237,1.237" transform="translate(158.403 5.717)" fill="#00adef"/>
    <path id="Trazado_161451" data-name="Trazado 161451" d="M346.667,17.511a16.5,16.5,0,1,1-16.5-16.5,16.517,16.517,0,0,1,16.5,16.5m-32.673,0A16.173,16.173,0,1,0,330.169,1.337a16.193,16.193,0,0,0-16.174,16.174" transform="translate(166.486 0.538)" fill="#e6017f"/>
    <path id="Trazado_161452" data-name="Trazado 161452" d="M345.792,17.285a15.849,15.849,0,1,1-15.85-15.848,15.868,15.868,0,0,1,15.85,15.848m-31.373,0A15.524,15.524,0,1,0,329.942,1.762a15.542,15.542,0,0,0-15.523,15.524" transform="translate(166.711 0.763)" fill="#e6017f"/>
    <path id="Trazado_161453" data-name="Trazado 161453" d="M344.916,17.06a15.2,15.2,0,1,1-15.2-15.2,15.217,15.217,0,0,1,15.2,15.2m-30.073,0A14.875,14.875,0,1,0,329.717,2.186,14.893,14.893,0,0,0,314.843,17.06" transform="translate(166.936 0.988)" fill="#e6017f"/>
    <path id="Trazado_161454" data-name="Trazado 161454" d="M344.043,16.835a14.55,14.55,0,1,1-14.55-14.55,14.567,14.567,0,0,1,14.55,14.55m-28.775,0A14.225,14.225,0,1,0,329.493,2.61a14.242,14.242,0,0,0-14.225,14.225" transform="translate(167.162 1.213)" fill="#e6017f"/>
    <path id="Trazado_161455" data-name="Trazado 161455" d="M343.167,16.61a13.9,13.9,0,1,1-13.9-13.9,13.916,13.916,0,0,1,13.9,13.9m-27.476,0A13.576,13.576,0,1,0,329.268,3.034,13.592,13.592,0,0,0,315.692,16.61" transform="translate(167.387 1.438)" fill="#e6017f"/>
    <path id="Trazado_161456" data-name="Trazado 161456" d="M342.293,16.384a13.251,13.251,0,1,1-13.252-13.25,13.267,13.267,0,0,1,13.252,13.25m-26.178,0A12.927,12.927,0,1,0,329.041,3.459a12.942,12.942,0,0,0-12.926,12.926" transform="translate(167.612 1.664)" fill="#e6017f"/>
    <path id="Trazado_161457" data-name="Trazado 161457" d="M341.419,16.159a12.6,12.6,0,1,1-12.6-12.6,12.617,12.617,0,0,1,12.6,12.6m-24.88,0A12.277,12.277,0,1,0,328.816,3.883,12.291,12.291,0,0,0,316.54,16.159" transform="translate(167.837 1.889)" fill="#e6017f"/>
    <path id="Trazado_161458" data-name="Trazado 161458" d="M340.544,15.934A11.952,11.952,0,1,1,328.592,3.982a11.965,11.965,0,0,1,11.952,11.952m-23.58,0A11.628,11.628,0,1,0,328.592,4.307a11.641,11.641,0,0,0-11.628,11.628" transform="translate(168.062 2.114)" fill="#e6017f"/>
    <path id="Trazado_161459" data-name="Trazado 161459" d="M339.67,15.709a11.3,11.3,0,1,1-11.3-11.3,11.316,11.316,0,0,1,11.3,11.3m-22.282,0A10.979,10.979,0,1,0,328.367,4.731a10.99,10.99,0,0,0-10.979,10.979" transform="translate(168.287 2.339)" fill="#e6017f"/>
    <path id="Trazado_161460" data-name="Trazado 161460" d="M338.795,15.484A10.653,10.653,0,1,1,328.141,4.831a10.666,10.666,0,0,1,10.654,10.653m-20.982,0A10.329,10.329,0,1,0,328.141,5.156a10.341,10.341,0,0,0-10.328,10.328" transform="translate(168.512 2.565)" fill="#e6017f"/>
    <path id="Trazado_161461" data-name="Trazado 161461" d="M337.92,15.259a10,10,0,1,1-10-10,10.016,10.016,0,0,1,10,10m-19.683,0a9.679,9.679,0,1,0,9.679-9.679,9.69,9.69,0,0,0-9.679,9.679" transform="translate(168.738 2.79)" fill="#e6017f"/>
    <path id="Trazado_161462" data-name="Trazado 161462" d="M337.046,15.034a9.355,9.355,0,1,1-9.354-9.355,9.364,9.364,0,0,1,9.354,9.355m-18.384,0A9.03,9.03,0,1,0,327.692,6a9.04,9.04,0,0,0-9.03,9.03" transform="translate(168.963 3.015)" fill="#e6017f"/>
    <path id="Trazado_161463" data-name="Trazado 161463" d="M336.17,14.808a8.7,8.7,0,1,1-8.7-8.705,8.715,8.715,0,0,1,8.7,8.705m-17.085,0a8.381,8.381,0,1,0,8.381-8.381,8.39,8.39,0,0,0-8.381,8.381" transform="translate(169.188 3.24)" fill="#e6017f"/>
    <path id="Trazado_161464" data-name="Trazado 161464" d="M335.3,14.583a8.056,8.056,0,1,1-8.056-8.055,8.066,8.066,0,0,1,8.056,8.055m-15.787,0a7.731,7.731,0,1,0,7.73-7.73,7.741,7.741,0,0,0-7.73,7.73" transform="translate(169.413 3.465)" fill="#e6017f"/>
    <path id="Trazado_161465" data-name="Trazado 161465" d="M334.422,14.358a7.407,7.407,0,1,1-7.407-7.406,7.416,7.416,0,0,1,7.407,7.406m-14.487,0a7.081,7.081,0,1,0,7.08-7.081,7.089,7.089,0,0,0-7.08,7.081" transform="translate(169.638 3.691)" fill="#e6017f"/>
    <path id="Trazado_161466" data-name="Trazado 161466" d="M333.548,14.133a6.757,6.757,0,1,1-6.757-6.757,6.764,6.764,0,0,1,6.757,6.757m-13.189,0A6.432,6.432,0,1,0,326.791,7.7a6.44,6.44,0,0,0-6.432,6.432" transform="translate(169.864 3.916)" fill="#e6017f"/>
    <path id="Trazado_161467" data-name="Trazado 161467" d="M332.674,13.908A6.108,6.108,0,1,1,326.566,7.8a6.115,6.115,0,0,1,6.108,6.108m-11.891,0a5.783,5.783,0,1,0,5.783-5.783,5.79,5.79,0,0,0-5.783,5.783" transform="translate(170.089 4.141)" fill="#e6017f"/>
    <path id="Trazado_161468" data-name="Trazado 161468" d="M331.8,13.682a5.458,5.458,0,1,1-5.459-5.457,5.465,5.465,0,0,1,5.459,5.457m-10.591,0a5.133,5.133,0,1,0,5.133-5.133,5.139,5.139,0,0,0-5.133,5.133" transform="translate(170.314 4.366)" fill="#e6017f"/>
    <path id="Trazado_161469" data-name="Trazado 161469" d="M330.924,13.457a4.809,4.809,0,1,1-4.81-4.808,4.816,4.816,0,0,1,4.81,4.808m-9.293,0a4.484,4.484,0,1,0,4.484-4.484,4.49,4.49,0,0,0-4.484,4.484" transform="translate(170.539 4.591)" fill="#e6017f"/>
    <path id="Trazado_161470" data-name="Trazado 161470" d="M330.049,13.232a4.159,4.159,0,1,1-4.159-4.159,4.164,4.164,0,0,1,4.159,4.159m-7.994,0A3.835,3.835,0,1,0,325.89,9.4a3.839,3.839,0,0,0-3.835,3.835" transform="translate(170.764 4.816)" fill="#e6017f"/>
    <path id="Trazado_161471" data-name="Trazado 161471" d="M329.175,13.007a3.51,3.51,0,1,1-3.51-3.51,3.515,3.515,0,0,1,3.51,3.51m-6.7,0a3.186,3.186,0,1,0,3.186-3.186,3.189,3.189,0,0,0-3.186,3.186" transform="translate(170.99 5.041)" fill="#e6017f"/>
    <path id="Trazado_161472" data-name="Trazado 161472" d="M328.3,12.781a2.86,2.86,0,1,1-2.861-2.859,2.863,2.863,0,0,1,2.861,2.859m-5.4,0a2.536,2.536,0,1,0,2.535-2.535,2.538,2.538,0,0,0-2.535,2.535" transform="translate(171.215 5.267)" fill="#e6017f"/>
    <path id="Trazado_161473" data-name="Trazado 161473" d="M327.425,12.556a2.211,2.211,0,1,1-2.212-2.21,2.214,2.214,0,0,1,2.212,2.21m-4.1,0a1.887,1.887,0,1,0,1.886-1.886,1.889,1.889,0,0,0-1.886,1.886" transform="translate(171.44 5.492)" fill="#e6017f"/>
    <path id="Trazado_161474" data-name="Trazado 161474" d="M326.55,12.331a1.561,1.561,0,1,1-1.561-1.561,1.562,1.562,0,0,1,1.561,1.561m-2.8,0a1.237,1.237,0,1,0,1.237-1.237,1.238,1.238,0,0,0-1.237,1.237" transform="translate(171.665 5.717)" fill="#e6017f"/>
    <path id="Trazado_161475" data-name="Trazado 161475" d="M371.653,17.511a16.5,16.5,0,1,1-16.5-16.5,16.517,16.517,0,0,1,16.5,16.5m-32.671,0A16.173,16.173,0,1,0,355.154,1.337a16.192,16.192,0,0,0-16.173,16.174" transform="translate(179.748 0.538)" fill="#ffed01"/>
    <path id="Trazado_161476" data-name="Trazado 161476" d="M370.78,17.285A15.849,15.849,0,1,1,354.93,1.437a15.868,15.868,0,0,1,15.85,15.848m-31.373,0A15.523,15.523,0,1,0,354.93,1.762a15.542,15.542,0,0,0-15.523,15.524" transform="translate(179.974 0.763)" fill="#ffed01"/>
    <path id="Trazado_161477" data-name="Trazado 161477" d="M369.9,17.06a15.2,15.2,0,1,1-15.2-15.2,15.217,15.217,0,0,1,15.2,15.2m-30.074,0A14.875,14.875,0,1,0,354.705,2.186,14.893,14.893,0,0,0,339.831,17.06" transform="translate(180.199 0.988)" fill="#ffed01"/>
    <path id="Trazado_161478" data-name="Trazado 161478" d="M369.03,16.835a14.55,14.55,0,1,1-14.55-14.55,14.567,14.567,0,0,1,14.55,14.55m-28.775,0A14.225,14.225,0,1,0,354.48,2.61a14.242,14.242,0,0,0-14.225,14.225" transform="translate(180.424 1.213)" fill="#ffed01"/>
    <path id="Trazado_161479" data-name="Trazado 161479" d="M368.156,16.61a13.9,13.9,0,1,1-13.9-13.9,13.917,13.917,0,0,1,13.9,13.9m-27.477,0A13.576,13.576,0,1,0,354.255,3.034,13.591,13.591,0,0,0,340.679,16.61" transform="translate(180.649 1.438)" fill="#ffed01"/>
    <path id="Trazado_161480" data-name="Trazado 161480" d="M367.28,16.384a13.25,13.25,0,1,1-13.25-13.25,13.266,13.266,0,0,1,13.25,13.25m-26.176,0A12.926,12.926,0,1,0,354.029,3.459,12.942,12.942,0,0,0,341.1,16.384" transform="translate(180.875 1.664)" fill="#ffed01"/>
    <path id="Trazado_161481" data-name="Trazado 161481" d="M366.407,16.159a12.6,12.6,0,1,1-12.6-12.6,12.617,12.617,0,0,1,12.6,12.6m-24.88,0A12.277,12.277,0,1,0,353.8,3.883a12.291,12.291,0,0,0-12.277,12.277" transform="translate(181.1 1.889)" fill="#ffed01"/>
    <path id="Trazado_161482" data-name="Trazado 161482" d="M365.531,15.934A11.952,11.952,0,1,1,353.579,3.982a11.965,11.965,0,0,1,11.952,11.952m-23.58,0A11.628,11.628,0,1,0,353.579,4.307a11.641,11.641,0,0,0-11.628,11.628" transform="translate(181.325 2.114)" fill="#ffed01"/>
    <path id="Trazado_161483" data-name="Trazado 161483" d="M364.656,15.709a11.3,11.3,0,1,1-11.3-11.3,11.315,11.315,0,0,1,11.3,11.3m-22.28,0A10.978,10.978,0,1,0,353.354,4.731a10.99,10.99,0,0,0-10.979,10.979" transform="translate(181.55 2.339)" fill="#ffed01"/>
    <path id="Trazado_161484" data-name="Trazado 161484" d="M363.783,15.484A10.653,10.653,0,1,1,353.129,4.831a10.666,10.666,0,0,1,10.654,10.653m-20.982,0A10.328,10.328,0,1,0,353.129,5.156,10.341,10.341,0,0,0,342.8,15.484" transform="translate(181.775 2.565)" fill="#ffed01"/>
    <path id="Trazado_161485" data-name="Trazado 161485" d="M362.907,15.259a10,10,0,1,1-10-10,10.016,10.016,0,0,1,10,10m-19.683,0A9.679,9.679,0,1,0,352.9,5.58a9.69,9.69,0,0,0-9.679,9.679" transform="translate(182 2.79)" fill="#ffed01"/>
    <path id="Trazado_161486" data-name="Trazado 161486" d="M362.033,15.034a9.354,9.354,0,1,1-9.354-9.355,9.364,9.364,0,0,1,9.354,9.355m-18.384,0A9.03,9.03,0,1,0,352.679,6a9.04,9.04,0,0,0-9.03,9.03" transform="translate(182.225 3.015)" fill="#ffed01"/>
    <path id="Trazado_161487" data-name="Trazado 161487" d="M361.159,14.808A8.706,8.706,0,1,1,352.453,6.1a8.716,8.716,0,0,1,8.706,8.705m-17.086,0a8.38,8.38,0,1,0,8.381-8.381,8.39,8.39,0,0,0-8.381,8.381" transform="translate(182.45 3.24)" fill="#ffed01"/>
    <path id="Trazado_161488" data-name="Trazado 161488" d="M360.283,14.583a8.056,8.056,0,1,1-8.056-8.055,8.066,8.066,0,0,1,8.056,8.055m-15.787,0a7.731,7.731,0,1,0,7.73-7.73,7.741,7.741,0,0,0-7.73,7.73" transform="translate(182.675 3.465)" fill="#ffed01"/>
    <path id="Trazado_161489" data-name="Trazado 161489" d="M359.41,14.358A7.407,7.407,0,1,1,352,6.952a7.416,7.416,0,0,1,7.407,7.406m-14.489,0A7.081,7.081,0,1,0,352,7.277a7.09,7.09,0,0,0-7.081,7.081" transform="translate(182.901 3.691)" fill="#ffed01"/>
    <path id="Trazado_161490" data-name="Trazado 161490" d="M358.535,14.133a6.757,6.757,0,1,1-6.757-6.757,6.764,6.764,0,0,1,6.757,6.757m-13.189,0A6.432,6.432,0,1,0,351.778,7.7a6.44,6.44,0,0,0-6.432,6.432" transform="translate(183.126 3.916)" fill="#ffed01"/>
    <path id="Trazado_161491" data-name="Trazado 161491" d="M357.659,13.908A6.107,6.107,0,1,1,351.553,7.8a6.114,6.114,0,0,1,6.106,6.108m-11.889,0a5.782,5.782,0,1,0,5.783-5.783,5.79,5.79,0,0,0-5.783,5.783" transform="translate(183.351 4.141)" fill="#ffed01"/>
    <path id="Trazado_161492" data-name="Trazado 161492" d="M356.786,13.682a5.458,5.458,0,1,1-5.459-5.457,5.466,5.466,0,0,1,5.459,5.457m-10.591,0a5.133,5.133,0,1,0,5.133-5.133,5.14,5.14,0,0,0-5.133,5.133" transform="translate(183.577 4.366)" fill="#ffed01"/>
    <path id="Trazado_161493" data-name="Trazado 161493" d="M355.911,13.457a4.809,4.809,0,1,1-4.81-4.808,4.816,4.816,0,0,1,4.81,4.808m-9.293,0A4.484,4.484,0,1,0,351.1,8.974a4.49,4.49,0,0,0-4.484,4.484" transform="translate(183.801 4.591)" fill="#ffed01"/>
    <path id="Trazado_161494" data-name="Trazado 161494" d="M355.036,13.232a4.159,4.159,0,1,1-4.159-4.159,4.164,4.164,0,0,1,4.159,4.159m-7.994,0A3.835,3.835,0,1,0,350.877,9.4a3.839,3.839,0,0,0-3.835,3.835" transform="translate(184.027 4.816)" fill="#ffed01"/>
    <path id="Trazado_161495" data-name="Trazado 161495" d="M354.162,13.007a3.51,3.51,0,1,1-3.51-3.51,3.515,3.515,0,0,1,3.51,3.51m-6.7,0a3.185,3.185,0,1,0,3.186-3.186,3.189,3.189,0,0,0-3.186,3.186" transform="translate(184.252 5.041)" fill="#ffed01"/>
    <path id="Trazado_161496" data-name="Trazado 161496" d="M353.286,12.781a2.86,2.86,0,1,1-2.861-2.859,2.863,2.863,0,0,1,2.861,2.859m-5.4,0a2.536,2.536,0,1,0,2.535-2.535,2.538,2.538,0,0,0-2.535,2.535" transform="translate(184.477 5.267)" fill="#ffed01"/>
    <path id="Trazado_161497" data-name="Trazado 161497" d="M352.413,12.556a2.211,2.211,0,1,1-2.212-2.21,2.215,2.215,0,0,1,2.212,2.21m-4.1,0a1.886,1.886,0,1,0,1.886-1.886,1.889,1.889,0,0,0-1.886,1.886" transform="translate(184.702 5.492)" fill="#ffed01"/>
    <path id="Trazado_161498" data-name="Trazado 161498" d="M351.538,12.331a1.561,1.561,0,1,1-1.561-1.561,1.563,1.563,0,0,1,1.561,1.561m-2.8,0a1.237,1.237,0,1,0,1.237-1.237,1.237,1.237,0,0,0-1.237,1.237" transform="translate(184.928 5.717)" fill="#ffed01"/>
    <path id="Trazado_161499" data-name="Trazado 161499" d="M396.64,17.511a16.5,16.5,0,1,1-16.5-16.5,16.517,16.517,0,0,1,16.5,16.5m-32.671,0A16.173,16.173,0,1,0,380.141,1.337a16.191,16.191,0,0,0-16.173,16.174" transform="translate(193.011 0.538)" fill="#1d1d1b"/>
    <path id="Trazado_161500" data-name="Trazado 161500" d="M395.766,17.285A15.849,15.849,0,1,1,379.918,1.437a15.868,15.868,0,0,1,15.848,15.848m-31.373,0A15.524,15.524,0,1,0,379.918,1.762a15.542,15.542,0,0,0-15.525,15.524" transform="translate(193.236 0.763)" fill="#1d1d1b"/>
    <path id="Trazado_161501" data-name="Trazado 161501" d="M394.89,17.06a15.2,15.2,0,1,1-15.2-15.2,15.217,15.217,0,0,1,15.2,15.2m-30.073,0A14.874,14.874,0,1,0,379.691,2.186,14.893,14.893,0,0,0,364.817,17.06" transform="translate(193.461 0.988)" fill="#1d1d1b"/>
    <path id="Trazado_161502" data-name="Trazado 161502" d="M394.017,16.835a14.55,14.55,0,1,1-14.55-14.55,14.567,14.567,0,0,1,14.55,14.55m-28.775,0A14.225,14.225,0,1,0,379.467,2.61a14.242,14.242,0,0,0-14.225,14.225" transform="translate(193.686 1.213)" fill="#1d1d1b"/>
    <path id="Trazado_161503" data-name="Trazado 161503" d="M393.143,16.61a13.9,13.9,0,1,1-13.9-13.9,13.917,13.917,0,0,1,13.9,13.9m-27.477,0A13.576,13.576,0,1,0,379.242,3.034,13.591,13.591,0,0,0,365.666,16.61" transform="translate(193.911 1.438)" fill="#1d1d1b"/>
    <path id="Trazado_161504" data-name="Trazado 161504" d="M392.267,16.384a13.251,13.251,0,1,1-13.252-13.25,13.267,13.267,0,0,1,13.252,13.25m-26.178,0A12.927,12.927,0,1,0,379.015,3.459,12.942,12.942,0,0,0,366.09,16.384" transform="translate(194.136 1.664)" fill="#1d1d1b"/>
    <path id="Trazado_161505" data-name="Trazado 161505" d="M391.394,16.159a12.6,12.6,0,1,1-12.6-12.6,12.617,12.617,0,0,1,12.6,12.6m-24.88,0A12.277,12.277,0,1,0,378.791,3.883a12.291,12.291,0,0,0-12.277,12.277" transform="translate(194.362 1.889)" fill="#1d1d1b"/>
    <path id="Trazado_161506" data-name="Trazado 161506" d="M390.518,15.934A11.952,11.952,0,1,1,378.566,3.982a11.965,11.965,0,0,1,11.952,11.952m-23.58,0A11.628,11.628,0,1,0,378.566,4.307a11.641,11.641,0,0,0-11.628,11.628" transform="translate(194.587 2.114)" fill="#1d1d1b"/>
    <path id="Trazado_161507" data-name="Trazado 161507" d="M389.643,15.709a11.3,11.3,0,1,1-11.3-11.3,11.315,11.315,0,0,1,11.3,11.3m-22.28,0A10.978,10.978,0,1,0,378.34,4.731a10.99,10.99,0,0,0-10.977,10.979" transform="translate(194.812 2.339)" fill="#1d1d1b"/>
    <path id="Trazado_161508" data-name="Trazado 161508" d="M388.769,15.484A10.653,10.653,0,1,1,378.116,4.831a10.665,10.665,0,0,1,10.653,10.653m-20.982,0a10.329,10.329,0,1,0,10.33-10.328,10.341,10.341,0,0,0-10.33,10.328" transform="translate(195.037 2.565)" fill="#1d1d1b"/>
    <path id="Trazado_161509" data-name="Trazado 161509" d="M387.894,15.259a10,10,0,1,1-10-10,10.016,10.016,0,0,1,10,10m-19.683,0a9.679,9.679,0,1,0,9.679-9.679,9.69,9.69,0,0,0-9.679,9.679" transform="translate(195.263 2.79)" fill="#1d1d1b"/>
    <path id="Trazado_161510" data-name="Trazado 161510" d="M387.02,15.034a9.355,9.355,0,1,1-9.355-9.355,9.365,9.365,0,0,1,9.355,9.355m-18.385,0A9.03,9.03,0,1,0,377.665,6a9.04,9.04,0,0,0-9.03,9.03" transform="translate(195.488 3.015)" fill="#1d1d1b"/>
    <path id="Trazado_161511" data-name="Trazado 161511" d="M386.146,14.808A8.705,8.705,0,1,1,377.44,6.1a8.716,8.716,0,0,1,8.706,8.705m-17.086,0a8.38,8.38,0,1,0,8.381-8.381,8.39,8.39,0,0,0-8.381,8.381" transform="translate(195.713 3.24)" fill="#1d1d1b"/>
    <path id="Trazado_161512" data-name="Trazado 161512" d="M385.27,14.583a8.056,8.056,0,1,1-8.056-8.055,8.066,8.066,0,0,1,8.056,8.055m-15.787,0a7.731,7.731,0,1,0,7.73-7.73,7.74,7.74,0,0,0-7.73,7.73" transform="translate(195.938 3.465)" fill="#1d1d1b"/>
    <path id="Trazado_161513" data-name="Trazado 161513" d="M384.4,14.358a7.407,7.407,0,1,1-7.407-7.406,7.416,7.416,0,0,1,7.407,7.406m-14.489,0a7.081,7.081,0,1,0,7.081-7.081,7.09,7.09,0,0,0-7.081,7.081" transform="translate(196.163 3.691)" fill="#1d1d1b"/>
    <path id="Trazado_161514" data-name="Trazado 161514" d="M383.522,14.133a6.757,6.757,0,1,1-6.757-6.757,6.764,6.764,0,0,1,6.757,6.757m-13.189,0A6.432,6.432,0,1,0,376.765,7.7a6.44,6.44,0,0,0-6.432,6.432" transform="translate(196.388 3.916)" fill="#1d1d1b"/>
    <path id="Trazado_161515" data-name="Trazado 161515" d="M382.646,13.908A6.107,6.107,0,1,1,376.538,7.8a6.114,6.114,0,0,1,6.108,6.108m-11.889,0a5.782,5.782,0,1,0,5.782-5.783,5.79,5.79,0,0,0-5.782,5.783" transform="translate(196.613 4.141)" fill="#1d1d1b"/>
    <path id="Trazado_161516" data-name="Trazado 161516" d="M381.772,13.682a5.458,5.458,0,1,1-5.457-5.457,5.464,5.464,0,0,1,5.457,5.457m-10.591,0a5.133,5.133,0,1,0,5.134-5.133,5.14,5.14,0,0,0-5.134,5.133" transform="translate(196.838 4.366)" fill="#1d1d1b"/>
    <path id="Trazado_161517" data-name="Trazado 161517" d="M380.9,13.457a4.809,4.809,0,1,1-4.81-4.808,4.816,4.816,0,0,1,4.81,4.808m-9.293,0a4.484,4.484,0,1,0,4.484-4.484,4.49,4.49,0,0,0-4.484,4.484" transform="translate(197.064 4.591)" fill="#1d1d1b"/>
    <path id="Trazado_161518" data-name="Trazado 161518" d="M380.023,13.232a4.159,4.159,0,1,1-4.159-4.159,4.164,4.164,0,0,1,4.159,4.159m-7.994,0A3.835,3.835,0,1,0,375.864,9.4a3.839,3.839,0,0,0-3.835,3.835" transform="translate(197.289 4.816)" fill="#1d1d1b"/>
    <path id="Trazado_161519" data-name="Trazado 161519" d="M379.149,13.007a3.51,3.51,0,1,1-3.51-3.51,3.515,3.515,0,0,1,3.51,3.51m-6.7,0a3.185,3.185,0,1,0,3.185-3.186,3.189,3.189,0,0,0-3.185,3.186" transform="translate(197.514 5.041)" fill="#1d1d1b"/>
    <path id="Trazado_161520" data-name="Trazado 161520" d="M378.273,12.781a2.86,2.86,0,1,1-2.861-2.859,2.863,2.863,0,0,1,2.861,2.859m-5.4,0a2.536,2.536,0,1,0,2.535-2.535,2.538,2.538,0,0,0-2.535,2.535" transform="translate(197.739 5.267)" fill="#1d1d1b"/>
    <path id="Trazado_161521" data-name="Trazado 161521" d="M377.4,12.556a2.211,2.211,0,1,1-2.212-2.21,2.214,2.214,0,0,1,2.212,2.21m-4.1,0a1.886,1.886,0,1,0,1.886-1.886,1.889,1.889,0,0,0-1.886,1.886" transform="translate(197.965 5.492)" fill="#1d1d1b"/>
    <path id="Trazado_161522" data-name="Trazado 161522" d="M376.525,12.331a1.561,1.561,0,1,1-1.561-1.561,1.563,1.563,0,0,1,1.561,1.561m-2.8,0a1.237,1.237,0,1,0,1.237-1.237,1.237,1.237,0,0,0-1.237,1.237" transform="translate(198.19 5.717)" fill="#1d1d1b"/>
    <rect id="Rectángulo_39906" data-name="Rectángulo 39906" width="29.631" height="29.631" transform="translate(112.948 3.556)" fill="#d91380"/>
    <rect id="Rectángulo_39907" data-name="Rectángulo 39907" width="29.631" height="29.631" transform="translate(145.279 3.556)" fill="#eea5c9"/>
    <rect id="Rectángulo_39908" data-name="Rectángulo 39908" width="29.631" height="29.631" transform="translate(49.635 3.556)" fill="#5d6667"/>
    <rect id="Rectángulo_39909" data-name="Rectángulo 39909" width="29.631" height="29.631" transform="translate(81.966 3.556)" fill="#199ddb"/>
    <rect id="Rectángulo_39910" data-name="Rectángulo 39910" width="29.631" height="29.631" transform="translate(177.61 3.556)" fill="#f6d5e7"/>
    <rect id="Rectángulo_39911" data-name="Rectángulo 39911" width="29.631" height="29.631" transform="translate(209.943 3.556)" fill="#fff"/>
    <rect id="Rectángulo_39912" data-name="Rectángulo 39912" width="29.631" height="29.631" transform="translate(242.275 3.556)"/>
    <rect id="Rectángulo_39913" data-name="Rectángulo 39913" width="29.631" height="29.631" transform="translate(274.606 3.556)" fill="#fff685"/>
    <rect id="Rectángulo_39914" data-name="Rectángulo 39914" width="29.631" height="29.631" transform="translate(306.937 3.556)" fill="#fff89f"/>
    <rect id="Rectángulo_39915" data-name="Rectángulo 39915" width="29.631" height="29.631" transform="translate(339.269 3.556)" fill="#fff9b9"/>
    <rect id="Rectángulo_39916" data-name="Rectángulo 39916" width="29.631" height="29.631" transform="translate(371.6 3.556)" fill="#fffbd4"/>
    <rect id="Rectángulo_39917" data-name="Rectángulo 39917" width="29.631" height="29.631" transform="translate(403.931 3.556)" fill="#fffdee"/>
    <path id="Trazado_161523" data-name="Trazado 161523" d="M14.958,2.649A12.322,12.322,0,0,0,2.649,14.956l12.309,0Z" transform="translate(1.406 1.407)" fill="#00adef"/>
    <path id="Trazado_161524" data-name="Trazado 161524" d="M15.461,15.459H2.405v-.372A12.7,12.7,0,0,1,15.086,2.406h.375Zm-12.3-.745H14.712V3.158A11.946,11.946,0,0,0,3.16,14.713" transform="translate(1.276 1.278)" fill="#1d1d1b"/>
    <path id="Trazado_161525" data-name="Trazado 161525" d="M23,14.958A12.322,12.322,0,0,0,10.692,2.649l0,12.309Z" transform="translate(5.674 1.407)" fill="#e6017f"/>
    <path id="Trazado_161526" data-name="Trazado 161526" d="M23.5,15.459H10.446V2.406h.374A12.7,12.7,0,0,1,23.5,15.087Zm-12.309-.745H22.749A11.948,11.948,0,0,0,11.195,3.158Z" transform="translate(5.544 1.278)" fill="#1d1d1b"/>
    <path id="Trazado_161527" data-name="Trazado 161527" d="M14.958,23V10.69H2.649A12.323,12.323,0,0,0,14.958,23" transform="translate(1.406 5.675)" fill="#1d1d1b"/>
    <path id="Trazado_161528" data-name="Trazado 161528" d="M15.461,23.5h-.375A12.7,12.7,0,0,1,2.405,10.818v-.372H15.461ZM3.16,11.191A11.945,11.945,0,0,0,14.712,22.747V11.191Z" transform="translate(1.276 5.545)" fill="#1d1d1b"/>
    <path id="Trazado_161529" data-name="Trazado 161529" d="M10.69,23A12.322,12.322,0,0,0,23,10.69H10.69Z" transform="translate(5.674 5.675)" fill="#ffed01"/>
    <path id="Trazado_161530" data-name="Trazado 161530" d="M10.821,23.5h-.374l0-.374V10.446H23.5v.372A12.7,12.7,0,0,1,10.821,23.5m.372-12.309V22.747A11.95,11.95,0,0,0,22.749,11.191Z" transform="translate(5.544 5.545)" fill="#1d1d1b"/>
    <rect id="Rectángulo_39918" data-name="Rectángulo 39918" width="0.747" height="32.726" transform="translate(15.99 0)" fill="#1d1d1b"/>
    <rect id="Rectángulo_39919" data-name="Rectángulo 39919" width="32.726" height="0.745" transform="translate(0 15.99)" fill="#1d1d1b"/>
  </g>
</svg>
