<svg id="Grupo_144158" data-name="Grupo 144158" xmlns="http://www.w3.org/2000/svg" xmlns:xlink="http://www.w3.org/1999/xlink" width="196.19" height="196.19" viewBox="0 0 196.19 196.19">
  <defs>
    <clipPath id="clip-path">
      <rect id="Rectángulo_39675" data-name="Rectángulo 39675" width="196.19" height="196.19" fill="none"/>
    </clipPath>
  </defs>
  <g id="Grupo_144157" data-name="Grupo 144157" clip-path="url(#clip-path)">
    <path id="Trazado_160914" data-name="Trazado 160914" d="M0,97.883q0-45.751,0-91.5C0,1.422,1.4,0,6.282,0Q31.246,0,56.211,0c4.8,0,6.262,1.441,6.263,6.193q0,62.359,0,124.718c0,2.8,0,2.8,2.9,2.8h124.3c5.2,0,6.51,1.328,6.51,6.573q0,24.755,0,49.511c0,4.957-1.406,6.389-6.28,6.389H6.279C1.4,196.19,0,194.76,0,189.8q0-45.96,0-91.92" transform="translate(0 0)" fill="#353535"/>
    <path id="Trazado_160915" data-name="Trazado 160915" d="M295.187,62.7a62.476,62.476,0,0,1-62.9,62.137c-34.276-.09-62.04-28.276-61.928-62.867C170.469,27.9,198.786-.208,232.793,0a62.622,62.622,0,0,1,62.395,62.7" transform="translate(-99.005 -0.001)" fill="#353535"/>
    <path id="Trazado_160916" data-name="Trazado 160916" d="M21.872,127.632a32.068,32.068,0,0,1,6.629-.194c11.827-.013,23.655.062,35.482.015,1.682-.007,2.258.361,2.243,2.158-.086,10.575-.063,21.152-.017,31.727.006,1.369-.261,1.948-1.808,1.945-13.776-.034-27.551.014-41.327.027a7.1,7.1,0,0,1-1.2-.2c1.072-1.3,2.562-.8,3.882-.825,4.392-.088,4.157.312,4.16-4.222q.008-13.315,0-26.631c0-2.827-.123-2.835-2.908-2.982-1.722-.091-3.62.665-5.131-.816" transform="translate(-12.711 -74.017)" fill="#fe8e7f"/>
    <path id="Trazado_160917" data-name="Trazado 160917" d="M41.707,21.555c11.348-.026,22.7-.025,34.044-.11,1.618-.012,1.566.844,1.564,1.966-.018,9.331,0,18.661-.022,27.991-.005,1.8.758,4.138-.308,5.25-1.174,1.224-3.561.395-5.411.4-9.956.023-19.912-.024-29.868-.047a3.562,3.562,0,0,1-.666-2.748q-.03-14.972,0-29.943a3.8,3.8,0,0,1,.671-2.758" transform="translate(-23.842 -12.463)" fill="#fe4c29"/>
    <path id="Trazado_160918" data-name="Trazado 160918" d="M41.695,234.245c11.411-.022,22.823-.031,34.234-.088,1.1-.005,1.417.339,1.413,1.422q-.05,16.388,0,32.777c0,1.056-.278,1.462-1.4,1.456-11.41-.065-22.82-.084-34.23-.116a3.8,3.8,0,0,1-.671-2.758q-.022-14.97,0-29.941a3.6,3.6,0,0,1,.655-2.752" transform="translate(-23.842 -136.082)" fill="#febbb2"/>
    <path id="Trazado_160919" data-name="Trazado 160919" d="M382,340.782c8.42-.03,16.84-.022,25.259-.123,1.709-.021,1.479.975,1.479,2.015,0,12.181.019,24.362-.023,36.542-.007,1.919.861,4.386-.4,5.612-1.151,1.12-3.579.323-5.441.325-6.958.007-13.916-.046-20.874-.077a3.3,3.3,0,0,1-.772-2.721q-.028-19.427,0-38.854a3.3,3.3,0,0,1,.772-2.72" transform="translate(-221.547 -197.976)" fill="#00c2fe"/>
    <path id="Trazado_160920" data-name="Trazado 160920" d="M276.1,340.808c8.483-.034,16.966-.057,25.448-.118,1.053-.008,1.269.462,1.267,1.39q-.027,20.868,0,41.735c0,.929-.215,1.4-1.267,1.39-8.483-.062-16.966-.084-25.448-.118a4,4,0,0,1-.615-2.781q-.021-19.359,0-38.717a4,4,0,0,1,.615-2.781" transform="translate(-160.092 -197.994)" fill="#7fe6fe"/>
    <path id="Trazado_160921" data-name="Trazado 160921" d="M169.406,340.794c8.483-.033,16.966-.053,25.448-.116.984-.008,1.315.278,1.313,1.291q-.043,20.971,0,41.943c0,1.013-.329,1.3-1.313,1.291-8.482-.063-16.966-.084-25.448-.116a3.808,3.808,0,0,1-.673-2.764q-.021-19.382,0-38.763a3.807,3.807,0,0,1,.673-2.764" transform="translate(-98.054 -197.987)" fill="#b2f0fe"/>
    <path id="Trazado_160922" data-name="Trazado 160922" d="M41.678,340.795c11.416-.032,22.833-.05,34.25-.116,1.148-.007,1.382.447,1.381,1.478q-.037,20.784,0,41.569c0,1.03-.233,1.484-1.381,1.478-11.416-.066-22.833-.085-34.25-.116a2.258,2.258,0,0,1-.6-1.519c-.014-5.827-.291-11.656.14-17.475.249-.578.563-1.08,1.134-.3a9.329,9.329,0,0,1,.83,1.91c2.248,5.221,6.314,7.967,11.892,7.992,5.52.025,9.5-2.735,11.743-7.852a11.789,11.789,0,0,0-2.4-13.571A12.657,12.657,0,0,0,43.379,357.7a20.575,20.575,0,0,1-.98,2.3c-.44.736-.846.567-1.15-.148-.484-5.85-.181-11.705-.172-17.557a2.237,2.237,0,0,1,.6-1.506" transform="translate(-23.813 -197.988)" fill="#d0d2d3"/>
    <path id="Trazado_160923" data-name="Trazado 160923" d="M264.376,340.773q0,22.139,0,44.278c-2.361.037-4.727-.012-7.081.141-1.539.1-2-.336-1.992-1.941.076-10.917.04-21.834.04-32.751,0-2.712.077-5.427-.032-8.134-.057-1.411.424-1.8,1.775-1.728,2.426.127,4.859.1,7.29.136" transform="translate(-148.372 -197.959)" fill="#fefefe"/>
    <path id="Trazado_160924" data-name="Trazado 160924" d="M30.381,365.31,30.3,385.057c-2.429.034-4.862,0-7.286.13-1.308.071-1.629-.362-1.62-1.634.057-7.992.028-15.986.028-23.979,0-5.769.037-11.538-.029-17.307-.015-1.273.312-1.7,1.62-1.634,2.424.131,4.857.1,7.286.13q.041,9.871.081,19.743a5.184,5.184,0,0,1,0,4.8" transform="translate(-12.431 -197.958)" fill="#fefefe"/>
    <path id="Trazado_160925" data-name="Trazado 160925" d="M158,340.764v44.292c-2.429.034-4.862,0-7.286.13-1.308.071-1.629-.361-1.62-1.633.057-7.993.028-15.986.028-23.979,0-5.769.038-11.539-.029-17.307-.015-1.273.313-1.7,1.62-1.634,2.424.131,4.857.1,7.286.131" transform="translate(-86.644 -197.958)" fill="#fefefe"/>
    <path id="Trazado_160926" data-name="Trazado 160926" d="M370.731,340.763v44.295c-2.361.034-4.729-.02-7.083.133-1.48.1-1.838-.382-1.827-1.833.068-9.18.034-18.361.034-27.542,0-4.521.049-9.043-.031-13.562-.023-1.284.316-1.691,1.615-1.62,2.426.131,4.861.1,7.292.129" transform="translate(-210.275 -197.957)" fill="#fefefe"/>
    <path id="Trazado_160927" data-name="Trazado 160927" d="M30.295,234.252q.006,17.725.013,35.45c-2.573.034-5.146.038-7.718.117-.936.029-1.174-.344-1.172-1.22q.032-16.606-.008-33.213c0-1.1.467-1.237,1.371-1.215,2.5.062,5.01.059,7.515.081" transform="translate(-12.442 -136.089)" fill="#fefefe"/>
    <path id="Trazado_160928" data-name="Trazado 160928" d="M30.315,21.544q0,17.725,0,35.449c-2.565.023-5.131.017-7.695.083-.89.023-1.2-.25-1.2-1.169q.039-16.648,0-33.3c0-.914.308-1.209,1.2-1.183,2.562.074,5.126.082,7.689.116" transform="translate(-12.45 -12.452)" fill="#fefefe"/>
    <path id="Trazado_160929" data-name="Trazado 160929" d="M21.631,128.007c2.364.031,4.729.1,7.092.077,1.086-.012,1.64.2,1.635,1.478q-.062,16.183,0,32.366c0,1.278-.552,1.489-1.636,1.477-2.364-.027-4.728.044-7.091.076-.057-.752-.164-1.5-.165-2.258q-.016-15.478,0-30.956c0-.754.108-1.507.165-2.26" transform="translate(-12.47 -74.392)" fill="#fefefe"/>
    <path id="Trazado_160930" data-name="Trazado 160930" d="M377.907,159.569c4.526,0,9.052.048,13.576-.026,1.53-.025,2.144.115,1.891,2.009-1.985,14.888-8.936,26.867-20.685,36.154-1.361,1.075-2.022,1.3-3.031-.512-4.474-8.014-9.1-15.943-13.748-23.86-.676-1.151-.707-1.811.317-2.792a19.721,19.721,0,0,0,5.514-9.431c.349-1.358.98-1.573,2.172-1.561,4.664.047,9.329.019,13.994.019" transform="translate(-206.559 -92.718)" fill="#fee429"/>
    <path id="Trazado_160931" data-name="Trazado 160931" d="M377.644,84.372c-4.665,0-9.332-.038-14,.027-1.182.016-1.656-.32-1.973-1.512a19.883,19.883,0,0,0-5.663-9.579c-.921-.862-.849-1.473-.266-2.472,4.7-8.051,9.385-16.111,13.962-24.232.885-1.57,1.471-1.444,2.724-.467a53.365,53.365,0,0,1,20.95,36.9c.162,1.308-.351,1.354-1.323,1.349-4.8-.023-9.61-.01-14.415-.01" transform="translate(-206.493 -26.392)" fill="#fe992c"/>
    <path id="Trazado_160932" data-name="Trazado 160932" d="M268.021,224.891q6.988-12.2,13.962-24.411c.452-.8.924-.779,1.691-.543a18.7,18.7,0,0,0,11.486.039c1.436-.465,1.794.341,2.334,1.278,4.574,7.95,9.134,15.908,13.8,23.8.888,1.5.6,2.056-.909,2.685a52.87,52.87,0,0,1-32.643,2.937c-.585-.132-1.274.052-1.762-.461a39.394,39.394,0,0,1-6.5-3.736c-.577-.443-1.365-.7-1.458-1.593" transform="translate(-155.762 -116.112)" fill="#6dfe29"/>
    <path id="Trazado_160933" data-name="Trazado 160933" d="M275.712,23.636c2.821-1.553,5.988-1.719,9.057-1.982A53.082,53.082,0,0,1,310.453,25.7c1.445.614,1.881,1.022.952,2.588-4.751,8.01-9.382,16.09-14.009,24.173-.568.993-1.027,1.353-2.262.974a18.858,18.858,0,0,0-11.287.031c-.862.266-1.381.262-1.872-.6Q275.067,40.727,268.1,28.624c1.428-2.248,3.858-3.158,5.982-4.476.556-.127,1.025-.534,1.628-.513" transform="translate(-155.809 -12.462)" fill="#fe4c29"/>
    <path id="Trazado_160934" data-name="Trazado 160934" d="M212.693,159.691c7.1-.037,14.191-.059,21.286-.13a1.394,1.394,0,0,1,1.6,1.219,20.8,20.8,0,0,0,5.927,10.118,1.3,1.3,0,0,1,.287,1.929q-6.606,11.226-13.135,22.5c-.892.028-1.357-.623-1.852-1.2a59.074,59.074,0,0,1-14.475-32.495c-.079-.687-.274-1.39.359-1.943" transform="translate(-123.346 -92.73)" fill="#00c2fe"/>
    <path id="Trazado_160935" data-name="Trazado 160935" d="M228.648,53.111q6.547,11.264,13.108,22.519a1.3,1.3,0,0,1-.247,1.935,20.583,20.583,0,0,0-5.953,10.1,1.375,1.375,0,0,1-1.6,1.2c-7.1-.058-14.195-.065-21.293-.088a1.623,1.623,0,0,1-.447-1.533c1.529-12.5,6.2-23.6,14.768-32.939a3.028,3.028,0,0,1,1.66-1.195" transform="translate(-123.318 -30.866)" fill="#ba29fe"/>
    <path id="Trazado_160936" data-name="Trazado 160936" d="M314.067,130.564a13.358,13.358,0,0,1-13.359,13.415,13.5,13.5,0,0,1-13.364-13.266,13.362,13.362,0,1,1,26.723-.149" transform="translate(-166.991 -68.143)" fill="#fefefe"/>
    <path id="Trazado_160937" data-name="Trazado 160937" d="M201.158,159.67A58.128,58.128,0,0,0,217.125,195.3c-2.514,4.632-1.535,4.312-5.329,1.206-11.092-9.082-17.411-20.87-19.344-35.056-.193-1.415.025-2.022,1.623-1.917,2.353.155,4.721.1,7.082.134" transform="translate(-111.811 -92.709)" fill="#fefefe"/>
    <path id="Trazado_160938" data-name="Trazado 160938" d="M217.122,48.453a58.973,58.973,0,0,0-14.011,24.6,60.128,60.128,0,0,0-1.97,11.068c-2.433.023-4.872-.039-7.3.1-1.4.08-1.592-.428-1.432-1.662a53.545,53.545,0,0,1,14.029-30.317,55.287,55.287,0,0,1,7.291-6.539c.961-.725,1.572-1.013,2.115.37a21.644,21.644,0,0,0,1.278,2.381" transform="translate(-111.792 -26.208)" fill="#fefefe"/>
    <path id="Trazado_160939" data-name="Trazado 160939" d="M266.735,259.712l7.959,5.329a68.539,68.539,0,0,1-7.237-2.426c-1.957-.692-2.139-1.522-.722-2.9" transform="translate(-154.476 -150.934)" fill="#f7f9f6"/>
    <path id="Trazado_160940" data-name="Trazado 160940" d="M273.058,27.812,266.762,32c-1.537-1.463-1.21-2.372.774-2.995a37.177,37.177,0,0,1,4.629-1.6c.454-.2.866-.317.893.409" transform="translate(-154.47 -15.836)" fill="#faf6f6"/>
    <path id="Trazado_160941" data-name="Trazado 160941" d="M281.894,27.115,281,26.706c.7-.328,1.333-1.042,2.207-.393a2.222,2.222,0,0,1-1.314.8" transform="translate(-163.306 -15.139)" fill="#d6c6c3"/>
    <path id="Trazado_160942" data-name="Trazado 160942" d="M42.852,377.707q0-2.4,0-4.8c1.475-5.339,4.561-9.179,10.12-10.555a13.359,13.359,0,1,1-9.522,17.115c-.2-.586-.4-1.171-.6-1.756" transform="translate(-24.902 -210.355)" fill="#353535"/>
    <path id="Trazado_160943" data-name="Trazado 160943" d="M72.835,387.575a4.471,4.471,0,1,1-4.4-4.437,4.586,4.586,0,0,1,4.4,4.437" transform="translate(-37.132 -222.663)" fill="#fdfdfd"/>
  </g>
</svg>
