<svg id="Grupo_144156" data-name="Grupo 144156" xmlns="http://www.w3.org/2000/svg" xmlns:xlink="http://www.w3.org/1999/xlink" width="213.337" height="156.063" viewBox="0 0 213.337 156.063">
  <defs>
    <clipPath id="clip-path">
      <rect id="Rectángulo_39674" data-name="Rectángulo 39674" width="213.337" height="156.064" fill="none"/>
    </clipPath>
  </defs>
  <g id="Grupo_144155" data-name="Grupo 144155" clip-path="url(#clip-path)">
    <path id="Trazado_160898" data-name="Trazado 160898" d="M213.337,112.642c-1.017,3.341-1.294,6.857-2.488,10.165q-9.265,25.644-35.726,32.131c-2.046.506-3.309-.5-4.014-2.359-.52-2.119.337-3.553,2.731-4.234a51.5,51.5,0,0,0,7.67-2.63c13.991-6.486,22.069-17.4,24.641-32.561,1.109-6.534-.483-12.68-2.222-18.836a174.414,174.414,0,0,0-6.771-18.565c-2.679-6.86-5.814-13.525-9.02-20.142-6.146-12.685-12.475-25.283-19.314-37.616-1.34-2.416-2.606-4.872-4.01-7.326-8.434,15.467-16.752,30.857-24.119,46.739a3.553,3.553,0,0,0-.091,3.728,290.084,290.084,0,0,1,11.13,27.733c.822,2.5,1.519,5.037,2.207,7.575.669,2.466-.212,4.011-2.7,5.009-2.687-.057-3.72-.863-4.544-3.888a196.4,196.4,0,0,0-7.966-22.321c-.984-2.12-1.725-4.353-2.8-6.339-.282-.046-.442-.022-.5.106A198.93,198.93,0,0,0,124.7,97.617c-2.843,10.168-1.6,19.9,3.175,29.236a41.374,41.374,0,0,0,6.249,9.022c1.01,1.165,1.728,1.343,2.961.053a40.38,40.38,0,0,0,10.68-21.645c.117-.683.227-1.366.381-2.042.567-2.5,1.361-3.186,3.939-3.443,2.566.648,3.581,2.114,3.219,4.684A48.759,48.759,0,0,1,143.843,139.4c-.5.575-.939,1.205-1.435,1.786a.923.923,0,0,0,.184,1.567,33.563,33.563,0,0,0,8.485,4.168,84.418,84.418,0,0,0,8.71,2.04c2.728.524,3.631,1.76,3.278,4.021-.861,2.388-1.729,2.957-4.175,2.678a46.68,46.68,0,0,1-21.535-8.169c-1.17-.81-1.927-.968-3.193-.093a48.089,48.089,0,0,1-55.041.025,2.355,2.355,0,0,0-3.2-.02C47.292,167.181,7.663,151.153.8,117.117c-1.877-9.312-.25-18.2,2.641-27,5.134-15.627,12.121-30.463,19.32-45.209.871-1.783,2.147-2.676,4.18-2.132A3.038,3.038,0,0,1,29.3,46.656a12.8,12.8,0,0,1-1.116,2.688C21.851,62.252,15.741,75.265,11.036,88.871,8.815,95.294,6.488,101.8,6.742,108.718a40.945,40.945,0,0,0,15.2,31,37.34,37.34,0,0,0,12.613,7.149c12.213,4.076,23.914,2.978,35.08-3.475,2.025-1.171,2.092-1.478.485-3.229a44.18,44.18,0,0,1-5.485-7.308,46.582,46.582,0,0,1-6.815-28.7c.605-6.807,2.908-13.271,5.2-19.688,2.734-7.658,5.92-15.13,9.345-22.5a5.7,5.7,0,0,0-.124-5.308C66.853,45.224,61.018,34.018,55.072,22.868c-1.829-3.43-3.745-6.814-5.579-10.242a2.772,2.772,0,0,0-1.245-1.51c-1.76,2.974-3.428,6-5.051,9.046-2.383,4.473-4.69,8.986-7.153,13.416-1.274,2.293-2.934,2.8-4.871,1.584-1.96-1.86-2.154-2.714-.881-5.083Q37.67,16.352,45.1,2.654C45.849,1.268,46.664,0,48.515.06c1.735.053,2.457,1.275,3.2,2.588q13.1,23.27,24.818,47.267c.269.55.556,1.091.991,1.94.468-.921.825-1.6,1.159-2.281,7.726-15.885,15.974-31.5,24.618-46.9.771-1.374,1.537-2.652,3.393-2.614,1.749.036,2.485,1.258,3.217,2.563,9.007,16.073,17.631,32.346,25.606,48.985.849-.383.945-1.206,1.258-1.847q11.684-23.9,24.734-47.076A4.84,4.84,0,0,1,163.48.351c1.76-.839,3.259-.188,4.509,2.1,4.65,8.509,9.421,16.956,13.875,25.567,10.019,19.372,19.845,38.845,27.016,59.511a76.478,76.478,0,0,1,4.1,16.284c.373.678-.14,1.5.353,2.158Z" transform="translate(0 0)"/>
    <path id="Trazado_160899" data-name="Trazado 160899" d="M509.931,250.577a2.286,2.286,0,0,1-.353-2.158.312.312,0,0,1,.353.074Z" transform="translate(-296.595 -144.605)" fill="#565656"/>
    <path id="Trazado_160900" data-name="Trazado 160900" d="M43.079,161.005a39.044,39.044,0,0,1-18.556-12.785,41.366,41.366,0,0,1-9.742-25.955c-.149-5.063,1.168-9.893,2.646-14.656,4.8-15.453,11.726-30.016,18.722-44.548.27-.561.554-1.116.805-1.686,1.031-2.344.7-3.486-1.414-4.872,1.966-2.231,2.779-5.1,4.231-7.616,2.507.515,3.382.1,4.662-2.271Q50.149,36,55.846,25.377c.326-.605.679-1.195,1.024-1.8.553.107.607.565.778.874,8.478,15.345,16.6,30.874,24.178,46.686a4.1,4.1,0,0,1,.011,3.856c-4.218,9.342-8.076,18.819-11.508,28.493-5.267,14.845-4.694,29.075,3.263,42.828.016,1.642-1.334,2.369-2.341,3.2A53.493,53.493,0,0,1,54.307,158.9c-2.354.8-4.753,1.458-7.171,2.052a7.2,7.2,0,0,1-4.058.05" transform="translate(-8.598 -13.726)" fill="#43a2f8"/>
    <path id="Trazado_160901" data-name="Trazado 160901" d="M373.186,258.221c-.453-2.56-1.112-3.193-3.929-3.62a32.494,32.494,0,0,1-8.325-2.084c.549-.671,1.374-.591,2.1-.747,8.3-1.772,16.149-4.587,23-9.764a48.253,48.253,0,0,0,16.542-22.224,80.169,80.169,0,0,0,4.545-22.763,73.817,73.817,0,0,0-.03-13.7,2.782,2.782,0,0,1,.542-2.549c4.2,9.515,8.321,19.161,9.3,29.566,1.179,12.479-3.347,23.267-12.075,32.213a40.745,40.745,0,0,1-19.8,11.237c-3.1.763-3.611,1.335-3.837,4.028a55.691,55.691,0,0,1-8.042.4" transform="translate(-210.12 -105.239)" fill="#ef1054"/>
    <path id="Trazado_160902" data-name="Trazado 160902" d="M392.836,89.1c-.18,3.191.506,6.336.423,9.536-.224,8.665-.943,17.278-3.5,25.583-4.874,15.832-14.768,27.2-30.419,33.232a48.92,48.92,0,0,1-13.207,3.393,27.171,27.171,0,0,1-8.449-4.09c-.227-.913.456-1.4.949-1.947a50.74,50.74,0,0,0,12.58-26.483c1.233-7.76-.069-15.178-2.281-22.541-3.342-11.123-8.055-21.71-12.708-32.319-.385-.878-.981-1.708-.575-2.749,3.18-7.155,6.709-14.141,10.347-21.07,4.606-8.774,9.275-17.515,13.954-26.341.259.215.452.3.534.452,11.452,20.762,22.393,41.78,31.767,63.58.244.567.392,1.176.585,1.766" transform="translate(-195.323 -13.566)" fill="#fb3e80"/>
    <path id="Trazado_160903" data-name="Trazado 160903" d="M196.1,71.437c2.047-4.315,4.038-8.658,6.154-12.938,5.653-11.435,11.776-22.623,17.834-33.845.156-.289.362-.55.544-.824.722.206.806.82,1.057,1.272,8.48,15.274,16.433,30.819,24.04,46.545a3.528,3.528,0,0,1-.057,3.316,313.807,313.807,0,0,0-12.2,30.686c-4.084,12.411-3.979,24.514,1.63,36.427.765,1.625,1.62,3.207,2.434,4.809a2.855,2.855,0,0,1-1.19,1.638,57.968,57.968,0,0,1-25.764,12.656,8.427,8.427,0,0,1-3.685.017,27.171,27.171,0,0,1-8.656-4.205c-.263-1.017.551-1.5,1.083-2.08a48.046,48.046,0,0,0,12.9-36c-.337-6.693-2.552-13.045-4.738-19.34-3.1-8.919-7.092-17.473-10.767-26.156a6.873,6.873,0,0,1-.614-1.974" transform="translate(-114.162 -13.872)" fill="#fcb559"/>
    <path id="Trazado_160904" data-name="Trazado 160904" d="M298.345,220.333A38.617,38.617,0,0,1,294.67,191.8c2.775-10.9,7.2-21.192,11.881-31.925l3.417,8.325c1.695,6.132,1.009,12.355.7,18.562a72.346,72.346,0,0,1-3.142,17.358,54.361,54.361,0,0,1-6.847,14.647c-.53.789-.921,2-2.331,1.566" transform="translate(-170.82 -93.073)" fill="#fc8624"/>
    <path id="Trazado_160905" data-name="Trazado 160905" d="M159.148,220.586a37.83,37.83,0,0,1-3.952-27.875c2.634-11.011,7.157-21.357,11.632-31.709.081-.189.2-.361.451-.8,1.3,3.182,2.755,5.907,3.66,8.867a17.5,17.5,0,0,1,.567,4.732c.008,7.356.107,14.7-1.265,21.994a63.956,63.956,0,0,1-8.573,22.647c-.6.946-1.015,2.215-2.52,2.142" transform="translate(-89.712 -93.264)" fill="#5be067"/>
    <path id="Trazado_160906" data-name="Trazado 160906" d="M305.2,231.931c1.54-.433,1.928-1.94,2.61-3.049,4.811-7.836,7.377-16.431,8.628-25.51.883-6.41.747-12.828.792-19.255.01-1.46-.667-2.843-.407-4.318a145.735,145.735,0,0,1,8.051,22.4c.572,2.138,1.508,3.738,4.06,3.56a3.531,3.531,0,0,1,1.049,2.847,7.513,7.513,0,0,0,.122,3.364,1.871,1.871,0,0,1-.375,1.837c-2.662.494-3.191,1.085-3.664,4.433a41.92,41.92,0,0,1-11.374,23.325c-1.116,1.188-1.643,1.126-2.676-.02a39.8,39.8,0,0,1-6.816-9.609" transform="translate(-177.676 -104.671)" fill="#fb5820"/>
    <path id="Trazado_160907" data-name="Trazado 160907" d="M166.178,232.942c1.792-1.243,2.545-3.253,3.545-5.03,4.673-8.316,6.94-17.329,7.854-26.792.634-6.571.1-13.133.392-19.692,4.263,9.8,8.516,19.7,9.314,30.453.709,9.559-2.342,18.335-8,26.127a39.58,39.58,0,0,1-4.177,4.914c-.457.452-.79.941-1.485.211a37.769,37.769,0,0,1-7.44-10.192" transform="translate(-96.742 -105.62)" fill="#1fc874"/>
    <path id="Trazado_160908" data-name="Trazado 160908" d="M82.521,332.01A47.531,47.531,0,0,0,95.678,328.6a47.334,47.334,0,0,0,16.293-10.022,14.93,14.93,0,0,0,1.063-1.262,55.183,55.183,0,0,0,6.641,8.455c.908.885.77,1.325-.247,1.967a41.826,41.826,0,0,1-32.4,5.691,13.136,13.136,0,0,1-4.5-1.422" transform="translate(-48.04 -184.73)" fill="#1684fa"/>
    <path id="Trazado_160909" data-name="Trazado 160909" d="M221.931,332.642a55.41,55.41,0,0,0,27.418-11.732q1.613-1.287,3.221-2.579c2.322,3.1,4.478,6.323,7.438,9.108a39.083,39.083,0,0,1-14.378,6.5,39.876,39.876,0,0,1-23.7-1.3" transform="translate(-129.2 -185.32)" fill="#fc9d28"/>
    <path id="Trazado_160910" data-name="Trazado 160910" d="M346.287,183.546q-.362-1.421-.723-2.842c2.438-1.286,2.8-2.177,2.074-4.868-3.268-12.162-8.192-23.7-13.391-35.12-.694-1.526-.7-2.723.384-3.947,3.082,7.257,6.268,14.472,9.219,21.782a109.454,109.454,0,0,1,7.014,23.373c1.094,6.741.109,13.343-1.769,19.831a49.588,49.588,0,0,1-11.077,19.486c-.461.513-.9,1.046-1.351,1.569-1.556-.457-1.791-1.038-.552-2.337a48.072,48.072,0,0,0,13.016-27.745c.265-2.05-.507-3.147-2.771-3.975q-.019-.966-.038-1.931a7.861,7.861,0,0,1-.036-3.275" transform="translate(-194.305 -79.622)" fill="#ef1054"/>
    <path id="Trazado_160911" data-name="Trazado 160911" d="M195.064,137.767c1.839,2.318,2.558,5.181,3.723,7.816a237.134,237.134,0,0,1,9.139,22.907c2.337,7.24,4.475,14.555,3.874,22.3a50.8,50.8,0,0,1-5.617,20.166A58.507,58.507,0,0,1,197.2,223.32c-1.653-.473-1.629-1.1-.472-2.322a47.53,47.53,0,0,0,13.3-32.7c.121-5.585-1.384-10.966-3.009-16.275-3.248-10.611-7.665-20.763-12.221-30.857-.558-1.236-.8-2.343.267-3.4" transform="translate(-113.126 -80.203)" fill="#fc9d28"/>
    <path id="Trazado_160912" data-name="Trazado 160912" d="M34.049,255.145c-.043-.484-.115-.967-.125-1.452-.039-2.064,1.117-3.527,2.889-3.684s3.144,1.121,3.3,3.222a31.867,31.867,0,0,0,2.475,11.1,28.146,28.146,0,0,0,8.59,10.8c2.642,2.024,3.214,3.6,1.935,5.3-1.31,1.735-3.16,1.615-5.772-.4a33.348,33.348,0,0,1-13.295-24.873" transform="translate(-19.749 -145.538)"/>
    <path id="Trazado_160913" data-name="Trazado 160913" d="M363.157,248.719q.018,1.638.036,3.275a3.32,3.32,0,0,1-.036-3.275" transform="translate(-211.175 -144.794)" fill="#fb6626"/>
  </g>
</svg>
