<svg xmlns="http://www.w3.org/2000/svg" xmlns:xlink="http://www.w3.org/1999/xlink" width="136" height="136" viewBox="0 0 136 136">
  <defs>
    <clipPath id="clip-path">
      <rect id="Rectángulo_39417" data-name="Rectángulo 39417" width="79.972" height="80" fill="#fff"/>
    </clipPath>
  </defs>
  <g id="Grupo_143636" data-name="Grupo 143636" transform="translate(-1243 -9956)">
    <circle id="Elipse_5451" data-name="Elipse 5451" cx="68" cy="68" r="68" transform="translate(1243 9956)" fill="#26ccda"/>
    <g id="Grupo_143635" data-name="Grupo 143635" transform="translate(1271 9984)">
      <g id="Grupo_143634" data-name="Grupo 143634" clip-path="url(#clip-path)">
        <path id="Trazado_159261" data-name="Trazado 159261" d="M64.5,72.252H61.983c-.066.853-.062,1.659-.2,2.439a6.35,6.35,0,0,1-6.223,5.282q-5.239.052-10.479,0A6.413,6.413,0,0,1,38.707,73.6c-.032-2.606.011-5.214-.016-7.82a3.862,3.862,0,0,0-7.664-.673,5.6,5.6,0,0,0-.064,1.042c-.005,2.392.006,4.784,0,7.175a6.451,6.451,0,1,1-12.894-.039q-.013-9.07,0-18.14v-.961H17.14c-2.633,0-5.267.01-7.9,0A9.019,9.019,0,0,1,.009,44.955q-.021-19.148,0-38.295A6.431,6.431,0,0,1,6.675.008q12.7-.014,25.392,0a6.421,6.421,0,0,1,6.626,6.613q.017,19.187,0,38.375a9.008,9.008,0,0,1-9.19,9.185c-2.633.015-5.267,0-7.9,0H20.69c-.02.185-.046.312-.046.439q0,9.432,0,18.865a3.864,3.864,0,0,0,2.68,3.729,3.655,3.655,0,0,0,4.218-1.363,5.113,5.113,0,0,0,.8-2.46c.1-2.576.01-5.159.049-7.738a6.43,6.43,0,0,1,12.631-1.582,8.057,8.057,0,0,1,.244,1.988c.028,2.418,0,4.837.013,7.256A3.873,3.873,0,0,0,45.387,77.4c3.09.008,6.186-.111,9.269.035,2.867.136,5.09-1.7,4.633-5.163H56.756c0-1.8-.017-3.506.011-5.216a1.031,1.031,0,0,0-.642-1.117,9.369,9.369,0,0,1-4.386-4.759,2.385,2.385,0,0,1-.136-.937c-.008-4.219-.015-8.438.007-12.657a1.163,1.163,0,0,0-.663-1.2A19.328,19.328,0,1,1,79.919,30.878,18.972,18.972,0,0,1,70.3,46.383a1.139,1.139,0,0,0-.656,1.129q.036,6.369,0,12.738a3.183,3.183,0,0,1-.308,1.3,9.338,9.338,0,0,1-4.347,4.483.81.81,0,0,0-.5.876c.019,1.743.008,3.487.008,5.347M36.119,25.885q0-9.509,0-19.018c0-2.728-1.566-4.281-4.309-4.282q-12.449,0-24.9,0c-2.785,0-4.326,1.548-4.327,4.345q0,18.857,0,37.714c0,4.257,2.69,6.958,6.928,6.96q9.831,0,19.661,0c4.244,0,6.945-2.7,6.946-6.943q0-9.388,0-18.776M67.075,59.306v-.9c0-4.11.019-8.221-.019-12.331a1.25,1.25,0,0,1,.828-1.325,16.769,16.769,0,1,0-14.4.06,1.068,1.068,0,0,1,.7,1.154c-.026,4.164-.014,8.328-.014,12.492v.851Zm-1.19,2.658H55.367c2.368,3.344,8.125,3.366,10.518,0M59.392,69.6h2.471V67.074H59.392Z" transform="translate(0 0)" fill="#fff"/>
        <path id="Trazado_159262" data-name="Trazado 159262" d="M32.387,88.007a9.028,9.028,0,1,1,8.989-9.064,9.059,9.059,0,0,1-8.989,9.064M26.837,75.219l9.151,9.144,1.733-1.772-9.107-9.122-1.776,1.75m5.206-2.637,6.7,6.691c.526-3.528-3.11-7.17-6.7-6.691m-6.085,5.954c-.4,3.858,3.775,7.94,6.773,6.77l-6.773-6.77" transform="translate(-12.999 -38.986)" fill="#fff"/>
        <path id="Trazado_159263" data-name="Trazado 159263" d="M25.933,11.664q5.6,0,11.2,0a2.608,2.608,0,0,1,2.9,2.886q.008,3.587,0,7.174a2.6,2.6,0,0,1-2.868,2.837q-11.324.005-22.648,0a2.6,2.6,0,0,1-2.857-2.847q-.009-3.628,0-7.255a2.6,2.6,0,0,1,2.826-2.8q5.722-.009,11.445,0M37.421,14.3H14.305v7.641H37.421Z" transform="translate(-6.497 -6.5)" fill="#fff"/>
        <path id="Trazado_159264" data-name="Trazado 159264" d="M15.56,46.641a3.868,3.868,0,1,1-3.89,3.8,3.882,3.882,0,0,1,3.89-3.8m-1.306,3.8A1.285,1.285,0,1,0,15.6,49.224a1.3,1.3,0,0,0-1.345,1.221" transform="translate(-6.503 -25.994)" fill="#fff"/>
        <path id="Trazado_159265" data-name="Trazado 159265" d="M42.713,50.525A3.867,3.867,0,1,1,38.9,46.64a3.885,3.885,0,0,1,3.808,3.885m-3.906,1.266a1.284,1.284,0,1,0-1.244-1.323,1.3,1.3,0,0,0,1.244,1.323" transform="translate(-19.495 -25.993)" fill="#fff"/>
        <path id="Trazado_159266" data-name="Trazado 159266" d="M66.023,50.51A3.867,3.867,0,1,1,62.2,46.64a3.886,3.886,0,0,1,3.823,3.87m-3.876,1.281A1.284,1.284,0,1,0,60.873,50.5a1.3,1.3,0,0,0,1.274,1.293" transform="translate(-32.486 -25.993)" fill="#fff"/>
        <path id="Trazado_159267" data-name="Trazado 159267" d="M119.1,34.98a14.189,14.189,0,1,1-14.192,14.2A14.21,14.21,0,0,1,119.1,34.98M107.484,49.138A11.608,11.608,0,1,0,119.162,37.56a11.632,11.632,0,0,0-11.678,11.578" transform="translate(-58.466 -19.495)" fill="#fff"/>
        <path id="Trazado_159268" data-name="Trazado 159268" d="M135.951,114.614a3.867,3.867,0,1,1-3.828-3.865,3.885,3.885,0,0,1,3.828,3.865m-2.583-.025a1.283,1.283,0,1,0-1.256,1.311,1.3,1.3,0,0,0,1.256-1.311" transform="translate(-71.459 -61.723)" fill="#fff"/>
        <path id="Trazado_159269" data-name="Trazado 159269" d="M125.612,46.71v2.511a6.577,6.577,0,0,0-6.445,6.441H116.68c-.375-4.559,4.107-9.069,8.931-8.952" transform="translate(-65.016 -26.031)" fill="#fff"/>
      </g>
    </g>
  </g>
</svg>
