<svg xmlns="http://www.w3.org/2000/svg" xmlns:xlink="http://www.w3.org/1999/xlink" width="130" height="130" viewBox="0 0 130 130">
  <defs>
    <clipPath id="clip-path">
      <rect id="Rectángulo_39357" data-name="Rectángulo 39357" width="71.094" height="101.426" fill="#26ccda"/>
    </clipPath>
  </defs>
  <g id="Grupo_144364" data-name="Grupo 144364" transform="translate(-338 -4140)">
    <circle id="Elipse_5445" data-name="Elipse 5445" cx="65" cy="65" r="65" transform="translate(338 4140)" fill="#fff"/>
    <g id="Grupo_143526" data-name="Grupo 143526" transform="translate(367 4154.152)">
      <g id="Grupo_143525" data-name="Grupo 143525" clip-path="url(#clip-path)">
        <path id="Trazado_159187" data-name="Trazado 159187" d="M18.111,101.425c-2.251-.665-3.983-1.911-4.608-4.293a8.937,8.937,0,0,1-.224-2.154c-.027-2.306-.01-4.613-.01-7.09-.82,0-1.561.005-2.3,0a3.645,3.645,0,0,1-3.976-4.012q-.011-5.893,0-11.786c0-2.571,1.406-3.961,3.986-3.98.719,0,1.438,0,2.225,0V62.987c-.834,0-1.647,0-2.46,0-2.862-.005-4.35-1.267-4.807-4.178-.63,0-1.282.008-1.933,0A3.756,3.756,0,0,1,.019,54.833q-.039-6.586,0-13.173a3.722,3.722,0,0,1,3.808-3.944c.686-.037,1.375-.005,2.035-.005.828-3.284,2-4.225,5.316-4.166,1.363.024,2.391-.013,3.056-1.6a4.8,4.8,0,0,1,3.942-2.662c.2-.031.39-.068.583-.112a1.711,1.711,0,0,0,.282-.153v-1c0-3.764-.031-7.528.008-11.291a16.684,16.684,0,0,1,33.343-.972c.141,4.122.058,8.253.041,12.379,0,.719.1,1.074.938,1.255a5.355,5.355,0,0,1,3.975,3.391.981.981,0,0,0,1.157.756,15.679,15.679,0,0,1,1.584-.011c3.137,0,4.422,1.027,5.124,4.181.627,0,1.28-.021,1.932,0a3.754,3.754,0,0,1,3.933,4.026q.034,6.537,0,13.074a3.771,3.771,0,0,1-4.061,4c-.592.005-1.184,0-1.838,0-.052.287-.091.534-.14.778a4.141,4.141,0,0,1-3.971,3.386c-1.02.039-2.043.007-3.2.007.086,1.555-.336,3.014.532,4.51a9.407,9.407,0,0,1,0,9.715,4.535,4.535,0,0,0-.544,2.027c-.045,5.018-.024,10.036-.025,15.054,0,4.2-.993,5.659-4.841,7.14ZM54.858,63.734V62.55q0-13.319,0-26.639c0-2.785-.975-3.77-3.734-3.771q-13.966,0-27.931,0c-1.189,0-2.377-.008-3.566,0-2.307.022-3.365,1.094-3.39,3.419,0,.3,0,.594,0,.891q0,19.905,0,39.81c0,.33.013.661-.009.99A1.494,1.494,0,0,1,14.7,78.839a1.46,1.46,0,0,1-1.415-1.589c-.033-1.452-.012-2.9-.013-4.357,0-.581,0-1.161,0-1.814-.807,0-1.467.042-2.12-.01-.9-.072-1.218.282-1.207,1.193.041,3.3-.016,6.6.025,9.9.038,3-.724,2.816,3,2.739.058,0,.114-.053.246-.118.024-.379.032-.8.084-1.218a1.37,1.37,0,0,1,1.444-1.337A1.375,1.375,0,0,1,16.2,83.556a7.149,7.149,0,0,1,.035.988c0,3.532-.01,7.064.007,10.6.011,2.248,1.111,3.313,3.371,3.313q15.9,0,31.794,0c2.377,0,3.445-1.057,3.45-3.436q.01-6.585,0-13.171c0-.318-.028-.635-.044-.974-5.941,1.9-9.9.969-12.721-2.93a9.712,9.712,0,0,1,.058-11.384c2.841-3.869,6.838-4.781,12.71-2.825m-5.4-34.6c0-4.427.106-8.751-.024-13.067a13.7,13.7,0,0,0-27.379-.021c-.135,4.222-.034,8.451-.035,12.677a2.251,2.251,0,0,0,.084.411Zm7.051,41.659a6.689,6.689,0,0,0-7.479-5.2,6.757,6.757,0,0,0,.8,13.441c3.248.057,6.352-2.386,6.614-5.283-.694,0-1.382.018-2.069,0-1.058-.033-1.629-.553-1.634-1.452s.57-1.445,1.608-1.5c.687-.037,1.378-.007,2.155-.007M13.194,60.012V36.5c-1.058,0-2.043-.033-3.025.01A1.142,1.142,0,0,0,8.977,37.8q0,10.444,0,20.888a1.165,1.165,0,0,0,1.261,1.319c.954.024,1.91.005,2.955.005m44.717-23.5V59.944a1.827,1.827,0,0,0,.278.06c.726.006,1.452.012,2.178.01,1.441,0,1.748-.3,1.749-1.731q0-7.474,0-14.947c0-1.815-.012-3.63,0-5.444.007-.782-.318-1.315-1.107-1.365-1.012-.064-2.03-.015-3.1-.015M5.936,55.783V40.674H4.6c-1.517,0-1.622.108-1.623,1.634,0,3.624-.015,7.248,0,10.871.015,2.665-.51,2.794,2.954,2.6m59.2.055H66.49c1.538,0,1.624-.085,1.626-1.621q0-5.535,0-11.071c0-2.589-.164-2.734-2.756-2.434a.909.909,0,0,0-.222.112Z" transform="translate(0 0)" fill="#26ccda"/>
        <path id="Trazado_159188" data-name="Trazado 159188" d="M61.34,78.652V60.979H34.74V78.651h1.122q7.377,0,14.755,0c1.238,0,1.941.555,1.929,1.487s-.726,1.478-1.959,1.48q-8.169.006-16.339,0c-1.749,0-2.562-.788-2.566-2.536q-.023-9.307,0-18.613c0-1.744.812-2.539,2.566-2.54q13.765-.015,27.529,0c1.8,0,2.582.8,2.585,2.623q.017,9.208,0,18.416c0,1.883-.783,2.645-2.652,2.654-1.354.007-2.707.016-4.06,0-1.09-.016-1.721-.581-1.723-1.488s.616-1.458,1.72-1.473c1.186-.016,2.373,0,3.693,0" transform="translate(-12.474 -22.813)" fill="#26ccda"/>
        <path id="Trazado_159189" data-name="Trazado 159189" d="M50.752,150c3.533,0,7.066-.005,10.6,0,1.1,0,1.744.549,1.765,1.44s-.623,1.509-1.691,1.522c-1.651.02-3.3.006-4.953.006q-8.122,0-16.244-.009c-.418,0-.994.016-1.217-.229a2.525,2.525,0,0,1-.717-1.558c.021-.772.671-1.167,1.463-1.17,2.411-.008,4.821,0,7.231-.005h3.764" transform="translate(-15.083 -59.077)" fill="#26ccda"/>
        <path id="Trazado_159190" data-name="Trazado 159190" d="M50.581,140.734q-5.05,0-10.1,0a6.4,6.4,0,0,1-1.085-.055,1.449,1.449,0,0,1,.023-2.868,5.936,5.936,0,0,1,.888-.044q10.3,0,20.594,0c.362,0,.832-.089,1.061.1.44.359,1.015.879,1.027,1.344s-.529,1.03-.96,1.393c-.247.207-.759.128-1.153.128q-5.149.012-10.3,0" transform="translate(-15.034 -54.252)" fill="#26ccda"/>
        <path id="Trazado_159191" data-name="Trazado 159191" d="M53.1,112.376a4.178,4.178,0,1,1-.032,8.356,4.178,4.178,0,1,1,.032-8.356m1.2,4.167c-.083-.724-.447-1.178-1.2-1.186a1.139,1.139,0,0,0-1.226,1.155,1.214,1.214,0,1,0,2.428.03" transform="translate(-19.254 -44.261)" fill="#26ccda"/>
        <path id="Trazado_159192" data-name="Trazado 159192" d="M39.529,116.54a4.178,4.178,0,1,1-4.136-4.161,4.155,4.155,0,0,1,4.136,4.161m-4.184,1.232c.716-.081,1.183-.434,1.2-1.186a1.1,1.1,0,0,0-1.132-1.227,1.155,1.155,0,0,0-1.257,1.209,1.182,1.182,0,0,0,1.19,1.2" transform="translate(-12.278 -44.262)" fill="#26ccda"/>
        <path id="Trazado_159193" data-name="Trazado 159193" d="M62.737,20.552a10.764,10.764,0,1,1-12.48-10.517,14.485,14.485,0,0,1,3.437,0c1.155.1,1.683.813,1.507,1.755-.165.883-.885,1.3-1.973,1.138a7.8,7.8,0,1,0,5.328,3.5c-.16-.25-.346-.483-.5-.733a1.476,1.476,0,1,1,2.381-1.74,10.5,10.5,0,0,1,2.305,6.6" transform="translate(-16.237 -3.911)" fill="#26ccda"/>
      </g>
    </g>
  </g>
</svg>
