<svg xmlns="http://www.w3.org/2000/svg" xmlns:xlink="http://www.w3.org/1999/xlink" width="130" height="130" viewBox="0 0 130 130">
  <defs>
    <clipPath id="clip-path">
      <rect id="Rectángulo_39364" data-name="Rectángulo 39364" width="79.287" height="79.24" fill="#26ccda"/>
    </clipPath>
  </defs>
  <g id="Grupo_143539" data-name="Grupo 143539" transform="translate(7977 7560)">
    <circle id="Elipse_5448" data-name="Elipse 5448" cx="65" cy="65" r="65" transform="translate(-7977 -7560)" fill="#fff"/>
    <g id="Grupo_143538" data-name="Grupo 143538" transform="translate(-7952 -7532.655)">
      <g id="Grupo_143537" data-name="Grupo 143537" clip-path="url(#clip-path)">
        <path id="Trazado_159222" data-name="Trazado 159222" d="M37.153,0h4.954c.224.045.447.1.673.133,1.783.262,3.589.416,5.346.8A39.624,39.624,0,1,1,.6,46.46c-.246-1.443-.4-2.9-.6-4.353V37.153C.253,35.4.443,33.631.768,31.89A39.627,39.627,0,0,1,32.724.61C34.194.367,35.676.2,37.153,0M20.9,39.573A18.731,18.731,0,1,0,39.724,20.9,18.765,18.765,0,0,0,20.9,39.573M37.262,4.746A34.292,34.292,0,0,0,24.2,8.253l5.708,9.886,7.355-1.968ZM18.135,29.9,8.253,24.195a34.133,34.133,0,0,0-3.5,13.07H16.163c.658-2.455,1.294-4.83,1.972-7.365M4.742,41.981A34.4,34.4,0,0,0,8.253,55.065l9.884-5.709c-.677-2.538-1.317-4.933-1.97-7.375ZM37.247,74.509V63.093l-7.336-1.982c-1.844,3.195-3.766,6.523-5.715,9.9a34.466,34.466,0,0,0,13.051,3.5m4.745.01a34.409,34.409,0,0,0,13.073-3.509l-5.71-9.888L41.992,63.1Zm0-58.358,7.363,1.98,5.71-9.9a34.339,34.339,0,0,0-13.073-3.5ZM63.1,37.268H74.514A34.2,34.2,0,0,0,71.008,24.2l-9.892,5.714c.668,2.479,1.309,4.853,1.984,7.357m7.914,17.8a34.381,34.381,0,0,0,3.5-13.074H63.1c-.665,2.472-1.309,4.868-1.979,7.359l9.9,5.715M20.177,10.58a35.069,35.069,0,0,0-9.6,9.595l9.892,5.709,5.418-5.406-5.714-9.9m33.2,9.889,5.41,5.423,9.9-5.717a35.076,35.076,0,0,0-9.593-9.6c-1.953,3.382-3.868,6.7-5.712,9.889M25.889,58.784l-5.415-5.411-9.892,5.715a35.029,35.029,0,0,0,9.6,9.589l5.712-9.892m33.2,9.9a35.238,35.238,0,0,0,9.59-9.6l-9.891-5.709-5.419,5.41,5.719,9.9" fill="#26ccda"/>
        <path id="Trazado_159223" data-name="Trazado 159223" d="M52.518,35.271c2.229,3.6,4.413,7.128,6.593,10.656.691,1.119,1.4,2.229,2.056,3.366A10.057,10.057,0,0,1,49.944,64.082a10.124,10.124,0,0,1-7.405-8.265,9.268,9.268,0,0,1,1.16-6.34c2.822-4.679,5.728-9.307,8.6-13.956a2.613,2.613,0,0,1,.218-.25m-.036,8.9a1,1,0,0,0-.169.162c-1.532,2.474-3.091,4.932-4.578,7.432a4.91,4.91,0,0,0-.417,4.18,5.193,5.193,0,0,0,4.394,3.748,5.085,5.085,0,0,0,5.176-2.234,5.019,5.019,0,0,0,.33-5.687c-1.446-2.523-3.037-4.963-4.568-7.437a1.018,1.018,0,0,0-.168-.162" transform="translate(-12.851 -10.688)" fill="#26ccda"/>
      </g>
    </g>
  </g>
</svg>
