<svg xmlns="http://www.w3.org/2000/svg" xmlns:xlink="http://www.w3.org/1999/xlink" width="480" height="671.49" viewBox="0 0 480 671.49">
  <defs>
    <clipPath id="clip-path">
      <rect id="Rectángulo_39414" data-name="Rectángulo 39414" width="437.213" height="598.999" fill="none"/>
    </clipPath>
    <clipPath id="clip-path-2">
      <rect id="Rectángulo_39380" data-name="Rectángulo 39380" width="18.868" height="110.618" fill="none"/>
    </clipPath>
    <clipPath id="clip-path-6">
      <rect id="Rectángulo_39384" data-name="Rectángulo 39384" width="18.868" height="110.619" fill="none"/>
    </clipPath>
    <clipPath id="clip-path-8">
      <rect id="Rectángulo_39386" data-name="Rectángulo 39386" width="18.868" height="106.447" fill="none"/>
    </clipPath>
    <clipPath id="clip-path-10">
      <rect id="Rectángulo_39388" data-name="Rectángulo 39388" width="18.867" height="106.447" fill="none"/>
    </clipPath>
    <clipPath id="clip-path-12">
      <rect id="Rectángulo_39390" data-name="Rectángulo 39390" width="18.867" height="110.618" fill="none"/>
    </clipPath>
    <clipPath id="clip-path-14">
      <path id="Trazado_161540" data-name="Trazado 161540" d="M0,0H18.868V106.447H0Z" fill="none"/>
    </clipPath>
    <clipPath id="clip-path-16">
      <rect id="Rectángulo_39397" data-name="Rectángulo 39397" width="49.375" height="8.644" fill="none"/>
    </clipPath>
    <clipPath id="clip-path-18">
      <rect id="Rectángulo_39399" data-name="Rectángulo 39399" width="49.064" height="8.644" fill="none"/>
    </clipPath>
    <clipPath id="clip-path-20">
      <rect id="Rectángulo_39401" data-name="Rectángulo 39401" width="35.94" height="8.644" fill="none"/>
    </clipPath>
    <clipPath id="clip-path-22">
      <rect id="Rectángulo_39404" data-name="Rectángulo 39404" width="50.795" height="8.644" fill="none"/>
    </clipPath>
    <clipPath id="clip-path-24">
      <rect id="Rectángulo_39407" data-name="Rectángulo 39407" width="48" height="8.644" fill="none"/>
    </clipPath>
    <clipPath id="clip-path-26">
      <rect id="Rectángulo_39410" data-name="Rectángulo 39410" width="26.25" height="8.644" fill="none"/>
    </clipPath>
    <clipPath id="clip-path-28">
      <rect id="Rectángulo_39413" data-name="Rectángulo 39413" width="48.817" height="8.644" fill="none"/>
    </clipPath>
  </defs>
  <g id="Grupo_143630" data-name="Grupo 143630" transform="translate(-934 -4691)">
    <g id="Grupo_135932" data-name="Grupo 135932" transform="translate(1165.333 4691)">
      <g id="Grupo_53612" data-name="Grupo 53612" transform="translate(0 0)">
        <rect id="Rectángulo_5111" data-name="Rectángulo 5111" width="248.668" height="671.49" fill="#fdd835"/>
      </g>
    </g>
    <g id="Grupo_143629" data-name="Grupo 143629">
      <rect id="_5" data-name="5" width="452.796" height="639.461" transform="translate(934 4707)" fill="#f6f6f6"/>
      <g id="Grupo_143628" data-name="Grupo 143628" transform="translate(942 4727)">
        <path id="Trazado_159224" data-name="Trazado 159224" d="M346.013,0V267.88L233.122,461.063V587.05h4.063V460.419L395.6,268.525V0Z" transform="translate(-2.319 0)" fill="#ea0b19"/>
        <path id="Trazado_159225" data-name="Trazado 159225" d="M297.034,0l1.136,270.293L229.347,460.82V587.05h3.743V461.063L345.974,267.88V0Z" transform="translate(-2.282 0)" fill="#eb7520"/>
        <path id="Trazado_159226" data-name="Trazado 159226" d="M248.381,0,247.9,268.85,225.682,460.095V587.047H229.3V460.82L297,270.3V0Z" transform="translate(-2.245 0)" fill="#eaea33"/>
        <path id="Trazado_159227" data-name="Trazado 159227" d="M198.358,0V270.3l22.228,188.837V587.05h4.828V460.1L248.1,268.85V0Z" transform="translate(-1.973 0)" fill="#25e92a"/>
        <path id="Trazado_159228" data-name="Trazado 159228" d="M146.657,0V269.329L215.236,460.1V587.05h4.829V459.131L197.849,270.3V0Z" transform="translate(-1.459 0)" fill="#28eaeb"/>
        <path id="Trazado_159229" data-name="Trazado 159229" d="M99.338,0V268.85l112.05,192.214V587.05h3.38V460.1L146.186,269.329V0Z" transform="translate(-0.988 0)" fill="#1376e9"/>
        <path id="Trazado_159230" data-name="Trazado 159230" d="M48.607,0V269.329L206.975,461.546v125.5h3.906V461.063L98.833,268.85V0Z" transform="translate(-0.484 0)" fill="#0921e9"/>
        <rect id="Rectángulo_39365" data-name="Rectángulo 39365" width="49.583" height="251.781" transform="translate(343.693 16.743)" fill="#f14c50"/>
        <rect id="Rectángulo_39366" data-name="Rectángulo 39366" width="49.583" height="251.781" transform="translate(343.693 16.743)" fill="none" stroke="#000" stroke-miterlimit="10" stroke-width="1"/>
        <rect id="Rectángulo_39367" data-name="Rectángulo 39367" width="48.779" height="216.848" transform="translate(294.915 51.034)" fill="#e8a150"/>
        <rect id="Rectángulo_39368" data-name="Rectángulo 39368" width="48.779" height="216.848" transform="translate(294.915 51.034)" fill="none" stroke="#000" stroke-miterlimit="10" stroke-width="1"/>
        <rect id="Rectángulo_39369" data-name="Rectángulo 39369" width="48.777" height="213.145" transform="translate(245.655 55.379)" fill="#f1f34b"/>
        <rect id="Rectángulo_39370" data-name="Rectángulo 39370" width="48.777" height="213.145" transform="translate(245.655 55.379)" fill="none" stroke="#000" stroke-miterlimit="10" stroke-width="1"/>
        <rect id="Rectángulo_39371" data-name="Rectángulo 39371" width="49.263" height="200.91" transform="translate(196.391 69.385)" fill="#4ff14b"/>
        <rect id="Rectángulo_39372" data-name="Rectángulo 39372" width="49.263" height="200.91" transform="translate(196.391 69.385)" fill="none" stroke="#000" stroke-miterlimit="10" stroke-width="1"/>
        <rect id="Rectángulo_39373" data-name="Rectángulo 39373" width="51.193" height="172.9" transform="translate(145.199 96.431)" fill="#4cf0f4"/>
        <rect id="Rectángulo_39374" data-name="Rectángulo 39374" width="51.193" height="172.9" transform="translate(145.199 96.431)" fill="none" stroke="#000" stroke-miterlimit="10" stroke-width="1"/>
        <rect id="Rectángulo_39375" data-name="Rectángulo 39375" width="46.847" height="163.241" transform="translate(98.351 105.607)" fill="#4b9ff0"/>
        <rect id="Rectángulo_39376" data-name="Rectángulo 39376" width="46.847" height="163.241" transform="translate(98.351 105.607)" fill="none" stroke="#000" stroke-miterlimit="10" stroke-width="1"/>
        <rect id="Rectángulo_39377" data-name="Rectángulo 39377" width="50.226" height="145.853" transform="translate(48.123 123.476)" fill="#4b4fed"/>
        <rect id="Rectángulo_39378" data-name="Rectángulo 39378" width="50.226" height="145.853" transform="translate(48.123 123.476)" fill="none" stroke="#000" stroke-miterlimit="10" stroke-width="1"/>
        <line id="Línea_916" data-name="Línea 916" y2="245.324" transform="translate(368.484 19.973)" fill="none" stroke="#000" stroke-miterlimit="10" stroke-width="0.75"/>
        <path id="Trazado_159231" data-name="Trazado 159231" d="M378.791,266.923H365.448v.043l6.673,4.213,6.67-4.213Z" transform="translate(-3.636 -2.655)"/>
        <path id="Trazado_159232" data-name="Trazado 159232" d="M378.791,21.163H365.448v-.039l6.673-4.213,6.67,4.213Z" transform="translate(-3.636 -0.168)"/>
        <line id="Línea_917" data-name="Línea 917" y2="211.839" transform="translate(319.304 54.262)" fill="none" stroke="#000" stroke-miterlimit="10" stroke-width="0.75"/>
        <path id="Trazado_159233" data-name="Trazado 159233" d="M329.117,267.738H315.774v.043l6.673,4.213,6.67-4.213Z" transform="translate(-3.141 -2.664)"/>
        <path id="Trazado_159234" data-name="Trazado 159234" d="M329.117,55.8H315.774V55.76l6.673-4.213,6.67,4.213Z" transform="translate(-3.141 -0.513)"/>
        <line id="Línea_918" data-name="Línea 918" y2="206.687" transform="translate(270.043 58.609)" fill="none" stroke="#000" stroke-miterlimit="10" stroke-width="0.75"/>
        <path id="Trazado_159235" data-name="Trazado 159235" d="M279.36,266.923H266.017v.043l6.673,4.213,6.67-4.213Z" transform="translate(-2.646 -2.655)"/>
        <path id="Trazado_159236" data-name="Trazado 159236" d="M279.36,60.192H266.017V60.15l6.673-4.213,6.67,4.213Z" transform="translate(-2.646 -0.556)"/>
        <line id="Línea_919" data-name="Línea 919" y2="194.453" transform="translate(221.263 72.615)" fill="none" stroke="#000" stroke-miterlimit="10" stroke-width="0.75"/>
        <path id="Trazado_159237" data-name="Trazado 159237" d="M230.09,268.713H216.747v.043l6.673,4.213,6.67-4.213Z" transform="translate(-2.156 -2.673)"/>
        <path id="Trazado_159238" data-name="Trazado 159238" d="M230.09,74.338H216.747V74.3l6.673-4.213,6.67,4.213Z" transform="translate(-2.156 -0.697)"/>
        <line id="Línea_920" data-name="Línea 920" y2="166.442" transform="translate(170.794 99.659)" fill="none" stroke="#000" stroke-miterlimit="10" stroke-width="0.75"/>
        <path id="Trazado_159239" data-name="Trazado 159239" d="M179.114,267.738H165.771v.043l6.673,4.213,6.67-4.213Z" transform="translate(-1.649 -2.664)"/>
        <path id="Trazado_159240" data-name="Trazado 159240" d="M179.114,101.655H165.771v-.043l6.673-4.213,6.67,4.213Z" transform="translate(-1.649 -0.969)"/>
        <line id="Línea_921" data-name="Línea 921" y2="155.816" transform="translate(121.775 108.835)" fill="none" stroke="#000" stroke-miterlimit="10" stroke-width="0.75"/>
        <path id="Trazado_159241" data-name="Trazado 159241" d="M129.6,266.274H116.26v.043l6.673,4.213,6.67-4.213Z" transform="translate(-1.157 -2.649)"/>
        <path id="Trazado_159242" data-name="Trazado 159242" d="M129.6,110.925H116.26v-.043l6.673-4.213,6.67,4.213Z" transform="translate(-1.157 -1.061)"/>
        <line id="Línea_922" data-name="Línea 922" y2="140.361" transform="translate(73.237 126.707)" fill="none" stroke="#000" stroke-miterlimit="10" stroke-width="0.75"/>
        <path id="Trazado_159243" data-name="Trazado 159243" d="M80.577,268.713H67.234v.043l6.673,4.213,6.67-4.213Z" transform="translate(-0.669 -2.673)"/>
        <path id="Trazado_159244" data-name="Trazado 159244" d="M80.577,128.973H67.234v-.043l6.673-4.213,6.67,4.213Z" transform="translate(-0.669 -1.241)"/>
        <g id="Grupo_143625" data-name="Grupo 143625">
          <g id="Grupo_143624" data-name="Grupo 143624" clip-path="url(#clip-path)">
            <path id="Trazado_159245" data-name="Trazado 159245" d="M95.008,124.719c-.6,18.108-17.249,34.5-17.249,34.5s-37.273,29.612-5.775,69.256,21.524,42.092,21.524,42.092" transform="translate(-0.59 -1.241)" fill="none" stroke="#fff" stroke-miterlimit="10" stroke-width="1"/>
            <path id="Trazado_159246" data-name="Trazado 159246" d="M146.3,106.669C145.7,127,129.047,145.4,129.047,145.4s-37.273,33.238-5.775,77.74S144.8,270.391,144.8,270.391" transform="translate(-1.101 -1.061)" fill="none" stroke="#fff" stroke-miterlimit="10" stroke-width="1"/>
            <path id="Trazado_159247" data-name="Trazado 159247" d="M195.716,97.4c-.6,21.467-17.25,40.9-17.25,40.9s-37.273,35.1-5.775,82.1,21.524,49.9,21.524,49.9" transform="translate(-1.592 -0.969)" fill="none" stroke="#fff" stroke-miterlimit="10" stroke-width="1"/>
            <path id="Trazado_159248" data-name="Trazado 159248" d="M245.132,70.085c-.6,24.945-17.249,47.531-17.249,47.531s-37.273,40.793-5.775,95.4,21.524,57.977,21.524,57.977" transform="translate(-2.084 -0.697)" fill="none" stroke="#fff" stroke-miterlimit="10" stroke-width="1"/>
            <path id="Trazado_159249" data-name="Trazado 159249" d="M297.032,55.935c-.6,26.685-17.252,50.845-17.252,50.845S242.506,150.413,274,208.829s21.525,62.023,21.525,62.023" transform="translate(-2.6 -0.556)" fill="none" stroke="#fff" stroke-miterlimit="10" stroke-width="1"/>
            <path id="Trazado_159250" data-name="Trazado 159250" d="M346.555,51.55c-.6,27.225-17.249,51.873-17.249,51.873s-37.273,44.511-5.775,104.109,21.526,63.276,21.526,63.276" transform="translate(-3.093 -0.513)" fill="none" stroke="#fff" stroke-miterlimit="10" stroke-width="1"/>
            <path id="Trazado_159251" data-name="Trazado 159251" d="M396.232,16.911c-.6,31.482-17.249,59.985-17.249,59.985s-37.273,51.474-5.775,120.394,21.524,73.173,21.524,73.173" transform="translate(-3.587 -0.168)" fill="none" stroke="#fff" stroke-miterlimit="10" stroke-width="1"/>
            <g id="Grupo_143545" data-name="Grupo 143545" transform="translate(74.884 140.286)" style="isolation: isolate">
              <g id="Grupo_143544" data-name="Grupo 143544">
                <g id="Grupo_143543" data-name="Grupo 143543" clip-path="url(#clip-path-2)">
                  <g id="Grupo_143542" data-name="Grupo 143542" style="isolation: isolate">
                    <g id="Grupo_143541" data-name="Grupo 143541">
                      <g id="Grupo_143540" data-name="Grupo 143540" clip-path="url(#clip-path-2)">
                        <path id="Trazado_161547" data-name="Trazado 161547" d="M3.07-6.687h1.2a1.7,1.7,0,0,0,1.273-.43,1.574,1.574,0,0,0,.414-1.141,1.392,1.392,0,0,0-.41-1.07,1.59,1.59,0,0,0-1.129-.383,1.666,1.666,0,0,0-1.086.355A1.137,1.137,0,0,0,2.9-8.43H.641a2.777,2.777,0,0,1,.48-1.6,3.2,3.2,0,0,1,1.344-1.105,4.485,4.485,0,0,1,1.9-.4,4.253,4.253,0,0,1,2.828.863A2.945,2.945,0,0,1,8.219-8.289a2.394,2.394,0,0,1-.477,1.438,3.1,3.1,0,0,1-1.25,1.008A2.826,2.826,0,0,1,7.926-4.812,2.8,2.8,0,0,1,8.4-3.187,2.994,2.994,0,0,1,7.293-.758,4.445,4.445,0,0,1,4.367.156a4.214,4.214,0,0,1-2.785-.9A2.934,2.934,0,0,1,.5-3.117H2.758a1.308,1.308,0,0,0,.48,1.047,1.771,1.771,0,0,0,1.184.406A1.779,1.779,0,0,0,5.684-2.09a1.47,1.47,0,0,0,.457-1.129q0-1.7-1.875-1.7H3.07Zm14.3-1.664a2.646,2.646,0,0,1-.414,1.469,2.98,2.98,0,0,1-1.141,1.023,3.3,3.3,0,0,1,1.313,1.1,2.816,2.816,0,0,1,.484,1.645A2.981,2.981,0,0,1,16.578-.723a4.183,4.183,0,0,1-2.8.879,4.2,4.2,0,0,1-2.812-.883A2.974,2.974,0,0,1,9.922-3.117a2.834,2.834,0,0,1,.484-1.648,3.239,3.239,0,0,1,1.3-1.094,2.95,2.95,0,0,1-1.137-1.023,2.664,2.664,0,0,1-.41-1.469,2.948,2.948,0,0,1,.969-2.316,3.814,3.814,0,0,1,2.633-.863,3.839,3.839,0,0,1,2.629.855A2.937,2.937,0,0,1,17.367-8.352Zm-2.023,5.07a1.638,1.638,0,0,0-.43-1.187,1.532,1.532,0,0,0-1.156-.445,1.529,1.529,0,0,0-1.148.441,1.635,1.635,0,0,0-.43,1.191A1.634,1.634,0,0,0,12.6-2.109a1.537,1.537,0,0,0,1.172.445,1.533,1.533,0,0,0,1.152-.43A1.631,1.631,0,0,0,15.344-3.281Zm-.234-4.961a1.563,1.563,0,0,0-.352-1.066,1.247,1.247,0,0,0-.992-.4,1.256,1.256,0,0,0-.984.391,1.553,1.553,0,0,0-.352,1.078,1.633,1.633,0,0,0,.352,1.094,1.23,1.23,0,0,0,.992.414,1.219,1.219,0,0,0,.988-.414A1.645,1.645,0,0,0,15.109-8.242ZM26.789-4.7a5.763,5.763,0,0,1-.977,3.609A3.409,3.409,0,0,1,22.953.156,3.433,3.433,0,0,1,20.109-1.07,5.594,5.594,0,0,1,19.1-4.586V-6.68A5.687,5.687,0,0,1,20.09-10.3a3.434,3.434,0,0,1,2.848-1.234,3.437,3.437,0,0,1,2.844,1.223A5.576,5.576,0,0,1,26.789-6.8Zm-2.258-2.3a4.165,4.165,0,0,0-.387-2.061,1.307,1.307,0,0,0-1.207-.645,1.284,1.284,0,0,0-1.176.614,3.9,3.9,0,0,0-.4,1.92v2.768a4.373,4.373,0,0,0,.379,2.068,1.29,1.29,0,0,0,1.215.676,1.268,1.268,0,0,0,1.2-.649A4.268,4.268,0,0,0,24.531-4.3Zm12.25,3.044h-4.4v-1.82h4.4Zm12.383-.32h1.289v1.82H49.164V0H46.906V-2.461H42.242l-.1-1.422,4.742-7.492h2.281Zm-4.773,0h2.516V-8.3l-.148.258ZM52-5.594l.656-5.781h6.375v1.883H54.508l-.281,2.445a3.58,3.58,0,0,1,1.711-.43,3.279,3.279,0,0,1,2.547,1.008,4.026,4.026,0,0,1,.922,2.82,4.124,4.124,0,0,1-.465,1.973A3.281,3.281,0,0,1,57.609-.324a4.158,4.158,0,0,1-2.047.48,4.416,4.416,0,0,1-1.914-.418,3.4,3.4,0,0,1-1.395-1.176,3.2,3.2,0,0,1-.543-1.727h2.234a1.669,1.669,0,0,0,.5,1.105,1.573,1.573,0,0,0,1.113.395,1.388,1.388,0,0,0,1.18-.551,2.551,2.551,0,0,0,.414-1.559,2.11,2.11,0,0,0-.477-1.484,1.749,1.749,0,0,0-1.352-.516,1.954,1.954,0,0,0-1.3.422l-.219.2ZM68.5-4.7a5.763,5.763,0,0,1-.977,3.609A3.409,3.409,0,0,1,64.664.156,3.433,3.433,0,0,1,61.82-1.07a5.594,5.594,0,0,1-1.008-3.516V-6.68A5.687,5.687,0,0,1,61.8-10.3a3.434,3.434,0,0,1,2.848-1.234,3.437,3.437,0,0,1,2.844,1.223A5.576,5.576,0,0,1,68.5-6.8Zm-2.258-2.3a4.165,4.165,0,0,0-.387-2.061,1.307,1.307,0,0,0-1.207-.645,1.284,1.284,0,0,0-1.176.614,3.9,3.9,0,0,0-.4,1.92v2.768a4.372,4.372,0,0,0,.379,2.068,1.29,1.29,0,0,0,1.215.676,1.268,1.268,0,0,0,1.2-.649A4.268,4.268,0,0,0,66.242-4.3ZM80.2-8.453l.07.945a2.971,2.971,0,0,1,2.43-1.1A2.255,2.255,0,0,1,84.945-7.32a2.9,2.9,0,0,1,2.539-1.289,2.521,2.521,0,0,1,2.047.8A3.681,3.681,0,0,1,90.2-5.4V0H87.938V-5.4a1.616,1.616,0,0,0-.281-1.053,1.245,1.245,0,0,0-.992-.333,1.409,1.409,0,0,0-1.406.971L85.266,0H83.008V-5.4a1.6,1.6,0,0,0-.289-1.065,1.257,1.257,0,0,0-.984-.329,1.463,1.463,0,0,0-1.391.8V0H78.086V-8.453Zm13.852,0,.07.945a2.971,2.971,0,0,1,2.43-1.1A2.255,2.255,0,0,1,98.8-7.32a2.9,2.9,0,0,1,2.539-1.289,2.521,2.521,0,0,1,2.047.8,3.681,3.681,0,0,1,.672,2.41V0h-2.266V-5.4a1.616,1.616,0,0,0-.281-1.053,1.245,1.245,0,0,0-.992-.333,1.409,1.409,0,0,0-1.406.971L99.117,0H96.859V-5.4A1.6,1.6,0,0,0,96.57-6.46a1.257,1.257,0,0,0-.984-.329,1.463,1.463,0,0,0-1.391.8V0H91.938V-8.453Z" transform="translate(13.488 110.619) rotate(-90)"/>
                      </g>
                    </g>
                  </g>
                </g>
              </g>
            </g>
            <g id="Grupo_143551" data-name="Grupo 143551" transform="translate(124.065 119.524)" style="isolation: isolate">
              <g id="Grupo_143550" data-name="Grupo 143550">
                <g id="Grupo_143549" data-name="Grupo 143549" clip-path="url(#clip-path-2)">
                  <g id="Grupo_143548" data-name="Grupo 143548" style="isolation: isolate">
                    <g id="Grupo_143547" data-name="Grupo 143547">
                      <g id="Grupo_143546" data-name="Grupo 143546" clip-path="url(#clip-path-2)">
                        <path id="Trazado_161546" data-name="Trazado 161546" d="M7.453-4.281H8.742v1.82H7.453V0H5.2V-2.461H.531L.43-3.883l4.742-7.492H7.453Zm-4.773,0H5.2V-8.3l-.148.258Zm7.609-1.312.656-5.781H17.32v1.883H12.8l-.281,2.445a3.58,3.58,0,0,1,1.711-.43,3.279,3.279,0,0,1,2.547,1.008,4.026,4.026,0,0,1,.922,2.82,4.124,4.124,0,0,1-.465,1.973A3.281,3.281,0,0,1,15.9-.324a4.158,4.158,0,0,1-2.047.48,4.416,4.416,0,0,1-1.914-.418,3.4,3.4,0,0,1-1.395-1.176A3.2,3.2,0,0,1,10-3.164h2.234a1.669,1.669,0,0,0,.5,1.105,1.573,1.573,0,0,0,1.113.395,1.388,1.388,0,0,0,1.18-.551,2.551,2.551,0,0,0,.414-1.559,2.11,2.11,0,0,0-.477-1.484,1.749,1.749,0,0,0-1.352-.516,1.954,1.954,0,0,0-1.3.422l-.219.2Zm16.5.891a5.763,5.763,0,0,1-.977,3.609A3.409,3.409,0,0,1,22.953.156,3.433,3.433,0,0,1,20.109-1.07,5.594,5.594,0,0,1,19.1-4.586V-6.68A5.687,5.687,0,0,1,20.09-10.3a3.434,3.434,0,0,1,2.848-1.234,3.437,3.437,0,0,1,2.844,1.223A5.576,5.576,0,0,1,26.789-6.8Zm-2.258-2.3a4.165,4.165,0,0,0-.387-2.061,1.307,1.307,0,0,0-1.207-.645,1.284,1.284,0,0,0-1.176.614,3.9,3.9,0,0,0-.4,1.92v2.768a4.373,4.373,0,0,0,.379,2.068,1.29,1.29,0,0,0,1.215.676,1.268,1.268,0,0,0,1.2-.649A4.268,4.268,0,0,0,24.531-4.3Zm12.25,3.044h-4.4v-1.82h4.4Zm12.383-.32h1.289v1.82H49.164V0H46.906V-2.461H42.242l-.1-1.422,4.742-7.492h2.281Zm-4.773,0h2.516V-8.3l-.148.258Zm14.688-4.07a2.646,2.646,0,0,1-.414,1.469,2.98,2.98,0,0,1-1.141,1.023,3.3,3.3,0,0,1,1.313,1.1,2.816,2.816,0,0,1,.484,1.645A2.981,2.981,0,0,1,58.289-.723a4.183,4.183,0,0,1-2.8.879,4.2,4.2,0,0,1-2.812-.883,2.974,2.974,0,0,1-1.039-2.391,2.834,2.834,0,0,1,.484-1.648,3.239,3.239,0,0,1,1.3-1.094,2.95,2.95,0,0,1-1.137-1.023,2.664,2.664,0,0,1-.41-1.469,2.948,2.948,0,0,1,.969-2.316,3.814,3.814,0,0,1,2.633-.863,3.839,3.839,0,0,1,2.629.855A2.937,2.937,0,0,1,59.078-8.352Zm-2.023,5.07a1.638,1.638,0,0,0-.43-1.187,1.532,1.532,0,0,0-1.156-.445,1.529,1.529,0,0,0-1.148.441,1.635,1.635,0,0,0-.43,1.191,1.634,1.634,0,0,0,.422,1.172,1.537,1.537,0,0,0,1.172.445,1.533,1.533,0,0,0,1.152-.43A1.631,1.631,0,0,0,57.055-3.281ZM56.82-8.242a1.563,1.563,0,0,0-.352-1.066,1.247,1.247,0,0,0-.992-.4,1.256,1.256,0,0,0-.984.391,1.553,1.553,0,0,0-.352,1.078,1.633,1.633,0,0,0,.352,1.094,1.23,1.23,0,0,0,.992.414,1.219,1.219,0,0,0,.988-.414A1.645,1.645,0,0,0,56.82-8.242ZM68.5-4.7a5.763,5.763,0,0,1-.977,3.609A3.409,3.409,0,0,1,64.664.156,3.433,3.433,0,0,1,61.82-1.07a5.594,5.594,0,0,1-1.008-3.516V-6.68A5.687,5.687,0,0,1,61.8-10.3a3.434,3.434,0,0,1,2.848-1.234,3.437,3.437,0,0,1,2.844,1.223A5.576,5.576,0,0,1,68.5-6.8Zm-2.258-2.3a4.165,4.165,0,0,0-.387-2.061,1.307,1.307,0,0,0-1.207-.645,1.284,1.284,0,0,0-1.176.614,3.9,3.9,0,0,0-.4,1.92v2.768a4.372,4.372,0,0,0,.379,2.068,1.29,1.29,0,0,0,1.215.676,1.268,1.268,0,0,0,1.2-.649A4.268,4.268,0,0,0,66.242-4.3ZM80.2-8.453l.07.945a2.971,2.971,0,0,1,2.43-1.1A2.255,2.255,0,0,1,84.945-7.32a2.9,2.9,0,0,1,2.539-1.289,2.521,2.521,0,0,1,2.047.8A3.681,3.681,0,0,1,90.2-5.4V0H87.938V-5.4a1.616,1.616,0,0,0-.281-1.053,1.245,1.245,0,0,0-.992-.333,1.409,1.409,0,0,0-1.406.971L85.266,0H83.008V-5.4a1.6,1.6,0,0,0-.289-1.065,1.257,1.257,0,0,0-.984-.329,1.463,1.463,0,0,0-1.391.8V0H78.086V-8.453Zm13.852,0,.07.945a2.971,2.971,0,0,1,2.43-1.1A2.255,2.255,0,0,1,98.8-7.32a2.9,2.9,0,0,1,2.539-1.289,2.521,2.521,0,0,1,2.047.8,3.681,3.681,0,0,1,.672,2.41V0h-2.266V-5.4a1.616,1.616,0,0,0-.281-1.053,1.245,1.245,0,0,0-.992-.333,1.409,1.409,0,0,0-1.406.971L99.117,0H96.859V-5.4A1.6,1.6,0,0,0,96.57-6.46a1.257,1.257,0,0,0-.984-.329,1.463,1.463,0,0,0-1.391.8V0H91.938V-8.453Z" transform="translate(13.488 110.619) rotate(-90)"/>
                      </g>
                    </g>
                  </g>
                </g>
              </g>
            </g>
            <g id="Grupo_143557" data-name="Grupo 143557" transform="translate(173.575 113.295)" style="isolation: isolate">
              <g id="Grupo_143556" data-name="Grupo 143556">
                <g id="Grupo_143555" data-name="Grupo 143555" clip-path="url(#clip-path-6)">
                  <g id="Grupo_143554" data-name="Grupo 143554" style="isolation: isolate">
                    <g id="Grupo_143553" data-name="Grupo 143553">
                      <g id="Grupo_143552" data-name="Grupo 143552" clip-path="url(#clip-path-6)">
                        <path id="Trazado_161545" data-name="Trazado 161545" d="M7.453-4.281H8.742v1.82H7.453V0H5.2V-2.461H.531L.43-3.883l4.742-7.492H7.453Zm-4.773,0H5.2V-8.3l-.148.258Zm14.688-4.07a2.646,2.646,0,0,1-.414,1.469,2.98,2.98,0,0,1-1.141,1.023,3.3,3.3,0,0,1,1.313,1.1,2.816,2.816,0,0,1,.484,1.645A2.981,2.981,0,0,1,16.578-.723a4.183,4.183,0,0,1-2.8.879,4.2,4.2,0,0,1-2.812-.883A2.974,2.974,0,0,1,9.922-3.117a2.834,2.834,0,0,1,.484-1.648,3.239,3.239,0,0,1,1.3-1.094,2.95,2.95,0,0,1-1.137-1.023,2.664,2.664,0,0,1-.41-1.469,2.948,2.948,0,0,1,.969-2.316,3.814,3.814,0,0,1,2.633-.863,3.839,3.839,0,0,1,2.629.855A2.937,2.937,0,0,1,17.367-8.352Zm-2.023,5.07a1.638,1.638,0,0,0-.43-1.187,1.532,1.532,0,0,0-1.156-.445,1.529,1.529,0,0,0-1.148.441,1.635,1.635,0,0,0-.43,1.191A1.634,1.634,0,0,0,12.6-2.109a1.537,1.537,0,0,0,1.172.445,1.533,1.533,0,0,0,1.152-.43A1.631,1.631,0,0,0,15.344-3.281Zm-.234-4.961a1.563,1.563,0,0,0-.352-1.066,1.247,1.247,0,0,0-.992-.4,1.256,1.256,0,0,0-.984.391,1.553,1.553,0,0,0-.352,1.078,1.633,1.633,0,0,0,.352,1.094,1.23,1.23,0,0,0,.992.414,1.219,1.219,0,0,0,.988-.414A1.645,1.645,0,0,0,15.109-8.242ZM26.789-4.7a5.763,5.763,0,0,1-.977,3.609A3.409,3.409,0,0,1,22.953.156,3.433,3.433,0,0,1,20.109-1.07,5.594,5.594,0,0,1,19.1-4.586V-6.68A5.687,5.687,0,0,1,20.09-10.3a3.434,3.434,0,0,1,2.848-1.234,3.437,3.437,0,0,1,2.844,1.223A5.576,5.576,0,0,1,26.789-6.8Zm-2.258-2.3a4.165,4.165,0,0,0-.387-2.061,1.307,1.307,0,0,0-1.207-.645,1.284,1.284,0,0,0-1.176.614,3.9,3.9,0,0,0-.4,1.92v2.768a4.373,4.373,0,0,0,.379,2.068,1.29,1.29,0,0,0,1.215.676,1.268,1.268,0,0,0,1.2-.649A4.268,4.268,0,0,0,24.531-4.3Zm12.25,3.044h-4.4v-1.82h4.4ZM42.82-5.594l.656-5.781h6.375v1.883H45.328l-.281,2.445a3.58,3.58,0,0,1,1.711-.43A3.279,3.279,0,0,1,49.3-6.469a4.026,4.026,0,0,1,.922,2.82,4.124,4.124,0,0,1-.465,1.973A3.281,3.281,0,0,1,48.43-.324a4.158,4.158,0,0,1-2.047.48,4.416,4.416,0,0,1-1.914-.418,3.4,3.4,0,0,1-1.395-1.176,3.2,3.2,0,0,1-.543-1.727h2.234a1.669,1.669,0,0,0,.5,1.105,1.573,1.573,0,0,0,1.113.395,1.388,1.388,0,0,0,1.18-.551,2.551,2.551,0,0,0,.414-1.559,2.11,2.11,0,0,0-.477-1.484,1.749,1.749,0,0,0-1.352-.516,1.954,1.954,0,0,0-1.3.422l-.219.2ZM57.148,0H54.891V-8.715l-2.7.832V-9.7l4.711-1.687h.242ZM68.5-4.7a5.763,5.763,0,0,1-.977,3.609A3.409,3.409,0,0,1,64.664.156,3.433,3.433,0,0,1,61.82-1.07a5.594,5.594,0,0,1-1.008-3.516V-6.68A5.687,5.687,0,0,1,61.8-10.3a3.434,3.434,0,0,1,2.848-1.234,3.437,3.437,0,0,1,2.844,1.223A5.576,5.576,0,0,1,68.5-6.8Zm-2.258-2.3a4.165,4.165,0,0,0-.387-2.061,1.307,1.307,0,0,0-1.207-.645,1.284,1.284,0,0,0-1.176.614,3.9,3.9,0,0,0-.4,1.92v2.768a4.372,4.372,0,0,0,.379,2.068,1.29,1.29,0,0,0,1.215.676,1.268,1.268,0,0,0,1.2-.649A4.268,4.268,0,0,0,66.242-4.3ZM80.2-8.453l.07.945a2.971,2.971,0,0,1,2.43-1.1A2.255,2.255,0,0,1,84.945-7.32a2.9,2.9,0,0,1,2.539-1.289,2.521,2.521,0,0,1,2.047.8A3.681,3.681,0,0,1,90.2-5.4V0H87.938V-5.4a1.616,1.616,0,0,0-.281-1.053,1.245,1.245,0,0,0-.992-.333,1.409,1.409,0,0,0-1.406.971L85.266,0H83.008V-5.4a1.6,1.6,0,0,0-.289-1.065,1.257,1.257,0,0,0-.984-.329,1.463,1.463,0,0,0-1.391.8V0H78.086V-8.453Zm13.852,0,.07.945a2.971,2.971,0,0,1,2.43-1.1A2.255,2.255,0,0,1,98.8-7.32a2.9,2.9,0,0,1,2.539-1.289,2.521,2.521,0,0,1,2.047.8,3.681,3.681,0,0,1,.672,2.41V0h-2.266V-5.4a1.616,1.616,0,0,0-.281-1.053,1.245,1.245,0,0,0-.992-.333,1.409,1.409,0,0,0-1.406.971L99.117,0H96.859V-5.4A1.6,1.6,0,0,0,96.57-6.46a1.257,1.257,0,0,0-.984-.329,1.463,1.463,0,0,0-1.391.8V0H91.938V-8.453Z" transform="translate(13.488 110.62) rotate(-90)"/>
                      </g>
                    </g>
                  </g>
                </g>
              </g>
            </g>
            <g id="Grupo_143563" data-name="Grupo 143563" transform="translate(224.482 97.742)" style="isolation: isolate">
              <g id="Grupo_143562" data-name="Grupo 143562">
                <g id="Grupo_143561" data-name="Grupo 143561" clip-path="url(#clip-path-8)">
                  <g id="Grupo_143560" data-name="Grupo 143560" style="isolation: isolate">
                    <g id="Grupo_143559" data-name="Grupo 143559">
                      <g id="Grupo_143558" data-name="Grupo 143558" clip-path="url(#clip-path-8)">
                        <path id="Trazado_161544" data-name="Trazado 161544" d="M1.109-5.594l.656-5.781H8.141v1.883H3.617L3.336-7.047a3.58,3.58,0,0,1,1.711-.43A3.279,3.279,0,0,1,7.594-6.469a4.026,4.026,0,0,1,.922,2.82,4.124,4.124,0,0,1-.465,1.973A3.281,3.281,0,0,1,6.719-.324a4.158,4.158,0,0,1-2.047.48A4.416,4.416,0,0,1,2.758-.262,3.4,3.4,0,0,1,1.363-1.437,3.2,3.2,0,0,1,.82-3.164H3.055a1.669,1.669,0,0,0,.5,1.105,1.573,1.573,0,0,0,1.113.395,1.388,1.388,0,0,0,1.18-.551,2.551,2.551,0,0,0,.414-1.559,2.11,2.11,0,0,0-.477-1.484A1.749,1.749,0,0,0,4.43-5.773a1.954,1.954,0,0,0-1.3.422l-.219.2ZM15.438,0H13.18V-8.715l-2.7.832V-9.7L15.2-11.391h.242ZM26.789-4.7a5.763,5.763,0,0,1-.977,3.609A3.409,3.409,0,0,1,22.953.156,3.433,3.433,0,0,1,20.109-1.07,5.594,5.594,0,0,1,19.1-4.586V-6.68A5.687,5.687,0,0,1,20.09-10.3a3.434,3.434,0,0,1,2.848-1.234,3.437,3.437,0,0,1,2.844,1.223A5.576,5.576,0,0,1,26.789-6.8Zm-2.258-2.3a4.165,4.165,0,0,0-.387-2.061,1.307,1.307,0,0,0-1.207-.645,1.284,1.284,0,0,0-1.176.614,3.9,3.9,0,0,0-.4,1.92v2.768a4.373,4.373,0,0,0,.379,2.068,1.29,1.29,0,0,0,1.215.676,1.268,1.268,0,0,0,1.2-.649A4.268,4.268,0,0,0,24.531-4.3Zm12.25,3.044h-4.4v-1.82h4.4ZM42.82-5.594l.656-5.781h6.375v1.883H45.328l-.281,2.445a3.58,3.58,0,0,1,1.711-.43A3.279,3.279,0,0,1,49.3-6.469a4.026,4.026,0,0,1,.922,2.82,4.124,4.124,0,0,1-.465,1.973A3.281,3.281,0,0,1,48.43-.324a4.158,4.158,0,0,1-2.047.48,4.416,4.416,0,0,1-1.914-.418,3.4,3.4,0,0,1-1.395-1.176,3.2,3.2,0,0,1-.543-1.727h2.234a1.669,1.669,0,0,0,.5,1.105,1.573,1.573,0,0,0,1.113.395,1.388,1.388,0,0,0,1.18-.551,2.551,2.551,0,0,0,.414-1.559,2.11,2.11,0,0,0-.477-1.484,1.749,1.749,0,0,0-1.352-.516,1.954,1.954,0,0,0-1.3.422l-.219.2ZM59.4-10.115,55,0H52.617l4.406-9.555H51.367v-1.82H59.4ZM61.18-5.594l.656-5.781h6.375v1.883H63.688l-.281,2.445a3.58,3.58,0,0,1,1.711-.43,3.279,3.279,0,0,1,2.547,1.008,4.026,4.026,0,0,1,.922,2.82,4.124,4.124,0,0,1-.465,1.973A3.281,3.281,0,0,1,66.789-.324a4.158,4.158,0,0,1-2.047.48,4.416,4.416,0,0,1-1.914-.418,3.4,3.4,0,0,1-1.395-1.176,3.2,3.2,0,0,1-.543-1.727h2.234a1.669,1.669,0,0,0,.5,1.105,1.573,1.573,0,0,0,1.113.395,1.388,1.388,0,0,0,1.18-.551,2.551,2.551,0,0,0,.414-1.559,2.11,2.11,0,0,0-.477-1.484A1.749,1.749,0,0,0,64.5-5.773a1.954,1.954,0,0,0-1.3.422l-.219.2ZM76.219-8.453l.07.945a2.971,2.971,0,0,1,2.43-1.1A2.255,2.255,0,0,1,80.961-7.32,2.9,2.9,0,0,1,83.5-8.609a2.521,2.521,0,0,1,2.047.8,3.681,3.681,0,0,1,.672,2.41V0H83.953V-5.4a1.616,1.616,0,0,0-.281-1.053,1.245,1.245,0,0,0-.992-.333,1.409,1.409,0,0,0-1.406.971L81.281,0H79.023V-5.4a1.6,1.6,0,0,0-.289-1.065,1.257,1.257,0,0,0-.984-.329,1.463,1.463,0,0,0-1.391.8V0H74.1V-8.453Zm13.852,0,.07.945a2.971,2.971,0,0,1,2.43-1.1A2.255,2.255,0,0,1,94.813-7.32a2.9,2.9,0,0,1,2.539-1.289,2.521,2.521,0,0,1,2.047.8,3.681,3.681,0,0,1,.672,2.41V0H97.8V-5.4a1.616,1.616,0,0,0-.281-1.053,1.245,1.245,0,0,0-.992-.333,1.409,1.409,0,0,0-1.406.971L95.133,0H92.875V-5.4a1.6,1.6,0,0,0-.289-1.065,1.257,1.257,0,0,0-.984-.329,1.463,1.463,0,0,0-1.391.8V0H87.953V-8.453Z" transform="translate(13.488 106.448) rotate(-90)"/>
                      </g>
                    </g>
                  </g>
                </g>
              </g>
            </g>
            <g id="Grupo_143569" data-name="Grupo 143569" transform="translate(273.413 97.742)" style="isolation: isolate">
              <g id="Grupo_143568" data-name="Grupo 143568">
                <g id="Grupo_143567" data-name="Grupo 143567" clip-path="url(#clip-path-10)">
                  <g id="Grupo_143566" data-name="Grupo 143566" style="isolation: isolate">
                    <g id="Grupo_143565" data-name="Grupo 143565">
                      <g id="Grupo_143564" data-name="Grupo 143564" clip-path="url(#clip-path-10)">
                        <path id="Trazado_161543" data-name="Trazado 161543" d="M1.109-5.594l.656-5.781H8.141v1.883H3.617L3.336-7.047a3.58,3.58,0,0,1,1.711-.43A3.279,3.279,0,0,1,7.594-6.469a4.026,4.026,0,0,1,.922,2.82,4.124,4.124,0,0,1-.465,1.973A3.281,3.281,0,0,1,6.719-.324a4.158,4.158,0,0,1-2.047.48A4.416,4.416,0,0,1,2.758-.262,3.4,3.4,0,0,1,1.363-1.437,3.2,3.2,0,0,1,.82-3.164H3.055a1.669,1.669,0,0,0,.5,1.105,1.573,1.573,0,0,0,1.113.395,1.388,1.388,0,0,0,1.18-.551,2.551,2.551,0,0,0,.414-1.559,2.11,2.11,0,0,0-.477-1.484A1.749,1.749,0,0,0,4.43-5.773a1.954,1.954,0,0,0-1.3.422l-.219.2Zm16.578-4.521L13.289,0H10.906l4.406-9.555H9.656v-1.82h8.031Zm1.781,4.521.656-5.781H26.5v1.883H21.977L21.7-7.047a3.58,3.58,0,0,1,1.711-.43,3.279,3.279,0,0,1,2.547,1.008,4.026,4.026,0,0,1,.922,2.82,4.124,4.124,0,0,1-.465,1.973A3.281,3.281,0,0,1,25.078-.324a4.158,4.158,0,0,1-2.047.48,4.416,4.416,0,0,1-1.914-.418,3.4,3.4,0,0,1-1.395-1.176,3.2,3.2,0,0,1-.543-1.727h2.234a1.669,1.669,0,0,0,.5,1.105,1.573,1.573,0,0,0,1.113.395,1.388,1.388,0,0,0,1.18-.551,2.551,2.551,0,0,0,.414-1.559,2.11,2.11,0,0,0-.477-1.484,1.749,1.749,0,0,0-1.352-.516,1.954,1.954,0,0,0-1.3.422l-.219.2ZM36.781-3.961h-4.4v-1.82h4.4ZM42.82-5.594l.656-5.781h6.375v1.883H45.328l-.281,2.445a3.58,3.58,0,0,1,1.711-.43A3.279,3.279,0,0,1,49.3-6.469a4.026,4.026,0,0,1,.922,2.82,4.124,4.124,0,0,1-.465,1.973A3.281,3.281,0,0,1,48.43-.324a4.158,4.158,0,0,1-2.047.48,4.416,4.416,0,0,1-1.914-.418,3.4,3.4,0,0,1-1.395-1.176,3.2,3.2,0,0,1-.543-1.727h2.234a1.669,1.669,0,0,0,.5,1.105,1.573,1.573,0,0,0,1.113.395,1.388,1.388,0,0,0,1.18-.551,2.551,2.551,0,0,0,.414-1.559,2.11,2.11,0,0,0-.477-1.484,1.749,1.749,0,0,0-1.352-.516,1.954,1.954,0,0,0-1.3.422l-.219.2ZM59.078-8.352a2.646,2.646,0,0,1-.414,1.469,2.98,2.98,0,0,1-1.141,1.023,3.3,3.3,0,0,1,1.313,1.1,2.816,2.816,0,0,1,.484,1.645A2.981,2.981,0,0,1,58.289-.723a4.183,4.183,0,0,1-2.8.879,4.2,4.2,0,0,1-2.812-.883,2.974,2.974,0,0,1-1.039-2.391,2.834,2.834,0,0,1,.484-1.648,3.239,3.239,0,0,1,1.3-1.094,2.95,2.95,0,0,1-1.137-1.023,2.664,2.664,0,0,1-.41-1.469,2.948,2.948,0,0,1,.969-2.316,3.814,3.814,0,0,1,2.633-.863,3.839,3.839,0,0,1,2.629.855A2.937,2.937,0,0,1,59.078-8.352Zm-2.023,5.07a1.638,1.638,0,0,0-.43-1.187,1.532,1.532,0,0,0-1.156-.445,1.529,1.529,0,0,0-1.148.441,1.635,1.635,0,0,0-.43,1.191,1.634,1.634,0,0,0,.422,1.172,1.537,1.537,0,0,0,1.172.445,1.533,1.533,0,0,0,1.152-.43A1.631,1.631,0,0,0,57.055-3.281ZM56.82-8.242a1.563,1.563,0,0,0-.352-1.066,1.247,1.247,0,0,0-.992-.4,1.256,1.256,0,0,0-.984.391,1.553,1.553,0,0,0-.352,1.078,1.633,1.633,0,0,0,.352,1.094,1.23,1.23,0,0,0,.992.414,1.219,1.219,0,0,0,.988-.414A1.645,1.645,0,0,0,56.82-8.242ZM61.18-5.594l.656-5.781h6.375v1.883H63.688l-.281,2.445a3.58,3.58,0,0,1,1.711-.43,3.279,3.279,0,0,1,2.547,1.008,4.026,4.026,0,0,1,.922,2.82,4.124,4.124,0,0,1-.465,1.973A3.281,3.281,0,0,1,66.789-.324a4.158,4.158,0,0,1-2.047.48,4.416,4.416,0,0,1-1.914-.418,3.4,3.4,0,0,1-1.395-1.176,3.2,3.2,0,0,1-.543-1.727h2.234a1.669,1.669,0,0,0,.5,1.105,1.573,1.573,0,0,0,1.113.395,1.388,1.388,0,0,0,1.18-.551,2.551,2.551,0,0,0,.414-1.559,2.11,2.11,0,0,0-.477-1.484A1.749,1.749,0,0,0,64.5-5.773a1.954,1.954,0,0,0-1.3.422l-.219.2ZM76.219-8.453l.07.945a2.971,2.971,0,0,1,2.43-1.1A2.255,2.255,0,0,1,80.961-7.32,2.9,2.9,0,0,1,83.5-8.609a2.521,2.521,0,0,1,2.047.8,3.681,3.681,0,0,1,.672,2.41V0H83.953V-5.4a1.616,1.616,0,0,0-.281-1.053,1.245,1.245,0,0,0-.992-.333,1.409,1.409,0,0,0-1.406.971L81.281,0H79.023V-5.4a1.6,1.6,0,0,0-.289-1.065,1.257,1.257,0,0,0-.984-.329,1.463,1.463,0,0,0-1.391.8V0H74.1V-8.453Zm13.852,0,.07.945a2.971,2.971,0,0,1,2.43-1.1A2.255,2.255,0,0,1,94.813-7.32a2.9,2.9,0,0,1,2.539-1.289,2.521,2.521,0,0,1,2.047.8,3.681,3.681,0,0,1,.672,2.41V0H97.8V-5.4a1.616,1.616,0,0,0-.281-1.053,1.245,1.245,0,0,0-.992-.333,1.409,1.409,0,0,0-1.406.971L95.133,0H92.875V-5.4a1.6,1.6,0,0,0-.289-1.065,1.257,1.257,0,0,0-.984-.329,1.463,1.463,0,0,0-1.391.8V0H87.953V-8.453Z" transform="translate(13.488 106.448) rotate(-90)"/>
                      </g>
                    </g>
                  </g>
                </g>
              </g>
            </g>
            <g id="Grupo_143575" data-name="Grupo 143575" transform="translate(324.286 93.571)" style="isolation: isolate">
              <g id="Grupo_143574" data-name="Grupo 143574">
                <g id="Grupo_143573" data-name="Grupo 143573" clip-path="url(#clip-path-12)">
                  <g id="Grupo_143572" data-name="Grupo 143572" style="isolation: isolate">
                    <g id="Grupo_143571" data-name="Grupo 143571">
                      <g id="Grupo_143570" data-name="Grupo 143570" clip-path="url(#clip-path-12)">
                        <path id="Trazado_161542" data-name="Trazado 161542" d="M1.109-5.594l.656-5.781H8.141v1.883H3.617L3.336-7.047a3.58,3.58,0,0,1,1.711-.43A3.279,3.279,0,0,1,7.594-6.469a4.026,4.026,0,0,1,.922,2.82,4.124,4.124,0,0,1-.465,1.973A3.281,3.281,0,0,1,6.719-.324a4.158,4.158,0,0,1-2.047.48A4.416,4.416,0,0,1,2.758-.262,3.4,3.4,0,0,1,1.363-1.437,3.2,3.2,0,0,1,.82-3.164H3.055a1.669,1.669,0,0,0,.5,1.105,1.573,1.573,0,0,0,1.113.395,1.388,1.388,0,0,0,1.18-.551,2.551,2.551,0,0,0,.414-1.559,2.11,2.11,0,0,0-.477-1.484A1.749,1.749,0,0,0,4.43-5.773a1.954,1.954,0,0,0-1.3.422l-.219.2ZM17.367-8.352a2.646,2.646,0,0,1-.414,1.469,2.98,2.98,0,0,1-1.141,1.023,3.3,3.3,0,0,1,1.313,1.1,2.816,2.816,0,0,1,.484,1.645A2.981,2.981,0,0,1,16.578-.723a4.183,4.183,0,0,1-2.8.879,4.2,4.2,0,0,1-2.812-.883A2.974,2.974,0,0,1,9.922-3.117a2.834,2.834,0,0,1,.484-1.648,3.239,3.239,0,0,1,1.3-1.094,2.95,2.95,0,0,1-1.137-1.023,2.664,2.664,0,0,1-.41-1.469,2.948,2.948,0,0,1,.969-2.316,3.814,3.814,0,0,1,2.633-.863,3.839,3.839,0,0,1,2.629.855A2.937,2.937,0,0,1,17.367-8.352Zm-2.023,5.07a1.638,1.638,0,0,0-.43-1.187,1.532,1.532,0,0,0-1.156-.445,1.529,1.529,0,0,0-1.148.441,1.635,1.635,0,0,0-.43,1.191A1.634,1.634,0,0,0,12.6-2.109a1.537,1.537,0,0,0,1.172.445,1.533,1.533,0,0,0,1.152-.43A1.631,1.631,0,0,0,15.344-3.281Zm-.234-4.961a1.563,1.563,0,0,0-.352-1.066,1.247,1.247,0,0,0-.992-.4,1.256,1.256,0,0,0-.984.391,1.553,1.553,0,0,0-.352,1.078,1.633,1.633,0,0,0,.352,1.094,1.23,1.23,0,0,0,.992.414,1.219,1.219,0,0,0,.988-.414A1.645,1.645,0,0,0,15.109-8.242Zm4.359,2.648.656-5.781H26.5v1.883H21.977L21.7-7.047a3.58,3.58,0,0,1,1.711-.43,3.279,3.279,0,0,1,2.547,1.008,4.026,4.026,0,0,1,.922,2.82,4.124,4.124,0,0,1-.465,1.973A3.281,3.281,0,0,1,25.078-.324a4.158,4.158,0,0,1-2.047.48,4.416,4.416,0,0,1-1.914-.418,3.4,3.4,0,0,1-1.395-1.176,3.2,3.2,0,0,1-.543-1.727h2.234a1.669,1.669,0,0,0,.5,1.105,1.573,1.573,0,0,0,1.113.395,1.388,1.388,0,0,0,1.18-.551,2.551,2.551,0,0,0,.414-1.559,2.11,2.11,0,0,0-.477-1.484,1.749,1.749,0,0,0-1.352-.516,1.954,1.954,0,0,0-1.3.422l-.219.2ZM36.781-3.961h-4.4v-1.82h4.4Zm11.828-7.531v1.859h-.219a3.836,3.836,0,0,0-2.465.8A3.238,3.238,0,0,0,44.8-6.687a3.075,3.075,0,0,1,2.289-.922,2.9,2.9,0,0,1,2.359,1.063,4.259,4.259,0,0,1,.875,2.8,4.19,4.19,0,0,1-.48,2.008,3.446,3.446,0,0,1-1.359,1.4,3.949,3.949,0,0,1-1.988.5,3.689,3.689,0,0,1-2.9-1.25A4.852,4.852,0,0,1,42.492-4.43v-.812a7.3,7.3,0,0,1,.7-3.27,5.127,5.127,0,0,1,2.008-2.2,5.884,5.884,0,0,1,3.035-.785Zm-2.2,5.7a1.8,1.8,0,0,0-.992.285,1.715,1.715,0,0,0-.656.753v.686A3.04,3.04,0,0,0,45.2-2.3a1.439,1.439,0,0,0,1.25.635,1.423,1.423,0,0,0,1.176-.573,2.337,2.337,0,0,0,.449-1.485,2.333,2.333,0,0,0-.453-1.5A1.477,1.477,0,0,0,46.406-5.789ZM59.461,0h-7.8V-1.547l3.68-3.922a9.078,9.078,0,0,0,1.121-1.445,2.322,2.322,0,0,0,.363-1.172,1.738,1.738,0,0,0-.383-1.191,1.382,1.382,0,0,0-1.094-.434,1.49,1.49,0,0,0-1.207.527A2.089,2.089,0,0,0,53.7-7.8H51.438a3.729,3.729,0,0,1,.5-1.9,3.5,3.5,0,0,1,1.4-1.348,4.262,4.262,0,0,1,2.055-.488,4.036,4.036,0,0,1,2.73.844A2.985,2.985,0,0,1,59.094-8.3a3.825,3.825,0,0,1-.437,1.719,9.551,9.551,0,0,1-1.5,2.039L54.57-1.82h4.891ZM68.5-4.7a5.763,5.763,0,0,1-.977,3.609A3.409,3.409,0,0,1,64.664.156,3.433,3.433,0,0,1,61.82-1.07a5.594,5.594,0,0,1-1.008-3.516V-6.68A5.687,5.687,0,0,1,61.8-10.3a3.434,3.434,0,0,1,2.848-1.234,3.437,3.437,0,0,1,2.844,1.223A5.576,5.576,0,0,1,68.5-6.8Zm-2.258-2.3a4.165,4.165,0,0,0-.387-2.061,1.307,1.307,0,0,0-1.207-.645,1.284,1.284,0,0,0-1.176.614,3.9,3.9,0,0,0-.4,1.92v2.768a4.372,4.372,0,0,0,.379,2.068,1.29,1.29,0,0,0,1.215.676,1.268,1.268,0,0,0,1.2-.649A4.268,4.268,0,0,0,66.242-4.3Zm9.977-1.448.07.945a2.971,2.971,0,0,1,2.43-1.1A2.255,2.255,0,0,1,80.961-7.32,2.9,2.9,0,0,1,83.5-8.609a2.521,2.521,0,0,1,2.047.8,3.681,3.681,0,0,1,.672,2.41V0H83.953V-5.4a1.616,1.616,0,0,0-.281-1.053,1.245,1.245,0,0,0-.992-.333,1.409,1.409,0,0,0-1.406.971L81.281,0H79.023V-5.4a1.6,1.6,0,0,0-.289-1.065,1.257,1.257,0,0,0-.984-.329,1.463,1.463,0,0,0-1.391.8V0H74.1V-8.453Zm13.852,0,.07.945a2.971,2.971,0,0,1,2.43-1.1A2.255,2.255,0,0,1,94.813-7.32a2.9,2.9,0,0,1,2.539-1.289,2.521,2.521,0,0,1,2.047.8,3.681,3.681,0,0,1,.672,2.41V0H97.8V-5.4a1.616,1.616,0,0,0-.281-1.053,1.245,1.245,0,0,0-.992-.333,1.409,1.409,0,0,0-1.406.971L95.133,0H92.875V-5.4a1.6,1.6,0,0,0-.289-1.065,1.257,1.257,0,0,0-.984-.329,1.463,1.463,0,0,0-1.391.8V0H87.953V-8.453Z" transform="translate(13.488 110.62) rotate(-90)"/>
                      </g>
                    </g>
                  </g>
                </g>
              </g>
            </g>
            <g id="Grupo_143581" data-name="Grupo 143581" transform="translate(373.118 97.742)" style="isolation: isolate">
              <g id="Grupo_143580" data-name="Grupo 143580">
                <g id="Enmascarar_grupo_196" data-name="Enmascarar grupo 196" clip-path="url(#clip-path-14)">
                  <g id="Grupo_143578" data-name="Grupo 143578" style="isolation: isolate">
                    <g id="Grupo_143577" data-name="Grupo 143577">
                      <g id="Grupo_143576" data-name="Grupo 143576" clip-path="url(#clip-path-8)">
                        <path id="Trazado_161541" data-name="Trazado 161541" d="M6.9-11.492v1.859H6.68a3.836,3.836,0,0,0-2.465.8A3.238,3.238,0,0,0,3.094-6.687a3.075,3.075,0,0,1,2.289-.922A2.9,2.9,0,0,1,7.742-6.547a4.259,4.259,0,0,1,.875,2.8,4.19,4.19,0,0,1-.48,2.008,3.446,3.446,0,0,1-1.359,1.4,3.949,3.949,0,0,1-1.988.5,3.689,3.689,0,0,1-2.9-1.25A4.852,4.852,0,0,1,.781-4.43v-.812a7.3,7.3,0,0,1,.7-3.27,5.127,5.127,0,0,1,2.008-2.2,5.884,5.884,0,0,1,3.035-.785Zm-2.2,5.7A1.8,1.8,0,0,0,3.7-5.5a1.715,1.715,0,0,0-.656.753v.686A3.04,3.04,0,0,0,3.492-2.3a1.439,1.439,0,0,0,1.25.635,1.423,1.423,0,0,0,1.176-.573,2.337,2.337,0,0,0,.449-1.485,2.333,2.333,0,0,0-.453-1.5A1.477,1.477,0,0,0,4.7-5.789ZM17.75,0h-7.8V-1.547l3.68-3.922a9.078,9.078,0,0,0,1.121-1.445,2.322,2.322,0,0,0,.363-1.172,1.738,1.738,0,0,0-.383-1.191,1.382,1.382,0,0,0-1.094-.434,1.49,1.49,0,0,0-1.207.527A2.089,2.089,0,0,0,11.992-7.8H9.727a3.729,3.729,0,0,1,.5-1.9,3.5,3.5,0,0,1,1.4-1.348,4.262,4.262,0,0,1,2.055-.488,4.036,4.036,0,0,1,2.73.844A2.985,2.985,0,0,1,17.383-8.3a3.825,3.825,0,0,1-.437,1.719,9.551,9.551,0,0,1-1.5,2.039L12.859-1.82H17.75Zm9.039-4.7a5.763,5.763,0,0,1-.977,3.609A3.409,3.409,0,0,1,22.953.156,3.433,3.433,0,0,1,20.109-1.07,5.594,5.594,0,0,1,19.1-4.586V-6.68A5.687,5.687,0,0,1,20.09-10.3a3.434,3.434,0,0,1,2.848-1.234,3.437,3.437,0,0,1,2.844,1.223A5.576,5.576,0,0,1,26.789-6.8Zm-2.258-2.3a4.165,4.165,0,0,0-.387-2.061,1.307,1.307,0,0,0-1.207-.645,1.284,1.284,0,0,0-1.176.614,3.9,3.9,0,0,0-.4,1.92v2.768a4.373,4.373,0,0,0,.379,2.068,1.29,1.29,0,0,0,1.215.676,1.268,1.268,0,0,0,1.2-.649A4.268,4.268,0,0,0,24.531-4.3Zm12.25,3.044h-4.4v-1.82h4.4Zm13.438-6.154L45.82,0H43.438l4.406-9.555H42.188v-1.82h8.031Zm8.859,1.763a2.646,2.646,0,0,1-.414,1.469,2.98,2.98,0,0,1-1.141,1.023,3.3,3.3,0,0,1,1.313,1.1,2.816,2.816,0,0,1,.484,1.645A2.981,2.981,0,0,1,58.289-.723a4.183,4.183,0,0,1-2.8.879,4.2,4.2,0,0,1-2.812-.883,2.974,2.974,0,0,1-1.039-2.391,2.834,2.834,0,0,1,.484-1.648,3.239,3.239,0,0,1,1.3-1.094,2.95,2.95,0,0,1-1.137-1.023,2.664,2.664,0,0,1-.41-1.469,2.948,2.948,0,0,1,.969-2.316,3.814,3.814,0,0,1,2.633-.863,3.839,3.839,0,0,1,2.629.855A2.937,2.937,0,0,1,59.078-8.352Zm-2.023,5.07a1.638,1.638,0,0,0-.43-1.187,1.532,1.532,0,0,0-1.156-.445,1.529,1.529,0,0,0-1.148.441,1.635,1.635,0,0,0-.43,1.191,1.634,1.634,0,0,0,.422,1.172,1.537,1.537,0,0,0,1.172.445,1.533,1.533,0,0,0,1.152-.43A1.631,1.631,0,0,0,57.055-3.281ZM56.82-8.242a1.563,1.563,0,0,0-.352-1.066,1.247,1.247,0,0,0-.992-.4,1.256,1.256,0,0,0-.984.391,1.553,1.553,0,0,0-.352,1.078,1.633,1.633,0,0,0,.352,1.094,1.23,1.23,0,0,0,.992.414,1.219,1.219,0,0,0,.988-.414A1.645,1.645,0,0,0,56.82-8.242ZM68.5-4.7a5.763,5.763,0,0,1-.977,3.609A3.409,3.409,0,0,1,64.664.156,3.433,3.433,0,0,1,61.82-1.07a5.594,5.594,0,0,1-1.008-3.516V-6.68A5.687,5.687,0,0,1,61.8-10.3a3.434,3.434,0,0,1,2.848-1.234,3.437,3.437,0,0,1,2.844,1.223A5.576,5.576,0,0,1,68.5-6.8Zm-2.258-2.3a4.165,4.165,0,0,0-.387-2.061,1.307,1.307,0,0,0-1.207-.645,1.284,1.284,0,0,0-1.176.614,3.9,3.9,0,0,0-.4,1.92v2.768a4.372,4.372,0,0,0,.379,2.068,1.29,1.29,0,0,0,1.215.676,1.268,1.268,0,0,0,1.2-.649A4.268,4.268,0,0,0,66.242-4.3Zm9.977-1.448.07.945a2.971,2.971,0,0,1,2.43-1.1A2.255,2.255,0,0,1,80.961-7.32,2.9,2.9,0,0,1,83.5-8.609a2.521,2.521,0,0,1,2.047.8,3.681,3.681,0,0,1,.672,2.41V0H83.953V-5.4a1.616,1.616,0,0,0-.281-1.053,1.245,1.245,0,0,0-.992-.333,1.409,1.409,0,0,0-1.406.971L81.281,0H79.023V-5.4a1.6,1.6,0,0,0-.289-1.065,1.257,1.257,0,0,0-.984-.329,1.463,1.463,0,0,0-1.391.8V0H74.1V-8.453Zm13.852,0,.07.945a2.971,2.971,0,0,1,2.43-1.1A2.255,2.255,0,0,1,94.813-7.32a2.9,2.9,0,0,1,2.539-1.289,2.521,2.521,0,0,1,2.047.8,3.681,3.681,0,0,1,.672,2.41V0H97.8V-5.4a1.616,1.616,0,0,0-.281-1.053,1.245,1.245,0,0,0-.992-.333,1.409,1.409,0,0,0-1.406.971L95.133,0H92.875V-5.4a1.6,1.6,0,0,0-.289-1.065,1.257,1.257,0,0,0-.984-.329,1.463,1.463,0,0,0-1.391.8V0H87.953V-8.453Z" transform="translate(13.488 106.447) rotate(-90)"/>
                      </g>
                    </g>
                  </g>
                </g>
              </g>
            </g>
            <path id="Trazado_159252" data-name="Trazado 159252" d="M222.809,604.779c-8.052-.3-14.838-2.873-19.631-9.619a3.507,3.507,0,0,1,.012-4.652c5.468-7.527,13.108-10.151,21.985-9.438,7.085.569,13.052,3.528,17.177,9.639a3.308,3.308,0,0,1,0,4.245c-4.743,6.923-11.61,9.494-19.544,9.825m-18.636-11.626c3.222,6.151,10.777,10.1,18.7,9.906,7.544-.188,13.941-2.773,18.6-9.855l-10.718-4.42c1.353,5.073.534,8.8-3.338,11.361a8.077,8.077,0,0,1-9.115.191c-4.117-2.511-5.065-6.355-3.634-11.581l-10.493,4.4m25.547-.241a7.03,7.03,0,1,0-7.108,6.951h.12a7.019,7.019,0,0,0,6.988-6.951" transform="translate(-2.013 -5.78)"/>
            <path id="Trazado_159253" data-name="Trazado 159253" d="M204.192,593.23l10.495-4.4c-1.431,5.227-.483,9.072,3.634,11.581a8.077,8.077,0,0,0,9.115-.191c3.872-2.556,4.691-6.288,3.338-11.361l10.717,4.42c-4.655,7.082-11.052,9.666-18.6,9.855-7.928.2-15.482-3.755-18.7-9.907" transform="translate(-2.031 -5.858)" fill="#fff"/>
            <path id="Trazado_159254" data-name="Trazado 159254" d="M229.856,592.957a7.03,7.03,0,0,1-14.059.155c0-.107,0-.213,0-.32a7.029,7.029,0,1,1,14.058-.155c0,.107,0,.213,0,.32m-11.657-1.03c-.343,2.461.592,4.47,2.736,5.383a4.809,4.809,0,0,0,5.61-7.473,4.206,4.206,0,0,0-5.176-1.377c.084,1.255.15,2.272.216,3.287l-3.385.18" transform="translate(-2.147 -5.827)" fill="#fff"/>
            <path id="Trazado_159255" data-name="Trazado 159255" d="M218.222,591.952l3.385-.181c-.066-1.014-.133-2.029-.216-3.286a4.206,4.206,0,0,1,5.176,1.377,4.808,4.808,0,0,1-5.61,7.472c-2.143-.912-3.078-2.921-2.736-5.382" transform="translate(-2.17 -5.851)"/>
            <rect id="Rectángulo_39393" data-name="Rectángulo 39393" width="61.045" height="22.378" transform="translate(313.382 507.938)" fill="#7f7f7f"/>
            <rect id="Rectángulo_39394" data-name="Rectángulo 39394" width="61.045" height="22.378" transform="translate(250.477 507.938)" fill="#7f7f7f"/>
            <rect id="Rectángulo_39395" data-name="Rectángulo 39395" width="61.045" height="22.378" transform="translate(376.168 507.938)" fill="#7f7f7f"/>
            <g id="Grupo_143587" data-name="Grupo 143587" transform="translate(382.76 514.806)" style="isolation: isolate">
              <g id="Grupo_143586" data-name="Grupo 143586">
                <g id="Grupo_143585" data-name="Grupo 143585" clip-path="url(#clip-path-16)">
                  <g id="Grupo_143584" data-name="Grupo 143584" style="isolation: isolate">
                    <g id="Grupo_143583" data-name="Grupo 143583">
                      <g id="Grupo_143582" data-name="Grupo 143582" clip-path="url(#clip-path-16)">
                        <path id="Trazado_161548" data-name="Trazado 161548" d="M2.287-1.822H1.47V0H.444V-4.977H2.293a2.09,2.09,0,0,1,1.36.393,1.357,1.357,0,0,1,.479,1.111,1.531,1.531,0,0,1-.22.849,1.5,1.5,0,0,1-.668.542L4.32-.048V0H3.22ZM1.47-2.652H2.3a.847.847,0,0,0,.6-.2.7.7,0,0,0,.212-.542.752.752,0,0,0-.2-.554.831.831,0,0,0-.614-.2H1.47ZM7.721-1.025h-1.8L5.582,0H4.491L6.344-4.977h.95L9.157,0H8.066ZM6.2-1.856H7.444L6.819-3.719ZM9.622,0V-4.977h1.531a2.325,2.325,0,0,1,1.174.3,2.062,2.062,0,0,1,.808.841A2.593,2.593,0,0,1,13.426-2.6v.229a2.6,2.6,0,0,1-.285,1.234,2.044,2.044,0,0,1-.8.837,2.343,2.343,0,0,1-1.172.3Zm1.025-4.146V-.824h.5a1.114,1.114,0,0,0,.919-.393,1.776,1.776,0,0,0,.325-1.125V-2.6a1.8,1.8,0,0,0-.314-1.15,1.11,1.11,0,0,0-.919-.391ZM15.261,0H14.236V-4.977h1.025ZM20.3-2.375a3,3,0,0,1-.26,1.289,1.956,1.956,0,0,1-.743.854,2.056,2.056,0,0,1-1.109.3,2.07,2.07,0,0,1-1.1-.3,1.975,1.975,0,0,1-.752-.849,2.918,2.918,0,0,1-.27-1.27v-.246a2.988,2.988,0,0,1,.265-1.294,1.972,1.972,0,0,1,.749-.858,2.059,2.059,0,0,1,1.106-.3,2.059,2.059,0,0,1,1.106.3,1.972,1.972,0,0,1,.749.858A2.98,2.98,0,0,1,20.3-2.6ZM19.26-2.6a2.094,2.094,0,0,0-.28-1.189.913.913,0,0,0-.8-.407.914.914,0,0,0-.8.4A2.07,2.07,0,0,0,17.1-2.618v.243a2.12,2.12,0,0,0,.28,1.183.911.911,0,0,0,.807.42.9.9,0,0,0,.793-.405,2.108,2.108,0,0,0,.28-1.181Zm7.4,1.166.67-3.541h1.022L27.251,0H26.219l-.81-3.329L24.6,0H23.567l-1.1-4.977h1.022l.673,3.534.82-3.534h.868Zm4.768.41h-1.8L29.292,0H28.2l1.853-4.977H31L32.867,0h-1.09Zm-1.521-.831h1.244l-.625-1.863Zm4.738.622,1.128-3.743h1.142L35.185,0h-1.07L32.39-4.977h1.138Zm5.732-.93H38.412v1.34h2.311V0H37.387V-4.977h3.329v.831h-2.3V-2.96h1.969Zm3.524.858a.526.526,0,0,0-.205-.446,2.69,2.69,0,0,0-.738-.328,5.234,5.234,0,0,1-.844-.34,1.379,1.379,0,0,1-.848-1.234,1.2,1.2,0,0,1,.227-.719,1.483,1.483,0,0,1,.653-.494,2.457,2.457,0,0,1,.955-.178,2.237,2.237,0,0,1,.95.193,1.513,1.513,0,0,1,.648.545,1.427,1.427,0,0,1,.231.8H43.908a.671.671,0,0,0-.215-.531.885.885,0,0,0-.6-.19.946.946,0,0,0-.584.159.5.5,0,0,0-.208.419.48.48,0,0,0,.244.407,2.761,2.761,0,0,0,.719.308,3.109,3.109,0,0,1,1.275.653,1.3,1.3,0,0,1,.4.971A1.2,1.2,0,0,1,44.445-.3a2.14,2.14,0,0,1-1.316.367,2.541,2.541,0,0,1-1.046-.21,1.655,1.655,0,0,1-.719-.576,1.475,1.475,0,0,1-.248-.848h1.029q0,.824.984.824A.958.958,0,0,0,43.7-.89.484.484,0,0,0,43.9-1.306Z" transform="translate(0 5.634)" fill="#fff"/>
                      </g>
                    </g>
                  </g>
                </g>
              </g>
            </g>
            <g id="Grupo_143593" data-name="Grupo 143593" transform="translate(319.492 514.804)" style="isolation: isolate">
              <g id="Grupo_143592" data-name="Grupo 143592">
                <g id="Grupo_143591" data-name="Grupo 143591" clip-path="url(#clip-path-18)">
                  <g id="Grupo_143590" data-name="Grupo 143590" style="isolation: isolate">
                    <g id="Grupo_143589" data-name="Grupo 143589">
                      <g id="Grupo_143588" data-name="Grupo 143588" clip-path="url(#clip-path-18)">
                        <path id="Trazado_161549" data-name="Trazado 161549" d="M1.784-4.977,3.063-1.367,4.334-4.977H5.681V0H4.652V-1.36l.1-2.348L3.411,0h-.7L1.367-3.705l.1,2.345V0H.444V-4.977ZM7.667,0H6.641V-4.977H7.667Zm4.857-1.658A1.761,1.761,0,0,1,11.93-.393a2.083,2.083,0,0,1-1.41.461A1.873,1.873,0,0,1,9.015-.576a2.642,2.642,0,0,1-.549-1.769v-.3a2.983,2.983,0,0,1,.253-1.265,1.9,1.9,0,0,1,.723-.839,2.025,2.025,0,0,1,1.092-.292,2.029,2.029,0,0,1,1.388.461,1.892,1.892,0,0,1,.608,1.3H11.5a1.039,1.039,0,0,0-.268-.7.994.994,0,0,0-.7-.217.871.871,0,0,0-.767.367A2.059,2.059,0,0,0,9.505-2.7v.376A2.2,2.2,0,0,0,9.75-1.142a.855.855,0,0,0,.771.373,1.012,1.012,0,0,0,.709-.217.98.98,0,0,0,.268-.672Zm2.516-.164h-.817V0H13.2V-4.977h1.849a2.09,2.09,0,0,1,1.36.393,1.357,1.357,0,0,1,.479,1.111,1.531,1.531,0,0,1-.22.849A1.5,1.5,0,0,1,16-2.082L17.073-.048V0h-1.1Zm-.817-.831h.827a.847.847,0,0,0,.6-.2.7.7,0,0,0,.212-.542.752.752,0,0,0-.2-.554.831.831,0,0,0-.614-.2h-.824Zm7.53.277a3,3,0,0,1-.26,1.289,1.956,1.956,0,0,1-.743.854,2.056,2.056,0,0,1-1.109.3,2.07,2.07,0,0,1-1.1-.3,1.975,1.975,0,0,1-.752-.849,2.918,2.918,0,0,1-.27-1.27v-.246a2.988,2.988,0,0,1,.265-1.294,1.972,1.972,0,0,1,.749-.858,2.059,2.059,0,0,1,1.106-.3,2.059,2.059,0,0,1,1.106.3,1.972,1.972,0,0,1,.749.858,2.98,2.98,0,0,1,.265,1.29ZM20.713-2.6a2.094,2.094,0,0,0-.28-1.189.913.913,0,0,0-.8-.407.914.914,0,0,0-.8.4,2.07,2.07,0,0,0-.284,1.177v.243a2.12,2.12,0,0,0,.28,1.183.911.911,0,0,0,.807.42.9.9,0,0,0,.793-.405,2.108,2.108,0,0,0,.28-1.181Zm5.66,1.166.67-3.541h1.022L26.961,0H25.929l-.81-3.329L24.309,0H23.276l-1.1-4.977h1.022l.673,3.534.82-3.534h.868Zm4.768.41h-1.8L29,0h-1.09l1.853-4.977h.95L32.577,0h-1.09ZM29.62-1.856h1.244l-.625-1.863Zm4.738.622,1.128-3.743h1.142L34.895,0h-1.07L32.1-4.977h1.138Zm5.732-.93H38.122v1.34h2.311V0H37.1V-4.977h3.329v.831h-2.3V-2.96H40.09Zm3.524.858a.526.526,0,0,0-.205-.446,2.69,2.69,0,0,0-.738-.328,5.234,5.234,0,0,1-.844-.34,1.379,1.379,0,0,1-.848-1.234,1.2,1.2,0,0,1,.227-.719,1.483,1.483,0,0,1,.653-.494,2.457,2.457,0,0,1,.955-.178,2.237,2.237,0,0,1,.95.193,1.513,1.513,0,0,1,.648.545,1.427,1.427,0,0,1,.231.8H43.618a.671.671,0,0,0-.215-.531.885.885,0,0,0-.6-.19.946.946,0,0,0-.584.159A.5.5,0,0,0,42-3.65a.48.48,0,0,0,.244.407,2.761,2.761,0,0,0,.719.308,3.109,3.109,0,0,1,1.275.653,1.3,1.3,0,0,1,.4.971A1.2,1.2,0,0,1,44.154-.3a2.14,2.14,0,0,1-1.316.367,2.541,2.541,0,0,1-1.046-.21,1.655,1.655,0,0,1-.719-.576,1.475,1.475,0,0,1-.248-.848h1.029q0,.824.984.824a.958.958,0,0,0,.571-.149A.484.484,0,0,0,43.614-1.306Z" transform="translate(0 5.634)" fill="#fff"/>
                      </g>
                    </g>
                  </g>
                </g>
              </g>
            </g>
            <g id="Grupo_143599" data-name="Grupo 143599" transform="translate(263.787 514.806)" style="isolation: isolate">
              <g id="Grupo_143598" data-name="Grupo 143598">
                <g id="Grupo_143597" data-name="Grupo 143597" clip-path="url(#clip-path-20)">
                  <g id="Grupo_143596" data-name="Grupo 143596" style="isolation: isolate">
                    <g id="Grupo_143595" data-name="Grupo 143595">
                      <g id="Grupo_143594" data-name="Grupo 143594" clip-path="url(#clip-path-20)">
                        <path id="Trazado_161550" data-name="Trazado 161550" d="M1.535,0H.509V-4.977H1.535Zm5,0H5.506l-2-3.274V0H2.485V-4.977H3.51l2,3.281V-4.977H6.532Zm3.89-2.034H8.453V0H7.427V-4.977h3.24v.831H8.453v1.285h1.969Zm2.683.212h-.817V0H11.262V-4.977h1.849a2.09,2.09,0,0,1,1.36.393,1.357,1.357,0,0,1,.479,1.111,1.531,1.531,0,0,1-.22.849,1.5,1.5,0,0,1-.668.542L15.138-.048V0h-1.1Zm-.817-.831h.827a.847.847,0,0,0,.6-.2.7.7,0,0,0,.212-.542.752.752,0,0,0-.2-.554.831.831,0,0,0-.614-.2h-.824Zm6.251,1.627h-1.8L16.4,0h-1.09l1.853-4.977h.95L19.975,0h-1.09Zm-1.521-.831h1.244l-.625-1.863Zm5.264.034h-.817V0H20.439V-4.977h1.849a2.09,2.09,0,0,1,1.36.393,1.357,1.357,0,0,1,.479,1.111,1.531,1.531,0,0,1-.22.849,1.5,1.5,0,0,1-.668.542L24.315-.048V0h-1.1Zm-.817-.831h.827a.847.847,0,0,0,.6-.2.7.7,0,0,0,.212-.542.752.752,0,0,0-.2-.554.831.831,0,0,0-.614-.2h-.824Zm6.436.489H25.932v1.34h2.311V0H24.907V-4.977h3.329v.831h-2.3V-2.96H27.9ZM28.844,0V-4.977h1.531a2.325,2.325,0,0,1,1.174.3,2.062,2.062,0,0,1,.808.841A2.593,2.593,0,0,1,32.648-2.6v.229a2.6,2.6,0,0,1-.285,1.234,2.044,2.044,0,0,1-.8.837,2.343,2.343,0,0,1-1.172.3ZM29.87-4.146V-.824h.5a1.114,1.114,0,0,0,.919-.393,1.776,1.776,0,0,0,.325-1.125V-2.6a1.8,1.8,0,0,0-.314-1.15,1.11,1.11,0,0,0-.919-.391Z" transform="translate(0 5.634)" fill="#fff"/>
                      </g>
                    </g>
                  </g>
                </g>
              </g>
            </g>
            <rect id="Rectángulo_39402" data-name="Rectángulo 39402" width="61.045" height="22.378" transform="translate(187.904 507.938)" fill="#d7d7d7"/>
            <g id="Grupo_143605" data-name="Grupo 143605" transform="translate(193.147 514.806)" style="isolation: isolate">
              <g id="Grupo_143604" data-name="Grupo 143604">
                <g id="Grupo_143603" data-name="Grupo 143603" clip-path="url(#clip-path-22)">
                  <g id="Grupo_143602" data-name="Grupo 143602" style="isolation: isolate">
                    <g id="Grupo_143601" data-name="Grupo 143601">
                      <g id="Grupo_143600" data-name="Grupo 143600" clip-path="url(#clip-path-22)">
                        <path id="Trazado_161551" data-name="Trazado 161551" d="M2.283-1.234,3.411-4.977H4.553L2.82,0H1.75L.024-4.977H1.162ZM6.111,0H5.086V-4.977H6.111ZM9.642-1.306a.526.526,0,0,0-.205-.446A2.69,2.69,0,0,0,8.7-2.08a5.234,5.234,0,0,1-.844-.34,1.379,1.379,0,0,1-.848-1.234,1.2,1.2,0,0,1,.227-.719,1.483,1.483,0,0,1,.653-.494,2.457,2.457,0,0,1,.955-.178,2.237,2.237,0,0,1,.95.193,1.513,1.513,0,0,1,.648.545,1.427,1.427,0,0,1,.231.8H9.646a.671.671,0,0,0-.215-.531.885.885,0,0,0-.6-.19.946.946,0,0,0-.584.159.5.5,0,0,0-.208.419.48.48,0,0,0,.244.407A2.761,2.761,0,0,0,9-2.936a3.109,3.109,0,0,1,1.275.653,1.3,1.3,0,0,1,.4.971A1.2,1.2,0,0,1,10.182-.3,2.14,2.14,0,0,1,8.866.068,2.541,2.541,0,0,1,7.82-.142,1.655,1.655,0,0,1,7.1-.718a1.475,1.475,0,0,1-.248-.848H7.882q0,.824.984.824A.958.958,0,0,0,9.437-.89.484.484,0,0,0,9.642-1.306ZM12.455,0H11.43V-4.977h1.025Zm.95,0V-4.977h1.743a2.289,2.289,0,0,1,1.374.347,1.186,1.186,0,0,1,.468,1.017,1.124,1.124,0,0,1-.188.644,1.086,1.086,0,0,1-.523.408,1.051,1.051,0,0,1,.6.386,1.142,1.142,0,0,1,.22.711,1.313,1.313,0,0,1-.458,1.087A2.062,2.062,0,0,1,15.34,0Zm1.025-2.167V-.824h.878A.848.848,0,0,0,15.875-1a.592.592,0,0,0,.2-.477.625.625,0,0,0-.708-.694Zm0-.725h.759q.776-.014.776-.619a.572.572,0,0,0-.2-.487,1.034,1.034,0,0,0-.62-.149h-.718ZM18.9-.824h2.177V0h-3.2V-4.977H18.9Zm5.759-1.34H22.688v1.34H25V0H21.663V-4.977h3.329v.831h-2.3V-2.96h1.969Zm3.712,1.34h2.177V0h-3.2V-4.977h1.025ZM32.225,0H31.2V-4.977h1.025Zm4.888-.629a1.78,1.78,0,0,1-.783.514,3.278,3.278,0,0,1-1.121.183,2.221,2.221,0,0,1-1.133-.282,1.881,1.881,0,0,1-.752-.819,2.881,2.881,0,0,1-.272-1.261v-.338a3.06,3.06,0,0,1,.251-1.29,1.858,1.858,0,0,1,.725-.834,2.087,2.087,0,0,1,1.109-.289,2.079,2.079,0,0,1,1.384.422,1.8,1.8,0,0,1,.591,1.229h-1a.992.992,0,0,0-.3-.625.966.966,0,0,0-.644-.2.909.909,0,0,0-.8.393,2.067,2.067,0,0,0-.277,1.169v.318a1.968,1.968,0,0,0,.3,1.183,1.018,1.018,0,0,0,.872.4A1.137,1.137,0,0,0,36.087-1v-.858h-.933v-.755h1.958ZM41.993,0H40.968V-2.133h-2V0H37.943V-4.977h1.025V-2.96h2V-4.977h1.025Zm4.444-4.146H44.913V0H43.888V-4.146h-1.5v-.831h4.054Z" transform="translate(0 5.634)" fill="#13273e"/>
                      </g>
                    </g>
                  </g>
                </g>
              </g>
            </g>
            <rect id="Rectángulo_39405" data-name="Rectángulo 39405" width="61.045" height="22.378" transform="translate(124.787 507.938)" fill="#7f7f7f"/>
            <g id="Grupo_143611" data-name="Grupo 143611" transform="translate(131.31 514.806)" style="isolation: isolate">
              <g id="Grupo_143610" data-name="Grupo 143610">
                <g id="Grupo_143609" data-name="Grupo 143609" clip-path="url(#clip-path-24)">
                  <g id="Grupo_143608" data-name="Grupo 143608" style="isolation: isolate">
                    <g id="Grupo_143607" data-name="Grupo 143607">
                      <g id="Grupo_143606" data-name="Grupo 143606" clip-path="url(#clip-path-24)">
                        <path id="Trazado_161552" data-name="Trazado 161552" d="M4.211-4.977V-1.7A1.678,1.678,0,0,1,3.7-.407,1.97,1.97,0,0,1,2.3.068,1.992,1.992,0,0,1,.919-.393,1.65,1.65,0,0,1,.4-1.661V-4.977H1.422v3.285a.948.948,0,0,0,.234.713A.9.9,0,0,0,2.3-.755q.865,0,.878-.909V-4.977ZM6.077-.824H8.254V0h-3.2V-4.977H6.077Zm5.111-3.322H9.663V0H8.638V-4.146h-1.5v-.831h4.054Zm2.427,2.324H12.8V0H11.772V-4.977h1.849a2.09,2.09,0,0,1,1.36.393,1.357,1.357,0,0,1,.479,1.111,1.531,1.531,0,0,1-.22.849,1.5,1.5,0,0,1-.668.542L15.648-.048V0h-1.1ZM12.8-2.652h.827a.847.847,0,0,0,.6-.2.7.7,0,0,0,.212-.542.752.752,0,0,0-.2-.554.831.831,0,0,0-.614-.2H12.8Zm6.251,1.627h-1.8L16.909,0h-1.09l1.853-4.977h.95L20.485,0h-1.09Zm-1.521-.831h1.244l-.625-1.863Zm4.738.622,1.128-3.743h1.142L22.8,0h-1.07L20.007-4.977h1.138ZM26.094,0H25.069V-4.977h1.025Zm5.038-2.375a3,3,0,0,1-.26,1.289,1.956,1.956,0,0,1-.743.854,2.056,2.056,0,0,1-1.109.3,2.07,2.07,0,0,1-1.1-.3,1.975,1.975,0,0,1-.752-.849,2.918,2.918,0,0,1-.27-1.27v-.246a2.988,2.988,0,0,1,.265-1.294,1.972,1.972,0,0,1,.749-.858,2.059,2.059,0,0,1,1.106-.3,2.059,2.059,0,0,1,1.106.3,1.972,1.972,0,0,1,.749.858,2.98,2.98,0,0,1,.265,1.29ZM30.093-2.6a2.094,2.094,0,0,0-.28-1.189.913.913,0,0,0-.8-.407.914.914,0,0,0-.8.4,2.07,2.07,0,0,0-.284,1.177v.243a2.12,2.12,0,0,0,.28,1.183.911.911,0,0,0,.807.42.9.9,0,0,0,.793-.405,2.108,2.108,0,0,0,.28-1.181ZM32.9-.824H35.08V0h-3.2V-4.977H32.9Zm5.759-1.34H36.693v1.34H39V0H35.668V-4.977H39v.831h-2.3V-2.96h1.969ZM43.42-4.146H41.9V0H40.87V-4.146h-1.5v-.831H43.42Z" transform="translate(0 5.634)" fill="#fff"/>
                      </g>
                    </g>
                  </g>
                </g>
              </g>
            </g>
            <rect id="Rectángulo_39408" data-name="Rectángulo 39408" width="61.045" height="22.378" transform="translate(62.393 507.938)" fill="#7f7f7f"/>
            <g id="Grupo_143617" data-name="Grupo 143617" transform="translate(80.549 514.806)" style="isolation: isolate">
              <g id="Grupo_143616" data-name="Grupo 143616">
                <g id="Grupo_143615" data-name="Grupo 143615" clip-path="url(#clip-path-26)">
                  <g id="Grupo_143614" data-name="Grupo 143614" style="isolation: isolate">
                    <g id="Grupo_143613" data-name="Grupo 143613">
                      <g id="Grupo_143612" data-name="Grupo 143612" clip-path="url(#clip-path-26)">
                        <path id="Trazado_161553" data-name="Trazado 161553" d="M2.225-3.261l.933-1.716H4.337L2.888-2.509,4.375,0H3.182L2.225-1.743,1.268,0H.075L1.562-2.509.113-4.977H1.292ZM5.682-1.733H3.758v-.8H5.682Zm2.7-.089H7.565V0H6.54V-4.977H8.389a2.09,2.09,0,0,1,1.36.393,1.357,1.357,0,0,1,.479,1.111,1.531,1.531,0,0,1-.22.849,1.5,1.5,0,0,1-.668.542L10.416-.048V0h-1.1Zm-.817-.831h.827a.847.847,0,0,0,.6-.2A.7.7,0,0,0,9.2-3.391.752.752,0,0,0,9-3.944a.831.831,0,0,0-.614-.2H7.565Zm6.251,1.627h-1.8L11.677,0h-1.09l1.853-4.977h.95L15.252,0h-1.09ZM12.3-1.856H13.54l-.625-1.863Zm3.967-.878L17.3-4.977h1.121L16.785-1.8V0H15.743V-1.8L14.109-4.977h1.125Zm5.143,1.429a.526.526,0,0,0-.205-.446,2.69,2.69,0,0,0-.738-.328,5.234,5.234,0,0,1-.844-.34,1.379,1.379,0,0,1-.848-1.234A1.2,1.2,0,0,1,19-4.373a1.483,1.483,0,0,1,.653-.494,2.457,2.457,0,0,1,.955-.178,2.237,2.237,0,0,1,.95.193,1.513,1.513,0,0,1,.648.545,1.427,1.427,0,0,1,.231.8H21.408a.671.671,0,0,0-.215-.531.885.885,0,0,0-.6-.19A.946.946,0,0,0,20-4.069a.5.5,0,0,0-.208.419.48.48,0,0,0,.244.407,2.761,2.761,0,0,0,.719.308,3.109,3.109,0,0,1,1.275.653,1.3,1.3,0,0,1,.4.971A1.2,1.2,0,0,1,21.945-.3a2.14,2.14,0,0,1-1.316.367,2.541,2.541,0,0,1-1.046-.21,1.655,1.655,0,0,1-.719-.576,1.475,1.475,0,0,1-.248-.848h1.029q0,.824.984.824A.958.958,0,0,0,21.2-.89.484.484,0,0,0,21.405-1.306Z" transform="translate(0 5.634)" fill="#fff"/>
                      </g>
                    </g>
                  </g>
                </g>
              </g>
            </g>
            <rect id="Rectángulo_39411" data-name="Rectángulo 39411" width="61.045" height="22.378" transform="translate(0 507.938)" fill="#7f7f7f"/>
            <g id="Grupo_143623" data-name="Grupo 143623" transform="translate(4.953 514.806)" style="isolation: isolate">
              <g id="Grupo_143622" data-name="Grupo 143622">
                <g id="Grupo_143621" data-name="Grupo 143621" clip-path="url(#clip-path-28)">
                  <g id="Grupo_143620" data-name="Grupo 143620" style="isolation: isolate">
                    <g id="Grupo_143619" data-name="Grupo 143619">
                      <g id="Grupo_143618" data-name="Grupo 143618" clip-path="url(#clip-path-28)">
                        <path id="Trazado_161554" data-name="Trazado 161554" d="M4.382-.629A1.78,1.78,0,0,1,3.6-.115,3.278,3.278,0,0,1,2.478.068,2.221,2.221,0,0,1,1.345-.214a1.881,1.881,0,0,1-.752-.819A2.881,2.881,0,0,1,.321-2.293v-.338a3.06,3.06,0,0,1,.251-1.29A1.858,1.858,0,0,1,1.3-4.756a2.087,2.087,0,0,1,1.109-.289,2.079,2.079,0,0,1,1.384.422,1.8,1.8,0,0,1,.591,1.229h-1a.992.992,0,0,0-.3-.625.966.966,0,0,0-.644-.2.909.909,0,0,0-.8.393,2.067,2.067,0,0,0-.277,1.169v.318a1.968,1.968,0,0,0,.3,1.183,1.018,1.018,0,0,0,.872.4A1.137,1.137,0,0,0,3.356-1v-.858H2.423v-.755H4.382Zm3.64-.4h-1.8L5.882,0H4.792L6.645-4.977h.95L9.458,0H8.367ZM6.5-1.856H7.745L7.12-3.719Zm4.761-3.121,1.278,3.609,1.271-3.609h1.347V0H14.13V-1.36l.1-2.348L12.889,0h-.7l-1.34-3.705.1,2.345V0H9.922V-4.977Zm6.132,0,1.278,3.609,1.271-3.609h1.347V0H20.262V-1.36l.1-2.348L19.021,0h-.7l-1.34-3.705.1,2.345V0H16.054V-4.977Zm7.719,3.951h-1.8L22.973,0h-1.09l1.853-4.977h.95L26.549,0h-1.09Zm-1.521-.831h1.244l-.625-1.863Zm7.007.034h-.817V0H28.757V-4.977h1.849a2.09,2.09,0,0,1,1.36.393,1.357,1.357,0,0,1,.479,1.111,1.531,1.531,0,0,1-.22.849,1.5,1.5,0,0,1-.668.542L32.633-.048V0h-1.1Zm-.817-.831h.827a.847.847,0,0,0,.6-.2.7.7,0,0,0,.212-.542.752.752,0,0,0-.2-.554.831.831,0,0,0-.614-.2h-.824Zm6.251,1.627h-1.8L33.894,0H32.8l1.853-4.977h.95L37.469,0h-1.09Zm-1.521-.831h1.244l-.625-1.863Zm3.967-.878,1.036-2.242h1.121L39-1.8V0H37.96V-1.8L36.326-4.977H37.45Zm5.143,1.429a.526.526,0,0,0-.205-.446,2.69,2.69,0,0,0-.738-.328,5.234,5.234,0,0,1-.844-.34,1.379,1.379,0,0,1-.848-1.234,1.2,1.2,0,0,1,.227-.719,1.483,1.483,0,0,1,.653-.494,2.457,2.457,0,0,1,.955-.178,2.237,2.237,0,0,1,.95.193,1.513,1.513,0,0,1,.648.545,1.427,1.427,0,0,1,.231.8H43.625a.671.671,0,0,0-.215-.531.885.885,0,0,0-.6-.19.946.946,0,0,0-.584.159.5.5,0,0,0-.208.419.48.48,0,0,0,.244.407,2.761,2.761,0,0,0,.719.308,3.109,3.109,0,0,1,1.275.653,1.3,1.3,0,0,1,.4.971A1.2,1.2,0,0,1,44.162-.3a2.14,2.14,0,0,1-1.316.367A2.541,2.541,0,0,1,41.8-.142a1.655,1.655,0,0,1-.719-.576,1.475,1.475,0,0,1-.248-.848h1.029q0,.824.984.824a.958.958,0,0,0,.571-.149A.484.484,0,0,0,43.622-1.306Z" transform="translate(0 5.634)" fill="#fff"/>
                      </g>
                    </g>
                  </g>
                </g>
              </g>
            </g>
          </g>
        </g>
        <path id="Trazado_161555" data-name="Trazado 161555" d="M4.693,0H3V-6.536L.979-5.912V-7.277L4.512-8.543h.182Zm8.514-3.527A4.322,4.322,0,0,1,12.475-.82,2.557,2.557,0,0,1,10.33.117,2.574,2.574,0,0,1,8.2-.8a4.2,4.2,0,0,1-.756-2.637V-5.01a4.265,4.265,0,0,1,.741-2.713,2.576,2.576,0,0,1,2.136-.926,2.578,2.578,0,0,1,2.133.917A4.182,4.182,0,0,1,13.207-5.1ZM11.514-5.254a3.124,3.124,0,0,0-.29-1.546.98.98,0,0,0-.905-.484.963.963,0,0,0-.882.46,2.924,2.924,0,0,0-.3,1.44v2.076a3.279,3.279,0,0,0,.284,1.551.967.967,0,0,0,.911.507.951.951,0,0,0,.9-.487,3.2,3.2,0,0,0,.287-1.49Z" transform="translate(48.124 577.591)"/>
        <path id="Trazado_161556" data-name="Trazado 161556" d="M2.3-1.733H.376v-.8H2.3ZM5.452,0H4.464V-3.813l-1.179.364v-.8l2.061-.738h.106Zm5.028,0H7.068V-.677l1.61-1.716a3.972,3.972,0,0,0,.49-.632,1.016,1.016,0,0,0,.159-.513.76.76,0,0,0-.167-.521.6.6,0,0,0-.479-.19.652.652,0,0,0-.528.231.914.914,0,0,0-.193.607H6.969a1.631,1.631,0,0,1,.217-.831,1.53,1.53,0,0,1,.614-.59,1.865,1.865,0,0,1,.9-.214,1.766,1.766,0,0,1,1.195.369,1.306,1.306,0,0,1,.426,1.042,1.673,1.673,0,0,1-.191.752,4.179,4.179,0,0,1-.656.892L8.34-.8h2.14Z" transform="translate(63.276 573.144)"/>
        <path id="Trazado_161557" data-name="Trazado 161557" d="M4.693,0H3V-6.536L.979-5.912V-7.277L4.512-8.543h.182Zm8.514-3.527A4.322,4.322,0,0,1,12.475-.82,2.557,2.557,0,0,1,10.33.117,2.574,2.574,0,0,1,8.2-.8a4.2,4.2,0,0,1-.756-2.637V-5.01a4.265,4.265,0,0,1,.741-2.713,2.576,2.576,0,0,1,2.136-.926,2.578,2.578,0,0,1,2.133.917A4.182,4.182,0,0,1,13.207-5.1ZM11.514-5.254a3.124,3.124,0,0,0-.29-1.546.98.98,0,0,0-.905-.484.963.963,0,0,0-.882.46,2.924,2.924,0,0,0-.3,1.44v2.076a3.279,3.279,0,0,0,.284,1.551.967.967,0,0,0,.911.507.951.951,0,0,0,.9-.487,3.2,3.2,0,0,0,.287-1.49Z" transform="translate(94.417 577.592)"/>
        <path id="Trazado_161558" data-name="Trazado 161558" d="M2.3-1.733H.376v-.8H2.3ZM5.452,0H4.464V-3.813l-1.179.364v-.8l2.061-.738h.106Zm4.966-2.058A2.521,2.521,0,0,1,9.991-.479,1.491,1.491,0,0,1,8.74.068,1.5,1.5,0,0,1,7.5-.468a2.447,2.447,0,0,1-.441-1.538v-.916A2.488,2.488,0,0,1,7.487-4.5a1.5,1.5,0,0,1,1.246-.54,1.5,1.5,0,0,1,1.244.535,2.44,2.44,0,0,1,.441,1.536ZM9.43-3.065a1.822,1.822,0,0,0-.169-.9.572.572,0,0,0-.528-.282.562.562,0,0,0-.514.269,1.705,1.705,0,0,0-.176.84v1.211a1.913,1.913,0,0,0,.166.9.564.564,0,0,0,.531.3.555.555,0,0,0,.523-.284,1.867,1.867,0,0,0,.167-.869Z" transform="translate(109.569 573.145)"/>
        <path id="Trazado_161559" data-name="Trazado 161559" d="M4.693,0H3V-6.536L.979-5.912V-7.277L4.512-8.543h.182Zm8.514-3.527A4.322,4.322,0,0,1,12.475-.82,2.557,2.557,0,0,1,10.33.117,2.574,2.574,0,0,1,8.2-.8a4.2,4.2,0,0,1-.756-2.637V-5.01a4.265,4.265,0,0,1,.741-2.713,2.576,2.576,0,0,1,2.136-.926,2.578,2.578,0,0,1,2.133.917A4.182,4.182,0,0,1,13.207-5.1ZM11.514-5.254a3.124,3.124,0,0,0-.29-1.546.98.98,0,0,0-.905-.484.963.963,0,0,0-.882.46,2.924,2.924,0,0,0-.3,1.44v2.076a3.279,3.279,0,0,0,.284,1.551.967.967,0,0,0,.911.507.951.951,0,0,0,.9-.487,3.2,3.2,0,0,0,.287-1.49Z" transform="translate(156.066 577.592)"/>
        <path id="Trazado_161560" data-name="Trazado 161560" d="M2.3-1.733H.376v-.8H2.3Zm4-1.921a1.158,1.158,0,0,1-.181.643,1.3,1.3,0,0,1-.5.448,1.443,1.443,0,0,1,.574.48,1.232,1.232,0,0,1,.212.719A1.3,1.3,0,0,1,5.951-.316,1.83,1.83,0,0,1,4.724.068a1.838,1.838,0,0,1-1.23-.386,1.3,1.3,0,0,1-.455-1.046,1.24,1.24,0,0,1,.212-.721,1.417,1.417,0,0,1,.571-.479,1.29,1.29,0,0,1-.5-.448,1.166,1.166,0,0,1-.179-.643,1.29,1.29,0,0,1,.424-1.013A1.669,1.669,0,0,1,4.72-5.045a1.68,1.68,0,0,1,1.15.374A1.285,1.285,0,0,1,6.3-3.654ZM5.411-1.436a.717.717,0,0,0-.188-.52.67.67,0,0,0-.506-.195.669.669,0,0,0-.5.193.715.715,0,0,0-.188.521.715.715,0,0,0,.185.513.672.672,0,0,0,.513.195.671.671,0,0,0,.5-.188A.714.714,0,0,0,5.411-1.436Zm-.1-2.17a.684.684,0,0,0-.154-.467.546.546,0,0,0-.434-.176.55.55,0,0,0-.431.171.68.68,0,0,0-.154.472.714.714,0,0,0,.154.479.538.538,0,0,0,.434.181.533.533,0,0,0,.432-.181A.72.72,0,0,0,5.308-3.606Z" transform="translate(171.218 573.145)"/>
        <path id="Trazado_161561" data-name="Trazado 161561" d="M4.693,0H3V-6.536L.979-5.912V-7.277L4.512-8.543h.182Zm8.514-3.527A4.322,4.322,0,0,1,12.475-.82,2.557,2.557,0,0,1,10.33.117,2.574,2.574,0,0,1,8.2-.8a4.2,4.2,0,0,1-.756-2.637V-5.01a4.265,4.265,0,0,1,.741-2.713,2.576,2.576,0,0,1,2.136-.926,2.578,2.578,0,0,1,2.133.917A4.182,4.182,0,0,1,13.207-5.1ZM11.514-5.254a3.124,3.124,0,0,0-.29-1.546.98.98,0,0,0-.905-.484.963.963,0,0,0-.882.46,2.924,2.924,0,0,0-.3,1.44v2.076a3.279,3.279,0,0,0,.284,1.551.967.967,0,0,0,.911.507.951.951,0,0,0,.9-.487,3.2,3.2,0,0,0,.287-1.49Z" transform="translate(238.81 577.591)"/>
        <path id="Trazado_161562" data-name="Trazado 161562" d="M2.3-1.733H.376v-.8H2.3ZM5.732-5.028v.813h-.1a1.678,1.678,0,0,0-1.078.349,1.416,1.416,0,0,0-.49.94,1.345,1.345,0,0,1,1-.4A1.268,1.268,0,0,1,6.1-2.864a1.863,1.863,0,0,1,.383,1.224,1.833,1.833,0,0,1-.21.878,1.508,1.508,0,0,1-.595.612,1.728,1.728,0,0,1-.87.219,1.614,1.614,0,0,1-1.27-.547,2.123,2.123,0,0,1-.484-1.459v-.355a3.2,3.2,0,0,1,.306-1.43,2.243,2.243,0,0,1,.878-.96,2.574,2.574,0,0,1,1.328-.344Zm-.964,2.5a.789.789,0,0,0-.434.125.75.75,0,0,0-.287.329v.3a1.33,1.33,0,0,0,.195.773.63.63,0,0,0,.547.278A.623.623,0,0,0,5.3-.979a1.023,1.023,0,0,0,.2-.65,1.021,1.021,0,0,0-.2-.655A.646.646,0,0,0,4.768-2.533Z" transform="translate(253.963 573.144)"/>
        <path id="Trazado_161563" data-name="Trazado 161563" d="M4.693,0H3V-6.536L.979-5.912V-7.277L4.512-8.543h.182Zm8.514-3.527A4.322,4.322,0,0,1,12.475-.82,2.557,2.557,0,0,1,10.33.117,2.574,2.574,0,0,1,8.2-.8a4.2,4.2,0,0,1-.756-2.637V-5.01a4.265,4.265,0,0,1,.741-2.713,2.576,2.576,0,0,1,2.136-.926,2.578,2.578,0,0,1,2.133.917A4.182,4.182,0,0,1,13.207-5.1ZM11.514-5.254a3.124,3.124,0,0,0-.29-1.546.98.98,0,0,0-.905-.484.963.963,0,0,0-.882.46,2.924,2.924,0,0,0-.3,1.44v2.076a3.279,3.279,0,0,0,.284,1.551.967.967,0,0,0,.911.507.951.951,0,0,0,.9-.487,3.2,3.2,0,0,0,.287-1.49Z" transform="translate(285.378 577.592)"/>
        <path id="Trazado_161564" data-name="Trazado 161564" d="M2.3-1.733H.376v-.8H2.3Zm3.674-.14h.564v.8H5.975V0H4.987V-1.077H2.946L2.9-1.7,4.977-4.977h1Zm-2.088,0h1.1V-3.63l-.065.113Z" transform="translate(300.531 573.145)"/>
        <path id="Trazado_161565" data-name="Trazado 161565" d="M4.693,0H3V-6.536L.979-5.912V-7.277L4.512-8.543h.182Zm8.514-3.527A4.322,4.322,0,0,1,12.475-.82,2.557,2.557,0,0,1,10.33.117,2.574,2.574,0,0,1,8.2-.8a4.2,4.2,0,0,1-.756-2.637V-5.01a4.265,4.265,0,0,1,.741-2.713,2.576,2.576,0,0,1,2.136-.926,2.578,2.578,0,0,1,2.133.917A4.182,4.182,0,0,1,13.207-5.1ZM11.514-5.254a3.124,3.124,0,0,0-.29-1.546.98.98,0,0,0-.905-.484.963.963,0,0,0-.882.46,2.924,2.924,0,0,0-.3,1.44v2.076a3.279,3.279,0,0,0,.284,1.551.967.967,0,0,0,.911.507.951.951,0,0,0,.9-.487,3.2,3.2,0,0,0,.287-1.49Z" transform="translate(338.614 577.592)"/>
        <path id="Trazado_161566" data-name="Trazado 161566" d="M2.3-1.733H.376v-.8H2.3ZM6.463,0H3.052V-.677l1.61-1.716a3.971,3.971,0,0,0,.49-.632,1.016,1.016,0,0,0,.159-.513.76.76,0,0,0-.167-.521.6.6,0,0,0-.479-.19.652.652,0,0,0-.528.231.914.914,0,0,0-.193.607H2.953a1.631,1.631,0,0,1,.217-.831,1.53,1.53,0,0,1,.614-.59,1.865,1.865,0,0,1,.9-.214,1.766,1.766,0,0,1,1.195.369A1.306,1.306,0,0,1,6.3-3.633a1.673,1.673,0,0,1-.191.752,4.179,4.179,0,0,1-.656.892L4.324-.8h2.14Z" transform="translate(353.766 573.145)"/>
        <path id="Trazado_161568" data-name="Trazado 161568" d="M4.693,0H3V-6.536L.979-5.912V-7.277L4.512-8.543h.182Zm8.514-3.527A4.322,4.322,0,0,1,12.475-.82,2.557,2.557,0,0,1,10.33.117,2.574,2.574,0,0,1,8.2-.8a4.2,4.2,0,0,1-.756-2.637V-5.01a4.265,4.265,0,0,1,.741-2.713,2.576,2.576,0,0,1,2.136-.926,2.578,2.578,0,0,1,2.133.917A4.182,4.182,0,0,1,13.207-5.1ZM11.514-5.254a3.124,3.124,0,0,0-.29-1.546.98.98,0,0,0-.905-.484.963.963,0,0,0-.882.46,2.924,2.924,0,0,0-.3,1.44v2.076a3.279,3.279,0,0,0,.284,1.551.967.967,0,0,0,.911.507.951.951,0,0,0,.9-.487,3.2,3.2,0,0,0,.287-1.49Z" transform="translate(406.691 577.592)"/>
        <path id="Trazado_161569" data-name="Trazado 161569" d="M3.214,0H.29V-.58L1.67-2.051a3.4,3.4,0,0,0,.42-.542.871.871,0,0,0,.136-.439.652.652,0,0,0-.144-.447.518.518,0,0,0-.41-.163.559.559,0,0,0-.453.2.783.783,0,0,0-.166.52H.205a1.4,1.4,0,0,1,.186-.712,1.311,1.311,0,0,1,.526-.505,1.6,1.6,0,0,1,.771-.183,1.513,1.513,0,0,1,1.024.316,1.119,1.119,0,0,1,.365.894,1.434,1.434,0,0,1-.164.645,3.582,3.582,0,0,1-.562.765L1.38-.683H3.214Z" transform="translate(421.842 573.145)"/>
        <path id="Trazado_161567" data-name="Trazado 161567" d="M4.693,0H3V-6.536L.979-5.912V-7.277L4.512-8.543h.182Z" transform="translate(374.427 577.592)"/>
        <g id="Grupo_143627" data-name="Grupo 143627">
          <g id="Grupo_143626" data-name="Grupo 143626" clip-path="url(#clip-path)">
            <line id="Línea_923" data-name="Línea 923" y2="32.524" transform="translate(48.124 530.316)" fill="none" stroke="#000" stroke-miterlimit="10" stroke-width="1"/>
            <line id="Línea_924" data-name="Línea 924" y2="32.524" transform="translate(94.417 530.316)" fill="none" stroke="#000" stroke-miterlimit="10" stroke-width="1"/>
            <line id="Línea_925" data-name="Línea 925" y2="32.524" transform="translate(155.309 530.316)" fill="none" stroke="#000" stroke-miterlimit="10" stroke-width="1"/>
            <line id="Línea_926" data-name="Línea 926" y2="32.524" transform="translate(243.048 530.316)" fill="none" stroke="#000" stroke-miterlimit="10" stroke-width="1"/>
            <line id="Línea_927" data-name="Línea 927" y2="32.524" transform="translate(276.596 530.316)" fill="none" stroke="#000" stroke-miterlimit="10" stroke-width="1"/>
            <line id="Línea_928" data-name="Línea 928" y2="32.524" transform="translate(353.472 530.316)" fill="none" stroke="#000" stroke-miterlimit="10" stroke-width="1"/>
            <line id="Línea_929" data-name="Línea 929" y2="32.524" transform="translate(414.374 530.316)" fill="none" stroke="#000" stroke-miterlimit="10" stroke-width="1"/>
            <line id="Línea_930" data-name="Línea 930" y2="21.738" transform="translate(115.103 530.316)" fill="none" stroke="#000" stroke-miterlimit="10" stroke-width="1"/>
            <line id="Línea_931" data-name="Línea 931" y2="21.738" transform="translate(176.289 530.316)" fill="none" stroke="#000" stroke-miterlimit="10" stroke-width="1"/>
            <line id="Línea_932" data-name="Línea 932" y2="21.738" transform="translate(234.921 530.316)" fill="none" stroke="#000" stroke-miterlimit="10" stroke-width="1"/>
            <line id="Línea_933" data-name="Línea 933" y2="21.738" transform="translate(312.04 530.316)" fill="none" stroke="#000" stroke-miterlimit="10" stroke-width="1"/>
            <line id="Línea_934" data-name="Línea 934" y2="21.738" transform="translate(338.614 530.316)" fill="none" stroke="#000" stroke-miterlimit="10" stroke-width="1"/>
            <line id="Línea_935" data-name="Línea 935" y2="21.738" transform="translate(429.599 530.316)" fill="none" stroke="#000" stroke-miterlimit="10" stroke-width="1"/>
            <line id="Línea_936" data-name="Línea 936" y2="21.738" transform="translate(392.645 530.316)" fill="none" stroke="#000" stroke-miterlimit="10" stroke-width="1"/>
          </g>
        </g>
      </g>
    </g>
  </g>
</svg>
