<svg xmlns="http://www.w3.org/2000/svg" xmlns:xlink="http://www.w3.org/1999/xlink" width="74.448" height="79.116" viewBox="0 0 74.448 79.116">
  <defs>
    <clipPath id="clip-path">
      <rect id="Rectángulo_39526" data-name="Rectángulo 39526" width="74.448" height="79.116" fill="#f57c00"/>
    </clipPath>
  </defs>
  <g id="Grupo_143806" data-name="Grupo 143806" transform="translate(0)">
    <g id="Grupo_143806-2" data-name="Grupo 143806" transform="translate(0)" clip-path="url(#clip-path)">
      <path id="Trazado_159486" data-name="Trazado 159486" d="M2.186,86.422a33.78,33.78,0,0,0,22.258,8.828c6.061.134,11.655-1.99,17.22-4.1.694-.268,1.413-.489,2.076-.82.525-.263.785-.127,1.133.3a60.08,60.08,0,0,0,5.647,6.141,2.831,2.831,0,0,0,1.046.785c0-4.528,0-8.986-.007-13.445a1.574,1.574,0,0,1,.4-1.113,34.054,34.054,0,0,0,4.538-6.8,34.942,34.942,0,0,0-7.253-41.27c-1.071-1.019-1.1-.993-.183-2.108.394-.575.72-.614,1.288-.087A36.658,36.658,0,0,1,62.484,57.355a36.4,36.4,0,0,1-8.139,26.419,1.878,1.878,0,0,0-.442,1.259q.023,8.2.005,16.4a1.46,1.46,0,0,1-.108.873c-.157-.1-.3-.189-.446-.282a43.251,43.251,0,0,1-9.123-8.514.928.928,0,0,0-1.282-.312,68.842,68.842,0,0,1-8.392,2.846A34,34,0,0,1,26.073,97.6,36.614,36.614,0,0,1,.851,88.4c-1.1-.95-1.093-.961-.2-2.072.568-.79.995-.382,1.536.1" transform="translate(11.831 -23.185)" fill="#f57c00"/>
      <path id="Trazado_159487" data-name="Trazado 159487" d="M61.871,21.061C68.3,8.494,78.58,1.37,92.713.139a36.092,36.092,0,0,1,22.736,5.7c.694.434.874.77.352,1.4a1.6,1.6,0,0,0-.293.349c-.316.731-.7.721-1.323.278a26.847,26.847,0,0,0-4.392-2.422A35.047,35.047,0,0,0,96.8,2.355,25.351,25.351,0,0,0,91.5,2.6c-.334.023-.671.023-1,.072A33.628,33.628,0,0,0,71.76,11.6c-9.474,9.027-12.877,20.088-10.484,32.9a32.325,32.325,0,0,0,6.358,13.84c.314.409.41.677-.112.941a1.342,1.342,0,0,0-.275.258,1.448,1.448,0,0,0-.315.217c-.557.652-.9.411-1.345-.191a36.77,36.77,0,0,1-7.22-18.538,35.372,35.372,0,0,1,3.5-19.966" transform="translate(-58.159 0)" fill="#f57c00"/>
      <path id="Trazado_159488" data-name="Trazado 159488" d="M122.865,75.225c-2.733-.032-5.466-.04-8.2,0-.727.012-.892-.21-.89-.908.025-7.142.015-14.284.015-21.426,0-7.168.011-14.336-.017-21.5,0-.693.183-.858.858-.848,2.758.04,5.518.033,8.276,0,.583-.007.732.157.732.735q-.024,21.581,0,43.162c0,.61-.162.789-.777.782M120.491,32.89c-1.235.056-2.475.042-3.711,0-.53-.016-.648.171-.644.664.021,2.552.01,5.1.01,7.656q0,15.389-.014,30.779c0,.657.123.907.838.866a35.293,35.293,0,0,1,3.556,0c.63.028.765-.188.763-.782-.02-6.419-.012-12.837-.012-19.256l.014-19.1c0-.623-.131-.856-.8-.826" transform="translate(-81.482 -21.875)" fill="#f57c00"/>
      <path id="Trazado_159489" data-name="Trazado 159489" d="M205.816,150.928c1.217,1.213,1.213,1.2.031,2.458-.3.317-.473.351-.8.039a38.536,38.536,0,0,1-2.943-3.063,29.4,29.4,0,0,1-6.915-17.215c-.035-1.9-.035-1.9,1.345-1.9a3.44,3.44,0,0,0,.387,0c.432-.049.6.129.587.569a17.123,17.123,0,0,0,.114,2.079,27.291,27.291,0,0,0,8.189,17.032" transform="translate(-187.674 -93.997)" fill="#f57c00"/>
      <path id="Trazado_159490" data-name="Trazado 159490" d="M118.716,197.226a4.9,4.9,0,0,1,4.947,4.866,4.913,4.913,0,1,1-9.827-.01,4.9,4.9,0,0,1,4.879-4.856m.06,7.446a2.585,2.585,0,0,0,2.529-2.591,2.555,2.555,0,0,0-5.11.051,2.585,2.585,0,0,0,2.581,2.54" transform="translate(-81.521 -141.256)" fill="#f57c00"/>
      <path id="Trazado_159491" data-name="Trazado 159491" d="M228.881,98.766c-1.278,0-1.278,0-1.278-1.166s0-1.176,1.281-1.165c1.373.011,1.188-.181,1.2,1.09.011,1.242,0,1.242-1.2,1.242" transform="translate(-220.228 -69.065)" fill="#f57c00"/>
      <path id="Trazado_159492" data-name="Trazado 159492" d="M228.826,116.257c-1.235,0-1.235,0-1.235-1.194,0-1.139,0-1.139,1.29-1.139,1.194,0,1.194,0,1.194,1.155,0,1.178,0,1.178-1.249,1.178" transform="translate(-220.214 -81.594)" fill="#f57c00"/>
      <path id="Trazado_159493" data-name="Trazado 159493" d="M27.447,42.292c-1.424-.936-1.422-.9-.583-2.4.24-.428.424-.44.825-.2,9.222,5.52,14.076,13.714,14.984,24.333.009,1.541.009,1.541-1.488,1.535a.543.543,0,0,0-.077,0c-.579.083-.778-.114-.806-.749-.429-9.7-4.752-17.2-12.855-22.521" transform="translate(24.313 -28.316)" fill="#f57c00"/>
      <path id="Trazado_159494" data-name="Trazado 159494" d="M27.237,142.487c-1.282,0-1.282,0-1.283-1.147,0-1.188,0-1.188,1.239-1.188s1.244,0,1.244,1.183c0,1.152,0,1.152-1.2,1.152" transform="translate(38.645 -100.379)" fill="#f57c00"/>
      <path id="Trazado_159495" data-name="Trazado 159495" d="M26.882,159.911c-.18,0-.361-.011-.541,0-.329.021-.473-.123-.454-.453.014-.231,0-.463,0-.7,0-1.19,0-1.19,1.181-1.19a2.832,2.832,0,0,0,.463,0c.683-.115.88.153.856.841-.051,1.5-.012,1.5-1.508,1.5" transform="translate(38.71 -112.834)" fill="#f57c00"/>
    </g>
  </g>
</svg>
