<svg id="Grupo_143807" data-name="Grupo 143807" xmlns="http://www.w3.org/2000/svg" xmlns:xlink="http://www.w3.org/1999/xlink" width="84.074" height="85.41" viewBox="0 0 84.074 85.41">
  <defs>
    <clipPath id="clip-path">
      <rect id="Rectángulo_39527" data-name="Rectángulo 39527" width="84.074" height="85.41" fill="#f57c00"/>
    </clipPath>
  </defs>
  <g id="Grupo_143807-2" data-name="Grupo 143807" clip-path="url(#clip-path)">
    <path id="Trazado_159496" data-name="Trazado 159496" d="M56.606,129.316a.75.75,0,0,1,1,0Z" transform="translate(-19.247 -43.905)" fill="#f57c00"/>
    <path id="Trazado_159497" data-name="Trazado 159497" d="M54.584,129.322c.167-.273.333-.2.5,0Z" transform="translate(-18.56 -43.912)" fill="#f57c00"/>
    <path id="Trazado_159498" data-name="Trazado 159498" d="M60.649,129.336a.291.291,0,0,1,.344-.144c.047.036.061.069.042.1s-.035.044-.053.044Z" transform="translate(-20.622 -43.926)" fill="#f57c00"/>
    <path id="Trazado_159499" data-name="Trazado 159499" d="M61.155,129.34c0-.048,0-.1.011-.144l.332,0c.048.034.062.067.044.1s-.035.044-.053.044Z" transform="translate(-20.794 -43.93)" fill="#f57c00"/>
    <path id="Trazado_159500" data-name="Trazado 159500" d="M61.66,129.334a1.15,1.15,0,0,1,.009-.143c.137-.018.279-.046.324.143Z" transform="translate(-20.966 -43.924)" fill="#f57c00"/>
    <path id="Trazado_159501" data-name="Trazado 159501" d="M83.892,38.586a6.111,6.111,0,0,0-4.562-4.607,2.188,2.188,0,0,1,.062-.261c1.425-3.77-.02-7.068-3.765-8.452-.562-.208-.327-.418-.219-.709a6.118,6.118,0,0,0-3.778-8.139c-.465-.162-.539-.278-.345-.717a5.653,5.653,0,0,0,.347-3.508,6.138,6.138,0,0,0-9.5-3.893c-1.869,1.2-3.708,2.441-5.554,3.674a.845.845,0,0,1-.975.119A37.632,37.632,0,0,0,46.19,8.9a1.018,1.018,0,0,1-.735-.455A38.5,38.5,0,0,0,39.131,1.5a5.529,5.529,0,0,0-8.566,6.8c.321.564.259.752-.366.789a1.992,1.992,0,0,0-.321.084A38.594,38.594,0,0,0,.559,53.324a37.737,37.737,0,0,0,12.616,22.49,37.836,37.836,0,0,0,18.562,8.975,16.725,16.725,0,0,1,3.454.621h.834a.381.381,0,0,1,.5,0h.834a1.278,1.278,0,0,1,1,0h1.668c.1-.109.232-.08.356-.086h.288c.125.007.257-.024.357.086h.5c1.164-.335,2.383-.292,3.561-.527q21.565-4.308,29.774-24.71c.374-.931.216-1.328-.652-1.973-1.13-.152-1.461.093-1.975,1.392a36.033,36.033,0,0,1-35.68,23.121,6.5,6.5,0,0,1-.733-.115,29.519,29.519,0,0,1-8.372-1.681c.091-.256.34-.337.531-.463q9.152-6.067,18.312-12.126c2.417-1.6,2.806-2.706,1.824-5.427-.112-.311.029-.382.206-.521a7.568,7.568,0,0,1,6.105-1.794,7.622,7.622,0,0,0,5.183-1.115c1.047-.622,2.06-1.3,3.088-1.955l10.15-6.779a3.242,3.242,0,0,1,.486-.316c.342-.147.643-.685.979-.436.261.194.069.734.024,1.114-.082.688-.217,1.368-.3,2.056-.143,1.25.2,1.659,1.454,1.776.8-.137,1.063-.715,1.176-1.419a35.581,35.581,0,0,0,.521-4.966,1.2,1.2,0,0,1,.643-1.124c1.2-.754,2.38-1.532,3.539-2.343a6.015,6.015,0,0,0,2.515-6.49M53.474,14.019l-4.025,2.674c-.627-1.571-1.141-3.116-1.938-4.751a33.046,33.046,0,0,1,5.964,2.077M2.693,44.991a36.057,36.057,0,0,1,27.186-33.11c2.539-.626,2.535-.626,3.129,1.983a18.746,18.746,0,0,1-.28,8.817C31.7,26.825,30.791,31,29.818,35.219c-2.115-1.418-3.2-1.413-5.278-.038L3.564,49.066c-.226.149-.46.285-.8.495a31.389,31.389,0,0,1-.072-4.57m42.4,20.947c-2.243,1.487-4.5,2.949-6.721,4.472-.56.385-.785.277-1.132-.244Q30.286,59.744,23.3,49.348c-.643-.959-1.015-1.085-2.092-.744-.742.867-.758,1.261-.073,2.284Q28.06,61.222,35.006,71.546c.409.606.372.851-.247,1.253-3.352,2.173-6.676,4.39-9.994,6.613a.99.99,0,0,1-1.123.082Q6.911,71.338,3.2,53.1a.788.788,0,0,1,.416-.948q6.1-3.982,12.156-8.019c.434-.288.681-.361.958.167.257.488.636.911.913,1.39a1.586,1.586,0,0,0,1.882.855c.939-.779,1.019-1.267.365-2.27-.348-.535-.686-1.077-1.064-1.591-.224-.3-.158-.462.135-.655C21.489,40.376,24,38.7,26.539,37.048c.669-.435,1.111-.269,1.638.526q4.509,6.8,9.011,13.6Q41.37,57.486,45.546,63.8c.729,1.1.669,1.386-.457,2.133m34.715-23q-4.049,2.707-8.117,5.386c-4.211,2.79-8.431,5.565-12.627,8.376a6.649,6.649,0,0,1-4.87,1.218,8.989,8.989,0,0,0-7,2.036c-.548.42-.79.363-1.176-.224Q39.155,49.3,32.232,38.9a1.5,1.5,0,0,1-.25-1.3c1.268-5.4,2.571-10.791,3.717-16.217A18.379,18.379,0,0,0,33.246,7.629a3.873,3.873,0,0,1-.75-1.824A2.758,2.758,0,0,1,34.048,3a2.682,2.682,0,0,1,3.184.366c4.011,3.528,7.392,7.52,9.132,12.691.318.944.678,1.876,1.032,2.808.474,1.251,1.283,1.521,2.4.783Q56.6,15.15,63.4,10.637a3.583,3.583,0,0,1,2.986-.653A3.329,3.329,0,0,1,69,12.606a3.265,3.265,0,0,1-1.288,3.547c-1.232.9-2.512,1.736-3.807,2.543a1.6,1.6,0,0,0-.836,1.956c.831.886,1.27.943,2.284.282.83-.542,1.642-1.113,2.487-1.631a3.1,3.1,0,0,1,3.058-.284,3.172,3.172,0,0,1,2.27,2.782,3.272,3.272,0,0,1-1.457,3.31c-1.219.859-2.483,1.653-3.724,2.482-.946.632-1.072,1.013-.717,2.088.848.7,1.251.737,2.144.156.834-.543,1.651-1.113,2.493-1.641a3.165,3.165,0,0,1,2.994-.336,3.1,3.1,0,0,1,2.313,2.551,3.3,3.3,0,0,1-1.394,3.568c-1.215.867-2.484,1.657-3.725,2.488s-1.257,1.732-.04,2.6a2.03,2.03,0,0,0,1.559-.409q1.188-.841,2.429-1.608a3.556,3.556,0,0,1,5.3,2.291,3.327,3.327,0,0,1-1.536,3.6" transform="translate(0 0)" fill="#f57c00"/>
  </g>
</svg>
