<svg xmlns="http://www.w3.org/2000/svg" xmlns:xlink="http://www.w3.org/1999/xlink" width="93.513" height="93.513" viewBox="0 0 93.513 93.513">
  <defs>
    <clipPath id="clip-path">
      <rect id="Rectángulo_39672" data-name="Rectángulo 39672" width="54.483" height="54.468" fill="#f57c00"/>
    </clipPath>
  </defs>
  <g id="Grupo_144177" data-name="Grupo 144177" transform="translate(-651 -1275.081)">
    <path id="Trazado_113533" data-name="Trazado 113533" d="M46.757,0A46.757,46.757,0,1,1,0,46.757,46.757,46.757,0,0,1,46.757,0Z" transform="translate(651 1275.081)" fill="#fff"/>
    <g id="Grupo_144152" data-name="Grupo 144152" transform="translate(670.515 1292.37)">
      <g id="Grupo_144152-2" data-name="Grupo 144152" clip-path="url(#clip-path)">
        <path id="Trazado_160884" data-name="Trazado 160884" d="M3.513,45.674V18.817a2.678,2.678,0,0,1,3.012-3c5.106,0,10.211-.008,15.317.013.488,0,.7-.153.753-.609a2.771,2.771,0,0,1,.076-.376A1,1,0,0,0,22.2,13.5h0a2.335,2.335,0,0,1-.967-1.38,10.9,10.9,0,0,1-.114-2.614.78.78,0,0,1,.836-.719c.271-.014.544,0,.887,0V1.142C22.841.286,23.135,0,24,0h6.533c.782,0,1.086.312,1.088,1.107q0,3.515,0,7.029v.65c.316,0,.585-.013.852,0a.863.863,0,0,1,.9.828c0,.025,0,.051,0,.076.019.622.034,1.246,0,1.866a2.53,2.53,0,0,1-1.387,2.161.467.467,0,0,0-.283.555c.17,1.537.162,1.538,1.664,1.538H48.023a2.661,2.661,0,0,1,2.927,2.926V45.68c.593,0,1.137-.006,1.681,0a1.757,1.757,0,0,1,1.83,1.681q0,.076,0,.152c.009.989.057,1.981-.025,2.964A4.357,4.357,0,0,1,50.03,54.46c-3.331.015-6.662,0-9.992,0H4.793A4.425,4.425,0,0,1,0,49.679c0-.732-.009-1.464,0-2.2a1.745,1.745,0,0,1,1.684-1.8c.039,0,.078,0,.116,0,.545-.012,1.091,0,1.71,0M45.65,21.116h-10c.519.852.5,1.032-.153,1.757q-3.655,4.058-7.306,8.12c-.762.848-1.153.85-1.906.011q-3.615-4.021-7.228-8.043a2,2,0,0,1-.561-.845,2.672,2.672,0,0,1,.234-1h-9.9V42.137H45.649ZM52.7,47.475a1.385,1.385,0,0,0-.209-.041q-9.552,0-19.1.011a.733.733,0,0,0-.511.352c-.439.821-.85,1.659-1.254,2.5a1.043,1.043,0,0,1-1.04.649q-3.348-.013-6.7,0a1.037,1.037,0,0,1-1.037-.651c-.379-.791-.8-1.561-1.162-2.36a.762.762,0,0,0-.822-.521q-9.249.026-18.5.012H1.757v2.269a2.685,2.685,0,0,0,3.018,3H49.952a2.618,2.618,0,0,0,2.734-2.447c.054-.907.01-1.825.01-2.773ZM5.27,45.644h43.9c.007-.133.019-.239.019-.345V18.622c0-.759-.33-1.054-1.142-1.054H33.334c-.155,0-.308.014-.569.026.336.461.627.83.886,1.223a1.092,1.092,0,0,0,1.043.517c3.824-.023,7.644-.014,11.472-.011,1.011,0,1.262.257,1.262,1.264V42.654c0,1.009-.256,1.265-1.262,1.265H8.3c-1.013,0-1.27-.253-1.27-1.256V20.6c0-1.017.25-1.272,1.251-1.273H19.86c.193,0,.468.019.565-.088.435-.5.819-1.04,1.3-1.662H6.471c-.928,0-1.194.271-1.194,1.216V44.974Zm21.082-17.2c0-1.543-.013-2.928.009-4.314a.751.751,0,0,0-.448-.806,2.572,2.572,0,0,1-1.262-2.8A2.636,2.636,0,0,1,29.638,20a2.387,2.387,0,0,1-.7,3.009,1.812,1.812,0,0,0-.834,1.94c.03.967.005,1.939.008,2.908,0,.153.017.305.033.555l5.851-6.5c-2.109-2.257-3.88-4.65-4.076-7.831H24.531c-.182,3.212-1.985,5.588-4.062,7.832ZM29.827,1.8h-5.2V8.757h5.2Zm-6.983,8.755c0,.322-.015.594,0,.865a.848.848,0,0,0,.831.866h.047q3.506.021,7.011,0a.848.848,0,0,0,.878-.816c0-.015,0-.029,0-.044.019-.284,0-.569,0-.87ZM31.058,47.46H23.4c.27.54.495,1.036.768,1.5a.587.587,0,0,0,.439.208q2.636.023,5.264,0A.536.536,0,0,0,30.278,49c.275-.48.51-.989.78-1.534ZM27.233,20.2a.879.879,0,1,0,.872.886v-.021a.879.879,0,0,0-.873-.862Z" transform="translate(0)" fill="#f57c00"/>
        <path id="Trazado_160885" data-name="Trazado 160885" d="M50.093,84.594c3.588-1.041,6.056-4.481,6.447-9.027h1.744a11.57,11.57,0,0,1-5.26,9.6h5.252c0-.281-.01-.548,0-.815a.858.858,0,0,1,.8-.91c.03,0,.059,0,.089,0q1.757-.025,3.514,0a.833.833,0,0,1,.859.806c0,.024,0,.049,0,.073q.027,1.729,0,3.458c-.009.6-.363.912-1,.917q-1.62.014-3.24,0c-.709-.006-1.015-.33-1.028-1.054v-.7H56.648c-1.976,0-3.954.007-5.929-.011a.559.559,0,0,0-.628.43,3.448,3.448,0,0,1-3.237,2.211,3.538,3.538,0,0,1-3.259-2.2c-.075-.176-.288-.413-.44-.414-2.543-.025-5.085-.019-7.718-.019,0,.264.005.514,0,.759a.891.891,0,0,1-.978,1c-1.1.012-2.2.009-3.294,0a.879.879,0,0,1-1-.974q-.018-1.675,0-3.349a.871.871,0,0,1,.967-.943c1.043-.009,2.086,0,3.129,0,.888,0,1.163.284,1.169,1.19v.527h5.229a11.606,11.606,0,0,1-5.244-9.586h1.757a9.753,9.753,0,0,0,2.538,6.472A9.242,9.242,0,0,0,43.6,84.6c2.036-2.781,4.555-2.784,6.489-.007M46.879,87.82A1.757,1.757,0,1,0,45.1,86.082V86.1a1.758,1.758,0,0,0,1.78,1.721ZM33.645,85.231H31.953V86.92h1.692Zm28.107,0H60.063V86.92h1.689Z" transform="translate(-19.628 -49.179)" fill="#f57c00"/>
      </g>
    </g>
  </g>
</svg>
