<svg xmlns="http://www.w3.org/2000/svg" width="329.056" height="44.016" viewBox="0 0 329.056 44.016">
  <g id="Grupo_144149" data-name="Grupo 144149" transform="translate(5991.378 2512.35)">
    <path id="Trazado_159294" data-name="Trazado 159294" d="M-209.418-17.31h-1.96V-31.724h1.96Zm13.86-4.613.02.059a4.33,4.33,0,0,1-1.426,3.4,5.448,5.448,0,0,1-3.871,1.366,5.083,5.083,0,0,1-3.985-1.732,6.371,6.371,0,0,1-1.539-4.4v-2.564a6.39,6.39,0,0,1,1.539-4.4,5.077,5.077,0,0,1,3.985-1.737,5.6,5.6,0,0,1,3.891,1.3,4.3,4.3,0,0,1,1.406,3.45l-.02.059h-1.871a3.217,3.217,0,0,0-.891-2.4,3.423,3.423,0,0,0-2.515-.881,3.071,3.071,0,0,0-2.6,1.317,5.357,5.357,0,0,0-.97,3.267v2.584a5.39,5.39,0,0,0,.97,3.287,3.071,3.071,0,0,0,2.6,1.317,3.434,3.434,0,0,0,2.515-.876,3.24,3.24,0,0,0,.891-2.421Zm13.187-9.8v9.573a4.649,4.649,0,0,1-1.544,3.712A5.864,5.864,0,0,1-187.9-17.1a5.533,5.533,0,0,1-3.841-1.341,4.727,4.727,0,0,1-1.495-3.707v-9.573h1.95v9.573a3.478,3.478,0,0,0,.945,2.589,3.321,3.321,0,0,0,2.44.936,3.612,3.612,0,0,0,2.579-.936,3.381,3.381,0,0,0,.995-2.589v-9.573Zm10.236,11.712h.059l4.6-11.712h2.425V-17.31H-167v-10.8l-.059-.01-4.366,10.811h-1.356l-4.495-11.167-.059.01V-17.31h-1.95V-31.724h2.564Zm18.146-.931a2.169,2.169,0,0,0-.7-1.643,5.854,5.854,0,0,0-2.475-1.129,8.242,8.242,0,0,1-3.43-1.6,3.364,3.364,0,0,1-1.233-2.663A3.554,3.554,0,0,1-160.5-30.8a5.133,5.133,0,0,1,3.445-1.129,5.032,5.032,0,0,1,3.628,1.292,3.913,3.913,0,0,1,1.312,3.015l-.03.059h-1.861a2.661,2.661,0,0,0-.856-2.029,3.08,3.08,0,0,0-2.193-.8,3,3,0,0,0-2.094.663,2.223,2.223,0,0,0-.728,1.723,1.924,1.924,0,0,0,.8,1.569,7.35,7.35,0,0,0,2.589,1.1,7.349,7.349,0,0,1,3.316,1.663,3.62,3.62,0,0,1,1.138,2.713,3.367,3.367,0,0,1-1.371,2.8,5.691,5.691,0,0,1-3.579,1.059,6.087,6.087,0,0,1-3.688-1.168,3.561,3.561,0,0,1-1.549-3.128l.02-.059h1.861a2.423,2.423,0,0,0,1.03,2.094,3.9,3.9,0,0,0,2.326.738,3.5,3.5,0,0,0,2.193-.624A2.026,2.026,0,0,0-153.989-20.943Zm12.157-.079h-5.425l-1.287,3.712h-1.99l5.2-14.414h1.673l5.089,14.414h-1.99Zm-4.861-1.633h4.306l-2.1-6.187h-.059Zm21.809,3.762a3.628,3.628,0,0,1-1.3,1.327,3.548,3.548,0,0,1-1.831.465,3.441,3.441,0,0,1-2.732-1.119,5.194,5.194,0,0,1-.98-3.485v-6.316h1.95v6.336a3.988,3.988,0,0,0,.5,2.356,1.877,1.877,0,0,0,1.574.643,3.208,3.208,0,0,0,1.718-.421,2.632,2.632,0,0,0,1.025-1.193v-7.722H-123V-17.31h-1.752Zm6.465-9.128.139,1.594a3.889,3.889,0,0,1,1.341-1.322,3.579,3.579,0,0,1,1.836-.47,3.5,3.5,0,0,1,2.683,1.015,4.455,4.455,0,0,1,.95,3.133v6.762h-1.95v-6.722a2.9,2.9,0,0,0-.559-2.01,2.241,2.241,0,0,0-1.708-.594,3.023,3.023,0,0,0-1.53.361,2.626,2.626,0,0,0-.995,1.015v7.95h-1.95V-28.022Zm11.89,10.712h-1.95V-28.022h1.95Zm0-13.454h-1.95v-1.99h1.95Zm5.712.158v2.584h2.029v1.445h-2.029v6.5a1.456,1.456,0,0,0,.312,1.059,1.127,1.127,0,0,0,.827.307,1.811,1.811,0,0,0,.376-.045,2.79,2.79,0,0,0,.346-.094l.267,1.336a1.723,1.723,0,0,1-.643.292,3.247,3.247,0,0,1-.841.114,2.526,2.526,0,0,1-1.891-.718,3.117,3.117,0,0,1-.7-2.252v-6.5h-1.7v-1.445h1.7v-2.584Zm10.345,10.415a1.3,1.3,0,0,0-.49-1.049,4.73,4.73,0,0,0-1.856-.713,7.788,7.788,0,0,1-2.906-1.138,2.3,2.3,0,0,1-1.015-1.96,2.825,2.825,0,0,1,1.114-2.237,4.35,4.35,0,0,1,2.886-.931,4.311,4.311,0,0,1,2.95.99,2.837,2.837,0,0,1,1.079,2.307l-.02.059H-90.59a1.687,1.687,0,0,0-.609-1.257,2.176,2.176,0,0,0-1.539-.564,2.219,2.219,0,0,0-1.539.465,1.452,1.452,0,0,0-.51,1.109,1.175,1.175,0,0,0,.441.98,4.876,4.876,0,0,0,1.817.634,7.677,7.677,0,0,1,2.99,1.178,2.372,2.372,0,0,1,1.02,1.99A2.82,2.82,0,0,1-89.674-18a4.757,4.757,0,0,1-3.015.9,4.708,4.708,0,0,1-3.227-1.039,2.966,2.966,0,0,1-1.119-2.425l.02-.059h1.861a1.8,1.8,0,0,0,.772,1.52,2.988,2.988,0,0,0,1.693.48,2.667,2.667,0,0,0,1.629-.441A1.347,1.347,0,0,0-90.471-20.191Zm12.721-5.267h-8.256v-1.624h8.256Zm0,4.118h-8.256v-1.624h8.256Zm13.721,4.029h-1.96V-29.923l-3.138.03v-1.5l5.1-.535ZM-49.347-22.4a5.688,5.688,0,0,1-1.242,3.871A4.208,4.208,0,0,1-53.931-17.1a4.226,4.226,0,0,1-3.341-1.426A5.659,5.659,0,0,1-58.524-22.4v-4.237A5.7,5.7,0,0,1-57.282-30.5a4.183,4.183,0,0,1,3.331-1.435A4.224,4.224,0,0,1-50.6-30.5a5.667,5.667,0,0,1,1.252,3.861Zm-1.95-4.643A3.932,3.932,0,0,0-51.99-29.5a2.329,2.329,0,0,0-1.96-.9,2.291,2.291,0,0,0-1.94.9,3.973,3.973,0,0,0-.683,2.455V-22a3.956,3.956,0,0,0,.7,2.465,2.312,2.312,0,0,0,1.945.911,2.3,2.3,0,0,0,1.95-.906A4.013,4.013,0,0,0-51.3-22ZM-37.933-22.4a5.688,5.688,0,0,1-1.242,3.871A4.208,4.208,0,0,1-42.516-17.1a4.226,4.226,0,0,1-3.341-1.426A5.659,5.659,0,0,1-47.11-22.4v-4.237A5.7,5.7,0,0,1-45.867-30.5a4.183,4.183,0,0,1,3.331-1.435A4.224,4.224,0,0,1-39.185-30.5a5.667,5.667,0,0,1,1.252,3.861Zm-1.95-4.643a3.932,3.932,0,0,0-.693-2.455,2.329,2.329,0,0,0-1.96-.9,2.291,2.291,0,0,0-1.94.9,3.973,3.973,0,0,0-.683,2.455V-22a3.956,3.956,0,0,0,.7,2.465,2.312,2.312,0,0,0,1.945.911,2.3,2.3,0,0,0,1.95-.906A4.013,4.013,0,0,0-39.883-22ZM-26.518-22.4a5.688,5.688,0,0,1-1.242,3.871A4.208,4.208,0,0,1-31.1-17.1a4.226,4.226,0,0,1-3.341-1.426A5.659,5.659,0,0,1-35.7-22.4v-4.237A5.7,5.7,0,0,1-34.453-30.5a4.183,4.183,0,0,1,3.331-1.435A4.224,4.224,0,0,1-27.77-30.5a5.667,5.667,0,0,1,1.252,3.861Zm-1.95-4.643a3.932,3.932,0,0,0-.693-2.455,2.329,2.329,0,0,0-1.96-.9,2.291,2.291,0,0,0-1.94.9,3.973,3.973,0,0,0-.683,2.455V-22a3.956,3.956,0,0,0,.7,2.465,2.312,2.312,0,0,0,1.945.911,2.3,2.3,0,0,0,1.95-.906A4.013,4.013,0,0,0-28.468-22Zm13.157,2.97,2.277-3.95h2.277l-3.475,5.3,3.574,5.415H-12.9l-2.376-4.049-2.376,4.049H-19.9l3.574-5.415-3.475-5.3h2.247Z" transform="translate(-5780 -2465.169)" fill="#12263f"/>
    <path id="Trazado_159295" data-name="Trazado 159295" d="M-116.647-18.153h-1.96V-30.766l-3.138.03v-1.5l5.1-.535Zm14.681-5.089a5.688,5.688,0,0,1-1.242,3.871,4.208,4.208,0,0,1-3.341,1.426,4.226,4.226,0,0,1-3.341-1.426,5.659,5.659,0,0,1-1.252-3.871v-4.237A5.7,5.7,0,0,1-109.9-31.34a4.183,4.183,0,0,1,3.331-1.435,4.224,4.224,0,0,1,3.351,1.435,5.667,5.667,0,0,1,1.252,3.861Zm-1.95-4.643a3.932,3.932,0,0,0-.693-2.455,2.329,2.329,0,0,0-1.96-.9,2.291,2.291,0,0,0-1.94.9,3.973,3.973,0,0,0-.683,2.455v5.039a3.955,3.955,0,0,0,.7,2.465,2.312,2.312,0,0,0,1.945.911,2.3,2.3,0,0,0,1.95-.906,4.013,4.013,0,0,0,.683-2.47Zm13.365,4.643a5.688,5.688,0,0,1-1.242,3.871,4.208,4.208,0,0,1-3.341,1.426,4.226,4.226,0,0,1-3.341-1.426,5.659,5.659,0,0,1-1.252-3.871v-4.237a5.7,5.7,0,0,1,1.242-3.861,4.183,4.183,0,0,1,3.331-1.435A4.224,4.224,0,0,1-91.8-31.34a5.667,5.667,0,0,1,1.252,3.861Zm-1.95-4.643a3.932,3.932,0,0,0-.693-2.455,2.329,2.329,0,0,0-1.96-.9,2.291,2.291,0,0,0-1.94.9,3.973,3.973,0,0,0-.683,2.455v5.039a3.955,3.955,0,0,0,.7,2.465,2.312,2.312,0,0,0,1.945.911,2.3,2.3,0,0,0,1.95-.906,4.013,4.013,0,0,0,.683-2.47Zm13.246,2.425h.059l1.643-3.406h3.267l-3.227,5.3,3.336,5.415h-3.257l-1.752-3.554-1.752,3.554h-3.267l3.336-5.415-3.237-5.3h3.247Zm19.81.624h-5.92v5.158h6.93v1.525h-8.88V-32.568h8.771v1.534h-6.821v4.663h5.92Zm7.979.832a13.252,13.252,0,0,1,1.574-6.663,9.111,9.111,0,0,1,3.307-3.683l.059.01.376,1.148a8.446,8.446,0,0,0-2.361,3.4,14.624,14.624,0,0,0-1,5.772v.129a14.688,14.688,0,0,0,1,5.772,9.187,9.187,0,0,0,2.366,3.485l-.376,1.069h-.059a9.115,9.115,0,0,1-3.307-3.678,13.245,13.245,0,0,1-1.574-6.668Zm14.256,1h1.99v1.525h-1.99v3.326h-1.94V-21.48h-6.187v-1.1l6.069-9.989h2.059Zm-6.039,0h4.1v-6.762l-.059-.01-.188.495ZM-24.2-18.153h-8.949V-19.49l4.524-5.4a13.592,13.592,0,0,0,1.638-2.331,3.891,3.891,0,0,0,.431-1.747,2.333,2.333,0,0,0-.584-1.638,2.077,2.077,0,0,0-1.614-.639,2.417,2.417,0,0,0-1.945.782,2.9,2.9,0,0,0-.668,1.95h-1.881l-.02-.059a3.888,3.888,0,0,1,1.178-2.985,4.518,4.518,0,0,1,3.336-1.223,4.2,4.2,0,0,1,3.039,1.069,3.667,3.667,0,0,1,1.109,2.762,4.405,4.405,0,0,1-.629,2.227,24.852,24.852,0,0,1-1.916,2.732l-3.633,4.257.02.049H-24.2Zm11.276-5.089a5.688,5.688,0,0,1-1.242,3.871,4.208,4.208,0,0,1-3.341,1.426,4.226,4.226,0,0,1-3.341-1.426A5.659,5.659,0,0,1-22.1-23.242v-4.237a5.7,5.7,0,0,1,1.242-3.861,4.183,4.183,0,0,1,3.331-1.435,4.224,4.224,0,0,1,3.351,1.435,5.667,5.667,0,0,1,1.252,3.861Zm-1.95-4.643a3.932,3.932,0,0,0-.693-2.455,2.329,2.329,0,0,0-1.96-.9,2.291,2.291,0,0,0-1.94.9,3.973,3.973,0,0,0-.683,2.455v5.039a3.955,3.955,0,0,0,.7,2.465,2.312,2.312,0,0,0,1.945.911,2.3,2.3,0,0,0,1.95-.906,4.013,4.013,0,0,0,.683-2.47Zm8.445,3.97a13.212,13.212,0,0,1-1.579,6.668,9.179,9.179,0,0,1-3.3,3.678h-.059l-.376-1.069A8.431,8.431,0,0,0-9.4-18.059,14.888,14.888,0,0,0-8.383-23.9v-.129A14.388,14.388,0,0,0-9.427-29.8a9.545,9.545,0,0,0-2.322-3.48l.376-1.069h.059a9.175,9.175,0,0,1,3.3,3.683A13.218,13.218,0,0,1-6.432-24Z" transform="translate(-5658.569 -2478)" fill="#12263f"/>
    <path id="Trazado_159296" data-name="Trazado 159296" d="M-93.37-16.156V-30.57h4.534A6.1,6.1,0,0,1-84.3-28.833a6.113,6.113,0,0,1,1.718,4.49v1.97a6.093,6.093,0,0,1-1.718,4.49,6.117,6.117,0,0,1-4.539,1.728Zm1.95-12.88v11.355h2.584A3.975,3.975,0,0,0-85.682-19a4.936,4.936,0,0,0,1.153-3.376v-1.99a4.907,4.907,0,0,0-1.153-3.356,3.975,3.975,0,0,0-3.153-1.317Zm20.275,5.574h.059l1.643-3.406h3.267l-3.227,5.3,3.336,5.415h-3.257l-1.752-3.554-1.752,3.554h-3.267l3.336-5.415L-76-26.868h3.247Zm11.939,7.306V-30.57h4.7a5.7,5.7,0,0,1,3.534.975,3.449,3.449,0,0,1,1.277,2.925A2.645,2.645,0,0,1-50.266-25a3.6,3.6,0,0,1-1.525,1.124,3.353,3.353,0,0,1,2.242,1.228,3.757,3.757,0,0,1,.827,2.425A3.668,3.668,0,0,1-50.008-17.2a5.371,5.371,0,0,1-3.485,1.044Zm1.95-6.762v5.237h3.762a3.009,3.009,0,0,0,2.074-.658,2.371,2.371,0,0,0,.738-1.866,2.573,2.573,0,0,0-.752-1.93,2.958,2.958,0,0,0-2.029-.782h-3.792Zm0-1.525H-54.1a2.59,2.59,0,0,0,1.772-.6,2.1,2.1,0,0,0,.683-1.668,2.085,2.085,0,0,0-.738-1.747,3.376,3.376,0,0,0-2.124-.579h-2.752Zm14.305,1.525,2.277-3.95H-38.4l-3.475,5.3,3.574,5.415h-2.237l-2.376-4.049-2.376,4.049h-2.257l3.574-5.415-3.475-5.3H-45.2Zm15.325-.544h.059l1.643-3.406h3.267l-3.227,5.3,3.336,5.415H-25.8l-1.752-3.554-1.752,3.554h-3.267l3.336-5.415-3.237-5.3h3.247Zm11.939,7.306V-30.57h4.534a6.1,6.1,0,0,1,4.539,1.737,6.113,6.113,0,0,1,1.718,4.49v1.97a6.093,6.093,0,0,1-1.718,4.49,6.117,6.117,0,0,1-4.539,1.728Zm1.95-12.88v11.355h2.584A3.975,3.975,0,0,0-8-19a4.936,4.936,0,0,0,1.153-3.376v-1.99A4.907,4.907,0,0,0-8-27.719a3.975,3.975,0,0,0-3.153-1.317Z" transform="translate(-5673.565 -2452.178)" fill="#12263f"/>
    <path id="Línea_941" data-name="Línea 941" d="M120.706-.085H0V-1.5H120.706Z" transform="translate(-5783.028 -2488.524)" fill="#12263f"/>
  </g>
</svg>
