<svg xmlns="http://www.w3.org/2000/svg" xmlns:xlink="http://www.w3.org/1999/xlink" width="77" height="75" viewBox="0 0 77 75">
  <defs>
    <clipPath id="clip-path">
      <rect id="Rectángulo_39523" data-name="Rectángulo 39523" width="64.282" height="64.244" fill="none"/>
    </clipPath>
  </defs>
  <g id="Grupo_143793" data-name="Grupo 143793" transform="translate(-200.17 -6317.016)">
    <ellipse id="Elipse_5444" data-name="Elipse 5444" cx="38.5" cy="37.5" rx="38.5" ry="37.5" transform="translate(200.17 6317.016)" fill="#f6f6f6"/>
    <g id="Grupo_143792" data-name="Grupo 143792" transform="translate(206.926 6322.771)">
      <g id="Grupo_143791" data-name="Grupo 143791" clip-path="url(#clip-path)">
        <path id="Trazado_159301" data-name="Trazado 159301" d="M16.066,60.232H6.8A27.879,27.879,0,0,0,9.65,70.84l8.013-4.629c-.55-2.057-1.068-4-1.6-5.98" transform="translate(-2.959 -26.196)" fill="#070073"/>
        <path id="Trazado_159302" data-name="Trazado 159302" d="M34.715,95.707A27.943,27.943,0,0,0,45.3,98.542V89.287L39.348,87.68l-4.633,8.027" transform="translate(-15.098 -38.134)" fill="#5d27bd"/>
        <path id="Trazado_159303" data-name="Trazado 159303" d="M23.2,76.577l-8.02,4.633a28.4,28.4,0,0,0,7.78,7.775l4.63-8.02L23.2,76.577" transform="translate(-6.603 -33.305)" fill="#17981b"/>
        <path id="Trazado_159304" data-name="Trazado 159304" d="M27.594,23.205l-4.633-8.024a28.43,28.43,0,0,0-7.779,7.778l8.02,4.629,4.392-4.383" transform="translate(-6.603 -6.603)" fill="#fffa73"/>
        <path id="Trazado_159305" data-name="Trazado 159305" d="M53.6,48.166a.849.849,0,0,0-.136-.132.809.809,0,0,0-.137.132c-1.242,2.005-2.506,4-3.712,6.025a3.979,3.979,0,0,0-.338,3.388,4.209,4.209,0,0,0,3.563,3.038,4.122,4.122,0,0,0,4.2-1.811A4.068,4.068,0,0,0,57.3,54.2c-1.173-2.046-2.462-4.024-3.7-6.031" transform="translate(-21.332 -20.891)" fill="#fff"/>
        <path id="Trazado_159306" data-name="Trazado 159306" d="M70.848,9.647a27.843,27.843,0,0,0-10.6-2.835v9.253l5.969,1.605,4.63-8.023" transform="translate(-26.204 -2.963)" fill="#32ff17"/>
        <path id="Trazado_159307" data-name="Trazado 159307" d="M45.31,16.072V6.809A27.8,27.8,0,0,0,34.719,9.652l4.628,8.015,5.963-1.6" transform="translate(-15.1 -2.961)" fill="#e79b00"/>
        <path id="Trazado_159308" data-name="Trazado 159308" d="M17.666,39.34,9.654,34.714a27.661,27.661,0,0,0-2.841,10.6h9.254l1.6-5.971" transform="translate(-2.963 -15.098)" fill="#8bffbb"/>
        <path id="Trazado_159309" data-name="Trazado 159309" d="M89.295,45.315h9.254a27.743,27.743,0,0,0-2.842-10.6l-8.02,4.632c.541,2.01,1.06,3.935,1.608,5.964" transform="translate(-38.137 -15.1)" fill="#49bdbd"/>
        <path id="Trazado_159310" data-name="Trazado 159310" d="M87.689,66.213l8.022,4.633a27.88,27.88,0,0,0,2.835-10.6H89.294c-.54,2-1.062,3.946-1.605,5.966" transform="translate(-38.138 -26.203)" fill="#e72500"/>
        <path id="Trazado_159311" data-name="Trazado 159311" d="M81.21,15.179,76.579,23.2l4.386,4.4,8.023-4.635a28.438,28.438,0,0,0-7.778-7.78" transform="translate(-33.306 -6.602)" fill="#bd33bd"/>
        <path id="Trazado_159312" data-name="Trazado 159312" d="M60.358,45.215A15.186,15.186,0,1,0,45.095,60.357,15.211,15.211,0,0,0,60.358,45.215m-8.693,8.148A8.145,8.145,0,0,1,37.11,49.629a7.511,7.511,0,0,1,.941-5.141c2.288-3.793,4.644-7.547,6.974-11.315a2.213,2.213,0,0,1,.177-.2c1.807,2.92,3.578,5.778,5.346,8.639.561.906,1.132,1.807,1.667,2.728a8.093,8.093,0,0,1-.55,9.023" transform="translate(-13.042 -13.041)" fill="#fff"/>
        <path id="Trazado_159313" data-name="Trazado 159313" d="M76.573,80.964,81.21,88.99a28.561,28.561,0,0,0,7.775-7.784l-8.019-4.629-4.393,4.386" transform="translate(-33.303 -33.306)" fill="#bd90bd"/>
        <path id="Trazado_159314" data-name="Trazado 159314" d="M60.249,89.3v9.26a27.887,27.887,0,0,0,10.6-2.845l-4.629-8.017-5.969,1.6" transform="translate(-26.204 -38.14)" fill="#3727bd"/>
        <path id="Trazado_159315" data-name="Trazado 159315" d="M39.019.753C37.594.445,36.13.32,34.684.108,34.5.081,34.321.036,34.139,0H30.122c-1.2.163-2.4.3-3.591.494A32.128,32.128,0,0,0,.623,25.855C.359,27.267.205,28.7,0,30.121v4.017c.16,1.176.286,2.359.486,3.529A32.131,32.131,0,1,0,39.019.753m-4.973,3.1a27.84,27.84,0,0,1,10.6,2.835l-4.63,8.023L34.045,13.1Zm-3.835,0V13.11l-5.963,1.6L19.619,6.691A27.792,27.792,0,0,1,30.21,3.848M16.358,8.578,20.991,16.6,16.6,20.985l-8.02-4.629a28.432,28.432,0,0,1,7.779-7.779M6.691,19.616,14.7,24.242c-.55,2.055-1.065,3.98-1.6,5.971H3.85a27.67,27.67,0,0,1,2.841-10.6M3.845,34.036h9.262c.529,1.981,1.048,3.922,1.6,5.98L6.691,44.644A27.894,27.894,0,0,1,3.845,34.036M8.58,47.9l8.02-4.633,4.39,4.387-4.631,8.02A28.4,28.4,0,0,1,8.58,47.9M30.2,60.408a27.943,27.943,0,0,1-10.581-2.834l4.633-8.027L30.2,51.153Zm1.855-13.092A15.186,15.186,0,1,1,47.316,32.174,15.214,15.214,0,0,1,32.053,47.316m1.992,13.1v-9.26l5.969-1.6,4.629,8.017a27.888,27.888,0,0,1-10.6,2.846m13.861-4.731L43.27,47.659l4.393-4.386L55.682,47.9a28.569,28.569,0,0,1-7.775,7.784m9.667-11.042L49.552,40.01c.544-2.02,1.066-3.962,1.605-5.966h9.251a27.869,27.869,0,0,1-2.834,10.6m2.838-14.428H51.158c-.547-2.03-1.066-3.955-1.608-5.964l8.02-4.633a27.724,27.724,0,0,1,2.842,10.6M47.659,20.992l-4.386-4.4L47.9,8.577a28.444,28.444,0,0,1,7.778,7.779l-8.023,4.635"/>
        <path id="Trazado_159316" data-name="Trazado 159316" d="M55.951,43.91c-1.768-2.86-3.539-5.72-5.346-8.639a2.119,2.119,0,0,0-.177.2c-2.33,3.768-4.686,7.521-6.974,11.315a7.514,7.514,0,0,0-.941,5.141,8.145,8.145,0,0,0,14.555,3.733,8.092,8.092,0,0,0,.549-9.023c-.535-.922-1.106-1.822-1.666-2.729m-1.8,9.345a4.123,4.123,0,0,1-4.2,1.811,4.209,4.209,0,0,1-3.563-3.038,3.979,3.979,0,0,1,.338-3.388c1.206-2.027,2.47-4.02,3.712-6.026a.808.808,0,0,1,.137-.131.8.8,0,0,1,.136.132c1.241,2.006,2.531,3.984,3.7,6.03a4.069,4.069,0,0,1-.267,4.611" transform="translate(-18.445 -15.34)"/>
      </g>
    </g>
  </g>
</svg>
