<svg id="Grupo_144168" data-name="Grupo 144168" xmlns="http://www.w3.org/2000/svg" xmlns:xlink="http://www.w3.org/1999/xlink" width="219.325" height="219.282" viewBox="0 0 219.325 219.282">
  <defs>
    <clipPath id="clip-path">
      <rect id="Rectángulo_39681" data-name="Rectángulo 39681" width="219.325" height="219.282" fill="none"/>
    </clipPath>
  </defs>
  <g id="Grupo_144167" data-name="Grupo 144167" clip-path="url(#clip-path)">
    <path id="Trazado_161053" data-name="Trazado 161053" d="M107.834,219.282h-.856a3.366,3.366,0,0,0-2.568,0H100.56c-3.079-.5-6.21-.374-9.3-.763a92.194,92.194,0,0,1-23.776-6.674,107.245,107.245,0,0,1-30.408-18.771,110.762,110.762,0,0,1-35.95-62.314,102.879,102.879,0,0,1-.917-10.607c-.039-.482.157-1-.211-1.436v-2.14c.307-.288.186-.666.214-1.012-.076-.518.184-1.082-.214-1.555v-8.559c.4-.474.138-1.038.214-1.555-.028-.347.093-.724-.214-1.012v-2.14c.478-3.013.357-6.076.726-9.1a91.926,91.926,0,0,1,6.7-24A107.849,107.849,0,0,1,26.216,37.219a110.671,110.671,0,0,1,52.605-33.6A87.541,87.541,0,0,1,101.958.1a206.076,206.076,0,0,1,23.671.515c9.15.87,17.856,3.6,26.3,7.123a107.05,107.05,0,0,1,30.042,18.6,110.146,110.146,0,0,1,24.919,31.242,108.107,108.107,0,0,1,11.537,33.827,42.009,42.009,0,0,1,.538,9.555c-.548.738-1.138.329-1.685.024a6.857,6.857,0,0,1-1.457-1.245C205.338,89.193,194.7,78.792,184.341,68.112a3.574,3.574,0,0,0-1.844-.965c-6.915-.3-13.826-.052-20.736-.128-2.991-.033-5.983.084-8.968-.156a2.9,2.9,0,0,1-1.448-.1,37.925,37.925,0,0,1-6.5-5.952c-.565-.586-1.051-1.119-1.922-1.071-2.481-.024-4.959-.01-7.437-.007-3.554,0-3.546.01-3.634,3.491-.027,1.049.121,2.148-.665,3.037-1.652,1.229-3.567.646-5.372.727-2.719.123-2.908.238-2.932,2.945-.016,1.849.006,3.7,0,5.547,0,1.421.64,2.021,2.064,2.092,1.9.1,3.844-.38,5.683.432a1.211,1.211,0,0,1,.437.479c-.141,1.319-1.224,1.178-2.083,1.266-1.4.144-2.828-.069-4.559.158,2.393,2.485,4.764,4.689,6.884,7.127,4.988,4.63,9.676,9.56,14.516,14.337a8.788,8.788,0,0,1,1.661,1.926c.418.76.586,1.492-.513,1.858-5.937.177-11.87.056-17.8.065-1.57-.136-2.473-1.358-3.444-2.325Q101.415,78.661,77.161,54.362c-1.549-1.549-2.66-3.561-4.769-4.518-.993-.28-1.005-1.957-2.393-1.662-8.455,12.85-16.737,25.792-24.092,39.309a182.451,182.451,0,0,0-12.223,26.778c-5.358,15.28.356,31.583,12.581,41.336a9.835,9.835,0,0,1,2.467,2.338,5,5,0,0,0,1.239,1.957c11.685,10.967,22.743,22.569,34.135,33.832q11.243,11.116,22.346,22.374c.818.826,2.242,1.549,1.382,3.174" transform="translate(0 0)" fill="#414952"/>
    <path id="Trazado_161054" data-name="Trazado 161054" d="M248.013,132.172c2.237,2.183,4.5,4.345,6.708,6.553q13.212,13.185,26.4,26.39c.6.6,1.258,1.145,1.889,1.716a2.073,2.073,0,0,1,.664,1.923c.006,7.682.188,15.374-.613,23.028a92,92,0,0,1-5.678,22.49,108.313,108.313,0,0,1-20.017,33.565A109.814,109.814,0,0,1,212.8,278.869c-9.589,3.636-19.423,5.972-29.745,5.857a1.3,1.3,0,0,0-1.008.212h-2.568a3.365,3.365,0,0,0-2.567,0h-4.707c-.136-1.108-1.044-1.664-1.733-2.353q-28.227-28.255-56.454-56.511c-.522-.523-1.588-.832-1.22-1.956.959-.65,1.806-.089,2.568.353a42.562,42.562,0,0,0,19.039,5.372,38.445,38.445,0,0,0,16.538-3.724c12.117-5.833,19.515-15.37,22.094-28.593,1.538-7.886-.473-15.264-3.333-22.5-5.445-13.772-12.849-26.522-20.485-39.151-3.576-5.915-7.338-11.709-11.094-17.509-.634-.98-1.605-1.9-1.044-3.284.871-.418,1.12.432,1.508.821q26.619,26.569,53.2,53.179c.349.35.638.76.955,1.142-.481.836-1.31.635-2.043.658a4.292,4.292,0,0,0-3.081.96c-.429,3.294-.962,6.582.341,9.8a8.665,8.665,0,0,0,3.933.811c7.814-.014,15.628.015,23.443-.019,2.695-.012,5.38-.427,8.084-.276a4.974,4.974,0,0,1,2.675.53c1.228,1.022.911,2.454.938,3.766.078,3.832.056,3.833,3.958,3.838,1.348,0,2.7.025,4.044-.01,2.254-.058,2.451-.322,2.581-2.645.089-1.593-.419-3.288.68-4.742,1.732-1.236,3.718-.637,5.595-.713,2.943-.121,3.1-.212,3.124-3.2q.017-2.241,0-4.483c-.018-3.2-.121-3.246-3.42-3.337-1.744-.048-3.575.432-5.2-.632-1.112-1.2-.7-2.693-.778-4.083-.124-2.212-.332-2.482-2.486-2.531-1.925-.043-3.852.025-5.776-.018-1.638-.036-2.279.694-2.323,2.31-.041,1.511.459,3.188-.93,4.441-1.879.931-3.89.487-5.841.514-2.184.031-4.36-.354-6.554-.294a1.774,1.774,0,0,1-1.7-.651q-7.424-7.512-14.844-15.028c-.646-.655-1.234-1.368-1.849-2.054.6-.844,1.516-.616,2.333-.631,2.047-.037,4.1.017,6.142-.025a4.64,4.64,0,0,0,2.963-.955c.832-1.448.345-3.031.476-4.545.095-1.1-.12-2.278.843-3.148,2.215-1.129,4.593-.432,6.893-.61a19.491,19.491,0,0,1,2.544.107c8.234-.261,16.471-.05,24.706-.118.852-.007,1.7-.019,2.556-.019a1.949,1.949,0,0,0,2.224-2.208c.024-2.13-.029-4.261.045-6.39.032-.915-.024-1.886.973-2.422" transform="translate(-64.373 -65.656)" fill="#333940"/>
    <path id="Trazado_161055" data-name="Trazado 161055" d="M243.418,510.594a1.982,1.982,0,0,1,2.568,0Z" transform="translate(-139.007 -291.312)" fill="#6b7178"/>
    <path id="Trazado_161056" data-name="Trazado 161056" d="M262.373,510.619a2.041,2.041,0,0,1,2.568,0Z" transform="translate(-149.832 -291.337)" fill="#464c53"/>
    <path id="Trazado_161057" data-name="Trazado 161057" d="M.374,241.577c.043.616.193,1.255-.374,1.741v-1.712q.161-.359.374-.029" transform="translate(0 -137.866)" fill="#7a7f86"/>
    <path id="Trazado_161058" data-name="Trazado 161058" d="M0,265.8c.568.485.418,1.124.374,1.741-.142.215-.268.217-.374-.029Z" transform="translate(0 -151.788)" fill="#7a7f86"/>
    <path id="Trazado_161059" data-name="Trazado 161059" d="M.374,240.687q-.187.012-.374.029v-.856c.435.135.4.483.374.827" transform="translate(0 -136.976)" fill="#9ba0a5"/>
    <path id="Trazado_161060" data-name="Trazado 161060" d="M0,269.79q.187.017.374.029c.025.344.06.692-.374.827Z" transform="translate(0 -154.068)" fill="#9ba0a5"/>
    <path id="Trazado_161061" data-name="Trazado 161061" d="M164.878,111.386c5.761,8.9,11.6,17.758,16.891,26.953,6.947,12.079,13.622,24.263,18.34,37.48,7.458,20.892-5.955,44.146-27.227,49.75a30.537,30.537,0,0,1-10.536,1.25,2.472,2.472,0,0,1-.9-2.07c-.038-1.14-.038-2.279-.038-3.418q0-52.991-.007-105.982a22.241,22.241,0,0,1,.553-6.139c.3-.9.694-.939,1.231-.168.552.791,1.13,1.564,1.7,2.345" transform="translate(-92.168 -61.958)" fill="#fcb912"/>
    <path id="Trazado_161062" data-name="Trazado 161062" d="M110.679,110.157a3.589,3.589,0,0,1,.4,2.472q.009,57.569,0,115.138a38.512,38.512,0,0,1-19.7-5.291c-.674-.385-1.365-.739-2.048-1.108-4.963-3.673-9.352-7.882-12.413-13.324-5.475-9.731-6.9-19.9-3.361-30.632a150.207,150.207,0,0,1,10.393-23.594,470.133,470.133,0,0,1,26.313-43.185,4.707,4.707,0,0,1,.424-.476" transform="translate(-40.896 -62.907)" fill="#fed300"/>
    <path id="Trazado_161063" data-name="Trazado 161063" d="M386.317,154.494c-.022,3.56-.074,7.12-.047,10.679.008,1.024-.156,1.533-1.369,1.526-9.472-.049-18.944-.034-28.417-.047a2.582,2.582,0,0,1-.613-.155,2.376,2.376,0,0,1-.858-1.637c-.045-3.576-.209-7.152.007-10.727q15.106-.036,30.211-.068c.407,0,.872-.087,1.086.429" transform="translate(-202.677 -87.978)" fill="#f1f5fb"/>
    <path id="Trazado_161064" data-name="Trazado 161064" d="M316.746,156.769q-.025,4.187-.051,8.374c-2,.71-4.056.194-6.084.294-1.844.091-3.7,0-5.544.029-.784.012-1.521-.14-1.693-.95-.528-2.484-1.076-5,.462-7.362a.787.787,0,0,0,.03-.408c-1.343-1.992-1.34-10.521,0-12.466.033-1.919.125-3.84.076-5.758-.031-1.21.409-1.623,1.61-1.6,3.7.079,7.4.071,11.1.1,1.6,2.278.851,4.838.881,7.306.212,3.31.1,6.623.1,9.935a3.211,3.211,0,0,1-.886,2.508" transform="translate(-172.935 -78.192)" fill="#fd6a16"/>
    <path id="Trazado_161065" data-name="Trazado 161065" d="M284.444,244.236c2.067-.908,4.262-.031,6.364-.456l19.261-.007,13.976.048c.934.43,1.01,1.288,1.035,2.145q.12,4.231,0,8.463c-.024.857-.1,1.715-1.034,2.146q-18.945-.062-37.89-.131c-.549,0-1.14.177-1.638-.232.8-1.121,2.019-.908,3.129-.913,7.831-.039,15.662-.005,23.493-.023,3.346-.008,3.531-.2,3.548-3.48.008-1.495.006-2.99-.017-4.485a1.885,1.885,0,0,0-2.1-2.113c-2.207-.048-4.413-.021-6.62-.025-6.123-.01-12.245.017-18.367-.018-1.12-.006-2.319.155-3.139-.92" transform="translate(-162.436 -139.21)" fill="#f0f5fb"/>
    <path id="Trazado_161066" data-name="Trazado 161066" d="M335.273,165.2q0-6.244,0-12.489c2.393-1.609,4.809-1.084,7.23-.079l1.3.145c.886.61.858,1.523.854,2.454-.015,3.3,0,6.606,0,9.91l-9.383.058" transform="translate(-191.462 -86.62)" fill="#fefefe"/>
    <path id="Trazado_161067" data-name="Trazado 161067" d="M293.128,154.039q0,6.233,0,12.466c-2.486,0-4.972-.041-7.457.018-1.094.026-1.684-.128-1.645-1.464.093-3.193.069-6.392.009-9.587-.021-1.093.287-1.491,1.428-1.457,2.554.077,5.113.024,7.669.023" transform="translate(-162.194 -87.952)" fill="#fefefe"/>
    <path id="Trazado_161068" data-name="Trazado 161068" d="M294.873,184.089c.045,2.2.132,4.406.117,6.609-.007,1.051.267,1.569,1.434,1.54,3.769-.093,7.539-.112,11.309-.16-.6.708-1.425.519-2.184.522-3.545.015-7.091.007-10.637.007l-7.777-8.518Z" transform="translate(-163.973 -105.127)" fill="#343a41"/>
    <path id="Trazado_161069" data-name="Trazado 161069" d="M342.38,144.33l-7.23.079q-.046-3.63-.092-7.26a70.148,70.148,0,0,1,7.322,7.181" transform="translate(-191.34 -78.321)" fill="#333940"/>
    <path id="Trazado_161070" data-name="Trazado 161070" d="M356.255,331.53c9.744-.038,19.487-.064,29.23-.132.988-.007,1.177.4,1.167,1.269-.036,3.344-.058,6.689.009,10.032.022,1.108-.44,1.265-1.385,1.26q-14.511-.081-29.023-.1a1.424,1.424,0,0,1-.524-.891,96.926,96.926,0,0,1,0-10.543,1.5,1.5,0,0,1,.522-.895" transform="translate(-203.064 -189.25)" fill="#f1f5fb"/>
    <path id="Trazado_161071" data-name="Trazado 161071" d="M284.181,244.82c9.6.005,19.209.057,28.813-.024,1.9-.016,2.508.6,2.4,2.451a66.961,66.961,0,0,0,0,7.253c.094,1.8-.582,2.306-2.328,2.3-9.6-.058-19.208-.011-28.812,0a76.817,76.817,0,0,1-.074-11.975" transform="translate(-162.173 -139.794)" fill="#fefefe"/>
    <path id="Trazado_161072" data-name="Trazado 161072" d="M324.873,321.7c.035-1.913.119-3.828.087-5.74-.019-1.15.33-1.679,1.57-1.657q4.787.084,9.576,0c1.23-.021,1.594.483,1.566,1.646-.045,1.912.036,3.828.063,5.742a89.792,89.792,0,0,1,0,12.477c-.028,2.277-.118,4.555-.058,6.829.033,1.258-.293,1.78-1.661,1.74q-4.694-.137-9.395,0c-1.361.038-1.7-.491-1.669-1.744.05-2.274-.045-4.551-.079-6.827-1.374-1.958-1.375-10.49,0-12.464" transform="translate(-184.935 -179.489)" fill="#4a7afe"/>
    <path id="Trazado_161073" data-name="Trazado 161073" d="M376.769,246.9q0-6.377,0-12.754c.03-1.852.124-3.705.071-5.555-.036-1.252.328-1.793,1.681-1.758q4.6.12,9.2,0c1.353-.035,1.716.509,1.682,1.759-.05,1.85.045,3.7.078,5.555a2.727,2.727,0,0,1,.671,1.3,100.654,100.654,0,0,1,.006,10.163,2.371,2.371,0,0,1-.677,1.289c-.035,2.266-.1,4.533-.088,6.8.007,1.074-.38,1.54-1.486,1.527q-4.783-.054-9.567,0c-1.105.013-1.494-.449-1.485-1.526.018-2.266-.048-4.532-.081-6.8" transform="translate(-215.159 -129.535)" fill="#09cd67"/>
    <path id="Trazado_161074" data-name="Trazado 161074" d="M302.129,331.509q.267,6.232,0,12.464c-5.486,0-10.972-.045-16.457.033-1.331.019-1.7-.357-1.655-1.667q.143-4.591,0-9.189c-.04-1.305.318-1.692,1.654-1.673,5.485.078,10.971.033,16.456.033" transform="translate(-162.191 -189.294)" fill="#fefefe"/>
    <path id="Trazado_161075" data-name="Trazado 161075" d="M406.392,256.6q0-6.375,0-12.751c2.56,0,5.121.045,7.68-.027,1.128-.031,1.645.185,1.608,1.482q-.135,4.9,0,9.812c.033,1.278-.455,1.544-1.608,1.511-2.558-.073-5.12-.026-7.68-.027" transform="translate(-232.076 -139.237)" fill="#f1f5fb"/>
    <path id="Trazado_161076" data-name="Trazado 161076" d="M356.233,344q0-6.238,0-12.477a.677.677,0,0,1,.391.075v12.329a.7.7,0,0,1-.389.073" transform="translate(-203.431 -189.32)" fill="#fbfcfd"/>
  </g>
</svg>
