<svg id="Grupo_143810" data-name="Grupo 143810" xmlns="http://www.w3.org/2000/svg" xmlns:xlink="http://www.w3.org/1999/xlink" width="72.506" height="78.656" viewBox="0 0 72.506 78.656">
  <defs>
    <clipPath id="clip-path">
      <rect id="Rectángulo_39528" data-name="Rectángulo 39528" width="72.506" height="78.656" fill="#f57c00"/>
    </clipPath>
  </defs>
  <g id="Grupo_143810-2" data-name="Grupo 143810" clip-path="url(#clip-path)">
    <path id="Trazado_159502" data-name="Trazado 159502" d="M18.748,0c.109.251.356.141.536.193a6.737,6.737,0,0,1,4.785,4.562c.188.568.439.669.963.668q14.974-.02,29.949-.01c3.831,0,6.22,1.8,7.193,5.48a.9.9,0,0,0,.585.622c1.874.935,3.752,1.86,5.62,2.8a7.048,7.048,0,0,1,3.946,8.145Q67.377,47.154,62.469,71.85a13.106,13.106,0,0,1-1.353,4.26,1.094,1.094,0,0,0-.09.352c-.081-.269-.1-.283-.32-.045A6.862,6.862,0,0,1,57.4,78.407a8.028,8.028,0,0,1-2.048.25q-24.151,0-48.3,0A6.7,6.7,0,0,1,0,71.618Q0,42.053,0,12.488A6.761,6.761,0,0,1,5.1,5.674c.261-.078.463-.156.541-.455A6.772,6.772,0,0,1,10.766.151c.058-.016.1-.1.147-.151ZM62.4,18.308c-.008.179-.023.358-.023.536q0,19.072,0,38.143c0,.191-.078.407.1.621,1.248-6.246,2.494-12.451,3.726-18.658q1.671-8.414,3.32-16.832a3.935,3.935,0,0,0-1.358-4.72,47.166,47.166,0,0,0-5.77-3.006Zm-2.75,23.747q0-14.785,0-29.57A3.985,3.985,0,0,0,55.3,8.139q-15.092-.008-30.185-.016c-.57,0-.72.131-.716.71.028,4.173.015,8.346.014,12.519s.033,8.346-.01,12.519a6.793,6.793,0,1,1-13.574-.384c.052-6.938.014-13.876.016-20.814a4.934,4.934,0,0,1,.033-.69,1.225,1.225,0,0,1,1.395-1.113,1.209,1.209,0,0,1,1.256,1.183c.025.28.014.563.014.844q0,10.369,0,20.738a4.034,4.034,0,0,0,1.769,3.628,3.98,3.98,0,0,0,4.226.23,3.76,3.76,0,0,0,2.134-3.552q.019-10.368.008-20.737c0-1.511-.009-3.021.006-4.532,0-.361-.039-.547-.483-.546-4.89.018-9.781-.005-14.67.03A3.866,3.866,0,0,0,2.9,10.964a5.948,5.948,0,0,0-.175,1.825q0,29.263,0,58.527c0,.256,0,.513.012.768a3.9,3.9,0,0,0,3.909,3.83c1.2.033,2.407-.011,3.61.02.47.012.618-.132.6-.6-.031-1.1-.024-2.2,0-3.3.018-1,.492-1.509,1.346-1.511s1.333.524,1.344,1.506c.012,1.1.025,2.2-.007,3.3-.014.467.121.61.6.608q6.183-.026,12.366,0c.528,0,.637-.181.623-.659q-.043-1.65,0-3.3c.025-.969.549-1.485,1.4-1.456.823.028,1.277.54,1.293,1.481.011.64,0,1.28,0,1.92s-.206,1.477.116,1.852c.378.441,1.25.079,1.9.159.572.07.734-.123.728-.709-.032-2.893-.023-5.786-.01-8.679a1.3,1.3,0,0,1,1.707-1.4c.794.191.991.8.991,1.525,0,2.407-.01,4.813.007,7.22,0,.655-.289,1.51.134,1.913s1.27.067,1.927.13c.488.046.669-.1.648-.621-.043-1.022-.015-2.048-.012-3.072,0-1.16.464-1.73,1.381-1.72s1.347.578,1.352,1.754c0,1,.033,2-.012,2.995-.026.551.157.672.684.67,4.685-.021,9.371-.01,14.056-.018a5.031,5.031,0,0,0,1.215-.122c1.948-.491,3.012-1.994,3.014-4.248q.006-14.747,0-29.494M8.51,5.346c.02.012.039.036.058.036q6.21.017,12.42.034c.438,0,.38-.183.237-.464A3.56,3.56,0,0,0,18.19,2.787c-2.193-.1-4.4-.085-6.591,0A3.507,3.507,0,0,0,8.51,5.346" transform="translate(0)" fill="#f57c00"/>
    <path id="Trazado_159503" data-name="Trazado 159503" d="M102.4,31.768q-1.659,8.417-3.32,16.832C97.844,54.807,96.6,61.011,95.35,67.258c-.18-.213-.1-.43-.1-.621q-.008-19.072,0-38.143c0-.179.015-.358.023-.536q2.816,1.382,5.632,2.765a4.765,4.765,0,0,1,1.5,1.046" transform="translate(-32.866 -9.649)" fill="#ffd99d"/>
    <path id="Trazado_159504" data-name="Trazado 159504" d="M31.518,74.564q6.675,0,13.349,0c1.155,0,1.769.76,1.469,1.763a1.142,1.142,0,0,1-1.029.891,8.414,8.414,0,0,1-.918.04q-12.889,0-25.778,0a7.519,7.519,0,0,1-.842-.027,1.235,1.235,0,0,1-1.177-1.413,1.2,1.2,0,0,1,1.27-1.246c1.995-.024,3.99-.011,5.984-.012h7.672" transform="translate(-5.725 -25.733)" fill="#f57c00"/>
    <path id="Trazado_159505" data-name="Trazado 159505" d="M59.234,82.82c2.636,0,5.271-.006,7.907,0,1,0,1.5.461,1.516,1.331s-.49,1.378-1.462,1.389c-1.638.018-3.276.005-4.913.005q-5.489,0-10.978,0c-.924,0-1.437-.351-1.575-1.033a1.331,1.331,0,0,1,1.444-1.688c2.686-.014,5.373,0,8.06,0" transform="translate(-17.15 -28.582)" fill="#f57c00"/>
    <path id="Trazado_159506" data-name="Trazado 159506" d="M59.176,24.855q3.953,0,7.906,0c1.064,0,1.578.442,1.586,1.332s-.5,1.381-1.551,1.384q-7.906.017-15.812,0c-1.093,0-1.616-.5-1.586-1.428.028-.879.537-1.287,1.629-1.289q3.915,0,7.829,0" transform="translate(-17.158 -8.578)" fill="#f57c00"/>
    <path id="Trazado_159507" data-name="Trazado 159507" d="M26.006,82.821q3.954,0,7.907,0c1.1,0,1.638.46,1.629,1.377-.009.88-.539,1.346-1.59,1.346q-7.907.009-15.814,0c-1.04,0-1.558-.485-1.549-1.382s.53-1.338,1.586-1.34c2.61-.006,5.22,0,7.83,0" transform="translate(-5.725 -28.583)" fill="#f57c00"/>
    <path id="Trazado_159508" data-name="Trazado 159508" d="M59.162,49.709c2.686,0,5.373-.008,8.058,0a1.291,1.291,0,0,1,1.425,1.618,1.118,1.118,0,0,1-.911,1.009,4.668,4.668,0,0,1-.99.081q-7.56.007-15.12,0a5.489,5.489,0,0,1-.689-.028,1.248,1.248,0,0,1-1.219-1.386,1.222,1.222,0,0,1,1.31-1.29c1.125-.025,2.251-.009,3.377-.009h4.758" transform="translate(-17.158 -17.154)" fill="#f57c00"/>
    <path id="Trazado_159509" data-name="Trazado 159509" d="M59.208,68.96q-3.953,0-7.905,0c-1.068,0-1.578-.438-1.587-1.329s.494-1.375,1.556-1.377q7.943-.018,15.887,0c1.039,0,1.536.513,1.507,1.42-.028.857-.529,1.282-1.553,1.284-2.635.006-5.27,0-7.905,0" transform="translate(-17.158 -22.862)" fill="#f57c00"/>
    <path id="Trazado_159510" data-name="Trazado 159510" d="M59.191,44.115c-2.686,0-5.372.009-8.058,0a1.329,1.329,0,0,1-1.361-1.851c.271-.727.881-.845,1.561-.844q3.722.008,7.444,0c2.762,0,5.525-.007,8.287,0,1.082,0,1.58.443,1.586,1.334.006.876-.494,1.352-1.479,1.356-2.659.01-5.321,0-7.98,0" transform="translate(-17.142 -14.293)" fill="#f57c00"/>
    <path id="Trazado_159511" data-name="Trazado 159511" d="M53.715,35.838c-.868,0-1.737.017-2.6,0a1.356,1.356,0,1,1-.043-2.711q2.719-.044,5.438,0a1.354,1.354,0,1,1-.034,2.709c-.918.026-1.838.006-2.757.006" transform="translate(-17.158 -11.424)" fill="#f57c00"/>
    <path id="Trazado_159512" data-name="Trazado 159512" d="M70.327,35.839c-.868,0-1.736.012-2.6,0a1.363,1.363,0,1,1,0-2.718q2.6-.028,5.207,0a1.276,1.276,0,0,1,1.445,1.4c-.018.836-.515,1.3-1.446,1.32-.867.016-1.735,0-2.6,0" transform="translate(-22.868 -11.424)" fill="#f57c00"/>
    <path id="Trazado_159513" data-name="Trazado 159513" d="M53.739,60.692c-.868,0-1.737.017-2.6,0a1.36,1.36,0,1,1-.014-2.717q2.642-.031,5.285,0a1.36,1.36,0,1,1,.013,2.716c-.893.022-1.787.005-2.68.005" transform="translate(-17.159 -20.002)" fill="#f57c00"/>
    <path id="Trazado_159514" data-name="Trazado 159514" d="M70.266,57.966c.868,0,1.736-.01,2.6,0,.988.014,1.5.475,1.506,1.338s-.494,1.375-1.46,1.383q-2.6.025-5.207,0a1.3,1.3,0,0,1-1.447-1.336c-.014-.848.525-1.365,1.477-1.384.842-.016,1.685,0,2.527,0" transform="translate(-22.868 -20.003)" fill="#f57c00"/>
    <path id="Trazado_159515" data-name="Trazado 159515" d="M70.344,74.566c.9,0,1.792-.016,2.688,0a1.333,1.333,0,0,1,.083,2.665q-2.8.054-5.605,0a1.222,1.222,0,0,1-1.246-1.358,1.253,1.253,0,0,1,1.316-1.3c.921-.024,1.843-.005,2.765-.006" transform="translate(-22.869 -25.732)" fill="#f57c00"/>
  </g>
</svg>
