<svg xmlns="http://www.w3.org/2000/svg" xmlns:xlink="http://www.w3.org/1999/xlink" width="479.796" height="265.076" viewBox="0 0 479.796 265.076">
  <defs>
    <clipPath id="clip-path">
      <rect id="Rectángulo_39832" data-name="Rectángulo 39832" width="370.758" height="218.062" fill="none"/>
    </clipPath>
    <clipPath id="clip-path-3">
      <rect id="Rectángulo_39806" data-name="Rectángulo 39806" width="19.722" height="19.722" fill="none"/>
    </clipPath>
    <clipPath id="clip-path-6">
      <rect id="Rectángulo_39820" data-name="Rectángulo 39820" width="111.307" height="74.016" fill="none"/>
    </clipPath>
    <clipPath id="clip-path-7">
      <rect id="Rectángulo_39819" data-name="Rectángulo 39819" width="98.16" height="63.871" rx="4.905" fill="none"/>
    </clipPath>
    <clipPath id="clip-path-8">
      <rect id="Rectángulo_39828" data-name="Rectángulo 39828" width="165.283" height="20.524" fill="none"/>
    </clipPath>
    <clipPath id="clip-path-9">
      <rect id="Rectángulo_39829" data-name="Rectángulo 39829" width="107.127" height="60.999" fill="none"/>
    </clipPath>
    <clipPath id="clip-path-10">
      <rect id="Rectángulo_39833" data-name="Rectángulo 39833" width="63.18" height="54.314" fill="#f57c00"/>
    </clipPath>
  </defs>
  <g id="Grupo_144365" data-name="Grupo 144365" transform="translate(-19.204 -3)">
    <g id="Grupo_140024" data-name="Grupo 140024" transform="translate(19.204 3)">
      <g id="Grupo_135932" data-name="Grupo 135932" transform="translate(231.128 0)">
        <g id="Grupo_53612" data-name="Grupo 53612" transform="translate(0 0)">
          <rect id="Rectángulo_5111" data-name="Rectángulo 5111" width="248.668" height="265.076" fill="#fdd835"/>
        </g>
      </g>
      <rect id="_5" data-name="5" width="434.46" height="233.047" transform="translate(0 16)" fill="#f6f6f6"/>
      <g id="Grupo_144274" data-name="Grupo 144274" transform="translate(36.871 21.129)">
        <g id="Grupo_144296" data-name="Grupo 144296" clip-path="url(#clip-path)">
          <g id="Grupo_144295" data-name="Grupo 144295">
            <g id="Grupo_144294" data-name="Grupo 144294" clip-path="url(#clip-path)">
              <path id="Trazado_161318" data-name="Trazado 161318" d="M49.1,216.789s-56.028-18.749-48.387-70S42.278,88,65.705,80.306s40.185-10.041,61.279-31.791S159.267,5.752,197.744.84s59.345,12.417,72.79,33.634,60.382,19.736,78.939,41.762,20,64.6,2.183,84.246-15.828,41.753-.819,56.238Z" transform="translate(0 0)" fill="#eceff4"/>
              <rect id="Rectángulo_39800" data-name="Rectángulo 39800" width="119.788" height="93.228" transform="translate(22.489 22.04)" fill="#cad5e7"/>
              <path id="Trazado_161319" data-name="Trazado 161319" d="M41.2,40.384l5.617,4.371H155.376l5.617-4.371Z" transform="translate(-18.716 -18.343)" fill="#b6c7e1"/>
              <path id="Trazado_161320" data-name="Trazado 161320" d="M46.821,203.189,41.2,207.56H160.992l-5.617-4.371Z" transform="translate(-18.716 -92.291)" fill="#b6c7e1"/>
              <rect id="Rectángulo_39801" data-name="Rectángulo 39801" width="108.554" height="84.485" transform="translate(28.106 26.412)" fill="#dce3ed"/>
              <path id="Trazado_161321" data-name="Trazado 161321" d="M51.5,116.8,78.407,81.508l23.745,24.9,33.91-35.361L160.05,99v44.17H51.5Z" transform="translate(-23.39 -32.27)" fill="#c8d5db"/>
              <path id="Trazado_161322" data-name="Trazado 161322" d="M75.154,70.365a5.138,5.138,0,1,1-5.139-5.139,5.139,5.139,0,0,1,5.139,5.139" transform="translate(-29.468 -29.627)" fill="#f5debf"/>
              <rect id="Rectángulo_39802" data-name="Rectángulo 39802" width="90.115" height="104.159" transform="translate(261.221 111.357)" fill="#cad5e7"/>
              <path id="Trazado_161323" data-name="Trazado 161323" d="M563.8,182.861H532.434l6.219-25.437h18.932Z" transform="translate(-241.839 -71.504)" fill="#627ea8"/>
              <rect id="Rectángulo_39803" data-name="Rectángulo 39803" width="98.159" height="63.87" rx="4.905" transform="translate(257.199 28.408)" fill="#b6c7e1"/>
              <rect id="Rectángulo_39804" data-name="Rectángulo 39804" width="88.233" height="55.805" rx="4.409" transform="translate(262.162 33.244)" fill="#627ea8"/>
              <path id="Trazado_161324" data-name="Trazado 161324" d="M527.122,82.224a9.861,9.861,0,1,1-9.861-9.861,9.861,9.861,0,0,1,9.861,9.861" transform="translate(-230.469 -32.868)" fill="#fff"/>
              <path id="Trazado_161325" data-name="Trazado 161325" d="M516.709,105.111a9.861,9.861,0,1,1-9.861-9.861,9.861,9.861,0,0,1,9.861,9.861" transform="translate(-225.739 -43.264)" fill="#fff"/>
              <path id="Trazado_161326" data-name="Trazado 161326" d="M536.157,105.111A9.861,9.861,0,1,1,526.3,95.25a9.861,9.861,0,0,1,9.861,9.861" transform="translate(-234.572 -43.264)" fill="#fff"/>
              <path id="Trazado_161327" data-name="Trazado 161327" d="M471.246,145.682v10.09a2.677,2.677,0,0,0,2.677,2.677h92.805a2.677,2.677,0,0,0,2.677-2.677v-10.09Z" transform="translate(-214.047 -66.171)" fill="#dce3ed"/>
              <rect id="Rectángulo_39805" data-name="Rectángulo 39805" width="5.373" height="5.373" rx="2.686" transform="translate(303.593 83.496)" fill="#374d70"/>
              <g id="Grupo_144276" data-name="Grupo 144276" transform="translate(276.931 39.495)" style="mix-blend-mode: multiply;isolation: isolate">
                <g id="Grupo_144275" data-name="Grupo 144275">
                  <g id="Grupo_144274-2" data-name="Grupo 144274" clip-path="url(#clip-path-3)">
                    <path id="Trazado_161328" data-name="Trazado 161328" d="M527.122,82.224a9.861,9.861,0,1,1-9.861-9.861,9.861,9.861,0,0,1,9.861,9.861" transform="translate(-507.4 -72.363)" fill="#de6b58"/>
                  </g>
                </g>
              </g>
              <g id="Grupo_144279" data-name="Grupo 144279" transform="translate(271.249 51.986)" style="mix-blend-mode: multiply;isolation: isolate">
                <g id="Grupo_144278" data-name="Grupo 144278">
                  <g id="Grupo_144277" data-name="Grupo 144277" clip-path="url(#clip-path-3)">
                    <path id="Trazado_161329" data-name="Trazado 161329" d="M516.709,105.111a9.861,9.861,0,1,1-9.861-9.861,9.861,9.861,0,0,1,9.861,9.861" transform="translate(-496.988 -95.25)" fill="#b6c7e1"/>
                  </g>
                </g>
              </g>
              <g id="Grupo_144282" data-name="Grupo 144282" transform="translate(281.862 51.986)" style="mix-blend-mode: multiply;isolation: isolate">
                <g id="Grupo_144281" data-name="Grupo 144281">
                  <g id="Grupo_144280" data-name="Grupo 144280" clip-path="url(#clip-path-3)">
                    <path id="Trazado_161330" data-name="Trazado 161330" d="M536.157,105.111A9.861,9.861,0,1,1,526.3,95.25a9.861,9.861,0,0,1,9.861,9.861" transform="translate(-516.434 -95.25)" fill="#f5debf"/>
                  </g>
                </g>
              </g>
              <rect id="Rectángulo_39809" data-name="Rectángulo 39809" width="35.337" height="1.785" transform="translate(308.012 42.645)" fill="#7a92b8"/>
              <rect id="Rectángulo_39810" data-name="Rectángulo 39810" width="35.337" height="1.785" transform="translate(308.012 47.166)" fill="#7a92b8"/>
              <rect id="Rectángulo_39811" data-name="Rectángulo 39811" width="35.337" height="1.785" transform="translate(308.012 51.687)" fill="#7a92b8"/>
              <rect id="Rectángulo_39812" data-name="Rectángulo 39812" width="35.337" height="1.785" transform="translate(308.012 56.209)" fill="#7a92b8"/>
              <rect id="Rectángulo_39813" data-name="Rectángulo 39813" width="3.686" height="8.282" transform="translate(308.012 61.847)" fill="#de6b58"/>
              <rect id="Rectángulo_39814" data-name="Rectángulo 39814" width="3.686" height="8.282" transform="translate(313.187 61.847)" fill="#374d70"/>
              <rect id="Rectángulo_39815" data-name="Rectángulo 39815" width="3.686" height="8.282" transform="translate(321.25 61.847)" fill="#b6c7e1"/>
              <rect id="Rectángulo_39816" data-name="Rectángulo 39816" width="3.686" height="8.282" transform="translate(326.425 61.847)" fill="#374d70"/>
              <rect id="Rectángulo_39817" data-name="Rectángulo 39817" width="3.686" height="8.282" transform="translate(334.487 61.847)" fill="#f5debf"/>
              <rect id="Rectángulo_39818" data-name="Rectángulo 39818" width="3.686" height="8.282" transform="translate(339.663 61.847)" fill="#374d70"/>
              <g id="Grupo_144287" data-name="Grupo 144287" transform="translate(244.052 18.263)" opacity="0.4" style="mix-blend-mode: lighten;isolation: isolate">
                <g id="Grupo_144286" data-name="Grupo 144286">
                  <g id="Grupo_144285" data-name="Grupo 144285" clip-path="url(#clip-path-6)">
                    <g id="Grupo_144284" data-name="Grupo 144284" transform="translate(13.147 10.146)">
                      <g id="Grupo_144283" data-name="Grupo 144283" clip-path="url(#clip-path-7)">
                        <line id="Línea_975" data-name="Línea 975" y1="39.264" x2="67.823" transform="translate(-7.194 -8.965)" fill="none" stroke="#fff" stroke-miterlimit="10" stroke-width="5"/>
                        <line id="Línea_976" data-name="Línea 976" y1="45.759" x2="79.042" transform="translate(-11.096 -4.775)" fill="none" stroke="#fff" stroke-miterlimit="10" stroke-width="15"/>
                      </g>
                    </g>
                  </g>
                </g>
              </g>
              <rect id="Rectángulo_39821" data-name="Rectángulo 39821" width="15.871" height="77.635" transform="translate(263.916 122.71)" fill="#374d70"/>
              <rect id="Rectángulo_39822" data-name="Rectángulo 39822" width="4.015" height="77.635" transform="translate(275.772 122.71)" fill="#627ea8"/>
              <path id="Trazado_161331" data-name="Trazado 161331" d="M470.47,384.029v-5.265c0-1.479.92-2.678,2.054-2.678h22.394c1.135,0,2.055,1.2,2.055,2.678v5.265h4.015V373.678A2.677,2.677,0,0,0,498.312,371h-29.18a2.677,2.677,0,0,0-2.677,2.677v10.351Z" transform="translate(-211.871 -168.514)" fill="#627ea8"/>
              <path id="Trazado_161332" data-name="Trazado 161332" d="M496.565,371H469.132a2.677,2.677,0,0,0-2.677,2.677v10.351h2.269v-5.265c0-1.479.92-2.677,2.054-2.677h24.141c1.135,0,2.054,1.2,2.054,2.677v5.265h2.269V373.678A2.677,2.677,0,0,0,496.565,371" transform="translate(-211.871 -168.514)" fill="#374d70"/>
              <path id="Trazado_161333" data-name="Trazado 161333" d="M499.79,365.381a1.26,1.26,0,0,1-1.071,1.387H475.607a1.261,1.261,0,0,1-1.071-1.387v-2.312a1.261,1.261,0,0,1,1.071-1.387h23.112a1.26,1.26,0,0,1,1.071,1.387Z" transform="translate(-215.541 -164.281)" fill="#374d70"/>
              <path id="Trazado_161334" data-name="Trazado 161334" d="M517.583,361.682h-1.517a1.261,1.261,0,0,1,1.071,1.387v2.312a1.261,1.261,0,0,1-1.071,1.387h1.517a1.26,1.26,0,0,0,1.071-1.387v-2.312a1.26,1.26,0,0,0-1.071-1.387" transform="translate(-234.405 -164.281)" fill="#627ea8"/>
              <rect id="Rectángulo_39823" data-name="Rectángulo 39823" width="15.871" height="77.635" transform="translate(118.91 122.71)" fill="#374d70"/>
              <rect id="Rectángulo_39824" data-name="Rectángulo 39824" width="4.016" height="77.635" transform="translate(130.765 122.71)" fill="#627ea8"/>
              <path id="Trazado_161335" data-name="Trazado 161335" d="M204.787,384.029v-5.265c0-1.479.92-2.678,2.054-2.678h22.394c1.135,0,2.055,1.2,2.055,2.678v5.265h4.015V373.678A2.677,2.677,0,0,0,232.629,371h-29.18a2.677,2.677,0,0,0-2.677,2.677v10.351Z" transform="translate(-91.194 -168.514)" fill="#627ea8"/>
              <path id="Trazado_161336" data-name="Trazado 161336" d="M230.882,371H203.449a2.677,2.677,0,0,0-2.677,2.677v10.351h2.269v-5.265c0-1.479.92-2.677,2.054-2.677h24.141c1.135,0,2.055,1.2,2.055,2.677v5.265h2.269V373.678A2.677,2.677,0,0,0,230.882,371" transform="translate(-91.194 -168.514)" fill="#374d70"/>
              <path id="Trazado_161337" data-name="Trazado 161337" d="M234.106,365.381a1.26,1.26,0,0,1-1.071,1.387H209.923a1.261,1.261,0,0,1-1.071-1.387v-2.312a1.261,1.261,0,0,1,1.071-1.387h23.112a1.26,1.26,0,0,1,1.071,1.387Z" transform="translate(-94.864 -164.281)" fill="#374d70"/>
              <path id="Trazado_161338" data-name="Trazado 161338" d="M251.9,361.682h-1.517a1.261,1.261,0,0,1,1.071,1.387v2.312a1.261,1.261,0,0,1-1.071,1.387H251.9a1.26,1.26,0,0,0,1.071-1.387v-2.312a1.26,1.26,0,0,0-1.071-1.387" transform="translate(-113.727 -164.281)" fill="#627ea8"/>
              <path id="Trazado_161339" data-name="Trazado 161339" d="M208.334,134.907l-23.915,32.839V188.27h197.39V134.907Z" transform="translate(-83.766 -61.277)" fill="#91a6c3"/>
              <rect id="Rectángulo_39825" data-name="Rectángulo 39825" width="152.311" height="34.309" transform="translate(123.69 92.685)" fill="#374d70"/>
              <path id="Trazado_161340" data-name="Trazado 161340" d="M364.369,168.91H257.34v-8.17H370.319Z" transform="translate(-116.888 -73.011)" fill="#627ea8"/>
              <path id="Trazado_161341" data-name="Trazado 161341" d="M232.336,179.479l13.647-18.74v8.17l-7.836,10.57Z" transform="translate(-105.53 -73.01)" fill="#7a92b8"/>
              <line id="Línea_977" data-name="Línea 977" x2="106.342" transform="translate(145.673 85.112)" fill="none" stroke="#627ea8" stroke-miterlimit="10" stroke-width="1"/>
              <line id="Línea_978" data-name="Línea 978" x2="92.029" transform="translate(152.829 82.311)" fill="none" stroke="#627ea8" stroke-miterlimit="10" stroke-width="1"/>
              <line id="Línea_979" data-name="Línea 979" x2="64.577" transform="translate(166.555 79.511)" fill="none" stroke="#627ea8" stroke-miterlimit="10" stroke-width="1"/>
              <path id="Trazado_161342" data-name="Trazado 161342" d="M487.254,167.746V188.27h32.107V134.907H511.17Z" transform="translate(-221.318 -61.277)" fill="#7a92b8"/>
              <rect id="Rectángulo_39826" data-name="Rectángulo 39826" width="112.979" height="20.524" transform="translate(126.806 106.469)" fill="#91a6c3"/>
              <path id="Trazado_161343" data-name="Trazado 161343" d="M489.4,134.907,465.49,167.746V188.27H439.337V167.746l23.915-32.839Z" transform="translate(-199.554 -61.277)" fill="#a3b9d3"/>
              <path id="Trazado_161344" data-name="Trazado 161344" d="M478.081,164l11.509-15.8H473.258L461.748,164Z" transform="translate(-209.733 -67.311)" fill="#7a92b8"/>
              <path id="Trazado_161345" data-name="Trazado 161345" d="M483.645,154.253l1.957-2.686h-2.776l-1.957,2.686Z" transform="translate(-218.418 -68.844)" fill="#f5debf"/>
              <path id="Trazado_161346" data-name="Trazado 161346" d="M491.413,154.253l1.957-2.686h-2.776l-1.957,2.686Z" transform="translate(-221.946 -68.844)" fill="#f5debf"/>
              <path id="Trazado_161347" data-name="Trazado 161347" d="M499.042,154.253,501,151.567h-2.776l-1.957,2.686Z" transform="translate(-225.411 -68.844)" fill="#f5debf"/>
              <path id="Trazado_161348" data-name="Trazado 161348" d="M478.5,161.9l1.957-2.686h-2.776l-1.957,2.686Z" transform="translate(-216.079 -72.316)" fill="#f5debf"/>
              <path id="Trazado_161349" data-name="Trazado 161349" d="M486.263,161.9l1.957-2.686h-2.776l-1.957,2.686Z" transform="translate(-219.607 -72.316)" fill="#f5debf"/>
              <path id="Trazado_161350" data-name="Trazado 161350" d="M493.891,161.9l1.957-2.686h-2.776l-1.957,2.686Z" transform="translate(-223.072 -72.316)" fill="#f5debf"/>
              <path id="Trazado_161351" data-name="Trazado 161351" d="M482.64,168.371l1.341-1.74h-13.42l-1.341,1.74Z" transform="translate(-213.127 -75.686)" fill="#de6b58"/>
              <path id="Trazado_161352" data-name="Trazado 161352" d="M479.348,173.108l1.341-1.74h-13.42l-1.341,1.74Z" transform="translate(-211.632 -77.838)" fill="#374d70"/>
              <path id="Trazado_161353" data-name="Trazado 161353" d="M234.486,134.907l-23.915,32.839V188.27H184.419V167.746l23.915-32.839Z" transform="translate(-83.766 -61.277)" fill="#a3b9d3"/>
              <path id="Trazado_161354" data-name="Trazado 161354" d="M222.66,164l11.509-15.8H217.837L206.328,164Z" transform="translate(-93.717 -67.311)" fill="#f5debf"/>
              <line id="Línea_980" data-name="Línea 980" x1="11.509" y2="15.804" transform="translate(116.694 80.881)" fill="none" stroke="#fff" stroke-linecap="round" stroke-linejoin="round" stroke-width="1"/>
              <line id="Línea_981" data-name="Línea 981" x1="11.509" y2="15.804" transform="translate(120.777 80.881)" fill="none" stroke="#fff" stroke-linecap="round" stroke-linejoin="round" stroke-width="1"/>
              <line id="Línea_982" data-name="Línea 982" x1="11.509" y2="15.804" transform="translate(124.86 80.881)" fill="none" stroke="#fff" stroke-linecap="round" stroke-linejoin="round" stroke-width="1"/>
              <line id="Línea_983" data-name="Línea 983" x2="16.333" transform="translate(121.818 84.041)" fill="none" stroke="#fff" stroke-linecap="round" stroke-linejoin="round" stroke-width="1"/>
              <line id="Línea_984" data-name="Línea 984" x2="16.333" transform="translate(119.516 87.202)" fill="none" stroke="#fff" stroke-linecap="round" stroke-linejoin="round" stroke-width="1"/>
              <line id="Línea_985" data-name="Línea 985" x2="16.333" transform="translate(117.214 90.363)" fill="none" stroke="#fff" stroke-linecap="round" stroke-linejoin="round" stroke-width="1"/>
              <line id="Línea_986" data-name="Línea 986" x2="16.333" transform="translate(114.913 93.524)" fill="none" stroke="#fff" stroke-linecap="round" stroke-linejoin="round" stroke-width="1"/>
              <path id="Trazado_161355" data-name="Trazado 161355" d="M224.426,180.2c0,.407-.865.737-1.272.737H212.582a.736.736,0,0,1-.736-.737c0-.407.865-.736,1.271-.736H223.69a.736.736,0,0,1,.736.736" transform="translate(-96.224 -81.513)" fill="#de6b58"/>
              <path id="Trazado_161356" data-name="Trazado 161356" d="M224.928,184.529c0,.407-.571.736-.839.736h-6.975c-.269,0-.486-.33-.486-.736s.571-.736.839-.736h6.975c.269,0,.486.33.486.736" transform="translate(-98.396 -83.482)" fill="#374d70"/>
              <g id="Grupo_144290" data-name="Grupo 144290" transform="translate(100.653 106.469)" style="mix-blend-mode: multiply;isolation: isolate">
                <g id="Grupo_144289" data-name="Grupo 144289">
                  <g id="Grupo_144288" data-name="Grupo 144288" clip-path="url(#clip-path-8)">
                    <rect id="Rectángulo_39827" data-name="Rectángulo 39827" width="165.283" height="20.524" transform="translate(0 0)" fill="#91a6c3"/>
                  </g>
                </g>
              </g>
              <path id="Trazado_161357" data-name="Trazado 161357" d="M277.405,302.264c20.078-9.192,21.968-42.476,19.7-74.869s23.238-36.408,23.238-36.408H217.386S191.882,195,194.148,227.4s.375,65.678-19.7,74.869Z" transform="translate(-79.236 -86.749)" fill="#fff"/>
              <path id="Trazado_161358" data-name="Trazado 161358" d="M197.165,297.8H287.33c13.849-12.938,15.057-42.015,13.071-70.407-2.266-32.393,23.238-36.408,23.238-36.408H233.474S207.97,195,210.236,227.4c1.986,28.392.778,57.469-13.071,70.407" transform="translate(-89.555 -86.749)" fill="#c8d5db"/>
              <path id="Trazado_161359" data-name="Trazado 161359" d="M221,227.4c.459,6.564.743,13.161.744,19.589,7.032,3.251,15.878,3.2,22.061-1.831,6.96-5.711,2.677-10.886,3.034-18.2.178-6.6,5.354-8.388,11.065-9.1,4.819-.536,8.745-.178,13.028-2.856,5-3.034,7.853-8.032,6.96-13.742-.433-2.961-1.333-6.681-1.59-10.262H244.233S218.73,195,221,227.4" transform="translate(-100.315 -86.75)" fill="#b5c7dd"/>
              <path id="Trazado_161360" data-name="Trazado 161360" d="M399.428,190.987H367.386c-4.489,5.03-5.649,11.741,3.909,13.653a33.058,33.058,0,0,0,8.994.469,28.875,28.875,0,0,1,19.138-14.122" transform="translate(-165.344 -86.749)" fill="#7795b9"/>
              <path id="Trazado_161361" data-name="Trazado 161361" d="M311.876,242.557c-5.176,2.142-11.065,5.711-10.708,12.136.357,6.068,4.283,10.708-3.212,13.564-10.173,3.748-23.023,5.89-25.878,18.383-1.428,5.89,1.428,11.6,6.6,14.635,8.388,5.176,20.881,8.031,30.7,9.281a27.212,27.212,0,0,0,21-5.952c5.087-14.8,5.282-35.155,3.882-55.175a51.744,51.744,0,0,1,.108-8.92c-7.519-1.932-14.886-1.023-22.492,2.049" transform="translate(-123.415 -108.782)" fill="#b5c7dd"/>
              <path id="Trazado_161362" data-name="Trazado 161362" d="M241.073,360.626c-1.249-7.674-7.674-12.672-13.028-17.669-4.283-3.926-8.924-9.1-15.17-9.638a23.019,23.019,0,0,0-3.276-.061c-1.8,12.323-5.557,22.728-12.434,29.152H241.3c-.053-.605-.123-1.2-.225-1.785" transform="translate(-89.555 -151.358)" fill="#7795b9"/>
              <g id="Grupo_144293" data-name="Grupo 144293" transform="translate(111.494 145.226)" opacity="0.3" style="mix-blend-mode: multiply;isolation: isolate">
                <g id="Grupo_144292" data-name="Grupo 144292">
                  <g id="Grupo_144291" data-name="Grupo 144291" clip-path="url(#clip-path-9)">
                    <path id="Trazado_161363" data-name="Trazado 161363" d="M204.282,315.3l97.429,11.786c9.354-13.618,10.592-37.232,9.241-61L208.445,279.917c.072,13.008-1,25.37-4.163,35.382" transform="translate(-204.282 -266.087)" fill="#9191c1"/>
                  </g>
                </g>
              </g>
              <path id="Trazado_161364" data-name="Trazado 161364" d="M111.832,291.92s-5.473,41.62-5.473,43.372,3.036,9.807,3.036,9.807a14.474,14.474,0,0,1,4.086,2.219c1.167,1.167-2.568.7-5.429.7s-5.2.117-5.779-.467-.175-2.569-.525-3.736-2.043-2.218-2.1-3.444,1.4-4.67,1.459-5.779S95.72,291.92,95.72,291.92Z" transform="translate(-43.477 -132.594)" fill="#f2af94"/>
              <path id="Trazado_161365" data-name="Trazado 161365" d="M103.482,382.344l.618,6.337h.881v-5.546Z" transform="translate(-47.003 -173.666)" fill="#36303a"/>
              <path id="Trazado_161366" data-name="Trazado 161366" d="M111.318,384.668c-2.86,0-5.2.117-5.779-.467s-.175-2.568-.525-3.736-2.043-2.218-2.1-3.444a21.611,21.611,0,0,1,1.148-4.412,2.137,2.137,0,0,1,.778,1.785c.117,2.393.759,7.063,1.284,7.589,0,0,.759-.992,6.538-.234a14.451,14.451,0,0,1,4.086,2.219c1.167,1.167-2.568.7-5.429.7" transform="translate(-46.743 -169.245)" fill="#36303a"/>
              <path id="Trazado_161367" data-name="Trazado 161367" d="M159.957,291.92s.141,41.62.141,43.372,3.035,9.807,3.035,9.807a14.467,14.467,0,0,1,4.086,2.219c1.167,1.167-2.568.7-5.428.7s-5.2.117-5.779-.467-.175-2.569-.526-3.736-2.043-2.218-2.1-3.444,1.4-4.67,1.459-5.779-11-42.671-11-42.671Z" transform="translate(-65.337 -132.594)" fill="#f2af94"/>
              <path id="Trazado_161368" data-name="Trazado 161368" d="M161.892,382.344l.618,6.337h.881v-5.546Z" transform="translate(-73.534 -173.666)" fill="#36303a"/>
              <path id="Trazado_161369" data-name="Trazado 161369" d="M169.728,384.668c-2.86,0-5.2.117-5.779-.467s-.175-2.568-.525-3.736-2.043-2.218-2.1-3.444a21.612,21.612,0,0,1,1.148-4.412,2.137,2.137,0,0,1,.778,1.785c.117,2.393.759,7.063,1.284,7.589,0,0,.759-.992,6.538-.234a14.451,14.451,0,0,1,4.086,2.219c1.167,1.167-2.568.7-5.429.7" transform="translate(-73.274 -169.245)" fill="#36303a"/>
              <path id="Trazado_161370" data-name="Trazado 161370" d="M100.731,180.617s-6.257,17.433-8.639,25.526-4.791,38.224-3.931,39.946,16.627,4.821,27.168,3.271,21.216-5.854,22.249-7.748-4.821-37.363-5.855-40.807-7.4-20.188-7.4-20.188Z" transform="translate(-39.963 -82.039)" fill="#36303a"/>
              <path id="Trazado_161371" data-name="Trazado 161371" d="M103.566,266.466v-47.6c-4.09,11.937-5.478,39.446-5.775,46.572,1.67.381,3.641.738,5.775,1.026" transform="translate(-44.418 -99.413)" fill="#71606a"/>
              <path id="Trazado_161372" data-name="Trazado 161372" d="M165.751,257.7c-2.113-15.071-8.037-46.78-8.037-46.78a421.247,421.247,0,0,1,1.617,49.272,55.836,55.836,0,0,0,6.42-2.492" transform="translate(-71.636 -95.805)" fill="#71606a"/>
              <path id="Trazado_161373" data-name="Trazado 161373" d="M193.372,161.156s2.913-1.452,4.339-1.207,2.415.79,3.5.747,3.135-.884,4.487-.85a5.356,5.356,0,0,0,2.738-.408c.154-.232.276-1.194-1.272-1.458s-1.886.282-2.741.295-1.134-.868-.735-1.63a6.16,6.16,0,0,1,2.136-2.275c.658-.258,3.435-.259,4.238-.474s-1.8-.835-3.442-1.267-1.513-.422-1.825-.117a2.868,2.868,0,0,1-1.491.814c-.57.112-1.57-.3-2.633-.038s-6.137,3.859-6.57,3.957-3.415.029-3.415.029Z" transform="translate(-86.613 -69.173)" fill="#f2af94"/>
              <path id="Trazado_161374" data-name="Trazado 161374" d="M212.418,154.03c-.743.455-2.378,1.64-2.378,1.64" transform="translate(-95.403 -69.963)" fill="none" stroke="#c1745f" stroke-linecap="round" stroke-linejoin="round" stroke-width="1"/>
              <path id="Trazado_161375" data-name="Trazado 161375" d="M115.85,195.808l-58.468-5.5c-1.881-.177-3.676,2.535-4.007,6.057s.926,6.521,2.808,6.7l57.968,5.383v-.008a1.9,1.9,0,0,0,.5.126c1.882.177,3.676-2.535,4.007-6.057s-.925-6.521-2.807-6.7" transform="translate(-24.219 -86.437)" fill="#fff"/>
              <path id="Trazado_161376" data-name="Trazado 161376" d="M167.316,207.084c-.331,3.522-2.125,6.233-4.007,6.057s-3.138-3.175-2.807-6.7,2.125-6.233,4.007-6.057,3.138,3.176,2.807,6.7" transform="translate(-72.878 -91.015)" fill="#91a6c3"/>
              <path id="Trazado_161377" data-name="Trazado 161377" d="M160.5,207.861a9.872,9.872,0,0,0,.551,4.543l3.466.326.838-8.9-3.466-.326a9.873,9.873,0,0,0-1.389,4.361" transform="translate(-72.878 -92.433)" fill="#b5c7dd"/>
              <path id="Trazado_161378" data-name="Trazado 161378" d="M169.041,208.769c-.231,2.459-1.484,4.352-2.8,4.228s-2.191-2.217-1.96-4.676,1.484-4.352,2.8-4.228,2.191,2.217,1.96,4.676" transform="translate(-74.604 -92.7)" fill="#627ea8"/>
              <path id="Trazado_161379" data-name="Trazado 161379" d="M169.9,208.287l-5.087-.479a7.616,7.616,0,0,0-.533,2.2c-.231,2.459.646,4.552,1.959,4.676a10.293,10.293,0,0,1,3.66-6.4" transform="translate(-74.603 -94.39)" fill="#7a92b8"/>
              <path id="Trazado_161380" data-name="Trazado 161380" d="M97.79,211.846s2.377,3.966,3.167,4.248a40.5,40.5,0,0,0,7.3,1.2c.991-.141,5.452-1.062,6.231-1.2s-.637-.92-2.549-.849-4.107.66-5.169.4.142-1.1,1.771-1.068,2.691.467,3.4,0-.637-1.529-2.832-1.812-2.98-.9-4.013-.833a10.387,10.387,0,0,0-2.431.9c-.425.071-1.709-1.995-1.709-1.995Z" transform="translate(-44.418 -95.768)" fill="#f2af94"/>
              <path id="Trazado_161381" data-name="Trazado 161381" d="M143.849,135.855c-3.013.086-10.589.26-11.192.3s-7.49-21.653-10.159-24.236c-3.322-3.215-10.257-4.928-10.257-4.928h-9.351s-8.456,3.293-11.814,7.425S81.67,140.254,82.1,144.184s5.992,20.246,8.316,21.452a2.843,2.843,0,0,0,4.133-2.669c-.086-1.722-3.142-17.513-2.8-19.493s1.648-7.317,1.648-7.317,3.358,8.242,3.53,9.943-1.808,6.629-1.636,7.49c.042.21.616.73,1.593,1.367l22.831,2.148c4.3-1.655,5.042-3.484,5.107-3.87.086-.516-1.724-7.436-1.724-9.051s.431-5.574.431-5.574,4.046,7.274,6.112,7.855,16.96-5.445,17.3-6.564-.086-4.133-3.1-4.046" transform="translate(-37.281 -48.598)" fill="#dc6b5d"/>
              <path id="Trazado_161382" data-name="Trazado 161382" d="M129.874,112.61c1.65-1.172,1.041-3.377.269-4.981-1.271-.42-2.143-.636-2.143-.636h-9.351s-.744.29-1.875.8c0,0,1.2,4.663,3.817,5.674s4.753-2.755,4.753-2.755,2.81,3.116,4.531,1.894" transform="translate(-53.04 -48.598)" fill="#fff"/>
              <path id="Trazado_161383" data-name="Trazado 161383" d="M135.813,126.738a.947.947,0,1,1-.947-.947.947.947,0,0,1,.947.947" transform="translate(-60.828 -57.136)" fill="#f5debf"/>
              <path id="Trazado_161384" data-name="Trazado 161384" d="M137.92,136.326a.947.947,0,1,1-.947-.947.947.947,0,0,1,.947.947" transform="translate(-61.785 -61.491)" fill="#f5debf"/>
              <path id="Trazado_161385" data-name="Trazado 161385" d="M139.035,146.4a.947.947,0,1,1-.947-.947.947.947,0,0,1,.947.947" transform="translate(-62.292 -66.068)" fill="#f5debf"/>
              <path id="Trazado_161386" data-name="Trazado 161386" d="M156.9,143.214l.449-5.6a12.318,12.318,0,0,0,2.171-7.326c-.4-4.513-3.874-10.159-3.874-10.159s-.586-5.246.172-4.218" transform="translate(-70.597 -52.589)" fill="none" stroke="#bc5851" stroke-linecap="round" stroke-linejoin="round" stroke-width="1"/>
              <path id="Trazado_161387" data-name="Trazado 161387" d="M100.481,141.992c1.432-3.049,4.735-8.137,4.735-12.269,0-2.841-3.99-13.258-7.548-8.782" transform="translate(-44.363 -54.433)" fill="none" stroke="#bc5851" stroke-linecap="round" stroke-linejoin="round" stroke-width="1"/>
              <path id="Trazado_161388" data-name="Trazado 161388" d="M126.8,153.163s6.6-3.53,11.481-3.1" transform="translate(-57.594 -68.145)" fill="none" stroke="#bc5851" stroke-linecap="round" stroke-linejoin="round" stroke-width="1"/>
              <path id="Trazado_161389" data-name="Trazado 161389" d="M138.155,152.9a23.256,23.256,0,0,1,6.979,1.059" transform="translate(-62.752 -69.45)" fill="none" stroke="#bc5851" stroke-linecap="round" stroke-linejoin="round" stroke-width="1"/>
              <path id="Trazado_161390" data-name="Trazado 161390" d="M105.206,155.773s3.262,9.9,3.434,11.794-1.706,9.233-1.706,9.233" transform="translate(-47.786 -70.754)" fill="none" stroke="#bc5851" stroke-linecap="round" stroke-linejoin="round" stroke-width="1"/>
              <path id="Trazado_161391" data-name="Trazado 161391" d="M158.941,155.788s5.1,9.376,6.131,9.892,16.788-4.946,16.788-4.946" transform="translate(-72.193 -70.761)" fill="none" stroke="#bc5851" stroke-linecap="round" stroke-linejoin="round" stroke-width="1"/>
              <path id="Trazado_161392" data-name="Trazado 161392" d="M99.976,206.249a5.272,5.272,0,0,1-5.411,2.507" transform="translate(-42.953 -93.681)" fill="none" stroke="#bc5851" stroke-linecap="round" stroke-linejoin="round" stroke-width="1"/>
              <path id="Trazado_161393" data-name="Trazado 161393" d="M195.256,159.874a7.109,7.109,0,0,1,1.189,5.305" transform="translate(-88.688 -72.617)" fill="none" stroke="#bc5851" stroke-linecap="round" stroke-linejoin="round" stroke-width="1"/>
              <path id="Trazado_161394" data-name="Trazado 161394" d="M120.209,93.75a19.621,19.621,0,0,1,0,7.228s5.766,5.94,9.351,0a11.207,11.207,0,0,1-.406-5.691Z" transform="translate(-54.601 -42.583)" fill="#f2af94"/>
              <path id="Trazado_161395" data-name="Trazado 161395" d="M129.155,95.287l-8.946-1.537a21.533,21.533,0,0,1,.287,2.52c1.122,1.577,3.017,3.495,5.547,3.417a3.628,3.628,0,0,0,2.932-1.548,10.7,10.7,0,0,1,.18-2.852" transform="translate(-54.601 -42.583)" fill="#d88e75"/>
              <path id="Trazado_161396" data-name="Trazado 161396" d="M91.076,28.819c-4,3.273-3.328,10.165.605,12.4s8.991-.826,10.762-3.09a7.585,7.585,0,0,0-.355-9.313c-2.49-3.146-7.684-2.723-11.012,0" transform="translate(-40.145 -12.089)" fill="#604140"/>
              <path id="Trazado_161397" data-name="Trazado 161397" d="M103.153,26.616S106.473,37.822,98.305,42" transform="translate(-44.652 -12.089)" fill="none" stroke="#7e514e" stroke-linecap="round" stroke-linejoin="round" stroke-width="0.5"/>
              <path id="Trazado_161398" data-name="Trazado 161398" d="M99.634,27.326a8.154,8.154,0,0,1,4.649,6.921" transform="translate(-45.255 -12.412)" fill="none" stroke="#7e514e" stroke-linecap="round" stroke-linejoin="round" stroke-width="0.5"/>
              <path id="Trazado_161399" data-name="Trazado 161399" d="M105.135,51.154A2.621,2.621,0,0,0,103.2,52.51c-.581,1.163.129,2.776-1.421,3.487-1.1.581-2-.581-3.1.71-.711.839-.259,2.518,1.033,2" transform="translate(-44.669 -23.235)" fill="none" stroke="#604140" stroke-linecap="round" stroke-linejoin="round" stroke-width="0.5"/>
              <path id="Trazado_161400" data-name="Trazado 161400" d="M99.235,52.692c-2,.064-2.911,2.085-4.455,3.293a2.707,2.707,0,0,1-3.422-.323c-.71-.71-.129-1.356.71-1.162" transform="translate(-41.351 -23.933)" fill="none" stroke="#604140" stroke-linecap="round" stroke-linejoin="round" stroke-width="0.5"/>
              <path id="Trazado_161401" data-name="Trazado 161401" d="M107.313,63.091s-.726-7.834-.765-12.427c-.025-2.865-.094-6.134,4.046-6.65s9.758.194,15.182,0,12.009,4.132,10.072,8.781c0,0,4.027,4.64,3.551,6.909-.71,3.388-3.938,1.55-3.938,1.55s.775,3.357-1.614,4.161c-2.821.949-4.769-1.792-4.769-1.792Z" transform="translate(-48.394 -19.904)" fill="#604140"/>
              <path id="Trazado_161402" data-name="Trazado 161402" d="M143.439,54.23a18.635,18.635,0,0,1,8.781,11.751" transform="translate(-65.152 -24.632)" fill="none" stroke="#7e514e" stroke-linecap="round" stroke-linejoin="round" stroke-width="0.5"/>
              <path id="Trazado_161403" data-name="Trazado 161403" d="M155.014,73.57s.272-6.765-2.407-11.581" transform="translate(-69.316 -28.156)" fill="none" stroke="#7e514e" stroke-linecap="round" stroke-linejoin="round" stroke-width="0.5"/>
              <path id="Trazado_161404" data-name="Trazado 161404" d="M120.605,47.368c-7.561,0-13.043,5.617-11.945,13.818s6.069,14.076,13.946,13.236,9.3-8.766,9.04-13.746-1.67-13.312-11.041-13.308" transform="translate(-49.292 -21.515)" fill="#f2af94"/>
              <path id="Trazado_161405" data-name="Trazado 161405" d="M135.476,66.06a19.116,19.116,0,0,0-.581,5.423s2.324,0,2.648.323-2.325,2.906-2.325,2.906" transform="translate(-61.257 -30.005)" fill="none" stroke="#c1745f" stroke-linecap="round" stroke-linejoin="round" stroke-width="1"/>
              <path id="Trazado_161406" data-name="Trazado 161406" d="M128.06,84.332s3.422,2.482,6.069,0" transform="translate(-58.167 -38.305)" fill="none" stroke="#c1745f" stroke-linecap="round" stroke-linejoin="round" stroke-width="1"/>
              <path id="Trazado_161407" data-name="Trazado 161407" d="M127.515,70.251c0,.6-.355,1.092-.792,1.092s-.792-.488-.792-1.092.355-1.092.792-1.092.792.488.792,1.092" transform="translate(-57.199 -31.413)" fill="#362f37"/>
              <path id="Trazado_161408" data-name="Trazado 161408" d="M129.173,67.976a2.543,2.543,0,0,1-1.79,1.737" transform="translate(-57.859 -30.876)" fill="none" stroke="#362f37" stroke-linecap="round" stroke-linejoin="round" stroke-width="0.75"/>
              <path id="Trazado_161409" data-name="Trazado 161409" d="M141,70.251c0,.6-.355,1.092-.792,1.092s-.792-.488-.792-1.092.355-1.092.792-1.092.792.488.792,1.092" transform="translate(-63.325 -31.413)" fill="#362f37"/>
              <path id="Trazado_161410" data-name="Trazado 161410" d="M142.659,67.976a2.543,2.543,0,0,1-1.79,1.737" transform="translate(-63.985 -30.876)" fill="none" stroke="#362f37" stroke-linecap="round" stroke-linejoin="round" stroke-width="0.75"/>
              <path id="Trazado_161411" data-name="Trazado 161411" d="M121.658,76.534c0,1.721-1.722,3.116-3.846,3.116s-3.846-1.4-3.846-3.116,1.722-3.116,3.846-3.116,3.846,1.4,3.846,3.116" transform="translate(-51.765 -33.348)" fill="#e58c97"/>
              <path id="Trazado_161412" data-name="Trazado 161412" d="M122.65,63.338a3.136,3.136,0,0,1,1.727-2.781,3.251,3.251,0,0,1,1.643-.43,2.979,2.979,0,0,1,1.008.172c.116.045.611.233.64.367.025.116.014.1-.121.107a9.022,9.022,0,0,0-.932.072,4.707,4.707,0,0,0-1.737.615,5.773,5.773,0,0,0-1.469,1.125,6.871,6.871,0,0,0-.589.689c-.068.093-.1.181-.171.064" transform="translate(-55.706 -27.31)" fill="#604140"/>
              <path id="Trazado_161413" data-name="Trazado 161413" d="M138.611,60.785c-.108-.165,1.023-.38,1.127-.376a2.512,2.512,0,0,1,1.5.592,2.4,2.4,0,0,1,.775,2.488c-.055.16-.431-.516-.459-.561a5.382,5.382,0,0,0-1.088-1.229,3.587,3.587,0,0,0-1.455-.742,1.675,1.675,0,0,0-.425-.068c-.18,0-.041-.208.029-.1" transform="translate(-62.906 -27.439)" fill="#604140"/>
              <path id="Trazado_161414" data-name="Trazado 161414" d="M142.438,74.9c0,1.721,1.722,3.116,3.846,3.116.039,0,.077,0,.117,0a19.646,19.646,0,0,0,.654-6.165,4.766,4.766,0,0,0-.772-.063c-2.124,0-3.846,1.4-3.846,3.116" transform="translate(-64.697 -32.607)" fill="#e58c97"/>
              <path id="Trazado_161415" data-name="Trazado 161415" d="M115.962,50.987c7.983-1.153,9.287-4.911,9.382-6.962-5.289.143-10.719-.514-14.75-.011-4.141.517-4.07,3.785-4.046,6.651.027,3.108.367,7.7.585,10.342a12.034,12.034,0,0,0,8.829-10.02" transform="translate(-48.394 -19.904)" fill="#7e514e"/>
              <path id="Trazado_161416" data-name="Trazado 161416" d="M112.394,60.106a20,20,0,0,1-3.927-13.352s1.085,7.115,5.843,11.441" transform="translate(-49.238 -21.236)" fill="none" stroke="#604140" stroke-linecap="round" stroke-linejoin="round" stroke-width="0.5"/>
              <path id="Trazado_161417" data-name="Trazado 161417" d="M126.048,48.555s-3.736-3.589-12.776-4.381" transform="translate(-51.45 -20.064)" fill="none" stroke="#604140" stroke-linecap="round" stroke-linejoin="round" stroke-width="0.5"/>
              <path id="Trazado_161418" data-name="Trazado 161418" d="M107.118,78.308l-1.984-5.83s-1.2-3.919-3.98-2.176,2.565,9.361,5.964,8.006" transform="translate(-45.595 -31.729)" fill="#f2af94"/>
              <path id="Trazado_161419" data-name="Trazado 161419" d="M108.391,80.448l-1.884-5.534s-4.093-1.846-3.193,2.985c1.412,1.813,3.463,3.193,5.077,2.549" transform="translate(-46.868 -33.869)" fill="#d88e75"/>
              <rect id="Rectángulo_39830" data-name="Rectángulo 39830" width="366.768" height="2.547" transform="translate(3.991 215.515)" fill="#374d70"/>
            </g>
          </g>
        </g>
        <g id="Grupo_144297" data-name="Grupo 144297" transform="translate(171.682 7.788)">
          <g id="Grupo_144297-2" data-name="Grupo 144297" transform="translate(0 0)" clip-path="url(#clip-path-10)">
            <path id="Trazado_161420" data-name="Trazado 161420" d="M62.222,45.466Q51.883,28.3,41.534,11.145q-2.479-4.112-4.96-8.223A5.558,5.558,0,0,0,31.864.006a5.64,5.64,0,0,0-5.326,3.031C20.82,12.529,15.05,21.989,9.4,31.519,6.225,36.867,2.646,41.98,0,47.635v1.851a13.34,13.34,0,0,0,.471,1.371,5.635,5.635,0,0,0,5.543,3.456q25.574-.007,51.147,0c.205,0,.411,0,.617-.012a5.45,5.45,0,0,0,3.329-1.28,5.65,5.65,0,0,0,1.116-7.553m-4.4,4.687a4.135,4.135,0,0,1-.858.057q-12.681,0-25.362,0-12.742,0-25.485,0a2.23,2.23,0,0,1-1.3-.281,1.6,1.6,0,0,1-.362-2.285Q6.747,43.819,9.059,40C16,28.49,22.965,16.992,29.857,5.451c1.039-1.74,2.453-1.71,3.467-.015Q45.878,26.408,58.536,47.317a5.614,5.614,0,0,1,.389.7,1.527,1.527,0,0,1-1.1,2.139" transform="translate(0 0)" fill="#f57c00"/>
            <path id="Trazado_161421" data-name="Trazado 161421" d="M65.658,56.027a1.538,1.538,0,0,0,1.064,1.559,2.891,2.891,0,0,0,1.452.182c1.387-.222,2.049-.785,1.962-2.171-.035-.552.026-1.109.038-1.664.1-4.358.442-8.707.468-13.068a2.594,2.594,0,0,0-.426-1.693,3.22,3.22,0,0,0-3.5-.793,2.236,2.236,0,0,0-1.575,2.483c.032,2.468.117,4.933.3,8.084.06,1.9.15,4.491.219,7.081" transform="translate(-36.297 -21.275)" fill="#f57c00"/>
            <path id="Trazado_161422" data-name="Trazado 161422" d="M67.824,88.431a2.941,2.941,0,0,0-.012,5.882,2.941,2.941,0,0,0,.012-5.882" transform="translate(-36.16 -49.277)" fill="#f57c00"/>
          </g>
        </g>
      </g>
    </g>
  </g>
</svg>
