<svg xmlns="http://www.w3.org/2000/svg" xmlns:xlink="http://www.w3.org/1999/xlink" width="93.513" height="93.514" viewBox="0 0 93.513 93.514">
  <defs>
    <clipPath id="clip-path">
      <rect id="Rectángulo_39524" data-name="Rectángulo 39524" width="63.099" height="56.433" fill="#fff"/>
    </clipPath>
  </defs>
  <g id="Grupo_143505" data-name="Grupo 143505" transform="translate(-651 -1275.081)">
    <path id="Trazado_113533" data-name="Trazado 113533" d="M46.757,0A46.757,46.757,0,1,1,0,46.757,46.757,46.757,0,0,1,46.757,0Z" transform="translate(651 1275.081)" fill="#ffa726"/>
    <g id="Grupo_143794" data-name="Grupo 143794" transform="translate(666.207 1293.621)">
      <g id="Grupo_143794-2" data-name="Grupo 143794" clip-path="url(#clip-path)">
        <path id="Trazado_159317" data-name="Trazado 159317" d="M61.939,2.487A5.772,5.772,0,0,0,56.8,0Q44.2.005,31.6,0,18.941,0,6.283,0A5.76,5.76,0,0,0,.622,3.4,6.539,6.539,0,0,0,.028,6.069Q-.026,28.213.008,50.359a5.834,5.834,0,0,0,4.51,5.864,6.553,6.553,0,0,0,1.7.2q25.318.015,50.636.015a5.981,5.981,0,0,0,6.165-5.13.623.623,0,0,1,.077-.167V5.292a14.98,14.98,0,0,0-1.16-2.8m-1.814,47.69a3,3,0,0,1-3.257,3.267q-25.35.01-50.7,0A2.983,2.983,0,0,1,2.926,50.17q-.014-5.575.011-11.15a1.262,1.262,0,0,1,.315-.8q7.938-8.134,15.905-16.24c.113-.116.239-.22.394-.362l3.408,3.916Q28.6,32.015,34.239,38.5c.935,1.074,1.592,1.149,2.758.325q5.532-3.907,11.063-7.817c.217-.153.436-.3.674-.469l2.707,1.951q4.121,2.97,8.247,5.934a.921.921,0,0,1,.449.851c-.018,3.635-.007,7.269-.012,10.9M60.176,34.5c0,.175-.022.35-.039.6-.247-.165-.433-.282-.61-.409q-4.8-3.448-9.6-6.9a1.605,1.605,0,0,0-2.38,0q-5.5,3.907-10.992,7.815c-.182.13-.369.254-.6.416-.668-.764-1.327-1.515-1.983-2.269L21.058,18.926c-1.019-1.17-1.776-1.2-2.866-.089Q10.868,26.282,3.547,33.73c-.158.161-.3.34-.445.511l-.178-.062V33.53c0-9.037.031-18.074-.022-27.11A3.2,3.2,0,0,1,6.368,2.964q25.2.038,50.4.015c1.767,0,2.9.749,3.289,2.2a4.281,4.281,0,0,1,.116,1.1q.009,14.109,0,28.219" transform="translate(0 0)" fill="#fff"/>
        <path id="Trazado_159318" data-name="Trazado 159318" d="M85.839,20.991a7.6,7.6,0,1,0,7.619,7.588,7.6,7.6,0,0,0-7.619-7.588m.028,12.281a4.693,4.693,0,1,1-.025-9.386,4.693,4.693,0,0,1,.025,9.386" transform="translate(-45.32 -12.161)" fill="#fff"/>
      </g>
    </g>
  </g>
</svg>
