<svg id="Grupo_144154" data-name="Grupo 144154" xmlns="http://www.w3.org/2000/svg" xmlns:xlink="http://www.w3.org/1999/xlink" width="224" height="212.894" viewBox="0 0 224 212.894">
  <defs>
    <clipPath id="clip-path">
      <rect id="Rectángulo_39673" data-name="Rectángulo 39673" width="224" height="212.893" fill="none"/>
    </clipPath>
  </defs>
  <g id="Grupo_144153" data-name="Grupo 144153" clip-path="url(#clip-path)">
    <path id="Trazado_160886" data-name="Trazado 160886" d="M0,234.656c1.122-2.613,1.049-5.476,1.722-8.189q8.2-33.082,38.714-48.215a15.08,15.08,0,0,1,1.421-.542c1.078.919.827,2.274,1.026,3.432,3.838,22.268,15.712,38.906,35.054,50.4,1.8,1.068,3.917,1.591,5.416,3.163.707,1.593-.1,3.153-.119,4.732-.257,17.525,4.817,33.229,15.886,46.919a73.418,73.418,0,0,0,10.849,10.7,6.046,6.046,0,0,1,1.691,1.677.874.874,0,0,1,.022.678,64.709,64.709,0,0,1-31.236,12.561c-26.96,3.151-49.091-5.959-65.988-27.235A67.424,67.424,0,0,1,.64,251.695c-.1-.717.214-1.642-.64-2.167v-3.5A3.343,3.343,0,0,0,0,243.4v-2.187a3.343,3.343,0,0,0,0-2.624Z" transform="translate(0 -99.795)" fill="#00cb75"/>
    <path id="Trazado_160887" data-name="Trazado 160887" d="M0,316.574A1.975,1.975,0,0,1,0,319.2Z" transform="translate(0 -177.776)" fill="#15cf81"/>
    <path id="Trazado_160888" data-name="Trazado 160888" d="M0,327.548a1.982,1.982,0,0,1,0,2.624Z" transform="translate(0 -183.938)" fill="#29d38b"/>
    <path id="Trazado_160889" data-name="Trazado 160889" d="M326.266,177.534c15.766,7.5,27.634,18.967,35.03,34.847,19.619,42.122-6.627,91.726-52.563,99.195-19.117,3.109-36.717-.917-52.531-12.27-.031-1.545,1.358-1.968,2.249-2.712,10.831-9.038,18.708-20.086,22.956-33.606a70.8,70.8,0,0,0,2.927-27.822,1.7,1.7,0,0,1,.2-.639c2.773-2.01,6.01-3.189,8.9-5.038a70.792,70.792,0,0,0,23.512-24.729,67.237,67.237,0,0,0,8.4-24.842,6.652,6.652,0,0,1,.495-1.894,1.262,1.262,0,0,1,.43-.491" transform="translate(-143.873 -99.696)" fill="#61729a"/>
    <path id="Trazado_160890" data-name="Trazado 160890" d="M254.454.085a54.043,54.043,0,0,1,19.32,2.49c26.862,8.4,43.571,26.416,50.056,53.769A60.349,60.349,0,0,1,324.9,77.839l-.144.138c-1.62.2-2.923-.754-4.335-1.246q-33.111-11.521-62.886,6.947c-.96.6-1.788,1.549-3.106,1.367a1.867,1.867,0,0,1-.418-.694,9.815,9.815,0,0,1-.234-2.82q-.009-38.94,0-77.881c0-1.222-.168-2.495.674-3.566" transform="translate(-142.506 0)" fill="#e52e6b"/>
    <path id="Trazado_160891" data-name="Trazado 160891" d="M165.029.12q.006,42.476.012,84.952c-.982.2-1.658-.445-2.366-.917a67.4,67.4,0,0,0-32.163-11.484c-10.691-.883-21.236.118-31.351,4.093-1.3.512-2.547,1.537-4.12.884A61.687,61.687,0,0,1,97.806,49.66c9.412-27.373,28.55-43.656,57-48.93a45.054,45.054,0,0,1,10.22-.61" transform="translate(-53.081 -0.035)" fill="#fe6698"/>
    <path id="Trazado_160892" data-name="Trazado 160892" d="M95.572,169.484a81.971,81.971,0,0,1,17.314-5.012,70.922,70.922,0,0,1,39.253,4.809,73.138,73.138,0,0,1,13.432,7.627l.1.028c.021.108.041.217.063.324-.041.1-.082.2-.121.307-2.573,2.352-5.435,4.359-7.909,6.843a68.386,68.386,0,0,0-20.041,40.041,5.415,5.415,0,0,1-.532,1.88,1.056,1.056,0,0,1-.479.437q-35.884-17.438-41.182-56.982a1.4,1.4,0,0,1,.1-.3" transform="translate(-53.611 -91.872)" fill="#fdd743"/>
    <path id="Trazado_160893" data-name="Trazado 160893" d="M283.3,308.041c1.029,4.027.657,8.144.4,12.177a67.54,67.54,0,0,1-4.109,19.084,71.738,71.738,0,0,1-23.146,31.674,5.786,5.786,0,0,0-1.589,1.462l-.648,0q-.034-.241-.068-.481a8.5,8.5,0,0,1-.34-3.019q0-25.447,0-50.894c0-.218,0-.437,0-.655.045-3.2.182-3.367,3.308-3.955a92,92,0,0,0,16.928-2.845c2.231-.657,4.424-1.408,6.584-2.27.848-.338,1.713-.9,2.678-.282" transform="translate(-142.52 -172.828)" fill="#66bfed"/>
    <path id="Trazado_160894" data-name="Trazado 160894" d="M221,313.553c-3.077.972-3.077.972-3.077,4.588q0,25.5-.014,51c0,.838.306,1.752-.353,2.511q-23.537-17.586-28.127-46.606a72.668,72.668,0,0,1-.446-17.629l.139-.158a4.394,4.394,0,0,1,2.512.594,64.288,64.288,0,0,0,26.427,5.036c1.027.014,2.1-.2,2.939.659" transform="translate(-105.939 -172.525)" fill="#7ed7f5"/>
    <path id="Trazado_160895" data-name="Trazado 160895" d="M255.466,177.124l.052-.176a69.163,69.163,0,0,1,41.889-13.322,66.714,66.714,0,0,1,28.3,6.235,64.638,64.638,0,0,1-5.185,20.322,69.722,69.722,0,0,1-17.109,24.182,60.535,60.535,0,0,1-19.058,12.36,3.81,3.81,0,0,1-.973-2.587,68.911,68.911,0,0,0-25.719-44.685c-.832-.669-1.857-1.185-2.2-2.329" transform="translate(-143.46 -91.884)" fill="#29376d"/>
    <path id="Trazado_160896" data-name="Trazado 160896" d="M254.515,194.417c13.829,9.974,22.714,23.316,27.08,39.74a96.61,96.61,0,0,1,1.812,9.861,1.023,1.023,0,0,0-.121.373c-5.108,1.847-10.176,3.821-15.586,4.671a67.725,67.725,0,0,1-10.134,1.143l-3.082-.051a3.968,3.968,0,0,1-.7-2.892q-.022-24.851-.01-49.7a5.992,5.992,0,0,1,.64-2.945.3.3,0,0,1,.1-.2" transform="translate(-142.509 -109.177)" fill="#c3e0fe"/>
    <path id="Trazado_160897" data-name="Trazado 160897" d="M218.441,194.866q.037,19.46.073,38.92c.009,5.54,0,11.08,0,16.619a61.061,61.061,0,0,1-28.8-6.236,69.218,69.218,0,0,1,21.918-43.906,34.78,34.78,0,0,1,6.808-5.4" transform="translate(-106.537 -109.429)" fill="#d8f1fe"/>
  </g>
</svg>
