<svg id="Grupo_144160" data-name="Grupo 144160" xmlns="http://www.w3.org/2000/svg" xmlns:xlink="http://www.w3.org/1999/xlink" width="211.352" height="227.082" viewBox="0 0 211.352 227.082">
  <defs>
    <clipPath id="clip-path">
      <rect id="Rectángulo_39676" data-name="Rectángulo 39676" width="211.352" height="227.082" fill="none"/>
    </clipPath>
  </defs>
  <g id="Grupo_144159" data-name="Grupo 144159" clip-path="url(#clip-path)">
    <path id="Trazado_160944" data-name="Trazado 160944" d="M107.89,192.006c2.421.541,3.348,2.07,3.226,4.51-.228,4.554.391,9.145-.916,13.649a23.036,23.036,0,0,1-21.726,16.816q-32.912.181-65.826-.005A22.686,22.686,0,0,1,.132,204.729c-.245-22.677-.079-45.36-.05-68.04a18.848,18.848,0,0,1,.488-3.944A22.129,22.129,0,0,1,21.808,115.3c22.459-.1,44.919-.047,67.379-.022a21.578,21.578,0,0,1,13.478,4.861c.4.315.806.632,1.217.938.039.029.134-.016.41-.06,0-3.326-.036-6.69.016-10.052.024-1.533-1.146-1.1-1.866-1.176A55.2,55.2,0,0,1,53.433,45.119,55.158,55.158,0,0,1,98.4.791C99.5.606,100.729.816,101.686,0h6.208a3.393,3.393,0,0,0,2.661,0H111c.844.553,1.852-.052,2.713.382,21.626,2.916,36.92,14.495,45.014,34.591,13.166,32.689-7.948,68.882-42.925,74.449-1.578.251-3.775-.292-4.576.854-.77,1.1-.254,3.122-.255,4.739q-.012,18.272,0,36.515c.976.241,1.2-.467,1.563-.843q19.253-19.925,38.511-39.844c1.22-1.255,1.11-1.942-.122-2.882a12.352,12.352,0,0,1-1.419-1.4c-1.737-1.844-1.83-3.455-.119-5.234,2.561-2.662,5.193-5.256,7.834-7.839,1.487-1.454,3.2-1.638,4.722-.176,1.005.966,1.464.626,2.233-.21q9.156-9.948,18.391-19.823a15.512,15.512,0,0,1,20.319-2.5c7.63,5.193,10.427,13.495,7.074,20.947a16.826,16.826,0,0,1-4.07,5.458c-6.456,5.968-12.884,11.967-19.346,17.927-.875.807-1.52,1.3-.312,2.525,1.372,1.394,1.165,3.131-.224,4.551-2.635,2.693-5.276,5.383-8,7.99-1.725,1.653-3.334,1.484-5.225-.324-2.807-2.684-2.8-2.682-5.528-.053-14.142,13.647-28.2,27.379-42.476,40.888-4.547,4.305-10.067,7.45-15.153,11.111-.592.426-1.164.88-1.746,1.32-2.861,2.72-5.944,4.931-10.2,4.457-5.187-1.968-6.9-6.462-4.263-11.3,1.192-2.193,2.725-4.174,4.023-6.3,1.941-2.683,3.587-5.56,5.409-8.32a4.7,4.7,0,0,0,.857-2.469c.068-2.28.008-4.56.032-6.838.013-1.3-.593-1.869-1.876-1.854-1.544.018-3.089-.012-4.636.046-28.16.1-56.315.012-84.47.051-5.838.007-5.242-.514-5.25,5.224-.021,15.667.215,31.337-.087,47-.2,10.2,7.724,16.98,17.025,16.919,21.134-.138,42.27-.08,63.4-.033,8.027.393,15.65-6.721,15.881-14.869.079-2.8,0-5.594.032-8.391a4.794,4.794,0,0,1,1.939-4.019c.644-.477,1.33-1,2.2-.411" transform="translate(0 -0.001)"/>
    <path id="Trazado_160945" data-name="Trazado 160945" d="M252.45.383A3.409,3.409,0,0,1,249.737,0H252.4a.648.648,0,0,0,.052.383" transform="translate(-138.739)" fill="#757575"/>
    <path id="Trazado_160946" data-name="Trazado 160946" d="M245.414,0a2,2,0,0,1-2.661,0Z" transform="translate(-134.859)" fill="#131313"/>
    <path id="Trazado_160947" data-name="Trazado 160947" d="M208.183,416.017c3.127.534,5.464-1.237,7.91-2.7.75-.449,1.515-.872,2.273-1.307q.006,4.443.012,8.884c-2.819.86-3.374,1.656-3.459,4.561-.112,3.824.44,7.683-.536,11.463a16.481,16.481,0,0,1-15.5,12.27c.019-.808.727-1.061,1.217-1.465a19.968,19.968,0,0,0,7.461-16.341q-.038-6.318,0-12.637c.005-.944-.143-1.944.616-2.728" transform="translate(-110.489 -228.889)" fill="#b6d8ea"/>
    <path id="Trazado_160948" data-name="Trazado 160948" d="M106,374.339c0,5.1-.056,10.2.012,15.3a20.832,20.832,0,0,1-7.274,16.625c-.632.563-1.417.743-2.036,1.25-8.27.028-16.54.071-24.81.08q-19.5.021-39,0c-10.957,0-17.906-6.866-17.92-17.749-.021-16.913,0-33.827-.023-50.74,0-1.293-.068-2.12,1.759-2.116q44.2.1,88.408.051a8.263,8.263,0,0,1,.878.09,3.6,3.6,0,0,1,.711,2.7c.027,4.853.012,9.705.012,14.558a8.849,8.849,0,0,1-.668,3.217c-1.04,1.665-2.056,3.347-3.126,4.993-3.378,5.193-2.394,8.98,3.076,11.744" transform="translate(-8.306 -187.211)" fill="#cfe6f1"/>
    <path id="Trazado_160949" data-name="Trazado 160949" d="M15.108,295.21c-.676-6.234-.148-12.123,4.85-16.706a14.576,14.576,0,0,1,9.985-4.167q33.686-.069,67.373-.022a5.034,5.034,0,0,1,.657.084c2.632.881,4.207,2.91,5.549,5.165a22.975,22.975,0,0,1,3.108,13.61c-.1,1.454-.523,2.247-2.249,2.245q-44.1-.067-88.2-.032a2.1,2.1,0,0,1-1.077-.178" transform="translate(-8.262 -152.389)" fill="#30dce4"/>
    <path id="Trazado_160950" data-name="Trazado 160950" d="M221.97,121.89c-.026-2.8,0-5.611-.1-8.412a2.137,2.137,0,0,1,1.56-2.421,11.848,11.848,0,1,0-16.52-10.072,11.034,11.034,0,0,0,6.594,9.761,2.558,2.558,0,0,1,1.744,3.017,8.788,8.788,0,0,0,0,.886c0,4.616-.072,4.659-4.462,2.668a18.839,18.839,0,1,1,23.9-26.843,18.638,18.638,0,0,1-1.971,22.018c-1.331,1.532-2.484,2.977-1.364,5.1.232,1.7-1.374,1.835-2.219,2.621a16.638,16.638,0,0,1-4.868,1.89,2.423,2.423,0,0,1-2.289-.215" transform="translate(-110.946 -45.152)" fill="#fefefe"/>
    <path id="Trazado_160951" data-name="Trazado 160951" d="M285.413,266.3c4.458,3.831,4.461,3.834.3,7.853q-18.805,18.141-37.6,36.3a71.033,71.033,0,0,1-10.255,8.381c-4.652,3.08-9.2,6.314-14.128,9.221l8.394-12.511c8.56-5.874,15.493-13.546,22.94-20.661,7.935-7.58,15.9-15.122,23.707-22.839a45.377,45.377,0,0,1,6.644-5.739" transform="translate(-124.291 -147.939)" fill="#fecdbe"/>
    <path id="Trazado_160952" data-name="Trazado 160952" d="M387.231,202.354c-2.733-2.679-5.432-5.394-8.217-8.017-.9-.844-.932-1.365-.074-2.277,4.441-4.722,8.815-9.508,13.213-14.27q2.549-2.759,5.109-5.51a7.845,7.845,0,0,1,4.142-2.766c.971-.207,1.484.489,2.019,1.071A12.67,12.67,0,0,1,403,188.5c-4.46,4.5-9.134,8.775-13.876,12.974-.534.473-1,1.133-1.887.884" transform="translate(-210.172 -94.151)" fill="#017296"/>
    <path id="Trazado_160953" data-name="Trazado 160953" d="M249.686,169.9a18.493,18.493,0,0,0,7.079-2.2c5.332,5.082,10.436,10.393,15.675,15.569,1.218,1.2.811,2.151-.234,3.174a37.624,37.624,0,0,1-11.46,7.745,43.21,43.21,0,0,1-9.912,2.146c-1.073.157-1.24-.29-1.236-1.19q.065-12.62.088-25.24" transform="translate(-138.662 -93.163)" fill="#bc7fe0"/>
    <path id="Trazado_160954" data-name="Trazado 160954" d="M258.372,40.935a32.737,32.737,0,0,0-7.725-2.558c-.828-.126-1.062-.518-1.059-1.324q.039-10.29,0-20.58c0-.925.21-1.324,1.254-1.171a40.763,40.763,0,0,1,9.042,1.894,42.8,42.8,0,0,1,11.665,8.2c1.168,1.2,1.2,2.218.007,3.405-3.771,3.753-7.517,7.532-11.3,11.273-.5.5-.993,1.158-1.886.858" transform="translate(-138.656 -8.483)" fill="#fd5ca6"/>
    <path id="Trazado_160955" data-name="Trazado 160955" d="M191.978,196.4a46.359,46.359,0,0,1-20.019-9.765c-.813-.65-.695-1.053-.032-1.711q7.3-7.236,14.53-14.536c.68-.688,1.137-.568,1.867-.1,1.478.956,3.042,1.778,4.571,2.655a4.229,4.229,0,0,1,.726,2.721c.011,6.041.062,12.083-.047,18.123-.019,1.015.524,2.727-1.6,2.608" transform="translate(-95.214 -94.391)" fill="#ae66d9"/>
    <path id="Trazado_160956" data-name="Trazado 160956" d="M192.98,41.149a18.784,18.784,0,0,0-3.447,1.938c-1.76,1.533-2.828.974-4.275-.548-4.264-4.485-8.7-8.805-13.1-13.163-.73-.723-1.1-1.16-.028-2.008a47.284,47.284,0,0,1,20.489-9.823c1.089.525,1,1.569,1.012,2.5.062,6.194.035,12.389.023,18.584a4.405,4.405,0,0,1-.674,2.525" transform="translate(-95.255 -9.747)" fill="#6cf4c1"/>
    <path id="Trazado_160957" data-name="Trazado 160957" d="M134.07,84.451c-.416-3.064.478-5.962,1.227-8.853a43.705,43.705,0,0,1,7.667-15.961c.97-.564,1.537.2,2.079.725,3.435,3.343,6.791,6.767,10.192,10.144,1.205,1.2,1.359,2.362.23,3.674a20,20,0,0,0-4.451,8.791c-.2.91-.631,1.715-1.737,1.689-5.069-.116-10.145.3-15.208-.209" transform="translate(-74.423 -33.02)" fill="#00f1a5"/>
    <path id="Trazado_160958" data-name="Trazado 160958" d="M142.8,156.358a47.026,47.026,0,0,1-8.887-22.046c-.407-2.872-.318-2.894,2.662-2.885,4.415.014,8.83.043,13.245.065a2.613,2.613,0,0,1,1.008,1.633,18.835,18.835,0,0,0,4.52,8.7c1.12,1.217,1.135,2.241-.04,3.409-3.489,3.472-6.944,6.979-10.463,10.421-.528.516-1.067,1.345-2.045.7" transform="translate(-74.299 -73.012)" fill="#017296"/>
    <path id="Trazado_160959" data-name="Trazado 160959" d="M293.075,84.748c-1.178-4-2.26-8.044-4.9-11.415-.584-.745.081-1.061.458-1.436q6.047-6.008,12.119-11.989c1.105-.122,1.558.711,2.01,1.451a49.77,49.77,0,0,1,7.189,21.65c.094,1.028.029,1.958-1.414,1.922-5.153-.126-10.311.226-15.461-.184" transform="translate(-159.965 -33.275)" fill="#f5c1df"/>
    <path id="Trazado_160960" data-name="Trazado 160960" d="M300.922,156.248c-4.03-3.98-8.04-7.982-12.11-11.921-.779-.754-.653-1.229-.09-2.016a23.943,23.943,0,0,0,4.043-9.687c.18-.972.468-1.4,1.508-1.381,5.149.08,10.3.1,15.448.147a2.423,2.423,0,0,1,.34,2.088,51.3,51.3,0,0,1-7.068,21.12c-.476.791-.842,1.78-2.072,1.651" transform="translate(-160.142 -72.91)" fill="#fec244"/>
    <path id="Trazado_160961" data-name="Trazado 160961" d="M295.9,261.63c-1.55,2.294-3.907,3.753-5.843,5.647-7.26,7.1-14.484,14.246-21.783,21.31-6.18,5.982-12.39,11.936-18.7,17.776a22.63,22.63,0,0,1-6.96,4.506,50.763,50.763,0,0,1,6.9-9.654q20.484-21.1,40.831-42.34c1.224-1.277,1.961-1.342,3.02.023.759.978,1.686,1.825,2.539,2.731" transform="translate(-134.782 -143.272)" fill="#fedece"/>
    <path id="Trazado_160962" data-name="Trazado 160962" d="M398.371,201.748a223.656,223.656,0,0,0,16.537-15.477c4.379-4.616,3.137-13.007-2.365-17.364,4.563-1.584,9.286.5,12.236,5.4,2.2,3.663,1.373,8.259-2.014,11.392-6.435,5.954-12.9,11.873-19.237,17.932-1.452,1.389-2.369,1.545-3.545-.084a21.916,21.916,0,0,0-1.612-1.8" transform="translate(-221.312 -93.545)" fill="#025f7f"/>
    <path id="Trazado_160963" data-name="Trazado 160963" d="M299.487,81.293c4.642-.022,9.285-.105,13.926-.037,1.9.028,2.529-.1,2.25-2.5A52.955,52.955,0,0,0,310.1,60.774c-.779-1.537-1.4-3.265-2.941-4.32,3.269-3.74,3.272-3.742,6.132.248a48.663,48.663,0,0,1,8.779,22.886c.126,1.038.36,1.982-1.368,1.961-6.8-.082-13.6-.022-20.395-.028a3.245,3.245,0,0,1-.824-.227" transform="translate(-166.377 -29.821)" fill="#f5a5d1"/>
    <path id="Trazado_160964" data-name="Trazado 160964" d="M15.4,295.324q43.836-.017,87.672-.038c3.549,0,3.068.342,3.189-3.226a21.985,21.985,0,0,0-4.493-14.222c-.991-1.341-2.567-1.978-3.5-3.325a15.383,15.383,0,0,1,14.6,14.682c.035,2.057.745,4.725-.262,6.006-1.077,1.37-3.871.428-5.907.431q-44.729.057-89.459.022c-.61,0-1.331.336-1.841-.33" transform="translate(-8.558 -152.504)" fill="#02c6dc"/>
    <path id="Trazado_160965" data-name="Trazado 160965" d="M134.2,81.28c4.637-.005,9.275-.048,13.911.006,1.436.017,2.259-.231,2.57-1.911a17.707,17.707,0,0,1,4.6-8.856c.612-.661,1.154-1.318.216-2.24-3.885-3.817-7.722-7.684-11.593-11.515-.186-.184-.535-.2-.808-.3,2.421-3.553,2.418-3.55,5.418-.544,4.059,4.069,8.1,8.158,12.2,12.18.888.869,1.1,1.459.3,2.57a22.3,22.3,0,0,0-3.861,9.3c-.171.982-.413,1.613-1.617,1.608-6.926-.037-13.853-.012-20.78-.023-.188,0-.376-.178-.563-.274" transform="translate(-74.555 -29.849)" fill="#05e29b"/>
    <path id="Trazado_160966" data-name="Trazado 160966" d="M316.744,156.236c2.265-2.381,3.489-5.354,4.778-8.3a54.672,54.672,0,0,0,4.021-16.555c1.613-.043,3.231-.027,4.838-.147,1.3-.1,1.442.536,1.319,1.589a48.839,48.839,0,0,1-10.71,25.663c-.686.845-1.2,1.163-2.01.166-.688-.85-1.486-1.612-2.236-2.413" transform="translate(-175.964 -72.898)" fill="#fdb037"/>
    <path id="Trazado_160967" data-name="Trazado 160967" d="M217.713,200.205c1.322-.263.915-1.325.917-2.121.02-7.11,0-14.22,0-21.331a16.557,16.557,0,0,0,3.791,1.128c2.558.141,2.936,1.446,2.879,3.7-.155,6.046-.083,12.1-.03,18.149.012,1.328-.26,1.909-1.733,1.581-1.927-.428-3.956-.339-5.824-1.105" transform="translate(-120.949 -98.194)" fill="#9756bc"/>
    <path id="Trazado_160968" data-name="Trazado 160968" d="M219.422,39.868q-.01-10.508-.028-21.016a4.4,4.4,0,0,0-.336-2.588,37.869,37.869,0,0,1,5.637-.98c.983-.181,1.311.172,1.307,1.149-.024,6.861-.035,13.721.01,20.582.007,1.009-.5,1.19-1.282,1.385-1.781.444-3.54.972-5.308,1.467" transform="translate(-121.696 -8.466)" fill="#00f1a5"/>
    <path id="Trazado_160969" data-name="Trazado 160969" d="M154.129,156.179c.671.018,1.058-.448,1.474-.864q5.394-5.392,10.785-10.787c.566-.567,1.313-1.087.39-1.984-3.177-3.088-4.714-7.006-5.629-11.231,2.067,0,4.387-.576,6.13.177,1.808.781,1.235,3.518,2.048,5.294A24.013,24.013,0,0,0,172,141.856c.927,1.172.622,1.861-.316,2.784-4.476,4.4-8.938,8.822-13.309,13.328-1.274,1.314-2.143,1.645-3.107-.178a14.6,14.6,0,0,0-1.14-1.611" transform="translate(-85.625 -72.834)" fill="#025f7f"/>
    <path id="Trazado_160970" data-name="Trazado 160970" d="M269.351,43.342c4.689-4.049,8.793-8.7,13.264-12.969.889-.849.323-1.359-.261-2-2.969-3.249-6.749-5.412-10.361-7.8-.417-.276-.984-.377-1.127-.972a45.393,45.393,0,0,1,17.105,8.958c.942.75.715,1.167.009,1.866q-7.162,7.1-14.258,14.26c-.663.669-1.173,1-2.019.273a25.381,25.381,0,0,0-2.353-1.618" transform="translate(-149.636 -10.89)" fill="#fd3d96"/>
    <path id="Trazado_160971" data-name="Trazado 160971" d="M269.7,191.565c2.8-2.131,5.947-3.734,8.7-5.97,3.991-3.236,4.1-3.1.553-6.648q-5.957-5.958-11.908-11.92c-.557-.56-1.32-1.007-1.331-1.95.7-.772,2.041-.839,2.3-2.1,5.828,5.855,11.623,11.74,17.509,17.532,1.16,1.141,1.338,1.7-.087,2.781a46.763,46.763,0,0,1-15.737,8.27" transform="translate(-147.62 -90.543)" fill="#ae66d9"/>
    <path id="Trazado_160972" data-name="Trazado 160972" d="M219.851,357.319q-.027-10.237-.054-20.474c2.185-.092,4.927-.936,6.379.3,1.258,1.071.157,3.887.4,5.907a10.326,10.326,0,0,1-2.373,7.939c-1.577,2.009-2.908,4.211-4.348,6.327" transform="translate(-122.106 -186.928)" fill="#b6d8ea"/>
    <path id="Trazado_160973" data-name="Trazado 160973" d="M364.3,242.219c-3.88-3.829-7.739-7.68-11.659-11.469-.763-.737-.573-1.168.08-1.735a8,8,0,0,0,1.25-1.249c.919-1.253,1.646-1.188,2.731-.047,3.652,3.844,7.416,7.579,11.138,11.356-.54,2.073-1.716,3.117-3.54,3.143" transform="translate(-195.63 -126.022)" fill="#30dbe3"/>
    <path id="Trazado_160974" data-name="Trazado 160974" d="M230.8,117.223a5.228,5.228,0,1,1,5.151,5.262,5.327,5.327,0,0,1-5.151-5.262" transform="translate(-128.219 -62.212)" fill="#30dce3"/>
    <path id="Trazado_160975" data-name="Trazado 160975" d="M379.49,257.507c1.637-.533,2.5-1.935,3.54-3.143,1.993,1.937,3.968,3.9,5.991,5.8.684.644.68,1.056.035,1.779-2.491,2.792-2.468,2.83-5.145.132-1.492-1.5-2.948-3.045-4.42-4.569" transform="translate(-210.822 -141.31)" fill="#02c5db"/>
    <path id="Trazado_160976" data-name="Trazado 160976" d="M165.562,382.082c2.293.331,3.281,1.706,3.261,3.965-.029,3.395.059,6.792-.028,10.184-.159,6.2-4.37,10.323-10.548,10.4q-4.76.057-9.52,0c-6.014-.077-10.465-4.228-10.538-10.212q-.2-16.271,0-32.545c.064-5.9,4.337-10.093,10.25-10.3,3.391-.12,6.793-.124,10.183,0,5.946.221,9.982,4.374,10.183,10.343.057,1.7-.007,3.4.021,5.092.037,2.256-.95,3.642-3.253,3.964-1.832.7-2.739-.435-3.457-1.806-.924-1.767-.748-3.711-.764-5.617-.03-3.821-.99-4.922-4.788-4.9-2.913.016-5.865-.5-8.739.4a3.8,3.8,0,0,0-2.406,3.881c-.079,10.122-.1,20.244.012,30.365.03,2.771,1.247,3.846,4,3.924,2.363.066,4.729,0,7.092.019,4.116.043,4.8-.618,4.827-4.651.015-2.5-.035-5.006.027-7.509a6.586,6.586,0,0,1,1.309-4.137c.732-.9,1.641-1.511,2.879-.855" transform="translate(-76.716 -196.37)"/>
    <path id="Trazado_160977" data-name="Trazado 160977" d="M60.3,444.675c-1.77,0-3.543.069-5.309-.015-5.926-.284-9.856-4.9-9.764-11.4.083-5.883,4.317-10.329,10.057-10.453,3.538-.076,7.081-.081,10.619,0,5.814.14,9.927,4.626,9.959,10.742.033,6.334-3.932,10.855-9.811,11.111-1.914.084-3.834.013-5.751.011" transform="translate(-25.122 -234.854)"/>
    <path id="Trazado_160978" data-name="Trazado 160978" d="M60.385,375.414c-1.7,0-3.394.04-5.09-.005a10.308,10.308,0,0,1-10.068-9.8c-.332-6.595,3.209-11.441,9.071-12.012a63.089,63.089,0,0,1,12.593.011c5.842.605,9.252,5.373,8.937,12.1a10.238,10.238,0,0,1-9.911,9.7c-1.843.058-3.689.009-5.533.01" transform="translate(-25.114 -196.264)"/>
    <path id="Trazado_160979" data-name="Trazado 160979" d="M159.821,368.613a48.634,48.634,0,0,1,11.383-.072,3.146,3.146,0,0,1,2.958,3.288c.086,1.759,0,3.525.064,5.286.091,2.593.844,3.452,3.415,4.056q0,4.557-.007,9.114c-2.584.622-3.351,1.481-3.405,4.1-.06,2.881-.011,5.763-.017,8.644-.008,4.3-1.112,5.322-5.466,5.066.313-6.557.165-13.119.186-19.679.016-5.1.024-10.194,0-15.291-.02-3.568-.25-3.707-3.75-3.813-1.793-.055-3.708.562-5.354-.7" transform="translate(-88.787 -204.573)" fill="#9757bc"/>
    <path id="Trazado_160980" data-name="Trazado 160980" d="M109.353,297.958c-2.8,0-5.6.034-8.406-.012-2.223-.037-3.681-1.357-3.73-3.249-.05-1.964,1.472-3.367,3.809-3.379q8.516-.044,17.033,0c2.357.011,3.878,1.382,3.849,3.349s-1.544,3.259-3.929,3.286c-2.875.032-5.751.008-8.627.007" transform="translate(-54.008 -161.827)"/>
    <path id="Trazado_160981" data-name="Trazado 160981" d="M156.107,369.077c2.358.023,4.727.189,7.072.025,2.13-.149,2.735.893,2.738,2.7q.011,5.53.006,11.06c0,7.3-.021,14.6.018,21.9a6.592,6.592,0,0,1-.911,3.793c-2.433.03-4.866.089-7.3.083-3.282-.008-4.565-1.266-4.576-4.545-.024-7.453-.008-14.907-.008-22.36,0-2.878-.038-5.757.014-8.634.036-1.991.659-3.639,2.944-4.026" transform="translate(-85.073 -205.037)" fill="#ae66d9"/>
    <path id="Trazado_160982" data-name="Trazado 160982" d="M72.158,446.324c-2.8.028-5.6.145-8.4.055-2.409-.078-3.6-1.652-3.568-4.373.027-2.568,1.244-4.088,3.569-4.149,2.8-.074,5.6.032,8.4.061a6.325,6.325,0,0,1,0,8.407" transform="translate(-33.439 -243.233)" fill="#00f1a5"/>
    <path id="Trazado_160983" data-name="Trazado 160983" d="M87.114,446.388a9.708,9.708,0,0,0,0-8.407c3.807-.256,5.3.856,5.36,3.981.063,3.481-1.416,4.7-5.362,4.427" transform="translate(-48.395 -243.297)" fill="#05e29b"/>
    <path id="Trazado_160984" data-name="Trazado 160984" d="M72.105,377.2c-2.712.025-5.425.1-8.135.058a3.63,3.63,0,0,1-3.82-3.461c-.309-2.851.556-4.286,3.009-4.99,2.7-.408,5.415-.085,8.121-.178a1.943,1.943,0,0,1,1.7.848c1.27,1.687.767,6.17-.871,7.722" transform="translate(-33.382 -204.77)" fill="#00f0a5"/>
    <path id="Trazado_160985" data-name="Trazado 160985" d="M75.941,377.026a16.688,16.688,0,0,0,.765-2.059c1.127-4.85.008-6.277-4.856-6.284-1.619,0-3.237-.032-4.856-.05a49.622,49.622,0,0,1,11.235-.065c2.282.2,3.229,1.936,3.064,4.806a3.585,3.585,0,0,1-3.585,3.713,16.777,16.777,0,0,1-1.766-.06" transform="translate(-37.218 -204.595)" fill="#05e19b"/>
  </g>
</svg>
