<svg xmlns="http://www.w3.org/2000/svg" xmlns:xlink="http://www.w3.org/1999/xlink" width="485.796" height="274.161" viewBox="0 0 485.796 274.161">
  <defs>
    <clipPath id="clip-path">
      <rect id="Rectángulo_39755" data-name="Rectángulo 39755" width="329.201" height="232.818" fill="none"/>
    </clipPath>
    <clipPath id="clip-path-3">
      <rect id="Rectángulo_39742" data-name="Rectángulo 39742" width="10.958" height="24.738" fill="none"/>
    </clipPath>
    <clipPath id="clip-path-4">
      <rect id="Rectángulo_39743" data-name="Rectángulo 39743" width="6.178" height="13.91" fill="none"/>
    </clipPath>
    <clipPath id="clip-path-5">
      <rect id="Rectángulo_39744" data-name="Rectángulo 39744" width="6.563" height="10.373" fill="none"/>
    </clipPath>
    <clipPath id="clip-path-6">
      <rect id="Rectángulo_39745" data-name="Rectángulo 39745" width="71.013" height="28.278" fill="none"/>
    </clipPath>
    <clipPath id="clip-path-7">
      <rect id="Rectángulo_39746" data-name="Rectángulo 39746" width="10.839" height="18.9" fill="none"/>
    </clipPath>
    <clipPath id="clip-path-8">
      <rect id="Rectángulo_39747" data-name="Rectángulo 39747" width="9.189" height="9.189" fill="none"/>
    </clipPath>
    <clipPath id="clip-path-9">
      <rect id="Rectángulo_39748" data-name="Rectángulo 39748" width="3.65" height="8.864" fill="none"/>
    </clipPath>
    <clipPath id="clip-path-10">
      <rect id="Rectángulo_39749" data-name="Rectángulo 39749" width="5.732" height="10.382" fill="none"/>
    </clipPath>
    <clipPath id="clip-path-11">
      <rect id="Rectángulo_39750" data-name="Rectángulo 39750" width="75.312" height="51.54" fill="none"/>
    </clipPath>
    <clipPath id="clip-path-12">
      <rect id="Rectángulo_39751" data-name="Rectángulo 39751" width="18.604" height="5.622" fill="none"/>
    </clipPath>
    <clipPath id="clip-path-13">
      <rect id="Rectángulo_39752" data-name="Rectángulo 39752" width="12.705" height="9.288" fill="none"/>
    </clipPath>
  </defs>
  <g id="Grupo_144364" data-name="Grupo 144364" transform="translate(-19 -3)">
    <g id="Grupo_140024" data-name="Grupo 140024" transform="translate(19 3)">
      <g id="Grupo_135932" data-name="Grupo 135932" transform="translate(237.128 0)">
        <g id="Grupo_53612" data-name="Grupo 53612" transform="translate(0 0)">
          <rect id="Rectángulo_5111" data-name="Rectángulo 5111" width="248.668" height="274.161" fill="#fdd835"/>
        </g>
      </g>
      <path id="_5" data-name="5" d="M0,0H440.46V242.132H0Z" transform="translate(0 16)" fill="#e8e8e8"/>
    </g>
    <g id="Grupo_144220" data-name="Grupo 144220" transform="translate(37.763 15.301)">
      <g id="Grupo_144255" data-name="Grupo 144255" transform="translate(23.237 8.524)" clip-path="url(#clip-path)">
        <g id="Grupo_144254" data-name="Grupo 144254" transform="translate(0 0)">
          <g id="Grupo_144253" data-name="Grupo 144253" clip-path="url(#clip-path)">
            <path id="Trazado_161141" data-name="Trazado 161141" d="M87.829,644.03c-1.773,35.366,21.841,53.525,55.9,57.838,38.206,4.839,77.434-1.688,115.478-5.007,14.332-1.25,28.71-2.19,43.106-2.111,13.565.074,28.25,3.814,41.577,1.744,33.312-5.174,50.479-39.6,45.288-69.616-3.218-18.615-15.306-36.406-36.7-35.222-15.031.833-28.358,7.364-42.716,10.9a105.074,105.074,0,0,1-57.548-2.154c-9.262-3.033-18.095-7.335-27.108-11.1-17.952-7.492-36.936-12.9-56.268-13.2s-39.086,4.781-54.713,16.671C97.644,605.318,88.819,624.289,87.829,644.03Z" transform="translate(-75.405 -495.127)" fill="none" stroke="#f0f0f0" stroke-miterlimit="10" stroke-width="4.264"/>
            <path id="Trazado_161142" data-name="Trazado 161142" d="M349.9,724.966c1.763,34.938-21.727,52.876-55.608,57.138-38.006,4.78-77.03-1.668-114.875-4.947-14.257-1.235-28.56-2.164-42.881-2.086-13.494.073-28.1,3.767-41.359,1.723-33.138-5.111-50.215-39.115-45.052-68.773,2.412-13.856,7.739-29.184,19.714-37.6,12.044-8.462,26.054-6.3,39.257-2.623,24.046,6.691,50.246,19.248,75.723,14.334,14.6-2.816,27.328-11.085,41.2-16.033a136.236,136.236,0,0,1,43.3-8.236c19.225-.3,38.882,4.723,54.428,16.469,16.394,12.388,25.173,31.129,26.158,50.631" transform="translate(-42.298 -565.395)" fill="#f0f0f0"/>
            <path id="Trazado_161143" data-name="Trazado 161143" d="M1841.518,1302.922s-13.243,9.339-28.456,1.246l14.228-7.939Z" transform="translate(-1558.246 -1114.051)" fill="#6f3428"/>
            <path id="Trazado_161144" data-name="Trazado 161144" d="M1262.855,899.718s-12.886,24.165-8.852,31.3l14.672-8.145Z" transform="translate(-1077.088 -773.267)" fill="#6f3428"/>
            <path id="Trazado_161145" data-name="Trazado 161145" d="M1090.688,609.1a44.838,44.838,0,0,1-4.657-4.034,67.771,67.771,0,0,1-8.1-9.9v-.006c-1.654-2.421-3.2-4.951-4.633-7.51a156.83,156.83,0,0,1-9.679-21.144c-2.4-6.383-3.8-11.118-4.171-12.2a1.17,1.17,0,0,0-.09-.228l6.97-20.012c3.368-5.394,5.256,12.112,5.256,12.112a13.49,13.49,0,0,0,2.721-3.009c.749-.977,1.324.569,1.427,1.121.581,3.218-2.008,9.338-2.008,9.338l16.619,24.357a33.761,33.761,0,0,0,3.392,4.2,32.468,32.468,0,0,0,2.505,2.385c1.474,6.263,1.325,18.339-5.55,24.531" transform="translate(-910.468 -458.117)" fill="#f9b384"/>
            <g id="Grupo_144222" data-name="Grupo 144222" transform="translate(175.563 126.245)" opacity="0.6">
              <g id="Grupo_144221" data-name="Grupo 144221">
                <g id="Grupo_144220-2" data-name="Grupo 144220" clip-path="url(#clip-path-3)">
                  <path id="Trazado_161146" data-name="Trazado 161146" d="M1253.818,922.995a44.876,44.876,0,0,1-4.657-4.034c5.216-5.975,9.206-15.9,10.207-20.5.791.839-.875-.749,0,0,1.474,6.263,1.325,18.339-5.55,24.531" transform="translate(-1249.161 -898.257)" fill="#e28b6d"/>
                </g>
              </g>
            </g>
            <path id="Trazado_161147" data-name="Trazado 161147" d="M1365.155,962.15c-9.08-1.768-16.236-1.654-22.277-.456a44.3,44.3,0,0,0-6.179,1.7l-1.828,6.551-3.608,12.952-2.343,8.415-2.134,7.642-1.2,4.309h-64.4l10.188-66.43-12.574-5.8a26.8,26.8,0,0,0,2.242-4.147c3.818-8.6,5.867-21.636,6.61-27.156a32.987,32.987,0,0,0,12.454,6.724,63.826,63.826,0,0,0,18.279,2.775l.635-.018c14.306-.557,20.689,3.788,20.689,3.788,3.236.641,11.675,3.884,19.041,7.126,3.248,1.42,6.287,2.847,8.588,4.045a24.3,24.3,0,0,1,12.34,15.75Z" transform="translate(-1081.881 -773.278)" fill="#ee6f57"/>
            <g id="Grupo_144225" data-name="Grupo 144225" transform="translate(254.819 176.209)" opacity="0.6">
              <g id="Grupo_144224" data-name="Grupo 144224">
                <g id="Grupo_144223" data-name="Grupo 144223" clip-path="url(#clip-path-4)">
                  <path id="Trazado_161148" data-name="Trazado 161148" d="M1819.256,1265.964a44.29,44.29,0,0,0-6.179,1.7l3.878-13.91Z" transform="translate(-1813.078 -1253.755)" fill="#ae5140"/>
                </g>
              </g>
            </g>
            <g id="Grupo_144228" data-name="Grupo 144228" transform="translate(161.4 126.67)" opacity="0.3">
              <g id="Grupo_144227" data-name="Grupo 144227">
                <g id="Grupo_144226" data-name="Grupo 144226" clip-path="url(#clip-path-5)">
                  <path id="Trazado_161149" data-name="Trazado 161149" d="M1154.453,911.65c-1.654-2.421-2.95-4.609-6.059-10.126,4.877-1.669,7.791,5.517,6.059,10.126" transform="translate(-1148.393 -901.278)" fill="#ee6f57"/>
                </g>
              </g>
            </g>
            <g id="Grupo_144231" data-name="Grupo 144231" transform="translate(182.677 194.163)" opacity="0.6">
              <g id="Grupo_144230" data-name="Grupo 144230">
                <g id="Grupo_144229" data-name="Grupo 144229" clip-path="url(#clip-path-6)">
                  <path id="Trazado_161150" data-name="Trazado 161150" d="M1370.792,1381.5l-4.308,15.459-2.343,8.414-57.793,4.405-6.569-11.495c42.253-.87,59.933-6.892,71.013-16.783" transform="translate(-1299.779 -1381.5)" fill="#ae5140"/>
                </g>
              </g>
            </g>
            <g id="Grupo_144234" data-name="Grupo 144234" transform="translate(148.977 89.489)" opacity="0.6">
              <g id="Grupo_144233" data-name="Grupo 144233">
                <g id="Grupo_144232" data-name="Grupo 144232" clip-path="url(#clip-path-7)">
                  <path id="Trazado_161151" data-name="Trazado 161151" d="M1064.167,655.631c-2.4-6.383-3.8-11.118-4.172-12.2l10.814-6.7c.414,6.1-4.407,14.782-6.642,18.9" transform="translate(-1059.996 -636.731)" fill="#e28b6d"/>
                </g>
              </g>
            </g>
            <path id="Trazado_161152" data-name="Trazado 161152" d="M1573.487,1073.9a11.04,11.04,0,0,0,3.768,5.618,13.942,13.942,0,0,0,6.183,2.742,15.592,15.592,0,0,0,6.8-.291,14.651,14.651,0,0,0,3.2-1.261,17.066,17.066,0,0,0,2.908-1.921l.32.342a14.824,14.824,0,0,1-2.81,2.3,15.6,15.6,0,0,1-3.327,1.54,15.033,15.033,0,0,1-7.305.46,13.742,13.742,0,0,1-6.62-3.141,11.6,11.6,0,0,1-2.351-2.845,10.223,10.223,0,0,1-1.223-3.447Z" transform="translate(-1351.948 -922.97)" fill="#ae5140"/>
            <path id="Trazado_161153" data-name="Trazado 161153" d="M1626.992,910.988l-1.792,14.006a10.281,10.281,0,0,1-20.479-1.283,10.712,10.712,0,0,1,.126-1.624l.324-2.05,1.264-7.989,7.12-.366Z" transform="translate(-1379.186 -782.953)" fill="#f9b384"/>
            <path id="Trazado_161154" data-name="Trazado 161154" d="M1585.759,655.043a21.226,21.226,0,0,1,2.265-6.758,14.444,14.444,0,0,1,10.885-7.906c7.071-1.02,16.214-.026,21.193,6.766,5.613,7.657.948,22.966-5.07,24.272s-29.274-16.374-29.274-16.374" transform="translate(-1362.889 -550.085)" fill="#102048"/>
            <path id="Trazado_161155" data-name="Trazado 161155" d="M1621.26,918.836c-2.4,2.277-7.941,7.605-15.642,7.5l1.588-10.039,7.12-.366Z" transform="translate(-1379.956 -787.205)" fill="#e28b6d"/>
            <path id="Trazado_161156" data-name="Trazado 161156" d="M1604.9,702.115l-1.073,5.58-.264,1.367-1.055,5.49-.605,3.147-.749,3.884-3.662,2.2a16.28,16.28,0,0,1-2.841,1.4.006.006,0,0,1-.006.006,26.917,26.917,0,0,1-13.461,1.534,5.724,5.724,0,0,1-1.187-.282c-2.829-.965-4.279-3.944-4.914-7.653a40.358,40.358,0,0,1-.33-8.864,94.363,94.363,0,0,1,1.463-11.411c6.3-5.628,14.9-6.652,21.276-7.9Z" transform="translate(-1353.348 -593.547)" fill="#f9b384"/>
            <path id="Trazado_161157" data-name="Trazado 161157" d="M1585.759,679.455c10.033-7.9,23.55.1,23.55.1s-2.067,12.438,1.929,11.412,8.05-9.342,8.05-9.342l-9.146-13.185-20.006,3.446Z" transform="translate(-1362.889 -574.496)" fill="#102048"/>
            <path id="Trazado_161158" data-name="Trazado 161158" d="M1762.568,810.921c1.966-3.452,5.793-4.559,7.85-1.941s2.136,10.857-7.98,9.077Z" transform="translate(-1514.737 -694.039)" fill="#f9b384"/>
            <path id="Trazado_161159" data-name="Trazado 161159" d="M1622.388,811.276c-.651,1.76-1.659,3.327-2.316,4.976-.076.2-.174.428-.221.6a.982.982,0,0,0-.052.473.573.573,0,0,0,.182.351,1.615,1.615,0,0,0,.46.272,10.436,10.436,0,0,0,2.6.451l.009.351a6.791,6.791,0,0,1-2.873-.059,2.147,2.147,0,0,1-.746-.383,1.42,1.42,0,0,1-.492-.82,1.839,1.839,0,0,1,.058-.886,5.355,5.355,0,0,1,.248-.693,30.241,30.241,0,0,1,2.83-4.8Z" transform="translate(-1391.377 -697.121)" fill="#e28b6d"/>
            <path id="Trazado_161160" data-name="Trazado 161160" d="M1677.952,803.551c-.245.83-.922,1.361-1.511,1.187s-.867-.988-.622-1.818.922-1.361,1.511-1.187.868.988.622,1.818" transform="translate(-1440.214 -689.025)" fill="#102048"/>
            <path id="Trazado_161161" data-name="Trazado 161161" d="M1602.124,799.957c-.245.83-.922,1.361-1.511,1.187s-.867-.988-.622-1.818.922-1.361,1.511-1.187.867.988.622,1.818" transform="translate(-1375.044 -685.936)" fill="#102048"/>
            <path id="Trazado_161162" data-name="Trazado 161162" d="M1664.865,783.1a5.548,5.548,0,0,1,1.781-1.147,4.465,4.465,0,0,1,2.179-.293,4.4,4.4,0,0,1,2.043.815,5.523,5.523,0,0,1,1.444,1.552l-.264.232a12.536,12.536,0,0,0-1.6-1.117,4.865,4.865,0,0,0-1.731-.593,4.777,4.777,0,0,0-1.827.133,10.547,10.547,0,0,0-1.822.708Z" transform="translate(-1430.877 -671.777)" fill="#102048"/>
            <path id="Trazado_161163" data-name="Trazado 161163" d="M1598.2,779.935a2.434,2.434,0,0,0-2.107-1.15,3.047,3.047,0,0,0-1.212.269,6.37,6.37,0,0,0-1.162.709l-.274-.22a3.034,3.034,0,0,1,1.057-1.182,2.875,2.875,0,0,1,1.594-.471,2.666,2.666,0,0,1,1.6.535,2.112,2.112,0,0,1,.843,1.4Z" transform="translate(-1369.493 -668.562)" fill="#102048"/>
            <path id="Trazado_161164" data-name="Trazado 161164" d="M1616.494,883.9l6.522.137s-3.616,4.9-6.272.34Z" transform="translate(-1389.304 -759.674)" fill="#fff"/>
            <path id="Trazado_161165" data-name="Trazado 161165" d="M1774.482,826.995a4.933,4.933,0,0,1,.3-1.674,3.66,3.66,0,0,1,.987-1.493,2.525,2.525,0,0,1,1.761-.653,2.627,2.627,0,0,1,1.638.687l-.176.3a3.612,3.612,0,0,0-1.446-.2,2.2,2.2,0,0,0-1.188.537,4.1,4.1,0,0,0-.878,1.138c-.245.442-.444.924-.658,1.422Z" transform="translate(-1525.088 -707.48)" fill="#e28b6d"/>
            <g id="Grupo_144237" data-name="Grupo 144237" transform="translate(236.67 116.875)" opacity="0.3">
              <g id="Grupo_144236" data-name="Grupo 144236">
                <g id="Grupo_144235" data-name="Grupo 144235" clip-path="url(#clip-path-8)">
                  <path id="Trazado_161166" data-name="Trazado 161166" d="M1693.141,836.178a4.594,4.594,0,1,1-4.594-4.594,4.594,4.594,0,0,1,4.594,4.594" transform="translate(-1683.952 -831.584)" fill="#ee6f57"/>
                </g>
              </g>
            </g>
            <g id="Grupo_144240" data-name="Grupo 144240" transform="translate(221.31 116.372)" opacity="0.3">
              <g id="Grupo_144239" data-name="Grupo 144239">
                <g id="Grupo_144238" data-name="Grupo 144238" clip-path="url(#clip-path-9)">
                  <path id="Trazado_161167" data-name="Trazado 161167" d="M1578.307,832.482a4.611,4.611,0,0,1-3.224,4.387,40.36,40.36,0,0,1-.33-8.864,4.6,4.6,0,0,1,3.554,4.477" transform="translate(-1574.658 -828.005)" fill="#ee6f57"/>
                </g>
              </g>
            </g>
            <path id="Trazado_161168" data-name="Trazado 161168" d="M942.9,723.841s13.081,6.4,10.656,17.026l-8.652,2.422Z" transform="translate(-810.38 -622.109)" fill="#102048"/>
            <path id="Trazado_161169" data-name="Trazado 161169" d="M942.9,549.346c1.4-1.382,8.6-9.337,8.352-19.278-.19-7.539,3.152-4.133,3.582,1.069,0,0,1.838-10.64,6.906-9.561l-1.489,2.039s1.922-3.6,3.473-2.639.146,4.047.146,4.047.724-2.673,2.053-2.877,2.55,3.984-.424,14.912c0,0,3.222-3.194,4.495-3.734s1.187,7.821-7.844,16.719-15.419,15.78-15.419,15.78Z" transform="translate(-810.38 -447.614)" fill="#f9b384"/>
            <path id="Trazado_161170" data-name="Trazado 161170" d="M567.876,767.428c.318.491,52.708-43.587,52.708-43.587l10.656,17.026-53.475,62.97Z" transform="translate(-488.064 -622.109)" fill="#708cd5"/>
            <path id="Trazado_161171" data-name="Trazado 161171" d="M1046.167,525.882c-.624.963-1.2,1.963-1.733,2.98a32.949,32.949,0,0,0-1.432,3.126,25.809,25.809,0,0,0-1.083,3.255l-.215.831-.165.842c-.141.559-.171,1.132-.279,1.7l-.234-.013a16.494,16.494,0,0,1,.384-3.485,21.265,21.265,0,0,1,1.041-3.353,25.68,25.68,0,0,1,1.54-3.149,20.605,20.605,0,0,1,1.991-2.88Z" transform="translate(-894.715 -451.848)" fill="#e28b6d"/>
            <path id="Trazado_161172" data-name="Trazado 161172" d="M1074.724,550.62c-.174.951-.379,1.893-.589,2.834s-.445,1.875-.661,2.815l-.714,2.8c-.251.93-.5,1.861-.78,2.786l-.229-.049c.125-.961.308-1.91.5-2.857s.419-1.885.647-2.823c.246-.933.475-1.87.747-2.8s.54-1.854.854-2.769Z" transform="translate(-921.122 -473.182)" fill="#e28b6d"/>
            <path id="Trazado_161173" data-name="Trazado 161173" d="M1080.9,533.374a39.366,39.366,0,0,1-.292,9.845c-.133.813-.274,1.627-.47,2.43-.092.4-.193.8-.308,1.2l-.083.3-.038.139a.093.093,0,0,0-.012-.069.1.1,0,0,0-.136-.027l.21-.186q.922-.816,1.862-1.613l.953-.786c.169-.133.308-.247.507-.392a.751.751,0,0,1,1.157.5l.061.319c.022.213.059.427.061.64a5.509,5.509,0,0,1,.007.638,5.572,5.572,0,0,1-.041.633,11.513,11.513,0,0,1-.526,2.456,20.7,20.7,0,0,1-2.132,4.485,37.892,37.892,0,0,1-2.919,3.987c-.528.63-1.093,1.228-1.637,1.843l-1.719,1.763-.168-.164,1.645-1.817c.518-.631,1.056-1.245,1.556-1.889a37.5,37.5,0,0,0,2.8-3.994,21.542,21.542,0,0,0,2.033-4.386,10.931,10.931,0,0,0,.485-2.34,4.936,4.936,0,0,0,.034-.592,4.99,4.99,0,0,0-.01-.589c0-.2-.039-.388-.059-.582l-.055-.284c-.018-.091-.021-.082-.048-.116a.162.162,0,0,0-.2-.018l-.466.357-.947.77c-.627.522-1.246,1.054-1.862,1.591l-.253.217a.466.466,0,0,1-.724-.5l.044-.157.083-.292c.115-.388.217-.781.31-1.176.193-.788.353-1.585.5-2.385a44.459,44.459,0,0,0,.551-4.852,35.987,35.987,0,0,0,.011-4.886Z" transform="translate(-924.124 -458.411)" fill="#e28b6d"/>
            <path id="Trazado_161174" data-name="Trazado 161174" d="M241.946,1294.895s-18.1-7.14-25.492,6.52c-9.294,17.176,4.671,37.358,4.671,37.358h24.568Z" transform="translate(-183.29 -1111.301)" fill="#fbc343"/>
            <path id="Trazado_161175" data-name="Trazado 161175" d="M263.206,1345.337a9.659,9.659,0,0,0-1.208,1.58,13.15,13.15,0,0,0-.918,1.771,20.233,20.233,0,0,0-1.215,3.805,30.872,30.872,0,0,0-.62,7.969,38.575,38.575,0,0,0,1.233,7.92,46.141,46.141,0,0,0,2.752,7.559l-.21.1c-.307-.6-.631-1.2-.905-1.817-.14-.308-.292-.612-.422-.924l-.4-.936c-.5-1.261-.946-2.543-1.323-3.848a35.3,35.3,0,0,1-1.324-8.031,29.018,29.018,0,0,1,.723-8.111,20.188,20.188,0,0,1,1.339-3.859,13.489,13.489,0,0,1,1.013-1.78,9.022,9.022,0,0,1,1.32-1.569Z" transform="translate(-222.269 -1156.113)" fill="#102048"/>
            <path id="Trazado_161176" data-name="Trazado 161176" d="M397.589,747.366c5.936,3.622,10.039,1.469,11.238-2.441s5.58-18.638-12.737-16.264c0,0-22.447-9.05-31.946,4.3-8.38,11.78-.691,19.922-13.5,29.689-8.928,6.811-19.05,18.776,1.028,39.241l21.776-6Z" transform="translate(-292.243 -623.676)" fill="#ae5140"/>
            <path id="Trazado_161177" data-name="Trazado 161177" d="M630.344,1001.593c.444,2.073,5.247,7.438,7.169,9.451,5.811,6.085,7.093,17.5-9.475,20.99l-9.321-21.712Z" transform="translate(-531.76 -860.824)" fill="#6f3428"/>
            <path id="Trazado_161178" data-name="Trazado 161178" d="M572.814,971.617l-1.96,9.02-3.045,14.036-16.991-3.59,4-27.527,17.327,7.761Z" transform="translate(-473.404 -828.133)" fill="#f9b384"/>
            <path id="Trazado_161179" data-name="Trazado 161179" d="M781.7,894.024s4.9,5.5,4.731,6.9-4.731,3.907-4.731,3.907Z" transform="translate(-671.84 -768.374)" fill="#e28b6d"/>
            <path id="Trazado_161180" data-name="Trazado 161180" d="M640.067,1016.989l-1.96,9.02c-5.226-2.781-9.038-9.661-9.038-9.661l10.327.342Z" transform="translate(-540.657 -873.506)" fill="#e28b6d"/>
            <path id="Trazado_161181" data-name="Trazado 161181" d="M599.078,806.463c-.689,5.226-2.427,9.242-6.143,9.6-10.273.995-25.058-10.512-25.058-10.512l.8-21.072,11.171-6.892,18.082,3.356c.216,2.379,1.325,9.655,1.5,16.973a56.532,56.532,0,0,1-.354,8.546" transform="translate(-488.065 -668.301)" fill="#f9b384"/>
            <path id="Trazado_161182" data-name="Trazado 161182" d="M570.532,766.081,568.3,767.8c-11.621-9.068-9.212,4-10.291,8.178s-6.587,3.081-10.884.378l-.767,5.855-12.915.408-.749-16.368,12.88-10.069,23.841,4.651Z" transform="translate(-457.828 -649.903)" fill="#ae5140"/>
            <path id="Trazado_161183" data-name="Trazado 161183" d="M502.23,950.206c6.344-3.4,4.546-12.286,2.076-15.326s-12.963-8.141-14.236-17.712c-.708-5.324,4.674-11.609,4.674-11.609L483.827,899.7,472.639,917.29l8.44,30.208Z" transform="translate(-406.212 -773.253)" fill="#ae5140"/>
            <path id="Trazado_161184" data-name="Trazado 161184" d="M411.4,1193.708l-53.25.036c-2.325-34.1,6.173-51.531,13.521-60.095a21.148,21.148,0,0,1,18.663-7.192c6.131.755,11.453,3.668,16.847,16.361l-25.208,11.723,16.182,28.492a18.737,18.737,0,0,0,6.82,6.916Z" transform="translate(-307.48 -968.002)" fill="#708cd5"/>
            <path id="Trazado_161185" data-name="Trazado 161185" d="M530.052,1327.261s7.923,31.714,10.86,35.888c3.057,4.345,9.621,3.254,21.06,3.278h0l-14.452-32.2Z" transform="translate(-455.556 -1140.721)" fill="#1f3c88"/>
            <path id="Trazado_161186" data-name="Trazado 161186" d="M594.7,1286.119l-2.289,8.427-30.437.194h-2.493l-6.425-3.758a18.734,18.734,0,0,1-6.82-6.916l-16.182-28.492,25.208-11.723c2.709,6.359,5.43,15.181,8.277,27.407a5.376,5.376,0,0,0,3.081,3.7Z" transform="translate(-455.556 -1069.033)" fill="#708cd5"/>
            <path id="Trazado_161187" data-name="Trazado 161187" d="M602.753,889c-.915-5.077-6.94-5.75-7.989-2.319s-.793,9.325,6.774,8.976Z" transform="translate(-510.788 -760.229)" fill="#f9b384"/>
            <path id="Trazado_161188" data-name="Trazado 161188" d="M611.926,900.831l-.943-1.077a4.531,4.531,0,0,0-.975-.851.883.883,0,0,0-.934-.078,3.863,3.863,0,0,0-.957.876l-.314-.157a2.472,2.472,0,0,1,.845-1.383,1.491,1.491,0,0,1,.92-.308,1.861,1.861,0,0,1,.894.28,3.614,3.614,0,0,1,1.129,1.153,5.389,5.389,0,0,1,.644,1.376Z" transform="translate(-522.379 -771.664)" fill="#e28b6d"/>
            <g id="Grupo_144243" data-name="Grupo 144243" transform="translate(105.658 129.453)" opacity="0.2">
              <g id="Grupo_144242" data-name="Grupo 144242">
                <g id="Grupo_144241" data-name="Grupo 144241" clip-path="url(#clip-path-10)">
                  <path id="Trazado_161189" data-name="Trazado 161189" d="M756.865,931.464c-.258.054-5.089-1.333-5.089-5.883a4.62,4.62,0,0,1,4.552-4.5,4.091,4.091,0,0,1,1.157.162,49.638,49.638,0,0,1-.62,10.219" transform="translate(-751.776 -921.083)" fill="#ee6f57"/>
                </g>
              </g>
            </g>
            <path id="Trazado_161190" data-name="Trazado 161190" d="M1025.184,1293.073H961.839l11.966-51.54h63.345Z" transform="translate(-826.657 -1067.042)" fill="#1f3c88"/>
            <g id="Grupo_144246" data-name="Grupo 144246" transform="translate(135.181 174.491)" opacity="0.6">
              <g id="Grupo_144245" data-name="Grupo 144245">
                <g id="Grupo_144244" data-name="Grupo 144244" clip-path="url(#clip-path-11)">
                  <path id="Trazado_161191" data-name="Trazado 161191" d="M1025.185,1293.073l11.966-51.54c-18.106,41.9-45.011,46.542-75.312,51.54" transform="translate(-961.839 -1241.533)" fill="#102048"/>
                </g>
              </g>
            </g>
            <path id="Trazado_161192" data-name="Trazado 161192" d="M1209.323,1399.348c-.965,2.3-3.315,3.507-5.25,2.695s-2.723-3.334-1.758-5.634,3.315-3.507,5.251-2.7,2.723,3.334,1.758,5.634" transform="translate(-1032.982 -1197.618)" fill="#fff"/>
            <path id="Trazado_161193" data-name="Trazado 161193" d="M1429.84,1334.691l-.192,5.238-.863,23.476v.03a11.944,11.944,0,0,1-4.687,9.02H1397.7l-55.126.186c-.983,0-1.99-2.29-.533-3.422,3.219-2.517,8.259-5.286,11.765-7.527a9.81,9.81,0,0,1,6.521-1.48c3.794.485,9.266,2.409,16.074.4a27.459,27.459,0,0,1,3.59-.8l22.187-3.41,8.732-1.342.246-14.792.078-4.477c.833-.222,1.684-.419,2.559-.593a52.054,52.054,0,0,1,16.044-.5" transform="translate(-1152.799 -1146.777)" fill="#f9b384"/>
            <g id="Grupo_144249" data-name="Grupo 144249" transform="translate(258.438 187.53)" opacity="0.6">
              <g id="Grupo_144248" data-name="Grupo 144248">
                <g id="Grupo_144247" data-name="Grupo 144247" clip-path="url(#clip-path-12)">
                  <path id="Trazado_161194" data-name="Trazado 161194" d="M1857.436,1334.691l-.192,5.238c-3.224-1.133-15.679-4.675-18.411-4.141.833-.222,1.684-.419,2.559-.593a52.052,52.052,0,0,1,16.044-.5" transform="translate(-1838.832 -1334.307)" fill="#e28b6d"/>
                </g>
              </g>
            </g>
            <g id="Grupo_144252" data-name="Grupo 144252" transform="translate(263.281 216.39)" opacity="0.3">
              <g id="Grupo_144251" data-name="Grupo 144251">
                <g id="Grupo_144250" data-name="Grupo 144250" clip-path="url(#clip-path-13)">
                  <path id="Trazado_161195" data-name="Trazado 161195" d="M1885.995,1539.888v.03a11.943,11.943,0,0,1-4.687,9.02h-8.019c1.4-7.713,7.246-10.11,12.706-9.05" transform="translate(-1873.289 -1539.651)" fill="#ee6f57"/>
                </g>
              </g>
            </g>
            <path id="Trazado_161196" data-name="Trazado 161196" d="M1812.678,1478.617a11.461,11.461,0,0,1,2.942-.817,11.762,11.762,0,0,1,3.075-.042,12.082,12.082,0,0,1,2.992.708,10.06,10.06,0,0,1,2.694,1.462l-.194.293a19.066,19.066,0,0,0-2.746-1,17.2,17.2,0,0,0-2.847-.569,15.583,15.583,0,0,0-2.9-.084,21.178,21.178,0,0,0-2.911.388Z" transform="translate(-1557.916 -1269.998)" fill="#e28b6d"/>
            <rect id="Rectángulo_39753" data-name="Rectángulo 39753" width="319.897" height="7.088" transform="translate(0.513 225.73)" fill="#d3dfff"/>
            <line id="Línea_974" data-name="Línea 974" x2="319.897" transform="translate(0.512 225.742)" fill="none" stroke="#102048" stroke-miterlimit="10" stroke-width="6"/>
            <path id="Trazado_161197" data-name="Trazado 161197" d="M48.385,595.151a24.375,24.375,0,1,0-10.546,24.81l8.439,3.679-4.061-7.385a24.358,24.358,0,0,0,6.168-21.1" transform="translate(0 -494.356)" fill="#c6eae9"/>
            <path id="Trazado_161198" data-name="Trazado 161198" d="M77.4,685.585v-7.422l-.433.215a3.192,3.192,0,0,1-1.43.332,3.247,3.247,0,1,1,1.432-6.166l.431.21V665.34h6.428a3.786,3.786,0,0,0-.152,1.068,3.849,3.849,0,0,0,7.7,0,3.791,3.791,0,0,0-.152-1.068h6.428v6.487a3.8,3.8,0,0,0-1.264-.212,3.847,3.847,0,1,0,1.264,7.478v6.492Z" transform="translate(-62.134 -571.83)" fill="#fff"/>
            <path id="Trazado_161199" data-name="Trazado 161199" d="M95.521,663.807V669.6a4.148,4.148,0,1,0-.964,8.182,4.119,4.119,0,0,0,.964-.115v5.791H75.871v-7.606l-.866.429a2.893,2.893,0,0,1-1.3.3,2.948,2.948,0,1,1,1.3-5.6l.862.42v-7.595h5.748a4.148,4.148,0,1,0,8.153,0Zm.6-.6H88.967a3.478,3.478,0,0,1,.277,1.368,3.549,3.549,0,0,1-7.1,0,3.475,3.475,0,0,1,.278-1.368H75.272v7.235a3.548,3.548,0,1,0-1.564,6.735,3.5,3.5,0,0,0,1.564-.363v7.239H96.12V676.81a3.489,3.489,0,0,1-1.563.367,3.547,3.547,0,1,1,0-7.094,3.485,3.485,0,0,1,1.563.363Z" transform="translate(-60.302 -569.998)" fill="#8cbfbe"/>
            <path id="Trazado_161200" data-name="Trazado 161200" d="M1995.214,579.082a24.375,24.375,0,1,1,13.508,23.33L2000.8,607.1l3.125-7.827a24.357,24.357,0,0,1-8.708-20.189" transform="translate(-1714.759 -477.993)" fill="#d3dfff"/>
            <path id="Trazado_161201" data-name="Trazado 161201" d="M2083.872,650.021a3.828,3.828,0,0,0-6.907,0h-6.689V642.6l-.407.2a3.184,3.184,0,0,1-1.438.338,3.266,3.266,0,1,1,0-6.532,3.184,3.184,0,0,1,1.438.334l.407.2v-7.412h7.19l-.131-.374a3.266,3.266,0,1,1,6.165,0l-.131.374h7.19v20.282Z" transform="translate(-1774.916 -537.174)" fill="#fff"/>
            <path id="Trazado_161202" data-name="Trazado 161202" d="M2078.7,623.579a2.987,2.987,0,0,1,2.819,3.973l-.263.748h7.306v19.72h-6.232a4.11,4.11,0,0,0-7.254,0h-6.235v-7.59l-.813.407a2.908,2.908,0,0,1-1.312.308,2.985,2.985,0,1,1,0-5.97,2.907,2.907,0,0,1,1.312.3l.813.407V628.3h7.306l-.263-.748a2.986,2.986,0,0,1,2.815-3.973m0-.562a3.549,3.549,0,0,0-3.346,4.721h-7.075v7.239a3.485,3.485,0,0,0-1.563-.364,3.547,3.547,0,1,0,0,7.094,3.488,3.488,0,0,0,1.563-.368v7.243h7.153a3.546,3.546,0,0,1,6.543,0h7.149V627.739h-7.074a3.549,3.549,0,0,0-3.35-4.721" transform="translate(-1773.197 -535.455)" fill="#708cd5"/>
            <path id="Trazado_161203" data-name="Trazado 161203" d="M1462.658,386.54V381.9h-2.215a10.743,10.743,0,0,0-1.523-3.605l1.587-1.587-3.282-3.282-1.627,1.627a10.74,10.74,0,0,0-3.566-1.422v-2.355h-4.641v2.436a10.748,10.748,0,0,0-3.426,1.482l-1.767-1.767-3.282,3.282,1.806,1.806a10.73,10.73,0,0,0-1.383,3.387h-2.574v4.642h2.574a10.726,10.726,0,0,0,1.383,3.387l-1.806,1.806,3.282,3.282,1.767-1.767a10.751,10.751,0,0,0,3.426,1.481v2.436h4.641v-2.355a10.738,10.738,0,0,0,3.566-1.422l1.627,1.627,3.282-3.282-1.587-1.587a10.744,10.744,0,0,0,1.523-3.606Z" transform="translate(-1234.835 -319.092)" fill="#f0f0f0"/>
            <path id="Trazado_161204" data-name="Trazado 161204" d="M1491.823,419.087a7.245,7.245,0,1,1-7.245-7.245,7.245,7.245,0,0,1,7.245,7.245" transform="translate(-1269.702 -353.96)" fill="#fff"/>
            <path id="Trazado_161205" data-name="Trazado 161205" d="M1679.784,342.524l1.043-3.2-1.525-.5a7.776,7.776,0,0,0-.239-2.825l1.45-.736-1.522-3-1.485.754a7.78,7.78,0,0,0-2.136-1.781l.529-1.621-3.2-1.043-.547,1.677a7.782,7.782,0,0,0-2.692.25l-.82-1.614-3,1.522.837,1.649a7.781,7.781,0,0,0-1.713,2.021l-1.772-.579-1.043,3.2,1.772.578a7.776,7.776,0,0,0,.191,2.643l-1.65.838,1.522,3,1.614-.819a7.782,7.782,0,0,0,2.026,1.79l-.547,1.677,3.2,1.043.529-1.621a7.779,7.779,0,0,0,2.775-.178l.754,1.485,3-1.522-.736-1.45a7.776,7.776,0,0,0,1.859-2.14Z" transform="translate(-1428.377 -282.401)" fill="#f0f0f0"/>
            <path id="Trazado_161206" data-name="Trazado 161206" d="M1701.983,365.248a5.247,5.247,0,1,1-3.36-6.616,5.247,5.247,0,0,1,3.36,6.616" transform="translate(-1453.98 -308.004)" fill="#fff"/>
            <path id="Trazado_161207" data-name="Trazado 161207" d="M619.339,376l2.341-3.2-1.525-1.117a9.169,9.169,0,0,0,.77-3.251l1.893-.292-.6-3.915-1.94.3a9.16,9.16,0,0,0-1.738-2.778l1.187-1.621-3.2-2.341-1.229,1.677a9.172,9.172,0,0,0-3.106-.707l-.326-2.108-3.915.6.333,2.154a9.163,9.163,0,0,0-2.66,1.635l-1.773-1.3-2.341,3.2,1.773,1.3a9.171,9.171,0,0,0-.756,3.029l-2.154.333.6,3.915,2.108-.326a9.175,9.175,0,0,0,1.612,2.748l-1.229,1.678,3.2,2.341,1.188-1.621a9.168,9.168,0,0,0,3.173.819l.3,1.94,3.915-.6-.293-1.893a9.167,9.167,0,0,0,2.867-1.715Z" transform="translate(-515.993 -306.527)" fill="#f0f0f0"/>
            <path id="Trazado_161208" data-name="Trazado 161208" d="M647.4,402.341a6.183,6.183,0,1,1-1.335-8.642,6.183,6.183,0,0,1,1.335,8.642" transform="translate(-546.807 -337.34)" fill="#fff"/>
            <path id="Trazado_161209" data-name="Trazado 161209" d="M460.493,350.128l2.33-1.674-.8-1.112a6.64,6.64,0,0,0,1.26-2.065l1.369.224.463-2.831-1.4-.23a6.636,6.636,0,0,0-.573-2.3l1.182-.85-1.674-2.33-1.223.879a6.639,6.639,0,0,0-1.98-1.185l.25-1.524-2.831-.463-.255,1.558a6.64,6.64,0,0,0-2.2.528l-.929-1.292-2.33,1.674.929,1.292a6.637,6.637,0,0,0-1.2,1.916l-1.558-.255-.464,2.831,1.524.249a6.644,6.644,0,0,0,.492,2.254l-1.223.879,1.674,2.33,1.182-.849a6.642,6.642,0,0,0,2,1.277l-.23,1.4,2.831.464.224-1.369a6.644,6.644,0,0,0,2.359-.536Z" transform="translate(-385.773 -287.628)" fill="#f0f0f0"/>
            <path id="Trazado_161210" data-name="Trazado 161210" d="M481.926,368.753a4.478,4.478,0,1,1,1.023-6.25,4.478,4.478,0,0,1-1.023,6.25" transform="translate(-408.099 -309.952)" fill="#fff"/>
            <path id="Trazado_161211" data-name="Trazado 161211" d="M944.657,369.451q-.013,1.894-.025,3.789h-49.5q.006-11.139.012-22.279a1.449,1.449,0,0,1,1.129-.248q4.2-.01,8.406,0,19.3,0,38.6,0c.456,0,.943-.109,1.342.24l0-.007c.126.138.082.309.082.467q0,8.846,0,17.692a.908.908,0,0,1-.043.344" transform="translate(-769.328 -301.409)" fill="#b63334"/>
            <path id="Trazado_161212" data-name="Trazado 161212" d="M944.62,49.544l-49.474.007c0-1.4-.012-2.8-.012-4.2q0-22.213,0-44.426c0-.9,0-.9.914-.9q18.425,0,36.85.005c.264,0,.567-.118.788.146a8.639,8.639,0,0,1,.093,1.6q0,4.1,0,8.191c0,.861.051.91.912.912q4.095.008,8.189,0a8.63,8.63,0,0,1,1.6.093c.216.149.15.377.15.578q0,18.964-.006,37.927c0,.023,0,.047,0,.07" transform="translate(-769.327 0.001)" fill="#e2e3d6"/>
            <path id="Trazado_161213" data-name="Trazado 161213" d="M1179.341,12.021c-.184.214-.434.13-.656.13-3.192.005-6.384,0-9.575.012-.476,0-.713-.066-.709-.636.025-3.262.012-6.525.014-9.787,0-.181-.046-.379.132-.517q4.819,4.84,9.639,9.678c.379.38.771.747,1.156,1.12" transform="translate(-1004.188 -1.052)" fill="#cfcdbb"/>
            <path id="Trazado_161214" data-name="Trazado 161214" d="M1247.246,370.974c-.01-1.845-.026-3.69-.029-5.536q-.011-6.484-.012-12.969c.234.172.148.425.148.646q.007,8.629,0,17.258c0,.2.054.423-.109.6" transform="translate(-1071.917 -302.932)" fill="#e2e3d6"/>
            <path id="Trazado_161215" data-name="Trazado 161215" d="M1035.945,386.281c0-1.915-.005-3.83,0-5.744,0-1.175.437-1.573,1.594-1.629a8,8,0,0,1,5.934,1.989,7.47,7.47,0,0,1,.869,9.906,7.829,7.829,0,0,1-6.973,2.958c-.978-.054-1.415-.513-1.422-1.525-.014-1.985,0-3.97,0-5.954" transform="translate(-890.345 -325.643)" fill="#fefefe"/>
            <path id="Trazado_161216" data-name="Trazado 161216" d="M939.033,386.338c0-1.939,0-3.877,0-5.816,0-1.139.484-1.572,1.642-1.545,1.214.028,2.43-.021,3.641.047a4.916,4.916,0,0,1,4.64,4.876,4.966,4.966,0,0,1-4.731,4.948c-.7.034-1.4.039-2.1.011-.444-.018-.617.1-.6.575.037.956.021,1.915.008,2.873s-.458,1.475-1.216,1.49c-.793.016-1.269-.527-1.274-1.5-.01-1.985,0-3.971,0-5.956Z" transform="translate(-807.056 -325.713)" fill="#fefefe"/>
            <path id="Trazado_161217" data-name="Trazado 161217" d="M1132.73,386.247q0-2.942,0-5.885a1.331,1.331,0,0,1,1.448-1.487q3.326.013,6.653.023a6.1,6.1,0,0,1,.7.026,1.228,1.228,0,0,1,1.125,1.212,1.206,1.206,0,0,1-1.149,1.191c-1.049.039-2.1.021-3.151.023-.864,0-1.729.026-2.591-.01-.449-.019-.552.143-.539.559.029.887.034,1.776,0,2.662-.019.455.153.539.564.535,1.774-.02,3.548-.008,5.323-.009a1.458,1.458,0,0,1,1.112.314,1.149,1.149,0,0,1,.362,1.266,1.12,1.12,0,0,1-1.078.848c-1.143.023-2.288.02-3.431.024-.771,0-1.542.027-2.311-.009-.448-.021-.547.144-.539.561.024,1.331.011,2.662.008,3.993,0,1.061-.419,1.617-1.213,1.629-.822.013-1.271-.559-1.274-1.651-.006-1.938,0-3.877,0-5.815h-.013" transform="translate(-973.53 -325.626)" fill="#fefefe"/>
            <path id="Trazado_161218" data-name="Trazado 161218" d="M989.839,83.307a25.992,25.992,0,0,1-.814,5.1,1.885,1.885,0,0,0,.193,1.452,41.741,41.741,0,0,0,5.418,7.978,1.255,1.255,0,0,0,1.327.453,15.291,15.291,0,0,1,4.387-.245,5.932,5.932,0,0,1,.687.12c2.024.5,2.569,1.851,1.454,3.606a3.4,3.4,0,0,1-4.16,1.4,9.063,9.063,0,0,1-3.346-2.118,1.155,1.155,0,0,0-1.19-.3,65.577,65.577,0,0,0-9.725,3.086,1.419,1.419,0,0,0-.785.733A27,27,0,0,1,980,110.019a6.441,6.441,0,0,1-1.318,1.247,2.148,2.148,0,0,1-2.424.275,2.9,2.9,0,0,1-1.614-2.46,3.746,3.746,0,0,1,1.395-2.87,17.67,17.67,0,0,1,5.1-3.277,2.33,2.33,0,0,0,1.254-1.288,86.055,86.055,0,0,0,4.109-11.6,1.777,1.777,0,0,0-.081-1.278,16.261,16.261,0,0,1-1.565-5.345,4.825,4.825,0,0,1,.286-2.129,2.46,2.46,0,0,1,2.653-1.64c.733.046,1.594.98,1.885,2.053a5.147,5.147,0,0,1,.16,1.6" transform="translate(-837.659 -68.455)" fill="#b63334"/>
            <path id="Trazado_161219" data-name="Trazado 161219" d="M1053.668,401.73c0-1.473.013-2.945-.008-4.418-.006-.41.1-.488.511-.443a4.922,4.922,0,0,1,4.423,4.941,4.99,4.99,0,0,1-4.5,4.89c-.465.042-.425-.193-.424-.483q0-2.244,0-4.488" transform="translate(-905.573 -341.082)" fill="#b63334"/>
            <path id="Trazado_161220" data-name="Trazado 161220" d="M956.918,398.935c0-.677.018-1.354-.007-2.03-.014-.374.12-.485.482-.471.652.026,1.308-.016,1.96.016a2.468,2.468,0,0,1,2.476,2.364,2.415,2.415,0,0,1-2.321,2.561c-.717.067-1.445.017-2.167.047-.351.014-.436-.135-.428-.455.018-.676.005-1.354.005-2.031" transform="translate(-822.422 -340.716)" fill="#b63334"/>
            <path id="Trazado_161221" data-name="Trazado 161221" d="M1046.852,177.678a91.072,91.072,0,0,0,3.284-9.209,44.8,44.8,0,0,0,4.72,6.748,70.223,70.223,0,0,0-8,2.461" transform="translate(-899.723 -144.791)" fill="#e2e3d6"/>
            <path id="Trazado_161222" data-name="Trazado 161222" d="M992.7,266.509a12.878,12.878,0,0,1-2.36,3.26c-.2.18-.383.553-.747.265a.757.757,0,0,1-.238-1.048,6.534,6.534,0,0,1,2.039-1.97c.356-.258.753-.458,1.132-.684.137-.019.211.024.173.177" transform="translate(-850.206 -228.897)" fill="#e2e2d5"/>
            <path id="Trazado_161223" data-name="Trazado 161223" d="M1060.681,99.68a2.686,2.686,0,0,1-.423-3.425c.28-.44.453-.269.605.072a3.929,3.929,0,0,1-.182,3.353" transform="translate(-910.873 -82.5)" fill="#e2e1d5"/>
            <path id="Trazado_161224" data-name="Trazado 161224" d="M1136.135,224.772a10.333,10.333,0,0,1,3.172-.1c.474.049.433.307.208.615a1.81,1.81,0,0,1-2.168.384c-.392-.234-.738-.546-1.211-.9" transform="translate(-976.457 -193.032)" fill="#e2e1d4"/>
            <path id="Trazado_161225" data-name="Trazado 161225" d="M1012.823,265.217l-.173-.177c.08-.123.258-.266.323-.2.147.153-.041.269-.15.375" transform="translate(-870.327 -227.605)" fill="#d4a8a0"/>
          </g>
        </g>
      </g>
    </g>
  </g>
</svg>
