<svg id="Grupo_144162" data-name="Grupo 144162" xmlns="http://www.w3.org/2000/svg" xmlns:xlink="http://www.w3.org/1999/xlink" width="223.42" height="200.731" viewBox="0 0 223.42 200.731">
  <defs>
    <clipPath id="clip-path">
      <rect id="Rectángulo_39677" data-name="Rectángulo 39677" width="223.42" height="200.731" fill="none"/>
    </clipPath>
  </defs>
  <g id="Grupo_144161" data-name="Grupo 144161" clip-path="url(#clip-path)">
    <path id="Trazado_160986" data-name="Trazado 160986" d="M0,136.772H.436c1.227-.162,1.521.835,2.017,1.6,3.73,5.788,6.954,11.877,10.373,17.842,2.731,4.765,5.8,9.348,8.188,14.319a73.344,73.344,0,0,1-.062,11.5c-.923,1.535-1.452.482-1.977-.326-2.053-3.159-3.865-6.46-5.741-9.725C9.516,165.514,5.887,158.994,2.01,152.62c-.8-1.307-.987-2.889-2.01-4.07Z" transform="translate(0 -76.957)" fill="#f6f8fe"/>
    <path id="Trazado_160987" data-name="Trazado 160987" d="M0,163.733a1.177,1.177,0,0,1,1.1.575c3.355,7.167,7.747,13.747,11.583,20.638,2.331,4.188,4.855,8.265,7.13,12.483.1.191.5.224.756.331a2.475,2.475,0,0,1,.572,1.813,91.352,91.352,0,0,1-.157,10.154c-1.254,1.7-1.851.392-2.429-.585-1.914-3.234-3.8-6.486-5.7-9.732-3.241-5.55-6.387-11.154-9.6-16.719a36.93,36.93,0,0,0-2.387-4.126C.564,175.513.7,172.419,0,169.4Z" transform="translate(0 -92.139)" fill="#f7f9fe"/>
    <path id="Trazado_160988" data-name="Trazado 160988" d="M332.811,29.984c10.011,4.571,17.857,11.739,24.32,20.493,9.389,12.716,14.807,27.078,17.556,42.567a100.623,100.623,0,0,1,1.6,23.114,82.56,82.56,0,0,1-7.058,28.915A75.344,75.344,0,0,1,358.442,163.1a8.918,8.918,0,0,1-2.646,2.524c-.749-.853-.556-1.9-.592-2.9-.1-2.742.189-5.493-.282-8.226-.663-3.847-2.592-5.6-6.448-5.619-5.928-.024-11.858-.09-17.783.056a3.181,3.181,0,0,1-2.425-1.969c-5.451-9.5-10.989-18.942-16.39-28.466-1.215-2.143-2.576-4.2-3.71-6.388-.077-.7.466-1.014.871-1.413,6.729-6.629,13.311-13.409,20.089-19.986,2.339-2.27,4.1-4.515,2.823-7.96a4.766,4.766,0,0,1,1.15-1.822c2.056-2.773,2.073-5.2-.037-7.983a38.667,38.667,0,0,0-5.151-5.322c-7.911-7.092-15.093-14.92-22.7-22.312-.313-.3-.614-.62-.928-.923-2.769-2.666-6.06-2.814-8.994-.338-1.556,1.313-2.916,2.839-4.358,4.275-3.5,3.488-6.982,7-10.5,10.475-.642.634-1.174,1.551-2.324,1.358A70.88,70.88,0,0,1,271.873,49.5a1.17,1.17,0,0,1,.837-.9c1.571-.28,2.5-1.415,3.5-2.471,3.513-2.3,6.519-5.228,9.691-7.944,5.739-4.913,11.612-9.6,19.075-11.667a34.273,34.273,0,0,1,23,1.767c.074,1.285-1.064,1.777-1.711,2.582-.73.908-1.3,1.9-.313,2.852s1.847.162,2.6-.543c.838-.783,1.6-1.652,2.458-2.408.5-.436.909-1.194,1.8-.786" transform="translate(-152.994 -14.233)" fill="#c8e6f9"/>
    <path id="Trazado_160989" data-name="Trazado 160989" d="M150.638,53.968q7.917-7.771,15.83-15.545c3.829-3.776,7.331-3.809,11.123-.055Q190.9,51.544,204.2,64.727c4.483,4.446,4.593,7.126.526,11.914a7.913,7.913,0,0,1-1.64,2.278c-7.767,7.746-15.354,15.682-23.315,23.223-13.03,12.343-25.421,25.321-38.227,37.884-.4.392-.936.7-1.066,1.344a4.7,4.7,0,0,0,2.146.16q22.012.031,44.023.016a22.912,22.912,0,0,1,3.049.077,2.516,2.516,0,0,1,.673.216,2.637,2.637,0,0,1,1.269,1.7,2.546,2.546,0,0,1-1.475,2.841,2.987,2.987,0,0,1-.78.2c-10.313.13-20.626.021-30.937.063a10.768,10.768,0,0,0-3.033.192,6.2,6.2,0,0,1-.819.2c-8.892.276-17.787.067-26.681.118-2.674.016-5.35.083-8.025-.048-.284,0-.568-.005-.851,0q-17.319.144-34.638,0c-9,.112-17.995.019-26.992.05-1.016,0-2.032-.024-3.047.014-2.488.1-2.893.449-2.9,2.99q-.058,18.722,0,37.444c.007,2.612.484,3.051,3.307,3.072,9.723.073,19.446-.043,29.17.056,11.76-.06,23.518-.113,35.277.019q17.882-.168,35.763-.009,17.437-.15,34.875-.007c10.1.078,20.2.016,30.3.038a2.955,2.955,0,0,0,1.85-.5c.886-.674.8-1.669.8-2.592q.033-18.809,0-37.618c-.007-2.484-.426-2.873-2.962-2.9-4.711-.057-9.423.01-14.134-.031-1.909-.017-3.638-.383-4.373-2.485-.14-1.035-.146-2,1.208-2.22a7.35,7.35,0,0,1,1.671-.4c5.888-.027,11.777-.082,17.663.015A6.215,6.215,0,0,1,228,148.2c.212,3.765.174,7.544.244,11.318l.009,0a5.505,5.505,0,0,0-.174,2.357q-.021,13.137-.014,26.275a8.273,8.273,0,0,1-.116,2.374,9.467,9.467,0,0,1-1.888,3.434,3.77,3.77,0,0,1-2.84,2.143,16.758,16.758,0,0,1-4.548.374q-81.552,0-163.1,0a16.758,16.758,0,0,1-4.548-.374,3.768,3.768,0,0,1-2.84-2.143,8.666,8.666,0,0,1-2.048-6.208c.042-12.531.021-25.063.011-37.6,0-.791-.083-1.583-.128-2.375a3.369,3.369,0,0,1-.767-2.635q-.035-8.048,0-16.1a3.288,3.288,0,0,1,.766-2.631,119.91,119.91,0,0,0,0-12.662,120.408,120.408,0,0,0,0-12.639c-1.309-2.972-.6-6.105-.737-9.171-.01-4.226-.084-8.451.007-12.677-.072-7.541-.064-15.082-.018-22.622-.023-6.911-.044-13.822-.011-20.732.1-3.9-.088-7.795.065-11.687.123-3.133.446-6.259,3.453-8.216a9.824,9.824,0,0,1,5.591-1.5c3.482-.014,6.965-.052,10.448.016,4.192-.093,8.383-.083,12.575,0,4.771-.133,9.542-.035,14.313-.052a4.316,4.316,0,0,1,2.669.737,7.359,7.359,0,0,1,6.1,6.5c1.139,2.478.6,5.112.686,7.683.053,1.512.071,3.029-.014,4.543.024,6.819.1,13.637-.024,20.455.094,5.525.073,11.05.032,16.575-.014,6.035.1,12.07-.034,18.1a37.567,37.567,0,0,1-.069,4.349c-.216,1.7-.881,3.079-2.809,3.386-1.912-.038-2.646-1.223-2.743-2.925-.114-2.007-.091-4.018-.011-6.027-.153-11.555-.113-23.109-.031-34.663.07-9.884.014-19.767.039-29.651a3.59,3.59,0,0,0-.45-1.878c-.9-1.523-2.439-1.42-3.872-1.428-7.409-.042-14.818-.017-22.227-.018-4.576,0-9.153-.031-13.728.013-3.394.032-3.775.423-3.782,3.763q-.024,11.767.008,23.534c.007,1.818-.162,3.624-.193,5.437a87.458,87.458,0,0,1,.182,10c0,8.123.1,16.247-.045,24.371,0,.282-.006.564,0,.847.1,11.379.068,22.758.028,34.133-.181,5.652,0,11.311-.1,16.967-.03,1.712.66,2.414,2.325,2.24a1.64,1.64,0,0,1,.434,0c5.349.9,9.32-1.035,12.872-5.171,4.1-4.773,8.818-9.019,13.311-13.448Q89.345,114.5,98,105.655c2.809-2.748,5.607-5.509,8.251-8.42,2.248-1.8,4.117-4,6.182-6,2.066-2.018,4.1-4.07,6.123-6.129,2.528-2.441,4.965-4.971,7.355-7.548C129.1,74.939,131.7,71.707,134.8,69a74.782,74.782,0,0,0,7.683-7.506c2.174-1.867,4.072-4.017,6.143-5.99.611-.582,1.1-1.341,2.009-1.539" transform="translate(-25.441 -8.129)" fill="#014073"/>
    <path id="Trazado_160990" data-name="Trazado 160990" d="M51.972,424.973a9.26,9.26,0,0,0,5.9,1.784q83.045-.048,166.089,0a9.283,9.283,0,0,0,5.9-1.784,20.649,20.649,0,0,1-.319,4.752c-.506,2.3-2.06,3.2-4.122,3.567a11.41,11.41,0,0,1-1.958.024l-99.556.027a6.6,6.6,0,0,1-3.13.683c-4.75-.02-9.5.06-14.251-.045-3.516.084-7.031.042-10.547.007-3.464.086-6.927.016-10.39.033a4.728,4.728,0,0,1-2.686-.682c-8.112-.008-16.228-.142-24.337.023-5.048.1-6.613-2.06-6.608-6.652,0-.579.015-1.159.023-1.738" transform="translate(-29.234 -239.149)" fill="#b9e0f7"/>
    <path id="Trazado_160991" data-name="Trazado 160991" d="M206.243,78.687a90.431,90.431,0,0,1-8.91,8.638c-2.125-2.164-3.073-5.058-4.659-7.56-2.675-4.221-5.032-8.636-7.506-12.979-3.621-6.356-7.415-12.612-10.914-19.039-.829-1.523-1.821-2.961-2.652-4.489q-.007-6.108-.013-12.215Q175,36.06,178.4,41.076a33.489,33.489,0,0,0,15.014,12.648,4.159,4.159,0,0,0,.724,3.28c3.987,6.529,7.647,13.248,11.5,19.855a3.63,3.63,0,0,1,.606,1.828" transform="translate(-96.561 -17.47)" fill="#d6e9fc"/>
    <path id="Trazado_160992" data-name="Trazado 160992" d="M21.641,229.51c.218,7.121.233,14.243,0,21.364a2.423,2.423,0,0,1-2.122-1.639c-1.65-3.8-4.3-7.041-6.093-10.734-2.288-4.709-5.275-9-6.9-14.142-2.364-7.5-3.173-15.162-4.154-22.848a14.339,14.339,0,0,1-.434-3.858,3.617,3.617,0,0,1,1.987,2.08c1.7,3.366,3.584,6.642,5.459,9.918,2.436,4.254,4.939,8.47,7.4,12.712,1.218,2.1,2.37,4.241,3.624,6.32.232.384.813.557,1.233.827" transform="translate(-1.067 -111.228)" fill="#fafbfe"/>
    <path id="Trazado_160993" data-name="Trazado 160993" d="M23.384,82.792q.323,11.344,0,22.688c-1.29.381-1.817-.5-2.316-1.41-4.022-7.338-8.168-14.6-12.552-21.733-1.164-1.894-1.869-4.07-3.523-5.662C6.356,71.8,7.184,66.767,9.226,62.089c.167-.382.375-.746.564-1.118A2.323,2.323,0,0,1,11.4,62.3c3.259,5.767,6.65,11.458,9.93,17.213.641,1.126,1.359,2.191,2.052,3.277" transform="translate(-2.81 -34.311)" fill="#eff4fe"/>
    <path id="Trazado_160994" data-name="Trazado 160994" d="M233.07,107.876c-3.026-5.051-6.178-10.024-8.872-15.273-1.153-2.245-2.753-4.258-3.939-6.49-.486-.915-1.969-2.143-.019-3.2,4.143,1.1,8.294,2.147,12.645,1.753,2.616,4.486,5.422,8.865,7.725,13.528.3.618.663,1.329.122,2.042a86.53,86.53,0,0,1-7.662,7.639" transform="translate(-123.387 -46.658)" fill="#d1e8fb"/>
    <path id="Trazado_160995" data-name="Trazado 160995" d="M3.516,96.885c2.549-.037,2.529,2.528,3.183,3.822,1.295,2.564,3.095,4.781,4.371,7.346,2.723,5.476,6.366,10.457,8.958,16.013a3.378,3.378,0,0,0,1.878,1.625,122.1,122.1,0,0,1,0,12.652c-1.1.3-1.606-.532-2.041-1.225-3.074-4.9-5.687-10.072-8.676-15.021-1.9-3.149-3.754-6.324-5.618-9.493-.951-1.617-1.62-3.378-2.651-4.967a2.891,2.891,0,0,1-.281-2.9c-.129-2.664.706-5.221.875-7.852" transform="translate(-1.333 -54.521)" fill="#f3f7fe"/>
    <path id="Trazado_160996" data-name="Trazado 160996" d="M29.557,69.316c-1.361-.714-1.948-1.979-2.647-3.283-1.931-3.608-4.049-7.118-6.136-10.641-1.57-2.652-3.206-5.266-4.812-7.9a31.3,31.3,0,0,1,5.668-10.472c1.669.1,2.271,1.612,2.757,2.67a80.65,80.65,0,0,0,5.17,8.683q.323,10.469,0,20.939" transform="translate(-8.983 -20.834)" fill="#ecf2fe"/>
    <path id="Trazado_160997" data-name="Trazado 160997" d="M1.865,114.844a4.694,4.694,0,0,0,.787,2.873c2.261,4.124,4.524,8.261,6.935,12.284,1.8,3,3.587,6.049,5.495,9,1.48,2.292,2.59,4.889,4.011,7.276a5.049,5.049,0,0,0,2.038,2.168,62.8,62.8,0,0,1,0,9.16,76.5,76.5,0,0,1-7.541-12.494c-1.012-2.047-2.643-3.795-3.605-5.859-2.128-4.565-5.219-8.558-7.455-13.047a3.42,3.42,0,0,0-1.536-1.767,36.622,36.622,0,0,1,.872-9.6" transform="translate(-0.556 -64.627)" fill="#f3f7fe"/>
    <path id="Trazado_160998" data-name="Trazado 160998" d="M258.266,99.166c-1.252-4.457-4.281-7.979-6.364-12a15.414,15.414,0,0,1-1.482-3.571l4.413-.9c.324-.058.525.135.74.336,1.742,1.631,2.4,1.465,3.37-.769.216-.5.065-1.407,1.084-1.227a71.2,71.2,0,0,1,6.092,10.393,87.681,87.681,0,0,1-7.853,7.739" transform="translate(-140.921 -45.588)" fill="#cce7fa"/>
    <path id="Trazado_160999" data-name="Trazado 160999" d="M209.476,17.3a2.14,2.14,0,0,1-1.868,2.079c-1.735.213-2.773.99-2.968,2.84a2.159,2.159,0,0,1-4.305-.028,2.846,2.846,0,0,0-2.794-2.777,2,2,0,0,1-1.985-2.145,2.055,2.055,0,0,1,2.012-2.158,2.81,2.81,0,0,0,2.77-2.775,2.162,2.162,0,0,1,4.314.027,2.769,2.769,0,0,0,2.776,2.746,2.237,2.237,0,0,1,2.048,2.192" transform="translate(-110.048 -5.813)" fill="#2a719b"/>
    <path id="Trazado_161000" data-name="Trazado 161000" d="M259.933,68.04c-.436.245-.444.691-.528,1.106-.247,1.23-.606,2.44-2.081,2.627-1.5.19-2.055-.965-2.586-2.072.125-1.612-.729-2.39-2.228-2.632-1.232-.2-2.238-.644-2.257-2.137a2.05,2.05,0,0,1,2.071-2.269,2.975,2.975,0,0,0,2.635-2.743c.213-1.191.816-2.01,2.145-2s1.9.861,2.114,2.04a3.023,3.023,0,0,0,2.878,2.746,2.309,2.309,0,0,1,1.947,1.784,2.466,2.466,0,0,1-2.524,2.609,1.876,1.876,0,0,0-1.586.941" transform="translate(-140.827 -32.593)" fill="#fe7eb7"/>
    <path id="Trazado_161001" data-name="Trazado 161001" d="M36.851,34.334c-2.618-1.764-3.7-4.677-5.07-7.269a26.209,26.209,0,0,0-2.857-4.084A30.128,30.128,0,0,1,40.268,12.07a3.118,3.118,0,0,1-.452,3.007,7.936,7.936,0,0,0-2.859,6.694c.05,4.187-.063,8.375-.107,12.563" transform="translate(-16.277 -6.792)" fill="#e8f0fd"/>
    <path id="Trazado_161002" data-name="Trazado 161002" d="M98.32,7.053c-4.217.182-8.434.2-12.651,0-1.416-1.377-1.885-3.32-2.924-4.924-.363-.56-.475-1.218.305-1.636C87.509-.384,92.015.2,96.5.078c.315-.009.638.262.958.4-1.043.577-1.289,1.183-.583,2.357.756,1.259,2.212,2.4,1.447,4.216" transform="translate(-46.407 0)" fill="#dfebfd"/>
    <path id="Trazado_161003" data-name="Trazado 161003" d="M115.063,7.672c-.085-1.739-1.346-2.945-2.077-4.374-1.12-2.188-1.249-2.121,1.213-2.2a30.846,30.846,0,0,1,16.539,5.216,3.16,3.16,0,0,1,1.34,1.375l-17.015-.018" transform="translate(-63.149 -0.619)" fill="#dbeafc"/>
    <path id="Trazado_161004" data-name="Trazado 161004" d="M66.939,1.13c-.385,1.955,1.471,3,1.92,4.652.167.612.777,1.143.7,1.908-3.514.039-7.029.122-10.543.1a10.549,10.549,0,0,0-5.179,1.134c.053-1.017-.143-2.071.452-3.007A32.133,32.133,0,0,1,66.939,1.13" transform="translate(-30.296 -0.636)" fill="#e2edfd"/>
    <path id="Trazado_161005" data-name="Trazado 161005" d="M152.651,444.106h10.47a4.021,4.021,0,0,1,1.839,2.084,6.837,6.837,0,0,0,2.957,3.577c-2.981,1.076-6.084.857-9.166.872-.871,0-1.742,0-2.613,0-1.61-1.938-3.116-3.932-3.488-6.532" transform="translate(-85.903 -249.916)" fill="#f7f9fe"/>
    <path id="Trazado_161006" data-name="Trazado 161006" d="M135.808,444.107c1.067,2.228,2.78,4.112,3.488,6.532a32.34,32.34,0,0,1-11.344-2.882c-1.956-.914-4.245-1.346-5.231-3.649h13.088" transform="translate(-69.059 -249.917)" fill="#f9fafe"/>
    <path id="Trazado_161007" data-name="Trazado 161007" d="M181.39,449.766a2.932,2.932,0,0,1-3.032-2.549c-.213-1.276-1.64-1.816-1.764-3.112l17.447,0a25.617,25.617,0,0,1-12.65,5.656" transform="translate(-99.377 -249.916)" fill="#f3f7fe"/>
    <path id="Trazado_161008" data-name="Trazado 161008" d="M400.866,31.07c-1.36,1.287-2.741,2.554-4.073,3.868-1,.983-2.114,1.46-3.223.4-1.132-1.077-.926-2.323.112-3.439l2.352-2.532c.38-.32.782-.617,1.135-.964.978-.962,2.013-1.7,3.374-.729,1.38.983.986,2.187.323,3.391" transform="translate(-221.048 -15.319)" fill="#fe7fb8"/>
    <path id="Trazado_161009" data-name="Trazado 161009" d="M463.127,377.217q.027-14.333.063-28.666a4.376,4.376,0,0,1,.242-2.34q.044,14.905.087,29.81a1.441,1.441,0,0,1-.391,1.2" transform="translate(-260.62 -194.827)" fill="#c8e6f9"/>
    <path id="Trazado_161010" data-name="Trazado 161010" d="M310.916,222.064H260.359c-.321-.74.289-.971.606-1.286q32.118-31.874,64.258-63.725a3.752,3.752,0,0,1,.524-.369c1.465,3.121.265,5.37-2.051,7.614-6.5,6.3-12.827,12.764-19.234,19.153-.866.863-1.8,1.662-2.7,2.49-.505,1.737-2.045,2.579-3.222,3.735-1.346,1.289-2.65,2.62-3.955,3.951-1.908,1.866-3.784,3.763-5.658,5.663-1.923,1.878-3.817,3.787-5.7,5.708-2.546,2.532-5.114,5.042-7.588,7.646-2.684,2.73-5.429,5.4-8.436,8.5,5.327-.033,10.17.052,15.021-.079,3.75-.035,7.5-.076,11.242.007,2.757-.089,5.513-.043,8.27-.012,2.284-.075,4.569-.062,6.851.005.857.025,1.93-.209,2.323,1" transform="translate(-146.464 -88.172)" fill="#b9e0f7"/>
    <path id="Trazado_161011" data-name="Trazado 161011" d="M347.2,227.086l3.487-3.492c2.449,2.609,3.7,5.961,5.56,8.94,3.242,5.2,6.07,10.648,9.283,15.875,1.882,3.06,3.517,6.3,5.333,9.418.469.806,1.071,1.535,1.612,2.3a1.944,1.944,0,0,0-.823,1.859c-3.083,1.263-6.256.644-9.4.419-.676-.048-.838-.723-1.015-1.282l-.965-1.275a172.221,172.221,0,0,0-8.84-15.21c-.028-1.446,1.242-2.013,2-2.921.461-.551,1.024-1.015,1.505-1.552a2.11,2.11,0,0,0,.648-2.352c-.377-.872-1.187-.954-2.014-.93a1.431,1.431,0,0,1-.83-.184c-1.635-2.6-2.916-5.415-4.826-7.848a2.962,2.962,0,0,1-.713-1.765" transform="translate(-195.384 -125.825)" fill="#cce7fa"/>
    <path id="Trazado_161012" data-name="Trazado 161012" d="M445.495,221.607c.087,1.04-.617,1.723-1.753,1.863a2.958,2.958,0,0,0-2.936,2.9,1.993,1.993,0,0,1-2.224,1.911,1.956,1.956,0,0,1-2.048-1.864,2.945,2.945,0,0,0-2.9-2.93,1.83,1.83,0,0,1-1.8-2.047,1.95,1.95,0,0,1,1.75-2.129,3.37,3.37,0,0,0,3.069-3.143,1.85,1.85,0,0,1,1.987-1.643,1.829,1.829,0,0,1,2.022,1.594,3.521,3.521,0,0,0,3.246,3.234c1.062.173,1.574.955,1.589,2.258" transform="translate(-243.008 -120.72)" fill="#fe7eb7"/>
    <path id="Trazado_161013" data-name="Trazado 161013" d="M330.33,315.438a2.344,2.344,0,0,1,.405-.05c.094.1.188.21.283.314a7.261,7.261,0,0,1,.316,3.209q.02,18.779.017,37.558c0,.981-.277,2.061.687,2.817a6.8,6.8,0,0,0,3.011.324c8.207.01,16.414-.006,24.622.017,1.137,0,2.35-.209,3.32.679-.488.6-1.174.48-1.814.479q-32.851-.054-65.7-.119c-.855-.781-.781-1.833-.783-2.837q-.031-19.564,0-39.127a3.979,3.979,0,0,1,.7-2.884h0a4.714,4.714,0,0,1,2.349-.2q15.113-.024,30.226-.018a5.933,5.933,0,0,0,2.365-.163" transform="translate(-165.827 -177.482)" fill="#73a9ce"/>
    <path id="Trazado_161014" data-name="Trazado 161014" d="M102.81,29.848c.477.47.357,1.078.356,1.644q-.049,32.542-.11,65.084a1.235,1.235,0,0,1-.787.275q-20.7.021-41.407,0c-1.075,0-2.2.175-3.129-.614q0-17.428.007-34.856c1.028-.948,2.315-.733,3.528-.735q18.425-.028,36.849-.012c.727,0,1.453-.018,2.18-.025,1.189-.012,1.688-.617,1.7-1.764.013-1.09.016-2.18.016-3.27,0-7.486-.014-14.972.017-22.458,0-1.129-.233-2.36.778-3.269" transform="translate(-32.489 -16.797)" fill="#73a9ce"/>
    <path id="Trazado_161015" data-name="Trazado 161015" d="M224.376,149.134l24.87-24.425a.966.966,0,0,1,1.011.172,7.428,7.428,0,0,1,1.136,1.014c9.259,9.436,19.077,18.306,28.256,27.822a5.87,5.87,0,0,1,1.851,2.375l-25.24,24.942c-1.067.2-1.555-.655-2.142-1.24q-14.281-14.238-28.518-28.519c-.582-.584-1.451-1.068-1.225-2.141" transform="translate(-126.245 -70.133)" fill="#73a9ce"/>
    <path id="Trazado_161016" data-name="Trazado 161016" d="M250,316.375q0,21.12,0,42.239c0,.87.052,1.739.08,2.609l-35.844.06a1.286,1.286,0,0,1-.218-.807c.063-13.586,0-27.172.037-40.757,0-1.139-.247-2.349.606-3.344H250" transform="translate(-120.44 -178.037)" fill="#2d719a"/>
    <path id="Trazado_161017" data-name="Trazado 161017" d="M191.85,180.673a12.651,12.651,0,0,0,.938,1.18q15.047,15.022,30.111,30.027c.255.254.556.464.836.694q-10.957,11.014-21.91,22.031c-1.5,1.515-3.39.9-5.149,1.013a7.541,7.541,0,0,1-2.244-1.7c-3.571-3.723-7.436-7.158-10.829-11.057a197.142,197.142,0,0,0-14.611-14.432,4.589,4.589,0,0,1-2.453-2.455c4.06-4.118,8.1-8.259,12.188-12.347,4.348-4.345,8.746-8.64,13.122-12.957" transform="translate(-93.719 -101.672)" fill="#2d719a"/>
    <path id="Trazado_161018" data-name="Trazado 161018" d="M168.656,360.859c0,.142,0,.284,0,.425l-35.4-.006a4.23,4.23,0,0,1-.236-1.921c.045-13.111,0-26.222.031-39.333,0-1.209-.231-2.481.565-3.576l35.028-.072a2.881,2.881,0,0,1,.206,1.7q.011,20.544,0,41.087a3.018,3.018,0,0,1-.2,1.7" transform="translate(-74.855 -178.038)" fill="#226190"/>
    <path id="Trazado_161019" data-name="Trazado 161019" d="M313.555,126.892c-5.427-5.339-10.832-10.7-16.289-16.012-5.295-5.152-10.642-10.25-15.967-15.372,1.651-1.721,3.27-3.474,4.958-5.158q8.17-8.153,16.383-16.262c1.824-1.8,2.736-1.8,4.571.014q13.772,13.637,27.522,27.3c1.815,1.8,1.87,2.71.2,4.371q-10.667,10.581-21.374,21.122" transform="translate(-158.299 -40.932)" fill="#b9e0f7"/>
    <path id="Trazado_161020" data-name="Trazado 161020" d="M102.714,182.295a2.662,2.662,0,0,0,.387,0c.028,1.926.11,3.853.07,5.777-.034,1.627.53,2.622,2.281,2.661a14.965,14.965,0,0,1-.064,9.541c-4.185,4.459-8.43,8.856-13.018,12.912-1.508,1.333-2.935,2.758-4.4,4.14a6.109,6.109,0,0,1-3.143.684c-8.039-.005-16.079,0-24.118-.011a4.045,4.045,0,0,1-2.886-.7q-.005-17.437-.01-34.874c.439-.366.967-.239,1.461-.239q21.183-.009,42.364,0a3.425,3.425,0,0,1,1.075.111" transform="translate(-32.534 -102.513)" fill="#2d719a"/>
    <path id="Trazado_161021" data-name="Trazado 161021" d="M102.632,27.878c-.025,9.666-.1,19.333-.029,29,.015,1.977-.488,2.56-2.518,2.549-14.173-.079-28.348-.025-42.522-.013Q57.493,48,57.426,36.579q-.018-3.375,0-6.751c.017-2.891.564-3.464,3.418-3.472,5.589-.017,11.179-.005,16.768-.005q10.888,0,21.776.007c1.3,0,2.693-.115,3.243,1.52" transform="translate(-32.311 -14.826)" fill="#b9e0f7"/>
    <path id="Trazado_161022" data-name="Trazado 161022" d="M409.4,356.95l-31.822.027a4.608,4.608,0,0,1-.206-2.353c-.026-14.17.014-28.34-.028-42.51a.167.167,0,0,0-.2-.083,2.9,2.9,0,0,0,.941-2.609,2.276,2.276,0,0,0,2.248.876c2.723-.038,5.446-.013,8.17-.013.523,1.665,1.749,2.1,3.367,2.091,5.075-.042,10.151-.021,15.227-.012,2.873,0,3.372.458,3.375,3.221q.02,19.251,0,38.5c0,1.077.113,2.222-1.075,2.864" transform="translate(-212.232 -174.124)" fill="#b9e0f7"/>
    <path id="Trazado_161023" data-name="Trazado 161023" d="M91.057,316.308q-.031,21.135-.07,42.27a4.721,4.721,0,0,1-.289,2.56q-14.925-.011-29.849-.024c-2.887,0-3.454-.552-3.457-3.424q-.016-19.064,0-38.129c0-2.972.464-3.428,3.4-3.43q14.162-.01,28.324.005c.647,0,1.293.112,1.94.172" transform="translate(-32.293 -177.897)" fill="#fefefe"/>
    <path id="Trazado_161024" data-name="Trazado 161024" d="M152.047,255.152q5.459,5.557,10.915,11.117c.6.616,1.161,1.275,1.74,1.915l-50.275-.028c-1.852-1.444-3.912-2.7-4.707-5.114a36.666,36.666,0,0,1,5.256-5.454c6.523-5.85,12.458-12.292,18.742-18.379a10.151,10.151,0,0,1,.847-.666l2.629,2.2c3.667,3.135,6.852,6.764,10.333,10.089a52.766,52.766,0,0,0,4.519,4.32" transform="translate(-61.744 -134.238)" fill="#226190"/>
    <path id="Trazado_161025" data-name="Trazado 161025" d="M171.618,58.979c1.683.849,2.226,2.636,3.04,4.074,4.233,7.477,8.659,14.844,12.871,22.327,3.133,5.568,6.548,10.974,9.51,16.638a5.654,5.654,0,0,1,.31,1.027,70.224,70.224,0,0,1-7.381,7.491c-2.042-1.477-2.625-3.918-3.83-5.931-2.558-4.272-4.924-8.668-7.5-12.925-2.428-4.021-4.464-8.26-7.025-12.2v-20.5" transform="translate(-96.576 -33.19)" fill="#dbeafc"/>
    <path id="Trazado_161026" data-name="Trazado 161026" d="M57.8,262.518l30.147.022q-9.118,9.2-18.228,18.4a2.738,2.738,0,0,1-2.166.764c-2.613-.024-5.23-.094-7.838.024-1.579.072-1.962-.533-1.945-2.007.068-5.734.029-11.468.031-17.2" transform="translate(-32.507 -147.729)" fill="#226190"/>
    <path id="Trazado_161027" data-name="Trazado 161027" d="M171.618,105.867c2,.5,2.119,2.575,2.924,3.91,1.5,2.494,2.846,5.1,4.377,7.6,1.749,2.856,3.13,5.942,4.945,8.752,2.251,3.486,4.1,7.181,6.105,10.793a64.972,64.972,0,0,1-6.124,6.084c-1.58-1.439-2.311-3.45-3.366-5.217-3.025-5.07-5.924-10.219-8.862-15.343q0-8.289,0-16.578" transform="translate(-96.576 -59.576)" fill="#deebfd"/>
    <path id="Trazado_161028" data-name="Trazado 161028" d="M339.141,253.983c2.512,1.645,3.269,4.532,4.718,6.9,1.083,1.768,2.038,3.628,3.191,5.37a4.276,4.276,0,0,1,.864,3.07l-.432-.13c-3.026-.867-6.127-.087-9.178-.418-2.068-1.742-2.834-4.333-4.1-6.563-1.961-3.46-4.157-6.788-5.96-10.33-.978-1.92-2.548-3.532-3-5.724a42.867,42.867,0,0,1,5.669-5.672c.212-.073.465-.1.6.07,2.237,2.88,4.45,5.777,5.437,9.382a3.275,3.275,0,0,1-.331,1c-.873,2-.46,2.7,1.693,2.9a2.11,2.11,0,0,1,.828.146" transform="translate(-183.03 -135.297)" fill="#d1e7fb"/>
    <path id="Trazado_161029" data-name="Trazado 161029" d="M171.617,143.781c2.127,1.818,3.142,4.424,4.567,6.708,2.076,3.329,3.653,6.957,5.924,10.194a23.32,23.32,0,0,1,1.737,3.659,47.922,47.922,0,0,1-6.14,5.969c-2.2-1.149-2.882-3.515-4.163-5.373a24.049,24.049,0,0,0-1.924-2.835V143.781" transform="translate(-96.576 -80.911)" fill="#e1ecfd"/>
    <path id="Trazado_161030" data-name="Trazado 161030" d="M168.643,185.682a2.212,2.212,0,0,1,1.964,1.508c.884,2.557,2.754,4.467,4.122,6.7a96.978,96.978,0,0,1-8.273,8.359,73.274,73.274,0,0,1,.064-9.541c1.646-.288,1.909-1.572,2-2.9.1-1.372.084-2.752.118-4.128" transform="translate(-93.601 -104.491)" fill="#e4eefd"/>
    <path id="Trazado_161031" data-name="Trazado 161031" d="M103.327,294.571c1.519,1.75,3.6,2.979,4.707,5.114H98.359l4.968-5.114" transform="translate(-55.351 -165.767)" fill="#f5f7f9"/>
    <path id="Trazado_161032" data-name="Trazado 161032" d="M102.669,181.956q-12.749.05-25.5.1-9.7.03-19.4.035c-.012-.158-.023-.316-.035-.474q21.208,0,42.416.02c.84,0,1.746-.293,2.519.321" transform="translate(-32.489 -102.174)" fill="#81aecb"/>
    <path id="Trazado_161033" data-name="Trazado 161033" d="M214.509,360.858q0-22.241-.009-44.482h.437q0,21-.017,42.009c0,.828.343,1.756-.411,2.474" transform="translate(-120.708 -178.037)" fill="#4d81a7"/>
    <path id="Trazado_161034" data-name="Trazado 161034" d="M331.248,315.437c-.6.59-1.366.387-2.069.388q-16.435.01-32.87-.006c.427-.556,1.044-.418,1.608-.418q16.665.011,33.331.036" transform="translate(-166.745 -177.48)" fill="#2d719a"/>
    <path id="Trazado_161035" data-name="Trazado 161035" d="M317.947,253.527c1.816,1.932,2.742,4.425,4.145,6.617q2.351,3.672,4.468,7.491c1.551,2.8,2.969,5.671,4.444,8.51l-8.267-.005c-1.987-2.26-3.1-5.06-4.619-7.6a108.144,108.144,0,0,0-5.845-9.342,42.853,42.853,0,0,1,5.673-5.67" transform="translate(-175.729 -142.67)" fill="#d3e8fb"/>
    <path id="Trazado_161036" data-name="Trazado 161036" d="M302.723,266.494c2,.678,2.518,2.639,3.453,4.172,2.391,3.923,4.639,7.934,6.922,11.921a2.226,2.226,0,0,1,.088.85l-11.785,0c-1.87-1.923-2.867-4.416-4.284-6.633-.612-.958-1.206-1.931-1.816-2.893a73.972,73.972,0,0,1,7.421-7.415" transform="translate(-166.178 -149.967)" fill="#d7e9fc"/>
    <path id="Trazado_161037" data-name="Trazado 161037" d="M283.927,283.45c.324.129.825.167.945.4,1.6,3.111,3.843,5.857,5.154,9.126H275.089l8.838-9.526" transform="translate(-154.804 -159.509)" fill="#dceafc"/>
    <path id="Trazado_161038" data-name="Trazado 161038" d="M343.881,245.087c-1.25-3.572-3.455-6.58-5.667-9.583a20.8,20.8,0,0,1,3.93-3.925,30.131,30.131,0,0,1,5.67,9.605,5.29,5.29,0,0,1-3.933,3.9" transform="translate(-190.327 -130.319)" fill="#cde7fa"/>
    <path id="Trazado_161039" data-name="Trazado 161039" d="M349.721,256.9a27.49,27.49,0,0,0,3.933-3.9,2.22,2.22,0,0,1,3.21.578c.718,1.124.308,2.286-.707,3.251-1.343,1.278-2.59,2.656-3.879,3.991-1.2.6-2.35.736-3.248-.484-1.006-1.367-.068-2.394.691-3.434" transform="translate(-196.167 -142.13)" fill="#2b719b"/>
    <path id="Trazado_161040" data-name="Trazado 161040" d="M311.283,335.859c0-1.012-.039-2.025.01-3.035a2.126,2.126,0,0,1,2.126-2.282,2.061,2.061,0,0,1,2.191,2.2c.068,2.166.068,4.337-.012,6.5a1.991,1.991,0,0,1-2.083,2.063,2.061,2.061,0,0,1-2.182-1.983,29.806,29.806,0,0,1-.029-3.464h-.021" transform="translate(-175.161 -186.009)" fill="#fdfefe"/>
    <path id="Trazado_161041" data-name="Trazado 161041" d="M377.292,315.578a4.481,4.481,0,0,1,.219,2.352q.023,21.256.015,42.512c-.662-.475-.431-1.185-.432-1.8q-.018-20.783,0-41.566a11.192,11.192,0,0,1,.2-1.493" transform="translate(-212.184 -177.588)" fill="#c2e2f6"/>
    <path id="Trazado_161042" data-name="Trazado 161042" d="M77.07,161.191c-1.011,0-2.021,0-3.031,0a1.953,1.953,0,0,1-2.225-1.861,2.044,2.044,0,0,1,1.951-2.41,49.471,49.471,0,0,1,6.7-.006,2.011,2.011,0,0,1,2.046,2.314A2.125,2.125,0,0,1,80.1,161.2c-1.01-.025-2.021,0-3.031-.007" transform="translate(-40.405 -88.238)" fill="#fdfdfe"/>
    <path id="Trazado_161043" data-name="Trazado 161043" d="M250.776,175.52a2.24,2.24,0,0,1,1.714.784c1.371,1.387,2.767,2.75,4.133,4.142,1.01,1.029,1.2,2.179.12,3.234s-2.22.8-3.235-.219c-1.428-1.432-2.879-2.843-4.27-4.311a2.035,2.035,0,0,1-.427-2.572,1.94,1.94,0,0,1,1.964-1.059" transform="translate(-139.856 -98.77)" fill="#fdfefe"/>
    <path id="Trazado_161044" data-name="Trazado 161044" d="M234.023,336.056c0,1.087.046,2.176-.013,3.26a1.939,1.939,0,0,1-1.925,1.976,1.891,1.891,0,0,1-2.213-1.647,27.26,27.26,0,0,1,.02-7.572,1.867,1.867,0,0,1,2.065-1.572,1.914,1.914,0,0,1,2.032,1.86c.081,1.227.018,2.462.018,3.694h.016" transform="translate(-129.215 -185.986)" fill="#fbfcfd"/>
    <path id="Trazado_161045" data-name="Trazado 161045" d="M192.915,232.769a2.394,2.394,0,0,1,1.726.652c1.559,1.519,3.134,3.026,4.613,4.622a1.992,1.992,0,0,1-.117,3.087,1.967,1.967,0,0,1-2.927-.053c-1.57-1.508-3.1-3.054-4.616-4.62a2.025,2.025,0,0,1-.417-2.4,2.42,2.42,0,0,1,1.738-1.283" transform="translate(-107.458 -130.988)" fill="#fcfdfd"/>
    <path id="Trazado_161046" data-name="Trazado 161046" d="M187.406,257.839a2.894,2.894,0,0,1-.972-.408q-6.958-6.982-13.88-14c.183-.034.462-.162.536-.088,4.773,4.831,9.792,9.422,14.316,14.5" transform="translate(-97.103 -136.925)" fill="#407aa2"/>
    <path id="Trazado_161047" data-name="Trazado 161047" d="M148.555,335.748c0-1.015-.019-2.031,0-3.046a2.148,2.148,0,0,1,4.294-.11,63.445,63.445,0,0,1-.017,6.739,2.135,2.135,0,0,1-4.263-.1c-.056-1.158-.012-2.32-.012-3.48h-.007" transform="translate(-83.593 -185.994)" fill="#fcfdfd"/>
    <path id="Trazado_161048" data-name="Trazado 161048" d="M314.94,124.335a2.023,2.023,0,0,1-3.308,1.736,19.674,19.674,0,0,1-5.05-5.028,2.041,2.041,0,0,1,.08-2.626,1.809,1.809,0,0,1,2.363-.519,16.994,16.994,0,0,1,5.775,5.75,1.7,1.7,0,0,1,.141.687" transform="translate(-172.278 -66.209)" fill="#fdfefe"/>
    <path id="Trazado_161049" data-name="Trazado 161049" d="M77.02,242.813a32.1,32.1,0,0,1-3.258-.026,2.008,2.008,0,0,1-1.986-2.158,1.925,1.925,0,0,1,2-2.115c2.243-.075,4.492-.074,6.735,0a1.98,1.98,0,0,1,2.008,2.139,2.032,2.032,0,0,1-2.022,2.144c-1.151.092-2.316.02-3.475.017" transform="translate(-40.391 -134.19)" fill="#fcfdfd"/>
    <path id="Trazado_161050" data-name="Trazado 161050" d="M77.273,80.174a17.881,17.881,0,0,1-3.245-.04c-1.27-.237-2.35-.925-2.175-2.5.166-1.485,1.221-1.788,2.511-1.769,1.882.028,3.766.049,5.647-.005a2.2,2.2,0,0,1,2.53,2.118c.08,1.449-1.092,2.114-2.446,2.233-.934.082-1.881.016-2.822.016v-.056" transform="translate(-40.424 -42.69)" fill="#fdfefe"/>
    <path id="Trazado_161051" data-name="Trazado 161051" d="M393.042,335.711c0-1.086.03-2.173-.007-3.258-.041-1.18.7-1.7,1.656-1.979a1.713,1.713,0,0,1,2.25,1.2,15.137,15.137,0,0,1,0,8.3,1.711,1.711,0,0,1-2.253,1.194,1.911,1.911,0,0,1-1.651-1.984c.038-1.157.008-2.317.009-3.475" transform="translate(-221.175 -185.92)" fill="#fdfefe"/>
    <path id="Trazado_161052" data-name="Trazado 161052" d="M84.5,364.785a4.693,4.693,0,1,1,4.711,4.631,4.576,4.576,0,0,1-4.711-4.631" transform="translate(-47.551 -202.6)" fill="#2a719b"/>
  </g>
</svg>
