<svg xmlns="http://www.w3.org/2000/svg" xmlns:xlink="http://www.w3.org/1999/xlink" width="596.406" height="34.813" viewBox="0 0 596.406 34.813">
  <defs>
    <clipPath id="clip-path">
      <rect id="Rectángulo_39715" data-name="Rectángulo 39715" width="34.812" height="34.812" transform="translate(0 0)" fill="none"/>
    </clipPath>
  </defs>
  <g id="Grupo_144189" data-name="Grupo 144189" transform="translate(-264 -8565)">
    <g id="Grupo_144186" data-name="Grupo 144186" transform="translate(264 8565)">
      <rect id="Rectángulo_39695" data-name="Rectángulo 39695" width="34.313" height="34.313" transform="translate(0 0)" fill="#0090df"/>
      <rect id="Rectángulo_39696" data-name="Rectángulo 39696" width="34.313" height="34.313" transform="translate(34.313 0)" fill="#d8006b"/>
      <rect id="Rectángulo_39697" data-name="Rectángulo 39697" width="34.311" height="34.313" transform="translate(68.626 0)" fill="#ffe800"/>
      <rect id="Rectángulo_39698" data-name="Rectángulo 39698" width="34.313" height="34.313" transform="translate(102.937 0)" fill="#161615"/>
      <rect id="Rectángulo_39699" data-name="Rectángulo 39699" width="34.313" height="34.313" transform="translate(137.25 0)" fill="#d9000d"/>
      <rect id="Rectángulo_39700" data-name="Rectángulo 39700" width="34.311" height="34.313" transform="translate(171.564 0)" fill="#00862f"/>
      <rect id="Rectángulo_39701" data-name="Rectángulo 39701" width="34.313" height="34.313" transform="translate(205.875 0)" fill="#111e72"/>
      <rect id="Rectángulo_39702" data-name="Rectángulo 39702" width="34.313" height="34.313" transform="translate(240.188 0)"/>
      <rect id="Rectángulo_39703" data-name="Rectángulo 39703" width="34.313" height="34.313" transform="translate(274.501 0)" fill="#0090df"/>
      <rect id="Rectángulo_39704" data-name="Rectángulo 39704" width="34.311" height="34.313" transform="translate(308.814 0)" fill="#d8006b"/>
      <rect id="Rectángulo_39705" data-name="Rectángulo 39705" width="34.313" height="34.313" transform="translate(343.125 0)" fill="#ffe800"/>
      <rect id="Rectángulo_39706" data-name="Rectángulo 39706" width="34.311" height="34.313" transform="translate(377.438 0)" fill="#161615"/>
      <rect id="Rectángulo_39707" data-name="Rectángulo 39707" width="34.311" height="34.313" transform="translate(411.75 0)" fill="#d9000d"/>
      <rect id="Rectángulo_39708" data-name="Rectángulo 39708" width="34.316" height="34.313" transform="translate(446.062 0)" fill="#00862f"/>
      <rect id="Rectángulo_39709" data-name="Rectángulo 39709" width="34.311" height="34.313" transform="translate(480.378 0)" fill="#111e72"/>
      <rect id="Rectángulo_39710" data-name="Rectángulo 39710" width="34.311" height="34.313" transform="translate(514.689 0)"/>
    </g>
    <g id="Grupo_144188" data-name="Grupo 144188" transform="translate(825.594 8565)">
      <g id="Grupo_144187" data-name="Grupo 144187" clip-path="url(#clip-path)">
        <path id="Trazado_161099" data-name="Trazado 161099" d="M7.867,17.406h9.54V7.866a9.541,9.541,0,0,0-9.54,9.54" fill="#0090df" fill-rule="evenodd"/>
        <path id="Trazado_161100" data-name="Trazado 161100" d="M17.406,7.866v9.54h9.539a9.541,9.541,0,0,0-9.539-9.54" fill="#d8006b" fill-rule="evenodd"/>
        <path id="Trazado_161101" data-name="Trazado 161101" d="M26.945,17.406H17.406v9.539a9.539,9.539,0,0,0,9.539-9.539" fill="#161615" fill-rule="evenodd"/>
        <path id="Trazado_161102" data-name="Trazado 161102" d="M17.406,26.945V17.406H7.866a9.54,9.54,0,0,0,9.54,9.539" fill="#ffe800" fill-rule="evenodd"/>
        <path id="Trazado_161103" data-name="Trazado 161103" d="M30.9,16.711l-.053-.685-.086-.677-.119-.667-.15-.652-.182-.643L30.1,12.76l-.242-.614-.271-.6-.3-.583-.326-.564-.35-.55-.379-.529-.4-.51-.424-.491-.447-.471L26.492,7.4,26,6.977l-.51-.4L24.963,6.2l-.551-.351-.565-.325-.582-.3-.6-.271-.616-.242L21.423,4.5l-.642-.183-.652-.151-.666-.12-.676-.084L18.1,3.908l-.693-.019-.693.019-.688.053-.676.084-.666.12-.654.151-.643.183-.627.212-.613.242-.6.271-.583.3-.566.325L9.849,6.2l-.529.378-.51.4L8.318,7.4l-.469.446L7.4,8.319l-.425.491-.4.51L6.2,9.849l-.35.55-.325.564-.3.583-.271.6-.243.614-.212.627-.182.643-.151.652-.12.667-.085.677-.052.685-.019.695.019.693.052.687.085.676.12.667.151.653.182.642.212.627.243.615.271.6.3.582.325.566.35.548.378.531.4.51.425.491.447.469.469.448.492.425.51.4.529.378.549.35.566.326.583.3.6.271.613.243.627.212.643.182.654.151.666.12.676.085.688.052.693.018L18.1,30.9l.688-.052.676-.085.666-.12.652-.151.642-.182.627-.212.616-.243.6-.271.582-.3.565-.326.551-.35.529-.378.51-.4.49-.425.471-.448.447-.469L27.834,26l.4-.51.379-.531.35-.548.326-.566.3-.582.271-.6.242-.615.213-.627.182-.642.15-.653.119-.667.086-.676L30.9,18.1l.018-.693Zm-.711,1.355-.049.65-.082.64-.113.63-.143.62-.174.606-.2.6-.228.581-.256.567-.283.551-.307.538-.336.518-.355.5-.381.485-.4.463-.423.446-.446.423-.463.4-.484.381-.5.355-.519.334-.538.309-.552.282-.567.257-.58.228-.6.2-.608.173-.619.144-.629.111-.641.082-.65.05-.66.016-.66-.016-.651-.05-.64-.082-.629-.111-.621-.144-.606-.173-.6-.2-.582-.228-.567-.257-.551-.282-.537-.309-.519-.334-.5-.355-.485-.381-.463-.4-.445-.423-.424-.446-.4-.463-.381-.485-.356-.5-.334-.518-.308-.538-.283-.551-.256-.567-.229-.581-.2-.6L5,20.606l-.142-.62-.112-.63-.082-.64-.05-.65-.015-.66.015-.661.05-.65.082-.64.112-.63L5,14.206l.174-.607.2-.6.229-.58.256-.566.283-.552.308-.537.334-.519.356-.5.381-.485.4-.464.424-.444L8.8,7.928l.463-.4.485-.381.5-.355.519-.334.537-.309.551-.282.567-.257L13,5.379l.6-.2L14.2,5l.621-.142.629-.111.64-.083.651-.049.66-.016.66.016.65.049.641.083.629.111L20.6,5l.608.174.6.2.58.229.567.257.552.282.538.309.519.334.5.355.484.381.463.4.446.425.423.444.4.464.381.485.355.5.336.519.307.537.283.552.256.566.228.58.2.6.174.607.143.619.113.63.082.64.049.65.016.661Z"/>
        <rect id="Rectángulo_39711" data-name="Rectángulo 39711" width="0.713" height="34.813" transform="translate(17.05 0)"/>
        <rect id="Rectángulo_39712" data-name="Rectángulo 39712" width="34.813" height="0.713" transform="translate(0 17.05)"/>
        <path id="Trazado_161104" data-name="Trazado 161104" d="M17.406,21.017a3.611,3.611,0,1,0-3.611-3.61,3.617,3.617,0,0,0,3.611,3.61" fill-rule="evenodd"/>
        <path id="Trazado_161105" data-name="Trazado 161105" d="M27.494,16.888l-.039-.513-.065-.505-.089-.5-.114-.489-.134-.478-.159-.47-.181-.459-.2-.448-.223-.436-.244-.423-.262-.41-.281-.395-.3-.381-.316-.368-.334-.351L24.2,9.93l-.367-.317-.381-.3-.4-.282-.411-.262-.421-.243L21.785,8.3l-.449-.2-.459-.182-.469-.158-.479-.136-.488-.113-.5-.09-.506-.063-.513-.039L17.406,7.3l-.518.014-.513.039-.506.063-.5.09-.488.113L14.4,7.76l-.469.158-.461.182-.447.2-.435.224-.422.243-.412.262-.4.282-.381.3-.367.317-.352.334-.334.351-.318.368-.3.381-.283.395-.262.41-.242.423-.222.436-.2.448-.181.459-.159.47-.135.478-.113.489-.09.5-.063.505-.04.513-.014.519.014.517.04.514.063.506.09.5.113.488.135.48.159.468.181.46.2.449.222.435.242.422.262.411.283.4.3.381.318.367.334.351.352.334.367.318.381.3.4.283.412.261.422.244.435.222.447.2.461.181.469.159.479.136.488.112.5.09.506.064.513.039.518.014.518-.014.513-.039.506-.064.5-.09.488-.112.479-.136.469-.159.459-.181.449-.2.436-.222.421-.244.411-.261.4-.283.381-.3.367-.318.352-.334.334-.351.316-.367.3-.381.281-.4.262-.411.244-.422.223-.435.2-.449.181-.46.159-.468.134-.48.114-.488.089-.5.065-.506.039-.514.014-.517Zm-.711,1-.037.477-.061.469-.08.462-.1.454-.127.447-.149.436-.168.426-.187.415-.207.4-.227.394-.244.381-.262.368-.279.355-.3.34-.31.326-.326.311-.34.3-.356.278-.369.262-.379.245-.394.226-.405.207-.416.188-.425.168-.436.148-.445.126-.455.1-.463.082-.469.061-.477.036-.484.011-.484-.011-.477-.036-.471-.061-.461-.082-.455-.1-.445-.126-.435-.148-.426-.168-.416-.188-.405-.207-.394-.226-.381-.245-.367-.262-.356-.278-.339-.3-.327-.311-.31-.326-.3-.34-.277-.355-.262-.368-.246-.381-.225-.394-.207-.4-.189-.415-.168-.426L8.439,20.2l-.127-.447L8.207,19.3l-.082-.462-.06-.469-.036-.477-.012-.484.012-.485.036-.476.06-.47.082-.462.105-.455.127-.445.147-.437.168-.426.189-.415.207-.4.225-.394.246-.38.262-.368.277-.356.3-.34.31-.326.327-.311.339-.3.356-.279.367-.261.381-.246.394-.226.405-.207.416-.188.426-.168.435-.147.445-.127.455-.106.461-.081.471-.06.477-.036.484-.012.484.012.477.036.469.06.463.081.455.106.445.127.436.147.425.168.416.188.405.207.394.226.379.246.369.261.356.279.34.3.326.311.31.326.3.34.279.356.262.368.244.38.227.394.207.4.187.415.168.426.149.437.127.445.1.455.08.462.061.47.037.476.012.485Z"/>
        <rect id="Rectángulo_39713" data-name="Rectángulo 39713" width="0.713" height="5.733" transform="translate(17.049 14.539)" fill="#fff"/>
        <rect id="Rectángulo_39714" data-name="Rectángulo 39714" width="5.734" height="0.713" transform="translate(14.539 17.05)" fill="#fff"/>
      </g>
    </g>
  </g>
</svg>
