<svg xmlns="http://www.w3.org/2000/svg" xmlns:xlink="http://www.w3.org/1999/xlink" width="136" height="136" viewBox="0 0 136 136">
  <defs>
    <clipPath id="clip-path">
      <rect id="Rectángulo_39416" data-name="Rectángulo 39416" width="84.833" height="101.744" fill="#fff"/>
    </clipPath>
  </defs>
  <g id="Grupo_143633" data-name="Grupo 143633" transform="translate(-1243 -9736)">
    <circle id="Elipse_5450" data-name="Elipse 5450" cx="68" cy="68" r="68" transform="translate(1243 9736)" fill="#26ccda"/>
    <g id="Grupo_143632" data-name="Grupo 143632" transform="translate(1269 9753)">
      <g id="Grupo_143631" data-name="Grupo 143631" clip-path="url(#clip-path)">
        <path id="Trazado_159256" data-name="Trazado 159256" d="M24.451,101.744a9.48,9.48,0,0,1-5.5-3.073,9.258,9.258,0,0,1-2-6.183V56.022c-.4-.02-.751-.051-1.1-.052-3.345,0-6.69,0-10.035,0C2.017,55.958,0,53.933,0,50.129Q0,43.97,0,37.811c.006-3.52,2.1-5.6,5.641-5.609,3.378-.008,6.756,0,10.135,0h1.174a8.647,8.647,0,0,1,3.779-7.011c2.421-1.693,5.215-1.457,8.1-1.468v-1.1c0-3.046-.04-6.093.012-9.139A13.566,13.566,0,0,1,43.216.017C50.4.362,55.895,6.326,55.982,13.911c.034,2.88.006,5.761.006,8.642v1.256c1.4,0,2.691-.086,3.964.016a8.309,8.309,0,0,1,7.846,7.9c.009.1.032.2.069.421.324.016.671.047,1.019.048,3.411,0,6.823,0,10.234,0,3.6.006,5.69,2.076,5.7,5.661q.022,6.209,0,12.418c-.011,3.6-2.077,5.666-5.677,5.684-3.378.016-6.756,0-10.134,0H67.835v1.391q0,17.632.01,35.265c.007,3.044-.943,5.646-3.48,7.392a21.965,21.965,0,0,1-3.937,1.728ZM64.437,62.755q0-14.951,0-29.9c0-3.707-1.99-5.715-5.692-5.718q-16.345-.013-32.69,0c-3.675,0-5.7,2.045-5.705,5.735q-.008,29.853.007,59.705a8.061,8.061,0,0,0,.226,2.062c.627,2.347,2.617,3.718,5.34,3.719,10.9.006,21.794-.05,32.69.034a5.471,5.471,0,0,0,5.862-5.832c-.106-9.934-.036-19.869-.036-29.8M52.491,23.686a3.171,3.171,0,0,0,.088-.478c0-3.31.036-6.621-.029-9.93a9.625,9.625,0,0,0-3.907-7.689A9.546,9.546,0,0,0,38.83,4.07c-3.512,1.364-5.96,3.959-6.353,7.729-.4,3.865-.179,7.8-.224,11.7,0,.052.074.1.141.19ZM6.739,35.67c-2.745-.293-3.35.234-3.35,2.813q0,5.764,0,11.526c0,2.241,1.109,3.036,3.35,2.387ZM78.1,52.467c2.641.35,3.332-.232,3.332-2.7q0-2.432,0-4.864c0-2.383.016-4.765-.007-7.147-.014-1.535-.654-2.139-2.2-2.163-.355,0-.71,0-1.129,0Zm-61.2-3.2H10.233v3.229H16.9Zm51,3.246h6.647V49.231H67.9Zm-57.7-13.594H16.87V35.668H10.194Zm64.375-3.255H67.893v3.26h6.676ZM10.218,45.7h6.677V42.445H10.218ZM74.556,42.46H67.9v3.226h6.653Z" transform="translate(0 0)" fill="#fff"/>
        <path id="Trazado_159257" data-name="Trazado 159257" d="M85.114,93.768c0,4.37.007,8.74,0,13.109-.007,3.458-2.014,5.541-5.457,5.552q-13.161.042-26.322,0c-3.452-.009-5.5-2.049-5.514-5.51q-.043-13.109,0-26.219c.01-3.517,2.07-5.544,5.57-5.549q13.112-.016,26.224,0c3.441,0,5.49,2.067,5.5,5.5.011,4.37,0,8.74,0,13.109M70.244,109.04c3.173,0,6.149,0,9.126,0,1.848,0,2.355-.514,2.355-2.361q0-12.916,0-25.831a4.79,4.79,0,0,0-.041-.891A1.5,1.5,0,0,0,80.306,78.6c-1.308-.075-2.622-.021-3.971-.021-2.032,10.16-4.047,20.237-6.092,30.463m-7.536-30.5H53.828c-2.2,0-2.614.413-2.614,2.606q0,12.669,0,25.338a7.964,7.964,0,0,0,.059,1.089,1.457,1.457,0,0,0,1.424,1.4c1.28.062,2.565.016,3.91.016,2.029-10.13,4.047-20.206,6.1-30.452M66.8,108.979c2.029-10.156,4.046-20.245,6.076-30.4h-6.71c-2.025,10.119-4.045,20.22-6.081,30.4Z" transform="translate(-24.066 -37.835)" fill="#fff"/>
        <path id="Trazado_159258" data-name="Trazado 159258" d="M78.689,167.3a7.9,7.9,0,0,1-5.554-2.031,4.184,4.184,0,0,1,.044-6.172,8.453,8.453,0,0,1,10.355-.352,4.3,4.3,0,0,1-.37,7.2,8.349,8.349,0,0,1-4.475,1.352m-.122-3.174a26.3,26.3,0,0,0,2.843-1.158c.7-.38.662-.975.044-1.523a5.14,5.14,0,0,0-5.814.014c-.625.555-.63,1.148.067,1.518a27.28,27.28,0,0,0,2.859,1.149" transform="translate(-36.15 -79.123)" fill="#fff"/>
        <path id="Trazado_159259" data-name="Trazado 159259" d="M99.081,64.927c-.66-.04-1.327-.031-1.976-.132a1.633,1.633,0,0,1,.093-3.24,34.925,34.925,0,0,1,3.767,0,1.633,1.633,0,0,1,.092,3.24c-.649.1-1.316.092-1.977.132" transform="translate(-48.194 -30.967)" fill="#fff"/>
        <path id="Trazado_159260" data-name="Trazado 159260" d="M78.513,27.18a6.771,6.771,0,1,1,6.77-6.72,6.811,6.811,0,0,1-6.77,6.72m3.374-6.786a3.391,3.391,0,0,0-3.344-3.367,3.457,3.457,0,0,0-3.411,3.427A3.384,3.384,0,0,0,78.5,23.788a3.325,3.325,0,0,0,3.384-3.4" transform="translate(-36.117 -6.866)" fill="#fff"/>
      </g>
    </g>
  </g>
</svg>
