<svg xmlns="http://www.w3.org/2000/svg" xmlns:xlink="http://www.w3.org/1999/xlink" width="130" height="130" viewBox="0 0 130 130">
  <defs>
    <clipPath id="clip-path">
      <rect id="Rectángulo_39361" data-name="Rectángulo 39361" width="85.48" height="85.482" fill="#26ccda"/>
    </clipPath>
  </defs>
  <g id="Grupo_144365" data-name="Grupo 144365" transform="translate(-736 -4140)">
    <circle id="Elipse_5446" data-name="Elipse 5446" cx="65" cy="65" r="65" transform="translate(736 4140)" fill="#fff"/>
    <g id="Grupo_143529" data-name="Grupo 143529" transform="translate(758 4162)">
      <g id="Grupo_143529-2" data-name="Grupo 143529" clip-path="url(#clip-path)">
        <path id="Trazado_159194" data-name="Trazado 159194" d="M19.2,85.482a5.73,5.73,0,0,1-4.293-3.227,8.777,8.777,0,0,1-.644-3.223c-.053-7.9-.028-15.8-.028-23.7V54.291H12.241V50.218c-.4,0-.724,0-1.043,0-2.336-.026-4.678.051-7-.11A4.542,4.542,0,0,1,.03,45.824C0,45.465,0,45.1,0,44.74Q0,25.085,0,5.428C0,1.909,1.9,0,5.4,0q9.557,0,19.113,0c3.4,0,5.35,1.929,5.351,5.311q.005,19.782,0,39.563c0,3.391-1.942,5.332-5.332,5.34-2.25.006-4.5,0-6.845,0v4.019H15.658c-.023.328-.054.571-.054.815q0,12.145,0,24.288a4.416,4.416,0,0,0,3.719,4.712,4.327,4.327,0,0,0,5.039-4c.085-2.25.038-4.506.04-6.759,0-4.619-.006-9.237,0-13.855a4.14,4.14,0,0,1,3.224-4.376,4.059,4.059,0,0,1,4.9,3.644c.031.387.022.779.022,1.168q0,11.268,0,22.535c0,1.479.25,1.724,1.759,1.724H40.2c-.407-.471-.727-.8-1-1.17a6.73,6.73,0,0,1-1.2-4.247q.016-14.4.006-28.8V48.828a5.952,5.952,0,0,1-4.81-3.53,7.693,7.693,0,0,1-.6-2.9q-.06-17.945-.023-35.89A6.139,6.139,0,0,1,39.05.005Q59-.006,78.947,0a6.092,6.092,0,0,1,6.4,4.96c.034.129.086.254.129.38V43.577c-.106.342-.2.686-.319,1.025a5.744,5.744,0,0,1-4.145,3.966c-.785.2-.98.494-.978,1.267.027,9.622.011,19.245.023,28.868A6.741,6.741,0,0,1,78.4,83.536a7.261,7.261,0,0,1-3.6,1.946H33.057a2.786,2.786,0,0,1-1.863-2.99c.038-7.587.018-15.175.016-22.762a8.3,8.3,0,0,0-.028-1A2.723,2.723,0,0,0,28.7,56.324,2.667,2.667,0,0,0,25.969,58.1a5.325,5.325,0,0,0-.192,1.56c-.012,6.476.02,12.952-.037,19.427A8.726,8.726,0,0,1,25.1,82.3a5.761,5.761,0,0,1-4.226,3.18Zm46.634-38h.977c2.671,0,5.342.009,8.013,0,3.313-.014,5.222-1.917,5.225-5.244q.014-17.821,0-35.641c0-3.3-1.96-5.241-5.249-5.242q-17.821-.006-35.641,0c-3.273,0-5.245,1.976-5.246,5.255q-.007,17.821,0,35.641c0,3.3,1.932,5.218,5.25,5.23,2.671.01,5.342,0,8.013,0h.929v1.4H39.437V78.73H68.464v1.325H39.495a4.538,4.538,0,0,0,4.618,4.061c8.569.038,17.139.021,25.709.011a4.6,4.6,0,0,0,3.138-1.168A4.276,4.276,0,0,0,74.5,80.052H69.939V78.683h4.634V48.84H65.834ZM23.055,25.157q0-9.972,0-19.944c0-2.521-1.34-3.859-3.862-3.862q-6.968-.007-13.935,0c-2.556,0-3.907,1.356-3.907,3.921q0,19.818,0,39.637c0,2.583,1.322,3.936,3.882,3.942q6.968.017,13.936,0c2.583-.006,3.886-1.328,3.887-3.918q0-9.888,0-19.777M23.1,48.7l.142.181c.827-.038,1.662-.019,2.479-.127a3.227,3.227,0,0,0,2.657-2.549A6.9,6.9,0,0,0,28.5,44.88q.008-19.773,0-39.546a7.248,7.248,0,0,0-.077-1.079,3.2,3.2,0,0,0-2.614-2.783A21.329,21.329,0,0,0,23.2,1.318c1.294,1.555,1.216,3.313,1.215,5.073q-.018,18.9,0,37.795c0,1.638-.045,3.232-1.312,4.515m56.1-47.255a6.517,6.517,0,0,1,2.219,5.236q-.007,17.735,0,35.471a6.687,6.687,0,0,1-1.259,4.232c-.26.338-.551.654-.944,1.118a11.937,11.937,0,0,0,1.327-.183,4.785,4.785,0,0,0,3.583-5q.008-17.9,0-35.805a7.048,7.048,0,0,0-.139-1.408,4.606,4.606,0,0,0-4.781-3.66m-3.178,77.18h2.587V48.9H76.028Zm2.543,1.452c-.851,0-1.624,0-2.4,0-.051,0-.134.026-.147.06-.2.542-.381,1.087-.569,1.63a.693.693,0,0,1-.067.152c-.483.727-.968,1.452-1.446,2.167a4.593,4.593,0,0,0,4.625-4.013M13.619,52.863h2.6V50.25h-2.6Z" transform="translate(0 0)" fill="#26ccda"/>
        <path id="Trazado_159195" data-name="Trazado 159195" d="M105.381,28.116q0,8.553,0,17.106c0,1.771-.753,2.517-2.535,2.517q-17.147,0-34.3,0c-1.728,0-2.5-.752-2.5-2.472q-.008-17.19,0-34.378c0-1.714.785-2.494,2.5-2.5q17.147-.006,34.3,0c1.771,0,2.536.773,2.537,2.534q0,8.594,0,17.189m-35.258-.05q0,8.472,0,16.943c0,1.329.052,1.382,1.35,1.383h31.215c1.259,0,1.342-.081,1.342-1.313q0-16.985,0-33.97c0-1.249-.088-1.342-1.315-1.342q-15.649,0-31.3,0c-1.2,0-1.293.1-1.293,1.272q0,8.513,0,17.027M68.79,9.848c-1.18-.148-1.374,0-1.374,1.068q0,17.153,0,34.307c0,1.11.241,1.289,1.374,1.057Z" transform="translate(-28.731 -3.65)" fill="#26ccda"/>
        <path id="Trazado_159196" data-name="Trazado 159196" d="M77.946,126.845c-.86,0-1.721.016-2.58,0a2.056,2.056,0,0,1-2.1-2.107q-.029-1.29,0-2.58a2,2,0,0,1,1.958-2.075c1.856-.062,3.719-.061,5.575,0a2.007,2.007,0,0,1,1.946,2.012,26.032,26.032,0,0,1,0,2.746,2.061,2.061,0,0,1-2.13,2c-.888.019-1.776,0-2.664,0m.716-3.376c-.009-2.06.241-2.073-2.009-2.059-2.047.012-2.047,0-2.047,2.03,0,2.057,0,2.047,2.016,2.06,2.2.014,2.048.057,2.04-2.031M80,121.493v3.928c1.165.142,1.391-.042,1.4-1.129q.008-.832,0-1.666c-.01-1.1-.227-1.278-1.4-1.132" transform="translate(-31.866 -52.219)" fill="#26ccda"/>
        <path id="Trazado_159197" data-name="Trazado 159197" d="M116.358,126.843c-.86,0-1.721.017-2.581-.005a2.059,2.059,0,0,1-2.092-2.119c-.019-.832-.016-1.666,0-2.5a2.015,2.015,0,0,1,1.973-2.146c1.829-.063,3.663-.059,5.493-.006a2.033,2.033,0,0,1,2.018,2.034c.042.886.04,1.777,0,2.663a2.083,2.083,0,0,1-2.149,2.077c-.055,0-.111,0-.166,0h-2.5m-3.33-3.455c0,2.067-.217,2.125,1.968,2.114,2.227-.011,2.1.1,2.093-2.067-.006-2.066.193-2.037-2.045-2.026-2.017.01-2.017,0-2.017,1.979m5.394,2.06c1.206.082,1.395-.086,1.4-1.2,0-.556.006-1.112,0-1.668-.013-1.066-.285-1.272-1.4-1.073Z" transform="translate(-48.582 -52.217)" fill="#26ccda"/>
        <path id="Trazado_159198" data-name="Trazado 159198" d="M97.2,126.847c-.888,0-1.777.019-2.664-.006a2.054,2.054,0,0,1-2.063-2.062c-.023-.859-.019-1.72,0-2.581a2,2,0,0,1,1.917-2.111c1.884-.068,3.775-.068,5.658,0a2.007,2.007,0,0,1,1.914,2.044c.037.859.034,1.721,0,2.58a2.083,2.083,0,0,1-2.181,2.13c-.86.016-1.721,0-2.581,0m.676-3.415c0-2.016,0-2.009-1.886-2.018-2.385-.012-2.177-.073-2.175,2.153,0,1.934,0,1.926,1.975,1.936,2.218.011,2.1.1,2.086-2.07m1.334,2c1.174.125,1.393-.058,1.4-1.149.006-.584.009-1.168,0-1.751-.018-1.033-.381-1.279-1.4-.978Z" transform="translate(-40.222 -52.221)" fill="#26ccda"/>
        <path id="Trazado_159199" data-name="Trazado 159199" d="M116.47,91.28c.862,0,1.725-.015,2.587,0a2.05,2.05,0,0,1,2.11,2.027,26.794,26.794,0,0,1-.005,2.753,2,2,0,0,1-1.995,1.96c-1.835.044-3.673.046-5.507,0a1.982,1.982,0,0,1-1.974-2.055c-.021-.889-.025-1.781,0-2.67a2.038,2.038,0,0,1,2.028-2.014c.055,0,.111,0,.167,0h2.588m-1.451,5.4c2.2,0,2.064.183,2.071-2.068.006-2.128.064-1.99-1.991-1.991-2.19,0-2.085-.129-2.075,2.076.009,1.983,0,1.983,2,1.983m3.4-.053c1.231.1,1.394-.045,1.4-1.169,0-.555.006-1.11,0-1.666-.014-1.105-.359-1.35-1.4-1.037Z" transform="translate(-48.58 -39.708)" fill="#26ccda"/>
        <path id="Trazado_159200" data-name="Trazado 159200" d="M78.019,98.044c-.863,0-1.725.023-2.587-.005a2.055,2.055,0,0,1-2.169-2.215c-.011-.807-.015-1.614,0-2.42a2.022,2.022,0,0,1,2.088-2.119c1.752-.023,3.505-.02,5.258,0a2.04,2.04,0,0,1,2.133,2,25.564,25.564,0,0,1,0,2.753,2.03,2.03,0,0,1-2.054,2c-.889.038-1.78.007-2.67.007v.005m-1.4-5.418c-2.01,0-2.007,0-2.011,1.966,0,2.2-.168,2.094,2.052,2.091,2.157,0,2,.131,2.008-2.047s.086-2.021-2.049-2.01M80,96.611c1.207.134,1.392-.018,1.4-1.128q.008-.831,0-1.664c-.012-1.129-.3-1.344-1.4-1.082Z" transform="translate(-31.868 -39.705)" fill="#26ccda"/>
        <path id="Trazado_159201" data-name="Trazado 159201" d="M97.228,91.28c.863,0,1.725-.013,2.588,0a2.053,2.053,0,0,1,2.14,2,26.171,26.171,0,0,1,0,2.753,2.018,2.018,0,0,1-2.052,2c-1.807.04-3.617.042-5.424,0a2,2,0,0,1-2.007-2.11q-.025-1.252,0-2.5a2.058,2.058,0,0,1,2.168-2.132h2.587m-1.411,5.4c2.181,0,2.058.185,2.065-2.075.006-2.14.038-1.981-2-1.983-2.18,0-2.076-.133-2.066,2.083.009,1.975,0,1.975,2,1.975m3.395-4.011v3.92c1.166.181,1.391.008,1.4-1.073.006-.555,0-1.11,0-1.665-.009-1.106-.188-1.262-1.4-1.181" transform="translate(-40.223 -39.708)" fill="#26ccda"/>
        <path id="Trazado_159202" data-name="Trazado 159202" d="M116.411,112.444c-.89,0-1.781.02-2.671,0a2.023,2.023,0,0,1-2.054-2.066c-.022-.89-.025-1.781,0-2.671a1.965,1.965,0,0,1,1.946-1.989c1.835-.043,3.672-.041,5.508-.006a2,2,0,0,1,2.025,2.016c.042.86.034,1.725.006,2.587A2.075,2.075,0,0,1,119,112.447h-2.587ZM115.02,111.1c2.168,0,2.069.2,2.07-2.069,0-2.169.066-1.975-1.992-1.979-2.2,0-2.082-.158-2.074,2.067.007,1.981,0,1.981,2,1.981m3.4-.067c1.22.133,1.4-.021,1.4-1.2,0-.527,0-1.054,0-1.581-.011-1.137-.282-1.342-1.4-1.083Z" transform="translate(-48.58 -45.975)" fill="#26ccda"/>
        <path id="Trazado_159203" data-name="Trazado 159203" d="M97.23,105.694c.863,0,1.726-.02,2.588.006a2.055,2.055,0,0,1,2.144,2.08c.035.861.035,1.725,0,2.586a2.051,2.051,0,0,1-2.145,2.078c-1.753.019-3.506.021-5.258,0a2.021,2.021,0,0,1-2.087-2.118q-.025-1.252,0-2.5A2.038,2.038,0,0,1,94.56,105.7c.055,0,.111,0,.167,0h2.5M95.8,111.1c2.156,0,2.081.215,2.081-2.06,0-2.176.059-1.985-1.985-1.988-2.195,0-2.081-.171-2.084,2.058,0,2.123-.069,2.006,1.988,1.99m3.411-.088c1.176.187,1.394.01,1.4-1.146,0-.555.006-1.11,0-1.664-.013-1.075-.245-1.249-1.4-1.055Z" transform="translate(-40.223 -45.977)" fill="#26ccda"/>
        <path id="Trazado_159204" data-name="Trazado 159204" d="M78.066,105.7c.862,0,1.725-.023,2.587.006a2.037,2.037,0,0,1,2.093,2.042c.042.888.043,1.781,0,2.669a2.036,2.036,0,0,1-2.1,2.03q-2.629.033-5.258,0a2.018,2.018,0,0,1-2.119-2.084q-.03-1.293,0-2.587a2,2,0,0,1,2.047-2.067c.916-.034,1.836-.007,2.754-.007v0m-1.454,5.4c2.177.007,2.051.179,2.053-2.084,0-2.147.079-1.96-2-1.965-2.2,0-2.054-.146-2.06,2.082-.005,2.1-.071,1.981,2.01,1.966M80,107.122v3.914c1.2.123,1.39-.032,1.4-1.13q.008-.831,0-1.663c-.011-1.107-.193-1.256-1.4-1.12" transform="translate(-31.866 -45.977)" fill="#26ccda"/>
        <rect id="Rectángulo_39358" data-name="Rectángulo 39358" width="1.241" height="1.241" transform="translate(45.482 76.026)" fill="#26ccda"/>
        <rect id="Rectángulo_39359" data-name="Rectángulo 39359" width="1.274" height="1.236" transform="translate(56.338 76.041)" fill="#26ccda"/>
        <rect id="Rectángulo_39360" data-name="Rectángulo 39360" width="1.227" height="1.268" transform="translate(67.205 76.026)" fill="#26ccda"/>
        <path id="Trazado_159205" data-name="Trazado 159205" d="M14.3,29.8a9.479,9.479,0,1,1,9.483-9.5A9.511,9.511,0,0,1,14.3,29.8m.036-17.6a8.123,8.123,0,1,0,8.1,8.146,8.211,8.211,0,0,0-8.1-8.146" transform="translate(-2.082 -4.716)" fill="#26ccda"/>
        <path id="Trazado_159206" data-name="Trazado 159206" d="M8.486,58.677a7.427,7.427,0,1,1,6.858,7.855,7.415,7.415,0,0,1-6.858-7.855m1.321.449a6.1,6.1,0,1,0,6.1-6.1,6.124,6.124,0,0,0-6.1,6.1" transform="translate(-3.68 -22.482)" fill="#26ccda"/>
        <path id="Trazado_159207" data-name="Trazado 159207" d="M103.816,33.187a12.886,12.886,0,1,1-13.1-12.767,12.891,12.891,0,0,1,13.1,12.767M83.252,41.839A11.666,11.666,0,0,0,90.264,44.8V42.853h1.356V44.8a11.653,11.653,0,0,0,7.022-2.982l-1.433-1.188L98.3,39.462l1.2,1.515a11.712,11.712,0,0,0,2.908-7.027h-1.926V32.595h1.945a11.6,11.6,0,0,0-3-7l-1.279,1.445-.973-.9,1.372-1.449a11.512,11.512,0,0,0-6.945-2.849v1.889H90.223V21.825a11.5,11.5,0,0,0-6.894,2.884l1.338,1.413-1.01,1.069L82.442,25.57a11.6,11.6,0,0,0-2.972,7.045h1.9v1.394H79.447a11.632,11.632,0,0,0,2.889,6.9l1.28-1.21,1.2.878-1.565,1.263" transform="translate(-33.952 -8.882)" fill="#26ccda"/>
        <path id="Trazado_159208" data-name="Trazado 159208" d="M13.25,23.941a4.734,4.734,0,0,1,9.468.017,4.734,4.734,0,1,1-9.468-.017m8.1.041a3.373,3.373,0,1,0-3.4,3.384,3.394,3.394,0,0,0,3.4-3.384" transform="translate(-5.764 -8.365)" fill="#26ccda"/>
        <path id="Trazado_159209" data-name="Trazado 159209" d="M13.249,61.224a4.735,4.735,0,1,1,9.469-.018,4.734,4.734,0,0,1-9.469.018m8.1-.024a3.373,3.373,0,1,0-3.4,3.389,3.392,3.392,0,0,0,3.4-3.389" transform="translate(-5.764 -24.558)" fill="#26ccda"/>
        <path id="Trazado_159210" data-name="Trazado 159210" d="M98.619,28.916h1.36v5.1a2.258,2.258,0,0,0,2.315,2.3h1.715v1.356c-.693,0-1.431-.043-2.16.021a1.356,1.356,0,0,0-.854.445,2.032,2.032,0,0,1-2.122.827,1.917,1.917,0,0,1-1.541-1.568,2.076,2.076,0,0,1,.81-2.056,1.452,1.452,0,0,0,.455-.927c.043-1.8.021-3.6.021-5.5m.645,7.137c-.285.472-.584.751-.57,1.014.011.2.462.58.627.537a.966.966,0,0,0,.585-.672c.026-.205-.318-.458-.642-.878" transform="translate(-42.323 -12.579)" fill="#26ccda"/>
      </g>
    </g>
  </g>
</svg>
