<svg xmlns="http://www.w3.org/2000/svg" xmlns:xlink="http://www.w3.org/1999/xlink" width="715" height="186" viewBox="0 0 715 186">
  <defs>
    <clipPath id="clip-path">
      <rect id="Rectángulo_39659" data-name="Rectángulo 39659" width="75.651" height="76.425" fill="none"/>
    </clipPath>
    <clipPath id="clip-path-2">
      <rect id="Rectángulo_39660" data-name="Rectángulo 39660" width="77.052" height="77.321" fill="none"/>
    </clipPath>
    <clipPath id="clip-path-3">
      <rect id="Rectángulo_39661" data-name="Rectángulo 39661" width="69.738" height="73.331" fill="none"/>
    </clipPath>
    <clipPath id="clip-path-4">
      <rect id="Rectángulo_39662" data-name="Rectángulo 39662" width="54.769" height="78.26" fill="none"/>
    </clipPath>
    <clipPath id="clip-path-5">
      <rect id="Rectángulo_39663" data-name="Rectángulo 39663" width="80" height="74.592" fill="none"/>
    </clipPath>
  </defs>
  <g id="Grupo_144147" data-name="Grupo 144147" transform="translate(-705.5 -3899)">
    <g id="Grupo_144146" data-name="Grupo 144146" transform="translate(1175.5 11154)">
      <circle id="Elipse_5481" data-name="Elipse 5481" cx="57.5" cy="57.5" r="57.5" transform="translate(-449 -7238)" fill="#e2f4f6"/>
      <circle id="Elipse_5482" data-name="Elipse 5482" cx="57.5" cy="57.5" r="57.5" transform="translate(-303 -7238)" fill="#e2f4f6"/>
      <circle id="Elipse_5483" data-name="Elipse 5483" cx="57.5" cy="57.5" r="57.5" transform="translate(-162 -7238)" fill="#e2f4f6"/>
      <circle id="Elipse_5484" data-name="Elipse 5484" cx="57.5" cy="57.5" r="57.5" transform="translate(-24 -7238)" fill="#e2f4f6"/>
      <circle id="Elipse_5485" data-name="Elipse 5485" cx="57.5" cy="57.5" r="57.5" transform="translate(115 -7238)" fill="#e2f4f6"/>
      <g id="Grupo_144137" data-name="Grupo 144137" transform="translate(-429.826 -7218.712)">
        <g id="Grupo_144136" data-name="Grupo 144136" clip-path="url(#clip-path)">
          <path id="Trazado_160752" data-name="Trazado 160752" d="M21.72,76.425H20.676a7.674,7.674,0,0,1-2.2-1.357.983.983,0,0,0-1.336-.015,9.153,9.153,0,0,1-2.28,1.372h-.894a1.5,1.5,0,0,1-1.374-1.346c-.088-.545-.428-.655-.9-.655-1.64,0-3.281.051-4.919-.013a6.735,6.735,0,0,1-6.28-4.157,6.278,6.278,0,0,1-.487-2.689Q.017,50.383.01,33.2C.01,24.355.025,15.509,0,6.664A6.721,6.721,0,0,1,2.558,1.274,5.565,5.565,0,0,1,6.283,0Q32.371,0,58.461,0a1.88,1.88,0,0,1,2.111,2.118c.025,1.689.005,3.379.007,5.069,0,1.443,0,1.444,1.409,1.444H72.274c.348,0,.7-.008,1.043.021a2.206,2.206,0,0,1,2.321,2.5q.007,17.7,0,35.408c0,1.242-.166,1.509-1.081,1.859a1.4,1.4,0,0,1-1.588-1.394,9.639,9.639,0,0,1-.035-1.266q0-16.547,0-33.094c0-1.324,0-1.326-1.3-1.326q-4.956,0-9.912,0c-1.088,0-1.142.057-1.146,1.129q-.008,2.534,0,5.069c0,1.016.075,1.083,1.116,1.087,1.764.007,3.528,0,5.292,0,1.193,0,1.837.447,1.859,1.258.023.861-.7,1.426-1.9,1.438-1.789.018-3.577,0-5.366.007-.946,0-.994.058-1,1.026-.005.621.016,1.243,0,1.863s.253.83.849.824c1.739-.017,3.478-.008,5.217,0a4.654,4.654,0,0,1,.965.059,1.436,1.436,0,0,1,1.234,1.455,1.327,1.327,0,0,1-1.4,1.173c-1.838.043-3.677.012-5.515.016-1.345,0-1.346,0-1.347,1.355,0,.571.015,1.143,0,1.714s.229.8.8.793c1.764-.012,3.528-.006,5.292,0a6.738,6.738,0,0,1,.893.028,1.347,1.347,0,0,1,1.291,1.3,1.369,1.369,0,0,1-1.255,1.341,5.913,5.913,0,0,1-.893.035c-1.739,0-3.479-.008-5.218.005-.812.006-.89.092-.9.9-.012.67-.013,1.341,0,2.012.018.835.1.925.965.932,1.664.014,3.329,0,4.994,0,.273,0,.547-.006.82.007a1.377,1.377,0,0,1,1.483,1.172,1.452,1.452,0,0,1-1.269,1.427,5.73,5.73,0,0,1-1.335.1c-1.491,0-2.982,0-4.472,0-1.169,0-1.187.023-1.19,1.224,0,.472,0,.944,0,1.416.007,1.014.048,1.062,1.039,1.066,1.689.007,3.379,0,5.068,0a4.241,4.241,0,0,1,1.111.092,1.291,1.291,0,0,1-.078,2.553,4.66,4.66,0,0,1-.966.056c-1.714,0-3.428,0-5.142,0-.969,0-1.022.061-1.032,1q-.008.932,0,1.863c.009.915.07.985.968.989,1.739.01,3.478,0,5.217,0a3.891,3.891,0,0,1,1.038.076,1.241,1.241,0,0,1,1.035,1.126,1.292,1.292,0,0,1-.809,1.307,2.544,2.544,0,0,1-1.166.192c-1.739,0-3.478,0-5.217,0-1.024,0-1.057.038-1.066,1.031,0,.5.008.994-.005,1.491a2.1,2.1,0,0,1-1.659,2.182,17.41,17.41,0,0,1-2.3.057c-.462.006-.648.2-.676.666-.1,1.719-.114,1.717,1.628,1.718.445,0,.891-.009,1.337.007,4.125-.042,8.25-.007,12.375-.019.248,0,.5,0,.745,0,.815-.02.9-.085.9-.9.015-2.386-.013-4.772.014-7.157.013-1.173.383-1.629,1.413-1.857.919.211,1.264.562,1.273,1.462.031,3.031.041,6.063,0,9.094a2.009,2.009,0,0,1-1.889,2.039,8.057,8.057,0,0,1-1.043.034q-5.442,0-10.883,0c-1.223,0-1.225,0-1.226,1.256,0,2.038-.074,4.079.018,6.112.122,2.718-.84,3.39-3.358,3.382-10.809-.034-21.618-.014-32.427-.014-.348,0-.7.01-1.043,0a.7.7,0,0,0-.823.656,1.56,1.56,0,0,1-1.225,1.343" transform="translate(0)"/>
          <path id="Trazado_160753" data-name="Trazado 160753" d="M27.063,137.593c.843-.589,1.695-1.166,2.524-1.773a.562.562,0,0,1,.778-.009c.827.608,1.675,1.19,2.514,1.782Z" transform="translate(-12.203 -61.169)" fill="#fdfdfd"/>
          <path id="Trazado_160754" data-name="Trazado 160754" d="M122.6,57.4a12.17,12.17,0,0,0-.145,2.946c-.938.268-1.153.541-1.155,1.527,0,2.6-.02,5.2.013,7.807.007.556-.131.692-.688.689-4.559-.034-9.118-.032-13.678-.041a3.659,3.659,0,0,1,0-2.8,2.021,2.021,0,0,0,1.526-2.254c-.036-.619.031-1.245-.018-1.863-.042-.545.106-.722.685-.711,1.987.039,3.975.015,5.963.015.174,0,.349.01.522,0a1.157,1.157,0,0,0,1.136-1.148,1.111,1.111,0,0,0-1.187-1.076c-2.112-.016-4.224-.03-6.336.006-.606.011-.826-.132-.786-.768a22.184,22.184,0,0,0,0-2.682c-.038-.649.11-.891.83-.87,2.011.057,4.024.022,6.037.019.924,0,1.455-.423,1.442-1.128s-.547-1.105-1.478-1.107c-2.038,0-4.075-.028-6.112.015-.616.013-.743-.188-.718-.75.043-.967.04-1.939,0-2.906-.02-.5.142-.629.629-.623,1.988.026,3.976.013,5.963.009a4.2,4.2,0,0,0,.815-.054,1.091,1.091,0,0,0-.091-2.156,9.974,9.974,0,0,0-1.042-.025c-1.814,0-3.629-.04-5.441.019-.719.023-.874-.221-.835-.875a24.687,24.687,0,0,0,0-2.682c-.027-.561.1-.763.717-.751,2.086.043,4.174.022,6.261.014.8,0,1.316-.443,1.329-1.1s-.494-1.109-1.292-1.132c-.174,0-.348,0-.522,0-1.888,0-3.778-.038-5.665.019-.718.023-.866-.219-.831-.869.052-.941.042-1.889,0-2.832-.021-.5.154-.62.633-.615,2.161.024,4.323.018,6.485,0a1.109,1.109,0,0,0,1.188-1.074,1.159,1.159,0,0,0-1.136-1.148c-.2-.019-.4-.008-.6-.008-1.963,0-3.927-.025-5.889.015-.578.012-.711-.166-.686-.711.045-.992.039-1.988,0-2.981-.018-.479.154-.578.6-.573,1.988.021,3.975.009,5.963.009a5.454,5.454,0,0,0,.67-.015,1.159,1.159,0,0,0,1.077-1.129,1.113,1.113,0,0,0-1.175-1.086c-.969-.02-1.938-.007-2.908-.007-1.167,0-2.336-.026-3.5.012-.529.016-.736-.087-.725-.68q.059-3.167,0-6.336c-.01-.582.178-.691.717-.688,3.777.023,7.553.03,11.33,0,.656-.005.818.152.817.814q-.035,16.362-.016,32.725c0,.746-.01,1.491,0,2.236.017.93.343,1.262,1.3,1.362" transform="translate(-48.098 -9.138)" fill="#dff5fc"/>
          <path id="Trazado_160755" data-name="Trazado 160755" d="M69.193,31.147q0,12.97.015,25.94c0,.715-.122.963-.918.961Q46.861,58,25.431,58.04c-.655,0-.88-.133-.879-.845q.032-26.089,0-52.179c0-.721.237-.84.883-.84q21.43.025,42.86-.008c.8,0,.915.256.913.964q-.034,13.007-.015,26.015" transform="translate(-11.07 -1.879)" fill="#863f31"/>
          <path id="Trazado_160756" data-name="Trazado 160756" d="M11.143,4.229c1.216-.009,2.433-.007,3.649-.034.4-.009.544.139.5.521a4.333,4.333,0,0,0,0,.447q0,25.963,0,51.927c0,.95,0,.937-.96.953a39.966,39.966,0,0,0-5.128.137c-.354-.4-.234-.9-.234-1.356Q8.958,43.112,8.964,29.4q0-10.284,0-20.568A5.94,5.94,0,0,1,10.166,5a2.13,2.13,0,0,1,.977-.772" transform="translate(-4.036 -1.891)" fill="#a14f41"/>
          <path id="Trazado_160757" data-name="Trazado 160757" d="M40.565,115.826a1.116,1.116,0,0,0-1.234-.937c-1.114-.005-2.229-.029-3.342.011-.481.018-.571-.144-.559-.584.03-1.138.011-2.278.01-3.417,0-1.354-.318-1.675-1.643-1.68q-2.822-.01-5.643-.026a2.652,2.652,0,0,1,2.474-2.735q17.288,0,34.575,0c1.025,0,.9-.1.888.933a6.7,6.7,0,0,1-.067,1.773q-3.384.027-6.769.054c-.7,0-1.391-.008-2.086,0-.809.013-1.294.438-1.3,1.116s.482,1.114,1.289,1.116c2.757.007,5.513.02,8.269-.012.561-.006.738.132.7.7a13.135,13.135,0,0,0,0,2.084c.051.595-.182.679-.712.677-5.041-.02-10.082-.012-15.122-.012q-2.682,0-5.364,0a1.151,1.151,0,0,0-1.313.94,2.533,2.533,0,0,1-3.054,0" transform="translate(-12.693 -48.001)" fill="#fefefe"/>
          <path id="Trazado_160758" data-name="Trazado 160758" d="M9.123,4.25A6.647,6.647,0,0,0,7.16,9.482q.063,24.36.024,48.718A8.23,8.23,0,0,0,4.6,59.514a.922.922,0,0,1-.119-.676q-.006-25.08,0-50.158A4.191,4.191,0,0,1,9.123,4.25" transform="translate(-2.015 -1.912)" fill="#863f31"/>
          <path id="Trazado_160759" data-name="Trazado 160759" d="M46.486,119.92a4.8,4.8,0,0,0,3.055,0c.051.992.368,1.3,1.387,1.3q10.764,0,21.529,0a1.6,1.6,0,0,0,1.821-1.769c.035-1.091.032-2.185,0-3.277-.015-.494.148-.627.631-.63,1.835-.013,1.835-.03,1.835,1.794,0,2.011-.015,4.023.011,6.034.007.512-.132.674-.662.674q-17.059-.021-34.118,0c-.5,0-.668-.151-.616-.635.076-.706-.307-1.625.16-2.07.425-.405,1.325-.094,2.016-.115.546-.016,1.092,0,1.639,0,.947-.011,1.263-.327,1.313-1.3" transform="translate(-18.614 -52.096)" fill="#b85d4f"/>
          <path id="Trazado_160760" data-name="Trazado 160760" d="M11.23,106.328a6.686,6.686,0,0,0,0,8.5,18.3,18.3,0,0,1-3.532-.132,4.208,4.208,0,0,1-3.2-4.714,4.253,4.253,0,0,1,4.086-3.648c.843-.024,1.687,0,2.648,0" transform="translate(-2.013 -47.94)" fill="#24cff8"/>
          <path id="Trazado_160761" data-name="Trazado 160761" d="M61.481,109.092c0-.695-.021-1.39,0-2.084.013-.423-.15-.591-.566-.553-.2.018-.4,0-.6,0-11.238,0-22.477.029-33.715-.038a2.513,2.513,0,0,0-2.481,1.551c-.2.368-.345.766-.514,1.15-.421.009-.843.02-1.265.027-.99.016-1.385.407-1.394,1.414-.01,1.117-.037,2.236.01,3.352.03.719-.209.65-.7.375a4.251,4.251,0,0,1,1.864-7.962c1.19-.041,2.384-.014,3.575-.014q17.544,0,35.086-.018c.684,0,.871.189.79.824a10.851,10.851,0,0,1-.1,1.974" transform="translate(-8.149 -47.928)" fill="#f1fafe"/>
          <path id="Trazado_160762" data-name="Trazado 160762" d="M34.165,125.463c-.506-.335-1.026-.651-1.512-1.013a1.556,1.556,0,0,0-1.438-.3,1.216,1.216,0,0,1-.25-.977c-.009-2.156-.014-4.313,0-6.47.007-.975.074-1.024,1.075-1.024.57,0,1.143.032,1.71-.009.521-.038.675.14.67.662-.025,2.479-.011,4.958-.012,7.437,0,.446.005.892,0,1.338,0,.163.044.376-.241.353" transform="translate(-13.958 -52.154)" fill="#f72f41"/>
          <path id="Trazado_160763" data-name="Trazado 160763" d="M32.539,125.4c.244-.183.166-.451.167-.689,0-2.757-.012-5.513.014-8.269.005-.574-.136-.817-.746-.763a11.714,11.714,0,0,1-1.712,0c-.5-.029-.7.118-.7.66.028,2.582.018,5.165.021,7.748l-2.042,1.451c-.289-.193-.175-.439-.176-.639-.009-2.881.006-5.761-.017-8.642,0-.524.086-.747.681-.728,1.414.044,2.831.029,4.246,0,.468-.01.584.146.581.595-.018,2.98-.006,5.96-.02,8.94,0,.132.209.605-.3.336" transform="translate(-12.332 -52.092)" fill="#df2334"/>
          <path id="Trazado_160764" data-name="Trazado 160764" d="M12.106,125.9c1.858-.008,3.716-.007,5.574-.03.4,0,.589.088.565.532-.038.717-.029,1.435-.04,2.153a28.933,28.933,0,0,1-4.352.043c-.936-.036-2-1.776-1.748-2.7" transform="translate(-5.442 -56.754)" fill="#b85c4f"/>
          <path id="Trazado_160765" data-name="Trazado 160765" d="M8.694,124.678a4.272,4.272,0,0,0,1.285,2.355,1.132,1.132,0,0,0,.957.3c1.285-.01,2.571,0,3.857,0-.125.236-.349.142-.53.142-1.858,0-3.716.021-5.573-.013A4.233,4.233,0,0,1,4.5,123.61c-.005-.116.013-.234.026-.449a7.027,7.027,0,0,0,4.164,1.517" transform="translate(-2.03 -55.533)" fill="#a14f41"/>
          <path id="Trazado_160766" data-name="Trazado 160766" d="M104.491,106.26q0,1.4,0,2.8c-.913.009-1.827,0-2.739.034-.357.012-.476-.095-.46-.457.034-.764-.251-1.737.119-2.234.352-.472,1.385-.106,2.118-.146.32-.018.641,0,.962,0" transform="translate(-45.639 -47.866)" fill="#c8eefc"/>
          <path id="Trazado_160767" data-name="Trazado 160767" d="M72.191,20.9a.634.634,0,0,1,.309.54q-.032.995,0,1.99a.632.632,0,0,1-.31.54,3.943,3.943,0,0,0-.648,2.669q.022,14.487.008,28.976c0,1.7-.036,1.735-1.76,1.735q-14,0-28.006,0a2.281,2.281,0,0,1-1.376-.2,1.659,1.659,0,0,1-.208-1.075q-.007-20.858,0-41.717c0-1.193.116-1.3,1.34-1.3q14.377,0,28.754,0a2.089,2.089,0,0,1,.952.11c.339.272.282.664.286,1.025.013,1.382.031,2.764,0,4.145a3.5,3.5,0,0,0,.664,2.565" transform="translate(-18.124 -5.885)" fill="#c76e5c"/>
          <path id="Trazado_160768" data-name="Trazado 160768" d="M67.358,19.119a1.251,1.251,0,0,1-.865-1.389c0-2.082-.015-4.164-.025-6.247a1.52,1.52,0,0,0-.8-.074c-9.737,0-19.474-.024-29.211.022-1.279.006-2.568.15-3.855.154-.439,0-.624.227-.621.65,0,.223,0,.447,0,.67q0,20.381,0,40.763c0,1.413,0,1.39,1.447,1.424a4.326,4.326,0,0,1,2.19.208c1.54.008,3.079.023,4.619.024q12.632,0,25.263,0c1,0,1,0,1-1.04q0-15.278,0-30.555c0-.693.1-1.3.865-1.541,1.079.04,1.367.324,1.368,1.386q0,16.065,0,32.13c0,1.3-.56,1.856-1.859,1.857q-17.779,0-35.558,0a1.588,1.588,0,0,1-1.829-1.817q0-22.4,0-44.8c0-1.284.573-1.839,1.882-1.839q17.742,0,35.483,0c1.305,0,1.878.562,1.881,1.846q.007,3.392,0,6.784c0,1.063-.289,1.347-1.367,1.386" transform="translate(-13.291 -4.103)"/>
          <path id="Trazado_160769" data-name="Trazado 160769" d="M37.425,57.108c-1.117.008-2.235,0-3.352.032-.41.011-.612-.1-.554-.537a2.806,2.806,0,0,0,0-.372q0-21.091-.02-42.183c0-.779.221-.92.947-.919q16.508.032,33.014.018c.271,0,.592-.151.819.144q-15.019,0-30.037-.015c-.648,0-.839.158-.838.825q.031,21.5.018,43.008" transform="translate(-15.106 -5.91)" fill="#b85d4f"/>
          <path id="Trazado_160770" data-name="Trazado 160770" d="M57.475,35.4q-3.726,0-7.452,0c-1.329,0-1.94-.574-1.952-1.881q-.03-3.242,0-6.483c.01-1.333.6-1.9,1.922-1.906q7.489-.006,14.978,0c1.3,0,1.889.537,1.908,1.838q.049,3.315,0,6.632c-.02,1.243-.634,1.8-1.876,1.8-2.508.007-5.017,0-7.526,0" transform="translate(-21.669 -11.328)"/>
          <path id="Trazado_160771" data-name="Trazado 160771" d="M57.587,64.758q3.985,0,7.97,0c.843,0,1.3.39,1.317,1.081s-.462,1.139-1.262,1.15c-1.167.015-2.334,0-3.5,0Q55.853,67,49.6,67a1.434,1.434,0,0,1-1.218-.418,1.066,1.066,0,0,1-.147-1.188,1.042,1.042,0,0,1,1.013-.631q2.011,0,4.022,0h4.32" transform="translate(-21.695 -29.199)"/>
          <path id="Trazado_160772" data-name="Trazado 160772" d="M57.518,73.632c2.681,0,5.361,0,8.042,0a1.186,1.186,0,0,1,1.242.629,1.079,1.079,0,0,1-.791,1.545,4.388,4.388,0,0,1-.887.064q-7.6,0-15.19,0a4.345,4.345,0,0,1-.96-.079.993.993,0,0,1-.81-1.16.962.962,0,0,1,.943-.971c.518-.042,1.042-.024,1.562-.025q3.426,0,6.851,0" transform="translate(-21.714 -33.199)" fill="#010000"/>
          <path id="Trazado_160773" data-name="Trazado 160773" d="M66.417,34.861c-.16.243-.407.126-.611.127-4.318.005-8.636-.009-12.954.012-.547,0-.731-.123-.717-.694.039-1.513.027-3.028,0-4.541-.007-.452.13-.589.589-.587,4.392.014,8.785,0,13.178.008.246,0,.593-.117.583.339-.041,1.781.1,3.565-.074,5.344a1.446,1.446,0,0,1-.247-1.059c-.008-1.142-.02-2.284,0-3.425.013-.615-.239-.825-.839-.822q-4.094.024-8.189,0c-.564,0-.807.2-.8.781.02,1.141,0,2.283.01,3.425.01.753.093.834.887.837,2.68.012,5.36,0,8.041.007a1.549,1.549,0,0,1,1.134.246" transform="translate(-23.507 -13.154)" fill="#e6b629"/>
          <path id="Trazado_160774" data-name="Trazado 160774" d="M69.672,34.982c-3.178,0-6.356-.025-9.534,0-.633.005-.8-.194-.784-.8.042-1.365.03-2.731,0-4.1-.009-.487.152-.643.639-.64,3,.018,6.008.023,9.012,0,.562,0,.648.228.644.708-.014,1.614.007,3.227.015,4.841l0-.008" transform="translate(-26.762 -13.275)" fill="#f8c42d"/>
        </g>
      </g>
      <g id="Grupo_144139" data-name="Grupo 144139" transform="translate(-284 -7219)">
        <g id="Grupo_144138" data-name="Grupo 144138" clip-path="url(#clip-path-2)">
          <path id="Trazado_160775" data-name="Trazado 160775" d="M54.324,0a1.7,1.7,0,0,1,.762,1.66c-.014,8.042,0,16.084-.023,24.126,0,.623.09.862.793.83C57.3,26.55,57.3,26.6,57.3,25.157c0-.5.014-1.006,0-1.508a1.222,1.222,0,0,1,1.069-1.4c.792-.067,1.221.262,1.4,1.1a9.629,9.629,0,0,1,.072,1.878c.013,1.078.036,1.108,1.087,1.114,1.832.01,3.664-.015,5.5.011a14.752,14.752,0,0,1,1.5-.012c.574.02.814-.221.809-.8-.012-1.255,0-2.51,0-3.765,0-2.184.007-4.368,0-6.552,0-.877-.074-.934-.946-.95-.452-.008-.9.016-1.355-.016-1.809.027-3.617,0-5.426.012-1.147,0-1.157.014-1.161,1.192,0,.955.009,1.91-.007,2.864a2.131,2.131,0,0,1-.316,1.223c-.276.4-.617.672-1.144.441A1.2,1.2,0,0,1,57.3,18.617c.012-1.811.005-3.623,0-5.434a2.488,2.488,0,0,1,.3-1.152Q60.36,6.6,63.1,1.157c.26-.516.565-.981,1.215-.972s.935.482,1.2,1q2.692,5.34,5.408,10.667a3.524,3.524,0,0,1,.391,1.661c-.01,4.1.008,8.2-.02,12.3,0,.606.111.816.766.8,1.935-.048,3.873-.022,5.81-.016,1.137,0,1.54.422,1.513,1.562a45.06,45.06,0,0,1-4.253,17.283c-.112.252-.236.5-.337.755a1.249,1.249,0,0,1-1.6.88,1.069,1.069,0,0,1-.816-1.3,4.953,4.953,0,0,1,.474-1.347,45.658,45.658,0,0,0,3.822-13.216c.052-.451.027-.91.112-1.352.124-.647-.194-.8-.747-.783-.729.02-1.458-.02-2.188-.02q-24.788,0-49.577,0a1.836,1.836,0,0,0-1.1.141,1.943,1.943,0,0,0-.518.905c-1.813,4.557-3.68,9.092-5.56,13.622-.44,1.06-.251,1.344.924,1.356,1.031.011,2.062,0,3.093,0,1.3.008,1.732.338,1.986,1.582.624,3.056,1.265,6.108,1.982,9.143.278,1.176.629,2.33.945,3.495.8,2.961,2.9,4.118,5.756,4.329a16.491,16.491,0,0,0,4.284-.195c1.4-.264,2,.19,2.245,1.625.486,2.8,1,5.6,1.48,8.4.237,1.372.233,1.373,1.592,1.373H64.842c.3,0,.6,0,.9.007.527-.007,1.056.01,1.583,0,.742-.014.788-.061.678-.785-.308-2.038-.626-4.074-.938-6.112-.472-3.081-.952-6.161-1.42-9.242a3.3,3.3,0,0,1,.565-2.566c1.44-2,2.684-4.13,3.923-6.26a2.264,2.264,0,0,1,.779-.9c.421-.24.845-.35,1.214.1a1.262,1.262,0,0,1,.234,1.865q-1.89,3.339-4.031,6.522a1.359,1.359,0,0,0-.23,1.052q1.337,8.511,2.659,17.024a1.49,1.49,0,0,1-.737,1.781H38.471a2.326,2.326,0,0,1-.792-1.522c-.52-3.095-1.1-6.179-1.618-9.275-.1-.626-.441-.528-.845-.477a14.735,14.735,0,0,1-6.267-.431c-2.987-.926-4.633-3.057-5.444-6-1.014-3.681-1.818-7.407-2.549-11.15-.137-.7-.373-.985-1.139-.942a13.854,13.854,0,0,1-3.086-.055,2.766,2.766,0,0,1-2.27-3.7c.82-2.259,1.8-4.461,2.7-6.692,1.268-3.136,2.542-6.271,3.782-9.418a1.485,1.485,0,0,1,1.6-1.073c1.03.034,2.062,0,3.093.012.276,0,.457-.012.509-.366.206-1.391.445-2.777.678-4.164a.372.372,0,0,0-.251-.468,1.134,1.134,0,0,1-.642-1.174c.007-1.308.005-2.616,0-3.924a.966.966,0,0,1,.384-.932c.481-.252.38-.509.2-.893a5.664,5.664,0,0,1-.211-4.537A53.2,53.2,0,0,1,31.231.6a2.186,2.186,0,0,1,.747-.6h.6a1.651,1.651,0,0,1,.948.685,56.287,56.287,0,0,1,4.6,8.732,6.83,6.83,0,0,1,.14,5.075.983.983,0,0,0,.134,1.119,1.506,1.506,0,0,1,.283,1.069c0,1.207,0,2.415,0,3.622a1.613,1.613,0,0,1-.425,1.247,1.116,1.116,0,0,0-.3,1.04c.153,1.02.355,2.032.481,3.055.064.521.342.707.861.723,1.672.053,1.672.069,1.672-1.584q0-6.565,0-13.13a8.628,8.628,0,0,1,.023-.98,1.452,1.452,0,0,1,1.518-1.447,1.408,1.408,0,0,1,1.169,1.606c.032,1.635.01,3.271.011,4.906q0,4.718,0,9.435c0,1.147.021,1.158,1.194,1.166,1.711.011,3.421-.027,5.13.018.575-.015,1.152-.025,1.727,0,.6.027.88-.176.852-.815-.033-.744-.093-.845-.885-.849-.927,0-1.853-.023-2.78-.022-.845-.188-1.288-.638-1.282-1.3a1.384,1.384,0,0,1,1.34-1.351,6.393,6.393,0,0,1,1.118-.034c.628-.022,1.257,0,1.885-.011.4-.005.568-.187.6-.595.138-1.594.087-1.662-1.494-1.676a3.989,3.989,0,0,1-.9-.065,1.289,1.289,0,0,1-1.077-1.332,1.251,1.251,0,0,1,1.053-1.27,14.461,14.461,0,0,1,1.79-.043c.438,0,.626-.195.627-.634.007-1.881.094-1.617-1.492-1.639-.324,0-.647.013-.972-.008a4.5,4.5,0,0,1-1.333-.1q-1.132-.322-1.147-1.28c-.011-.633.342-1.043,1.107-1.291,1.023-.022,2.048-.042,3.072-.027.532.008.75-.2.77-.749.061-1.662.079-1.662-1.564-1.672a5.573,5.573,0,0,1-.823-.036A1.253,1.253,0,0,1,49.131,8.38,1.238,1.238,0,0,1,50,7.049a4.711,4.711,0,0,1,1.864-.175c.5,0,.735-.2.73-.716-.01-.981-.013-1.962,0-2.943.008-.508-.195-.736-.712-.726-.6.012-1.207.015-1.811,0-1.807.032-3.613,0-5.42.016-.884.007-.946.069-.959.933-.013.8.025,1.607-.017,2.409A1.351,1.351,0,0,1,42.28,7.291c-.907-.238-1.271-.614-1.3-1.5q-.07-2.221,0-4.444A1.249,1.249,0,0,1,41.944,0Z" transform="translate(-8.701)"/>
          <path id="Trazado_160776" data-name="Trazado 160776" d="M7.65,26.812a1.148,1.148,0,0,1-1.094-.782c-.336-.728-.668-1.458-.972-2.2a4.545,4.545,0,0,0-2.576-2.593c-.741-.3-1.469-.642-2.2-.972A1.162,1.162,0,0,1,.82,18.047c.685-.309,1.361-.642,2.059-.917a4.61,4.61,0,0,0,2.739-2.725c.273-.7.606-1.376.913-2.061a1.17,1.17,0,0,1,2.25.012c.344.779.708,1.549,1.044,2.333A4.235,4.235,0,0,0,12.1,16.977c.8.352,1.6.713,2.4,1.076a1.163,1.163,0,0,1-.011,2.218c-.776.35-1.548.712-2.332,1.044A4.239,4.239,0,0,0,9.822,23.64c-.345.806-.705,1.606-1.074,2.4a1.139,1.139,0,0,1-1.1.771" transform="translate(0 -7.004)"/>
          <path id="Trazado_160777" data-name="Trazado 160777" d="M36.355,73.88c.21-.283.511-.131.762-.131q26.324-.01,52.647-.013c.6,0,.793.076.741.767a45.431,45.431,0,0,1-4.248,15.451c-.487,1.076-.42,1.4.372,2.014a15.893,15.893,0,0,0-1.057,2,1.251,1.251,0,0,0-1.69.676q-2.04,3.61-4.38,7.035a2.059,2.059,0,0,0-.255,1.587q.863,5.587,1.727,11.173c.262,1.688.517,3.378.8,5.062.068.406-.08.467-.428.453-.7-.028-1.407-.024-2.11-.033a1.168,1.168,0,0,1-.4-.864c-.824-5.245-1.62-10.494-2.438-15.74a2.508,2.508,0,0,1,.574-1.886c1.437-2.1,2.756-4.271,3.978-6.5,3.328-6.072,5.871-12.414,6.612-19.371.005-.05.015-.1.02-.149.134-1.189.039-1.3-1.169-1.3q-24.343,0-48.686-.006c-.463,0-.964.133-1.375-.224" transform="translate(-22.141 -44.89)" fill="#f4af84"/>
          <path id="Trazado_160778" data-name="Trazado 160778" d="M135.068,48.422c-2.133.01-4.266.011-6.4.037-.4,0-.449-.169-.443-.5.016-.8.018-1.607,0-2.41-.019-.934-.27-1.222-1.192-1.44a13.3,13.3,0,0,0,.005-2.256c.9-.182,1.175-.487,1.187-1.429.016-1.327.02-2.655,0-3.982-.008-.416.1-.56.536-.554,2.1.03,4.205.027,6.308.035a1.284,1.284,0,0,1,.244.991q.01,5.256,0,10.511a1.311,1.311,0,0,1-.244.993" transform="translate(-77.368 -21.859)" fill="#fdce4a"/>
          <path id="Trazado_160779" data-name="Trazado 160779" d="M175.4,7.709a1.1,1.1,0,0,1-.718,1.05c-.683.312-1.364.631-2.058.919a3.945,3.945,0,0,0-2.216,2.232c-.277.671-.592,1.327-.888,1.99a1.14,1.14,0,0,1-2.141.017c-.335-.728-.666-1.458-.986-2.193a3.646,3.646,0,0,0-1.972-1.969c-.736-.317-1.463-.656-2.191-.99a1.137,1.137,0,0,1,.018-2.14c.686-.307,1.367-.626,2.058-.919a3.855,3.855,0,0,0,2.131-2.116c.294-.692.617-1.371.921-2.058a1.138,1.138,0,0,1,1.081-.789,1.123,1.123,0,0,1,1.09.771c.314.71.652,1.41.957,2.124a3.725,3.725,0,0,0,2.02,2.024c.735.32,1.465.652,2.193.986a1.086,1.086,0,0,1,.7,1.06" transform="translate(-98.35 -0.452)"/>
          <path id="Trazado_160780" data-name="Trazado 160780" d="M26.47,74.148l50.418.006c1.085,0,1.151.006,1.059,1.108a40.99,40.99,0,0,1-1.83,8.946A66.438,66.438,0,0,1,70,97.518c-.958,1.652-2.022,3.233-3.07,4.824-.441.669-.179,1.273-.093,1.868.444,3.063.971,6.114,1.448,9.172.327,2.1.619,4.2.931,6.3a4.577,4.577,0,0,0,.134.507c-2.314.009-4.628.025-6.942.026-6.089,0-12.178-.011-18.266.019-.617,0-.8-.193-.892-.755-.534-3.146-1.1-6.286-1.659-9.428-.213-1.2-.656-1.491-1.9-1.257a14.889,14.889,0,0,1-5.4.091,5.658,5.658,0,0,1-4.852-4.147c-1.26-4.167-2.079-8.432-2.952-12.686-.3-1.442-.474-1.61-1.936-1.61-1.182,0-2.365.016-3.547-.006-.807-.015-1.053-.376-.753-1.117q3.051-7.535,6.124-15.061c.018-.043.065-.074.1-.11" transform="translate(-12.256 -45.158)" fill="#fdc7a1"/>
          <path id="Trazado_160781" data-name="Trazado 160781" d="M86.015,12.872q-.023-1.108-.046-2.217c.889-.209,1.137-.5,1.146-1.392.009-1.006.015-2.012-.005-3.018-.007-.355.094-.479.463-.475,2.061.023,4.122.023,6.184.03a1.019,1.019,0,0,1,.226.771c.013,1.1.016,2.2,0,3.3a.862.862,0,0,1-.364.85c-.983.737-.931,1.546.14,2.166A4.3,4.3,0,0,1,93.92,15.3c-.014.251-.2.371-.469.374a4.7,4.7,0,0,0-1.04.036,1.083,1.083,0,0,0-.908,1.259c.1.726.632.956,1.29.987.323.015.646.027.969.041a3.618,3.618,0,0,1,0,2.736c-1.14.687-1.138,1.565.007,2.245a3.648,3.648,0,0,1-.008,2.736c-.323.011-.647.017-.97.034-.658.033-1.175.271-1.292.994-.1.624.27,1.053,1.067,1.282.1.008-.022-.007.072.02.407.121,1-.247,1.216.256a1.9,1.9,0,0,1-.093,1.783c-1.985.009-3.97,0-5.953.041-.57.013-.7-.145-.7-.706.023-4.977,0-9.954.025-14.93,0-.848-.255-1.411-1.114-1.613" transform="translate(-52.357 -3.514)" fill="#fdce4a"/>
          <path id="Trazado_160782" data-name="Trazado 160782" d="M54.262,23.935c-.829.009-1.659.009-2.487.03a.829.829,0,0,1-.66-.283,3.689,3.689,0,0,1-1.006-4A27.233,27.233,0,0,1,52.62,14.3c.362-.043.466.249.588.482a34.949,34.949,0,0,1,2,4.373,4.9,4.9,0,0,1-.267,4.008,1.393,1.393,0,0,1-.682.77" transform="translate(-30.381 -8.708)" fill="#fb6240"/>
          <path id="Trazado_160783" data-name="Trazado 160783" d="M147.578,48.426q0-6.248,0-12.5c.727-.009,1.455,0,2.181-.032.375-.016.463.137.462.482q-.013,5.8,0,11.594c0,.344-.085.5-.461.486-.726-.031-1.454-.025-2.18-.035" transform="translate(-89.878 -21.862)" fill="#fba129"/>
          <path id="Trazado_160784" data-name="Trazado 160784" d="M58.522,20.316c1.667-2.208,1.085-4.426-.011-6.618a14.916,14.916,0,0,0-1.632-3.014l1.278-2.328a37.234,37.234,0,0,1,3.912,8.049,3.646,3.646,0,0,1-1.137,3.7.754.754,0,0,1-.6.237c-.6-.017-1.206-.02-1.809-.029" transform="translate(-34.641 -5.089)" fill="#dd5039"/>
          <path id="Trazado_160785" data-name="Trazado 160785" d="M55.515,60.416c-1.551.011-3.1.012-4.652.038-.382.007-.448-.1-.38-.474q.349-1.918.61-3.851c.054-.394.164-.555.59-.539,1.024.039,2.051.028,3.076.037a9.134,9.134,0,0,1,.656,3.039,2.872,2.872,0,0,1,.1,1.75" transform="translate(-30.731 -33.854)" fill="#fcac52"/>
          <path id="Trazado_160786" data-name="Trazado 160786" d="M137.3,23.979h-5.365c.646-1.275,1.261-2.469,1.853-3.674.139-.282.36-.222.572-.224.377,0,.753.013,1.129.022a.818.818,0,0,1,.421.411q.7,1.375,1.376,2.765c.108.224.223.463.013.7" transform="translate(-80.35 -12.227)" fill="#fdc7a1"/>
          <path id="Trazado_160787" data-name="Trazado 160787" d="M105.531,10.725a3.749,3.749,0,0,0,.133-1.7c.026-1.075.007-2.151.006-3.226.752-.008,1.505,0,2.257-.03.37-.015.466.122.461.475-.017,1.305-.024,2.611,0,3.916.009.432-.18.481-.537.482a11.288,11.288,0,0,0-2.323.082" transform="translate(-64.271 -3.514)" fill="#fca129"/>
          <path id="Trazado_160788" data-name="Trazado 160788" d="M62.213,60.414l-.756-4.79c.7-.009,1.4.007,2.1-.037.4-.025.524.151.577.495q.3,1.963.626,3.922c.054.321-.023.458-.372.445-.724-.027-1.449-.025-2.173-.036" transform="translate(-37.429 -33.853)" fill="#df9249"/>
          <path id="Trazado_160789" data-name="Trazado 160789" d="M55.237,46.743c-1.676.008-3.352.008-5.028.031-.332,0-.407-.106-.424-.426C49.7,44.8,49.691,44.8,51.26,44.8c1.325,0,2.651.016,3.977.024a1.893,1.893,0,0,1,0,1.916" transform="translate(-30.303 -27.286)" fill="#dfdfdf"/>
          <path id="Trazado_160790" data-name="Trazado 160790" d="M142.834,23.872a18.872,18.872,0,0,0-1.434-3.138c-.109-.254-.25-.493-.377-.739a6.269,6.269,0,0,1,2.365.051c.68.3.8,1.306,1.181,1.992.314.56.582,1.146.927,1.834Z" transform="translate(-85.887 -12.12)" fill="#f4af84"/>
          <path id="Trazado_160791" data-name="Trazado 160791" d="M102.444,26.8a.618.618,0,0,1,.191-.1c1.157-.144,1.157-.142,1.157-1.3q0-.706,0-1.412c.729,0,1.459.021,2.187,0,.372-.011.555.071.532.493a17.809,17.809,0,0,0,0,1.811c.02.4-.132.516-.52.51-1.182-.018-2.364,0-3.546,0" transform="translate(-62.391 -14.605)" fill="#faa129"/>
          <path id="Trazado_160792" data-name="Trazado 160792" d="M105.894,39.706q0-1.368,0-2.736c.752-.012,1.5-.01,2.256-.042.378-.016.468.146.456.488-.02.6-.031,1.207,0,1.808.025.43-.171.493-.533.483-.728-.02-1.456,0-2.184,0" transform="translate(-64.492 -22.489)" fill="#fca129"/>
          <path id="Trazado_160793" data-name="Trazado 160793" d="M105.892,52.512l.008-2.736c.727,0,1.454.024,2.181.006.363-.009.555.056.528.484-.043.722.233,1.656-.124,2.114-.379.488-1.356.107-2.07.159a4.061,4.061,0,0,1-.523-.027" transform="translate(-64.491 -30.315)" fill="#fca229"/>
          <path id="Trazado_160794" data-name="Trazado 160794" d="M104.029,64.7c0-.123,0-.247,0-.37a4.862,4.862,0,0,0-.042-1.323c-.173-.563-.823-.045-1.153-.366,1.156-.005,2.311,0,3.467-.022.32-.005.478.093.438.427a.441.441,0,0,0,0,.075c.081,1.606.081,1.608-1.507,1.6-.4,0-.8-.017-1.2-.026" transform="translate(-62.629 -38.138)" fill="#fba129"/>
          <path id="Trazado_160795" data-name="Trazado 160795" d="M63.774,46.743V44.827c.425-.008.851-.023,1.276-.024,1.472,0,1.458,0,1.384,1.509-.018.364-.127.476-.482.462-.725-.029-1.452-.023-2.178-.031" transform="translate(-38.84 -27.286)" fill="#c4c3c8"/>
          <path id="Trazado_160796" data-name="Trazado 160796" d="M140.936,9.65l.877,1.783h-1.67a10.908,10.908,0,0,1,.794-1.783" transform="translate(-85.35 -5.877)" fill="#3b4f53"/>
          <path id="Trazado_160797" data-name="Trazado 160797" d="M17.468,25.193A6.747,6.747,0,0,0,13.7,28.97a6.805,6.805,0,0,0-3.785-3.776,6.731,6.731,0,0,0,3.769-3.787,6.837,6.837,0,0,0,3.782,3.786" transform="translate(-6.04 -13.037)" fill="#fdce4a"/>
          <path id="Trazado_160798" data-name="Trazado 160798" d="M171.43,13.778a6.219,6.219,0,0,0,3.064-3.073,6.083,6.083,0,0,0,3.082,3.038,6.123,6.123,0,0,0-3.056,3.117,6.145,6.145,0,0,0-3.09-3.082" transform="translate(-104.405 -6.52)" fill="#fdce4a"/>
          <path id="Trazado_160799" data-name="Trazado 160799" d="M96.609,92.643a1.227,1.227,0,0,1-.8,1.087c-.778.347-1.546.719-2.333,1.046a4.387,4.387,0,0,0-2.431,2.437c-.334.784-.7,1.555-1.044,2.334a1.139,1.139,0,0,1-2.143,0c-.346-.779-.713-1.549-1.044-2.334a4.372,4.372,0,0,0-2.428-2.44c-.786-.328-1.554-.7-2.333-1.045a1.149,1.149,0,0,1,0-2.182c.757-.334,1.506-.685,2.267-1.008a4.481,4.481,0,0,0,2.492-2.479c.32-.763.681-1.508,1.014-2.265a1.152,1.152,0,0,1,2.206,0c.323.734.681,1.454.983,2.2a4.516,4.516,0,0,0,2.591,2.577c.742.3,1.464.655,2.2.98a1.224,1.224,0,0,1,.8,1.094" transform="translate(-49.493 -51.754)"/>
          <path id="Trazado_160800" data-name="Trazado 160800" d="M94.984,102.623a6.782,6.782,0,0,0-3.757-3.74,6.849,6.849,0,0,0,3.724-3.662c1.743,2.526,1.743,2.526,3.731,3.656a9.687,9.687,0,0,0-2.19,1.474,8.966,8.966,0,0,0-1.508,2.272" transform="translate(-55.559 -57.992)" fill="#fca129"/>
        </g>
      </g>
      <g id="Grupo_144141" data-name="Grupo 144141" transform="translate(-139 -7217)">
        <g id="Grupo_144140" data-name="Grupo 144140" clip-path="url(#clip-path-3)">
          <path id="Trazado_160801" data-name="Trazado 160801" d="M38.092,60.1l.008-2.577a5.991,5.991,0,0,1,1.656-.051c.51-.01.759-.2.72-.722-.007-.076,0-.152,0-.228A1.02,1.02,0,0,0,38.9,55.5c-.284.127-.272.394-.355.626-.118.335.027.79-.434.976l-.023-4.284c.951-.271,1-.976,1-1.822q-.033-20.807-.023-41.613A4.325,4.325,0,0,1,40.338,6a3.9,3.9,0,0,1,2.536-1.093c.229-.012.458-.01.687-.01q20.2,0,40.393-.006a4.233,4.233,0,0,1,3.438,1.319,3.966,3.966,0,0,1,1.043,2.559c.007.2.005.407.005.61q0,29.97.009,59.94a4.325,4.325,0,0,1-1.212,3.335,3.9,3.9,0,0,1-2.666,1.155c-.178.007-.357.007-.534.007q-20.273,0-40.546.005a4.277,4.277,0,0,1-3.036-1,3.994,3.994,0,0,1-1.382-3.106c0-2.6-.028-5.193.016-7.788.014-.858-.05-1.556-1-1.828" transform="translate(-20.9 -2.675)" fill="#d5dddf"/>
          <path id="Trazado_160802" data-name="Trazado 160802" d="M36.58,57.44c1.226.063,1.226.063,1.226,1.321v8.171A3.678,3.678,0,0,0,41.741,70.9H82.749A3.669,3.669,0,0,0,86.681,67V6.366a3.656,3.656,0,0,0-3.405-3.89,3.717,3.717,0,0,0-.454,0q-20.581-.007-41.162,0a3.659,3.659,0,0,0-3.853,3.9V48.838c0,1.258,0,1.258-1.226,1.321-1.217-.063-1.217-.063-1.217-1.324V6.689c0-4.129,2.522-6.655,6.644-6.655H82.475c4.129,0,6.654,2.522,6.654,6.646V66.692c0,4.128-2.524,6.658-6.644,6.658H42.019c-4.128,0-6.654-2.524-6.656-6.645,0-2.774.032-5.549-.02-8.322-.014-.759.168-1.069.936-.921a1.185,1.185,0,0,0,.3-.022" transform="translate(-19.391 -0.019)"/>
          <path id="Trazado_160803" data-name="Trazado 160803" d="M1.306,27.375C.088,27.313.189,27.3.068,26.053a11.247,11.247,0,0,1,1.764-7.382,13.791,13.791,0,0,0,.79-1.561,1.16,1.16,0,0,1,1.1-.691,1.192,1.192,0,0,1,1.171.7c.778,1.57,1.567,3.133,2.353,4.7a2.076,2.076,0,0,1,.179.963q0,27.871-.005,55.741a3.666,3.666,0,0,1-7.326.3c0-.1,0-.205,0-.307Q.084,54.5.074,30.487c0-.565.123-.795.7-.694a2.521,2.521,0,0,0,.531-.019c.992-.406,1.409-.162,1.463.853.016.325.008.661.008.993V69.954c.006,1.069.51,1.422,1.546,1.1a.51.51,0,0,0,.389-.5,7.1,7.1,0,0,0,.02-.759q0-22.909.012-45.818a4.93,4.93,0,0,0-.666-2.466c-.257-.463-.434-.393-.66.022a4.467,4.467,0,0,0-.65,2.395c.041.867.03,1.734,0,2.6-.038,1.006-.469,1.25-1.461.844" transform="translate(0 -9.007)"/>
          <path id="Trazado_160804" data-name="Trazado 160804" d="M2.895,32.18c1.226-.063,1.226-.063,1.226-1.321a11.167,11.167,0,0,0-.011-1.525,6.157,6.157,0,0,1,1.261-4.161c.487,1.161,1.219,2.077,1.216,3.4Q6.533,51.938,6.581,75.3c0,.694-.168.885-.861.86-1.6-.054-1.6-.017-1.6-1.632V35.89c0-1.257,0-1.257-1.226-1.321Z" transform="translate(-1.588 -13.812)" fill="#d5dddf"/>
          <path id="Trazado_160805" data-name="Trazado 160805" d="M25.822,21.122c-1.28,0-1.28,0-1.28-1.306a4.7,4.7,0,0,0,0-.607c-.054-.42.142-.542.524-.491a.951.951,0,0,0,.152,0C27,18.7,26.981,18.7,27,20.46c.006.51-.09.759-.65.667a3.18,3.18,0,0,0-.533,0" transform="translate(-13.46 -10.264)" fill="#010101"/>
          <path id="Trazado_160806" data-name="Trazado 160806" d="M27.007,41.108c0,1.226,0,1.226-1.219,1.226s-1.227,0-1.227-1.218c0-1.173,0-1.173,1.18-1.173h.076c1.19,0,1.19,0,1.19,1.164" transform="translate(-13.476 -21.916)" fill="#020202"/>
          <path id="Trazado_160807" data-name="Trazado 160807" d="M25.824,52.88c-1.278,0-1.278,0-1.278-1.246a3.91,3.91,0,0,0,0-.608c-.08-.5.16-.629.6-.56a1.062,1.062,0,0,0,.152,0c1.711,0,1.679,0,1.715,1.734.012.6-.19.759-.728.677a3.032,3.032,0,0,0-.462,0" transform="translate(-13.459 -27.68)" fill="#010101"/>
          <path id="Trazado_160808" data-name="Trazado 160808" d="M25.737,63.477c-1.173,0-1.173,0-1.173-1.179,0-1.211,0-1.211,1.233-1.211,1.211,0,1.211,0,1.211,1.233,0,1.157,0,1.157-1.271,1.157" transform="translate(-13.478 -33.517)" fill="#020202"/>
          <path id="Trazado_160809" data-name="Trazado 160809" d="M25.837,84.67c-1.273,0-1.273,0-1.273-1.254,0-1.148,0-1.148,1.134-1.148,1.311,0,1.311,0,1.311,1.275,0,1.127,0,1.127-1.172,1.127" transform="translate(-13.478 -45.138)" fill="#010101"/>
          <path id="Trazado_160810" data-name="Trazado 160810" d="M27.008,93.978c0,1.219,0,1.219-1.587,1.219-.858,0-.858,0-.858-1.508,0-.9,0-.828,1.626-.926,1.219-.075.708.751.819,1.214" transform="translate(-13.477 -50.894)" fill="#010101"/>
          <path id="Trazado_160811" data-name="Trazado 160811" d="M38.129,118.259a1.482,1.482,0,0,0,.108-.278c.291-1.709.289-1.7,2.027-1.6.311.018.485.079.434.423v.076c-.056.643.284,1.658-.144,1.85a3.555,3.555,0,0,1-2.438-.053c0-.142.008-.281.013-.422" transform="translate(-20.913 -63.837)" fill="#010101"/>
          <path id="Trazado_160812" data-name="Trazado 160812" d="M17.474,3.372a7.135,7.135,0,0,0-1.53-.632c-.168-.051-.066-.261-.037-.407.074-.371.13-.745.217-1.114.252-1.15.054-.958,1.114-.623,1.837.58,1.827.613.771,2.212-.385.573-.385.573-.535.564" transform="translate(-8.696 -0.186)" fill="#010101"/>
          <path id="Trazado_160813" data-name="Trazado 160813" d="M24.812,7.158a7.42,7.42,0,0,1,1.023,2.191c.1.34.014.464-.3.513-.151.024-.3.044-.45.077-1.618.352-1.605.348-2.149-1.176-.108-.289.042-.357.209-.47Z" transform="translate(-12.566 -3.927)" fill="#010101"/>
          <path id="Trazado_160814" data-name="Trazado 160814" d="M29.777,111.94a13.9,13.9,0,0,0,1.23,1.232c.242.251-.2.491-.292.751a1.463,1.463,0,0,1-.156.26c-.782,1.247-.782,1.247-1.883.186-.99-.953-.991-.954.117-1.743.308-.218.619-.435.983-.686" transform="translate(-15.334 -61.418)" fill="#010101"/>
          <path id="Trazado_160815" data-name="Trazado 160815" d="M25.817,103.442c1.159,0,1.055.016,1.222,1.1.143.923-.227,1.126-1,1.276-1.453.28-1.445.325-1.475-1.192-.025-1.181-.025-1.181,1.255-1.181" transform="translate(-13.473 -56.756)" fill="#010101"/>
          <path id="Trazado_160816" data-name="Trazado 160816" d="M8.044,1.237c0,1.222,0,1.222-1.205,1.222a.219.219,0,0,1-.075,0c-.389-.191-1.184.493-1.172-.579C5.606.551,5.927.06,6.917.017c1.127-.052,1.127-.052,1.127,1.22" transform="translate(-3.068 0)"/>
          <path id="Trazado_160817" data-name="Trazado 160817" d="M25.725,31.74c-1.161,0-1.161,0-1.161-1.129,0-1.236,0-1.236,1.207-1.236,1.237,0,1.237,0,1.237,1.206,0,1.159,0,1.159-1.283,1.159" transform="translate(-13.478 -16.117)"/>
          <path id="Trazado_160818" data-name="Trazado 160818" d="M25.784,74.078c-1.221,0-1.221,0-1.221-1.222,0-1.143,0-1.143,1.147-1.143,1.3,0,1.3,0,1.3,1.3a2.127,2.127,0,0,0,0,.379c.108.575-.126.789-.694.692a3.239,3.239,0,0,0-.533-.008" transform="translate(-13.477 -39.347)"/>
          <path id="Trazado_160819" data-name="Trazado 160819" d="M48.923,66.048V58.764c.954-.277.992-.989.991-1.833Q49.883,37.267,49.9,17.6c0-1.853.029-1.882,1.865-1.882H87.731c1.725,0,1.771.045,1.771,1.735q0,25.391,0,50.782c0,1.692-.059,1.75-1.764,1.75H51.618c-1.637,0-1.714-.081-1.718-1.725a2.837,2.837,0,0,1,0-.382c.109-.84-.024-1.557-.977-1.833" transform="translate(-26.843 -8.626)" fill="#2d72bb"/>
          <path id="Trazado_160820" data-name="Trazado 160820" d="M47.422,63.381c1.226.061,1.226.061,1.226,1.345,0,.636.013,1.273,0,1.909-.01.333.108.468.441.434.151-.014.3,0,.458,0q18.671,0,37.342.014c.676,0,.885-.142.884-.86q-.034-26.041,0-52.081c0-.728-.223-.855-.889-.854q-18.671.028-37.342,0c-.744,0-.909.185-.908.916q.036,20.273.018,40.546c0,1.286,0,1.286-1.226,1.345-1.219-.06-1.219-.06-1.219-1.327V12.705c0-1.518.319-1.843,1.816-1.843H88.409c1.451,0,1.789.338,1.789,1.8q0,27.522,0,55.044c0,1.49-.325,1.814-1.848,1.814H48.04c-1.508,0-1.831-.325-1.832-1.829,0-1.145.043-2.293-.016-3.434-.036-.687.155-.976.855-.85a1.657,1.657,0,0,0,.375-.022" transform="translate(-25.342 -5.96)"/>
          <path id="Trazado_160821" data-name="Trazado 160821" d="M87.511,148.665c-1.858,0-3.714-.013-5.569.01-.427,0-.542-.108-.553-.542-.026-1.909-.041-1.909,1.843-1.909,3.253,0,6.512.011,9.767-.011.494,0,.633.119.631.622-.01,1.832.01,1.832-1.85,1.832Z" transform="translate(-44.653 -80.223)"/>
          <path id="Trazado_160822" data-name="Trazado 160822" d="M5.6,146.127c0-.71.021-1.421-.008-2.13-.016-.4.126-.505.519-.519,1.933-.068,1.932-.081,1.932,1.843,0,.964.01,1.928,0,2.891a1.234,1.234,0,0,1-1.076,1.376,1.115,1.115,0,0,1-.117.009c-.746.016-1.23-.526-1.244-1.409-.015-.691-.007-1.375-.007-2.06" transform="translate(-3.069 -78.711)" fill="#2d71bb"/>
          <path id="Trazado_160823" data-name="Trazado 160823" d="M64.222,44.758c-1.316.808-2.536,1.529-3.722,2.3-.434.278-.607.2-.861-.217-.946-1.567-.96-1.554.57-2.494,1.192-.729,2.379-1.473,3.578-2.191a.807.807,0,0,0,.441-.795q-.02-5.765,0-11.532c0-.517-.166-.638-.65-.626-1.221.031-2.445-.012-3.666.021-.479.013-.592-.141-.6-.6-.017-1.852-.035-1.852,1.781-1.852.867,0,1.735-.016,2.6.006.386.011.581-.094.525-.508a1.688,1.688,0,0,1,0-.382c.046-.5-.242-1.247.119-1.445.6-.325,1.385-.1,2.092-.1.262,0,.227.227.229.4,0,.51.026,1.02,0,1.528-.025.412.135.516.526.513q3.169-.024,6.339,0c.363,0,.5-.114.48-.48-.024-.509.008-1.018-.01-1.528-.011-.325.093-.486.434-.442a.425.425,0,0,0,.076,0c1.9-.094,1.909-.094,1.93,1.835,0,.433.074.629.577.622q3.092-.043,6.186,0c.487.007.65-.155.579-.609a.427.427,0,0,1,0-.076c.023-1.931.023-1.922,2-1.778.325.024.478.1.44.44a2.642,2.642,0,0,0,0,.3c.01,1.707.01,1.707,1.685,1.707.891,0,1.782.014,2.672-.006.375-.009.525.079.542.5.081,1.952.1,1.952-1.834,1.952-.84,0-1.682.023-2.519-.009-.442-.018-.581.138-.553.565.032.482-.007.967.012,1.451.013.325-.108.477-.434.434a.424.424,0,0,0-.076,0c-1.888.09-1.9.09-1.923-1.843,0-.445-.088-.622-.584-.616q-3.093.043-6.186,0c-.5-.006-.639.17-.574.616a.425.425,0,0,1,0,.076c-.022,1.931-.022,1.922-2.01,1.772-.325-.025-.47-.117-.434-.445a1.937,1.937,0,0,0,0-.229c-.023-1.778-.023-1.778-1.766-1.778H67.275c-.295,0-.61-.084-.608.422.014,3.532.007,7.064.007,10.733,1.564-.958,3.036-1.856,4.5-2.756,1.062-.65,2.134-1.289,3.178-1.969a1.481,1.481,0,0,1,1.771,0c1.506.95,3.029,1.873,4.553,2.8a1.114,1.114,0,0,0,.669.292c0-.531.023-1.058-.006-1.581-.025-.434.066-.621.57-.627,1.88-.024,2-.037,1.843,1.829a2.8,2.8,0,0,0,1.726,3.092c1.952,1.028,3.773,2.31,5.68,3.431.542.32.529.564.229,1.038-.915,1.445-.894,1.448-2.321.569-4.4-2.71-8.8-5.4-13.186-8.131a1.05,1.05,0,0,0-1.3.011c-2.346,1.478-4.7,2.948-7.085,4.356a1.345,1.345,0,0,0-.825,1.5,8.287,8.287,0,0,1,.007,1.1c1.662-1.034,3.209-1.995,4.754-2.958.993-.619,1.992-1.231,2.972-1.868a1.377,1.377,0,0,1,1.633-.014q4.717,2.963,9.448,5.9a1.494,1.494,0,0,1,.751,1.4c-.011,3.9,0,7.789-.008,11.684,0,1.091-.434,1.509-1.539,1.51-5.727,0-11.456.012-17.183-.014-.65,0-.887.123-.845.824.067,1.141.038,2.29.009,3.436-.012.475.091.664.619.656q3.054-.047,6.109,0c.523.007.622-.176.623-.65,0-1.871.019-1.856,1.883-1.815.434.009.566.128.561.561-.005.6-.273,1.4.108,1.764.412.4,1.21.115,1.837.124,1.579.02,3.157-.01,4.734.016.478.007.731-.1.642-.622a.425.425,0,0,1,0-.076c.021-1.934.019-1.924,2.019-1.765.336.027.459.137.425.455a.722.722,0,0,0,0,.153c.062.6-.283,1.41.15,1.734.4.3,1.169.1,1.778.108.814.008,1.626.019,2.443,0,.395-.012.513.108.527.515.07,1.938.084,1.936-1.843,1.936-.712,0-1.43.049-2.137-.014s-1.049.117-.922.89c.052.325-.023.664.016.99.057.493-.158.584-.608.588-1.82.018-1.843.032-1.83-1.788,0-.533-.137-.688-.677-.68-2.011.032-4.022.027-6.033,0-.486-.005-.723.114-.636.628a.531.531,0,0,1,0,.076c-.019,1.938-.019,1.928-2.024,1.76-.34-.028-.452-.148-.419-.461a1.237,1.237,0,0,0,0-.153c-.019-.581.182-1.345-.108-1.7-.352-.418-1.145-.128-1.746-.136-1.626-.023-3.259.009-4.887-.019-.473-.009-.665.131-.588.6a.537.537,0,0,1,0,.076c-.025,1.931-.024,1.923-2,1.785-.31-.022-.48-.083-.451-.434.019-.228,0-.458,0-.687,0-1.334,0-1.334-1.371-1.334-.967,0-1.935-.017-2.9.008-.434.011-.623-.059-.631-.568-.026-1.883-.048-1.883,1.829-1.883.816,0,1.626-.028,2.444.011.5.023.65-.129.642-.634-.025-2.47-.011-4.938-.011-7.408V44.751Z" transform="translate(-32.363 -13.314)"/>
          <path id="Trazado_160824" data-name="Trazado 160824" d="M51.512,117.692c0,1.2,0,1.2-1.192,1.2-1.164,0-1.164,0-1.164-1.168,0-1.277,0-1.277,1.13-1.277,1.226,0,1.226,0,1.226,1.243" transform="translate(-26.97 -63.892)" fill="#000101"/>
          <path id="Trazado_160825" data-name="Trazado 160825" d="M75.992,76.078c0-1.528.012-3.054-.009-4.581a.792.792,0,0,1,.434-.787q3.858-2.385,7.691-4.813a.721.721,0,0,1,.893.01q3.833,2.425,7.692,4.811a.743.743,0,0,1,.413.722q-.02,4.661,0,9.315c0,.425-.108.566-.542.556q-1.908-.041-3.817,0c-.446.011-.542-.142-.542-.56.02-1.757.013-3.512.007-5.268,0-1.059-.433-1.5-1.461-1.512q-2.214-.013-4.428,0c-.994.007-1.433.45-1.438,1.454-.009,1.735-.032,3.462.014,5.191.015.594-.169.718-.722.7-1.168-.043-2.342-.039-3.511,0-.515.017-.7-.1-.685-.65.04-1.533.013-3.06.013-4.586" transform="translate(-41.687 -36.074)" fill="#fbbb04"/>
          <path id="Trazado_160826" data-name="Trazado 160826" d="M92.251,91.646v-.533c0-2.029,0-2.021,2.06-1.843.292.025.391.1.389.394q-.018,2.06,0,4.12c0,.3-.089.427-.388.387a.427.427,0,0,0-.076,0c-1.985.108-1.985.108-1.985-1.833Z" transform="translate(-50.615 -48.939)" fill="#d5dddf"/>
        </g>
      </g>
      <g id="Grupo_144143" data-name="Grupo 144143" transform="translate(6 -7220)">
        <g id="Grupo_144142" data-name="Grupo 144142" clip-path="url(#clip-path-4)">
          <path id="Trazado_160827" data-name="Trazado 160827" d="M38.536,0a7.446,7.446,0,0,1,1.841.971A3.9,3.9,0,0,1,37.967,7.8c-1.447.059-1.447.059-1.447,1.486v12.2a5.3,5.3,0,0,1,2.249-.6,4.8,4.8,0,0,1,3.779,1.679c3.4,3.8,6.806,7.58,10.156,11.416a7.79,7.79,0,0,1,1.4,8.476c-1.823,4.682-3.637,9.369-5.521,14.028A9.155,9.155,0,0,1,39.763,62.6c-.557.018-.652.184-.65.691a26.054,26.054,0,0,1-.067,3.892A5,5,0,0,1,35.7,71.365a.669.669,0,0,0-.524.758c.03,1.528.021,3.056.009,4.585-.009,1.061-.485,1.545-1.541,1.547q-6.265.013-12.531,0a1.348,1.348,0,0,1-1.55-1.538c-.013-1.554-.015-3.108.005-4.662a.588.588,0,0,0-.441-.663,5.139,5.139,0,0,1-3.5-5.039c-.035-1.018-.032-2.038.005-3.056.018-.5-.066-.691-.639-.7a9.2,9.2,0,0,1-7.083-3.167,10.027,10.027,0,0,1-1.775-3Q3.4,49.488.674,42.542a7.976,7.976,0,0,1,1.568-8.787c3.133-3.519,6.3-7.008,9.384-10.568,1.8-2.078,3.852-2.911,6.5-1.77.172-.217.1-.45.1-.66.005-4.076-.013-8.151.021-12.226.005-.639-.209-.734-.771-.729C15.1,7.822,13.545,6.688,13.131,4.7A3.913,3.913,0,0,1,15.837.165c.134-.039.318.032.385-.165Zm-8.58,71.756c-2.439-.011-4.879-.015-7.318-.039-.38,0-.475.145-.47.495.017.991.02,1.983,0,2.974-.008.369.121.476.481.473,2.44-.02,4.879-.022,7.319-.03.708.009,1.415.006,2.123.03.339.011.509-.075.5-.459-.019-1.011-.013-2.023,0-3.035,0-.316-.1-.464-.436-.453-.732.024-1.465.03-2.2.044M38.07,23.71a.728.728,0,0,0-.224.026,2.332,2.332,0,0,0-.578,3.828c1.851,1.988,3.725,3.955,5.592,5.927a9.048,9.048,0,0,1,1.964,2.688.53.53,0,0,0,.587.351c1.167-.022,2.334-.023,3.5-.032h2.351a4.606,4.606,0,0,0-.785-1.107Q49,33.739,47.535,32.082q-3.4-3.822-6.812-7.641a2.2,2.2,0,0,0-2.653-.731m5.345,32.421c.3.468.614.929.9,1.406.205.344.343.412.643.053a8.03,8.03,0,0,0,1.273-2.243q2.721-6.871,5.418-13.751a7.78,7.78,0,0,0,.48-1.838c.067-.513-.111-.672-.614-.638-.659.043-1.321.024-1.982.032-1.018-.008-2.041.046-3.052-.043-.8-.071-1,.22-.95.959a4.19,4.19,0,0,1-.183,1.275c-.495,1.974-1.269,3.859-1.872,5.8a10.984,10.984,0,0,1-2.537,4.718.432.432,0,0,0-.052.652c.851,1.2,1.688,2.412,2.53,3.619M33.027,69.072c2.338.335,3.435-1.081,3.487-2.635.036-1.092,0-2.186.015-3.279.006-.39-.122-.553-.524-.535-.684.031-1.37.03-2.055.042-.3-.015-.608-.044-.912-.044q-6.722,0-13.444,0c-.306,0-.612.012-.917,0-.325-.015-.45.119-.446.447.015,1.171-.043,2.346.028,3.513a2.551,2.551,0,0,0,2.7,2.529c1.808.021,3.616.011,5.424,0,2.215-.008,4.429-.026,6.643-.04M36.216,2.638c-2.238-.011-4.475-.029-6.712-.032q-6.142-.008-12.285,0c-.941,0-1.575.544-1.577,1.3s.609,1.283,1.568,1.3c.585.008,1.17,0,1.755,0,1.491,0,1.875.392,1.876,1.908,0,1.094.006,2.188,0,3.281,0,.32.026.546.446.5a13.134,13.134,0,0,1,7.066,1.46,5.073,5.073,0,0,0,3,.639,4.381,4.381,0,0,0,2.309-.636c.225-.088.264-.28.262-.5q-.022-2.663-.039-5.326c.255-1.011.625-1.3,1.673-1.325.224,0,.447-.022.671-.034.506.01,1.012.043,1.517.026a1.333,1.333,0,0,0,1.367-1.255,1.326,1.326,0,0,0-1.3-1.324c-.527-.039-1.061.009-1.592.018m5.674,56.056c-1.03-1.541-2.07-3.075-3.082-4.628-.254-.39-.492-.295-.825-.147a9.516,9.516,0,0,1-3.928.8q-6.678-.008-13.356,0a9.279,9.279,0,0,1-3.926-.808c-.393-.18-.612-.172-.868.217q-1.62,2.449-3.3,4.856c-.284.408-.174.51.25.654A8.558,8.558,0,0,0,15.637,60q11.715.013,23.431,0c.531,0,1.062-.082,1.593-.126a1.738,1.738,0,0,0,.96-.151c.886-.264.883-.271.269-1.031M31.2,15.74a19.485,19.485,0,0,1-5.867-1.79,7.851,7.851,0,0,0-3.671-.489c-.6.038-.846.211-.843.906.032,8.247.021,16.493.02,24.74a20.171,20.171,0,0,0,.091,2.056,6.489,6.489,0,0,0,11.335,3.552,7.089,7.089,0,0,0,1.641-4.864q0-11.951,0-23.9v-.857a11.147,11.147,0,0,1-2.556.646H31.2M18.234,30.576c-1.732,1.839-3.329,3.514-4.9,5.211a5.34,5.34,0,0,0-1.221,5.654c.662,2,1.321,4,2.018,5.99a6.505,6.505,0,0,0,6.079,4.649c4.785.081,9.575.1,14.359-.012a6.093,6.093,0,0,0,5.809-4.1c.866-2.193,1.568-4.451,2.3-6.694a5.176,5.176,0,0,0-1.219-5.439c-1.47-1.588-2.961-3.157-4.452-4.726-.123-.129-.2-.359-.488-.326,0,.257,0,.507,0,.758,0,2.9.021,5.806-.005,8.709a9.135,9.135,0,0,1-17.052,4.726,9.541,9.541,0,0,1-1.229-4.9c0-3.1,0-6.2,0-9.5M5.907,39.129c-.942,0-1.884.015-2.825-.007-.372-.009-.48.109-.457.479a6.569,6.569,0,0,0,.485,1.991Q5.823,48.51,8.557,55.418A7.89,7.89,0,0,0,9.8,57.59c.282.34.4.317.639-.038q1.65-2.476,3.353-4.918a.583.583,0,0,0-.078-.895,9.151,9.151,0,0,1-2.092-3.593c-.579-1.735-1.172-3.465-1.753-5.2A9.135,9.135,0,0,1,9.207,39.6c.022-.441-.191-.488-.55-.481-.916.018-1.832.006-2.749.006m-2.476-2.6c2.074,0,3.981-.007,5.887.007a.586.586,0,0,0,.637-.4,9.011,9.011,0,0,1,1.875-2.576c1.871-1.978,3.733-3.965,5.612-5.936a2.414,2.414,0,0,0,.7-2.439,2.284,2.284,0,0,0-3.942-.907c-3.43,3.793-6.812,7.63-10.208,11.454a9.4,9.4,0,0,0-.556.794" transform="translate(0)" fill="#020203"/>
          <path id="Trazado_160828" data-name="Trazado 160828" d="M59.249,33.739a11.168,11.168,0,0,0,2.557-.647v.857q0,11.95,0,23.9a7.089,7.089,0,0,1-1.641,4.864,6.489,6.489,0,0,1-11.335-3.552,20.294,20.294,0,0,1-.091-2.056c0-8.247.012-16.494-.02-24.74,0-.695.238-.868.843-.906a7.862,7.862,0,0,1,3.671.489,19.485,19.485,0,0,0,5.867,1.79c0,2.076,0,4.153,0,6.23,0,.271.079.56-.11.809a1.291,1.291,0,0,0-1.753-.393,1.208,1.208,0,0,0-.587,1.434,1.156,1.156,0,0,0,.921.914,1.379,1.379,0,0,0,1.5-.658q0,5.267,0,10.533a1.367,1.367,0,0,0-1.5-.639,1.178,1.178,0,0,0-.915.921,1.238,1.238,0,0,0,.587,1.442,1.283,1.283,0,0,0,1.746-.42c.2.276.107.592.109.89.01,1.429,0,2.858,0,4.288l.15,0ZM55.268,57.169a1.3,1.3,0,0,0-1.288-1.317,1.27,1.27,0,0,0-1.3,1.3,1.294,1.294,0,0,0,2.587.018M52.74,37.563a1.312,1.312,0,0,0-1.363,1.251,1.285,1.285,0,0,0,1.258,1.347,1.261,1.261,0,0,0,1.315-1.2,1.3,1.3,0,0,0-1.209-1.4M55.272,46.7a1.294,1.294,0,0,0-2.588,0,1.292,1.292,0,0,0,1.252,1.279A1.306,1.306,0,0,0,55.272,46.7" transform="translate(-27.899 -18)" fill="#fbe438"/>
          <path id="Trazado_160829" data-name="Trazado 160829" d="M57.34,131.954c-.531.044-1.062.126-1.593.126q-11.715.012-23.431,0a8.558,8.558,0,0,1-2.783-.362c-.424-.144-.535-.246-.25-.654q1.679-2.409,3.3-4.856c.257-.388.475-.4.869-.216a9.275,9.275,0,0,0,3.925.808q6.678-.008,13.357,0a9.514,9.514,0,0,0,3.927-.8c.333-.148.571-.244.825.147,1.012,1.553,2.052,3.087,3.082,4.628a7.882,7.882,0,0,0-1.229,1.182" transform="translate(-16.678 -72.078)" fill="#2193ee"/>
          <path id="Trazado_160830" data-name="Trazado 160830" d="M52.309,16.478a5.073,5.073,0,0,1-3-.639,13.126,13.126,0,0,0-7.066-1.46c-.42.049-.449-.177-.446-.5.009-1.094,0-2.188,0-3.281,0-1.517-.385-1.906-1.876-1.908-.585,0-1.17.006-1.755,0-.959-.013-1.571-.523-1.569-1.3,0-.758.637-1.3,1.577-1.3q6.142-.01,12.285,0c2.238,0,4.475.021,6.712.032a3.059,3.059,0,0,1,.009,2.535c-.224.012-.447.029-.671.033-1.048.023-1.418.314-1.674,1.326-.662.006-1.324.033-1.985.013-.426-.013-.582.133-.577.568.024,1.96.023,3.92.03,5.88" transform="translate(-20.96 -3.486)" fill="#ccd5da"/>
          <path id="Trazado_160831" data-name="Trazado 160831" d="M9.421,91.551c.916,0,1.833.012,2.749-.006.359-.007.571.039.55.481a9.132,9.132,0,0,0,.664,3.344c.581,1.734,1.174,3.464,1.753,5.2a9.143,9.143,0,0,0,2.092,3.593.583.583,0,0,1,.078.895c-1.139,1.624-2.252,3.267-3.353,4.918-.236.354-.357.377-.639.037a7.879,7.879,0,0,1-1.244-2.172q-2.729-6.91-5.447-13.825a6.574,6.574,0,0,1-.485-1.992c-.023-.371.085-.488.457-.479.941.022,1.883.007,2.825.007" transform="translate(-3.513 -52.422)" fill="#2294f0"/>
          <path id="Trazado_160832" data-name="Trazado 160832" d="M57.445,152.977c-2.214.014-4.428.032-6.643.04-1.808.006-3.616.017-5.424,0a2.551,2.551,0,0,1-2.7-2.529c-.071-1.168-.013-2.342-.028-3.513,0-.329.121-.462.446-.447.3.014.611,0,.916,0q6.722,0,13.445,0c.3,0,.608.029.912.044l-.005.986c-.009,1.857.216,3.753-.918,5.42" transform="translate(-24.418 -83.906)" fill="#2295f1"/>
          <path id="Trazado_160833" data-name="Trazado 160833" d="M8.03,67.99a9.4,9.4,0,0,1,.556-.794c3.4-3.824,6.778-7.661,10.208-11.454a2.284,2.284,0,0,1,3.942.907,2.414,2.414,0,0,1-.7,2.439c-1.878,1.971-3.741,3.958-5.612,5.936A9.011,9.011,0,0,0,14.554,67.6a.586.586,0,0,1-.637.4c-1.906-.014-3.812-.007-5.887-.007" transform="translate(-4.598 -31.465)" fill="#2294f0"/>
          <path id="Trazado_160834" data-name="Trazado 160834" d="M98.034,108.523c-.842-1.207-1.679-2.418-2.53-3.619a.432.432,0,0,1,.052-.652,10.994,10.994,0,0,0,2.537-4.718c.6-1.94,1.377-3.825,1.872-5.8a4.174,4.174,0,0,0,.183-1.275c-.052-.738.148-1.029.951-.959,1.011.089,2.034.035,3.052.044a5.752,5.752,0,0,1-.2,1.8c-.409,1.447-1.046,2.8-1.586,4.2-1.421,3.668-2.883,7.319-4.329,10.977" transform="translate(-54.619 -52.392)" fill="#2294f0"/>
          <path id="Trazado_160835" data-name="Trazado 160835" d="M97.854,68.269c-1.167.009-2.335.009-3.5.032a.529.529,0,0,1-.586-.351A9.06,9.06,0,0,0,91.8,65.262c-1.868-1.973-3.741-3.939-5.592-5.927a2.332,2.332,0,0,1,.578-3.828.744.744,0,0,1,.224-.027,1.261,1.261,0,0,0,.153.338c2.6,2.917,5.219,5.814,7.8,8.75a15.033,15.033,0,0,1,2.894,3.7" transform="translate(-48.941 -31.771)" fill="#2294f0"/>
          <path id="Trazado_160836" data-name="Trazado 160836" d="M101.591,108.547c1.446-3.658,2.908-7.309,4.329-10.977.541-1.394,1.177-2.75,1.586-4.2a5.752,5.752,0,0,0,.2-1.8c.661-.008,1.324.011,1.982-.032.5-.033.681.126.614.639a7.752,7.752,0,0,1-.481,1.837q-2.7,6.88-5.418,13.752a8.053,8.053,0,0,1-1.273,2.243c-.3.359-.438.29-.643-.053-.284-.478-.6-.938-.9-1.406" transform="translate(-58.176 -52.415)" fill="#1565be"/>
          <path id="Trazado_160837" data-name="Trazado 160837" d="M59.669,171.73c-2.44.008-4.879.009-7.319.03-.36,0-.489-.1-.481-.473.021-.991.018-1.983,0-2.974-.006-.35.09-.5.47-.5,2.439.024,4.879.029,7.318.039q.006,1.937.012,3.873" transform="translate(-29.702 -96.101)" fill="#2295f1"/>
          <path id="Trazado_160838" data-name="Trazado 160838" d="M99.927,68.026a15.033,15.033,0,0,0-2.894-3.7c-2.576-2.936-5.2-5.833-7.8-8.75a1.261,1.261,0,0,1-.153-.338,2.2,2.2,0,0,1,2.653.731q3.418,3.81,6.812,7.641,1.473,1.654,2.944,3.311a4.6,4.6,0,0,1,.785,1.107Z" transform="translate(-51.014 -31.527)" fill="#1565bd"/>
          <path id="Trazado_160839" data-name="Trazado 160839" d="M77.284,152.984c1.133-1.666.909-3.563.918-5.42l.005-.986c.685-.013,1.371-.012,2.055-.043.4-.018.53.146.524.535-.019,1.093.021,2.187-.015,3.279-.051,1.553-1.149,2.97-3.486,2.634" transform="translate(-44.257 -83.913)" fill="#1565bd"/>
          <path id="Trazado_160840" data-name="Trazado 160840" d="M73.317,21.745c-.008-1.96-.006-3.92-.03-5.88-.006-.435.151-.581.577-.568.661.021,1.323-.006,1.985-.013q.019,2.663.039,5.326c0,.218-.037.41-.262.5a4.38,4.38,0,0,1-2.308.636" transform="translate(-41.968 -8.752)" fill="#5e7a88"/>
          <path id="Trazado_160841" data-name="Trazado 160841" d="M70.107,171.723,70.1,167.85c.732-.014,1.465-.02,2.2-.044.332-.011.44.137.436.453-.01,1.012-.017,2.023,0,3.035.007.383-.162.47-.5.459-.707-.023-1.415-.021-2.123-.029" transform="translate(-40.14 -96.094)" fill="#1564b9"/>
          <path id="Trazado_160842" data-name="Trazado 160842" d="M84.755,8.663a3.06,3.06,0,0,0-.009-2.535c.531-.009,1.065-.056,1.591-.018a1.326,1.326,0,0,1,1.3,1.323,1.333,1.333,0,0,1-1.367,1.255c-.5.018-1.011-.015-1.517-.026" transform="translate(-48.53 -3.491)" fill="#5e7a88"/>
          <path id="Trazado_160843" data-name="Trazado 160843" d="M73.007,36.83V62.18l-.15,0c0-1.429.005-2.859,0-4.288,0-.3.09-.614-.109-.89a1.826,1.826,0,0,0,.085-1.3q0-5.267,0-10.533a1.8,1.8,0,0,0-.08-1.3c.188-.248.109-.538.109-.809.006-2.076,0-4.153,0-6.23h.15" transform="translate(-41.657 -21.091)" fill="#e2d455"/>
          <path id="Trazado_160844" data-name="Trazado 160844" d="M95.148,138.525a7.883,7.883,0,0,1,1.229-1.182c.615.76.617.767-.269,1.031a1.738,1.738,0,0,1-.96.151" transform="translate(-54.486 -78.649)" fill="#1564b9"/>
          <path id="Trazado_160845" data-name="Trazado 160845" d="M60.576,89.892a1.294,1.294,0,0,1-2.587-.019,1.27,1.27,0,0,1,1.3-1.3,1.3,1.3,0,0,1,1.288,1.317" transform="translate(-33.207 -50.722)" fill="#060602"/>
          <path id="Trazado_160846" data-name="Trazado 160846" d="M56.3,45.777a1.3,1.3,0,0,1,1.209,1.4,1.261,1.261,0,0,1-1.315,1.2,1.286,1.286,0,0,1-1.258-1.347A1.313,1.313,0,0,1,56.3,45.777" transform="translate(-31.457 -26.213)" fill="#060602"/>
          <path id="Trazado_160847" data-name="Trazado 160847" d="M60.582,65.42A1.306,1.306,0,0,1,59.246,66.7a1.292,1.292,0,0,1-1.252-1.279,1.294,1.294,0,0,1,2.588,0" transform="translate(-33.21 -36.725)" fill="#060602"/>
          <path id="Trazado_160848" data-name="Trazado 160848" d="M69.65,80.065a1.829,1.829,0,0,1-.085,1.3,1.282,1.282,0,0,1-1.746.419,1.238,1.238,0,0,1-.587-1.441,1.177,1.177,0,0,1,.916-.921,1.366,1.366,0,0,1,1.5.639" transform="translate(-38.478 -45.455)" fill="#060602"/>
          <path id="Trazado_160849" data-name="Trazado 160849" d="M69.551,52.518a1.8,1.8,0,0,1,.08,1.3,1.379,1.379,0,0,1-1.5.658,1.156,1.156,0,0,1-.921-.915,1.207,1.207,0,0,1,.587-1.434,1.291,1.291,0,0,1,1.753.393" transform="translate(-38.464 -29.739)" fill="#060602"/>
        </g>
      </g>
      <g id="Grupo_144145" data-name="Grupo 144145" transform="translate(133 -7218)">
        <g id="Grupo_144144" data-name="Grupo 144144" clip-path="url(#clip-path-5)">
          <path id="Trazado_160850" data-name="Trazado 160850" d="M0,97.811a9.592,9.592,0,0,1,0,4.049Z" transform="translate(0 -68.093)" fill="#fefefe"/>
          <path id="Trazado_160851" data-name="Trazado 160851" d="M67.794,65.425q0-2.02,0-4.039c.852-.218.88-.861.88-1.581q-.015-26.043-.008-52.087c0-.322-.008-.645.005-.968a3.047,3.047,0,0,1,2.46-2.921,7.254,7.254,0,0,1,1.4-.108q14.388-.009,28.776,0c.7,0,1.316-.047,1.4-.934h4.149c.088.736.548.942,1.232.938,2.67-.017,5.34-.009,8.01,0,.3,0,.6.032,1.067.058a6.878,6.878,0,0,0-1.1,4.567q.022,14.83.007,29.659,0,16.678,0,33.356a3.072,3.072,0,0,1-2.759,3.286c-2.089.231-3.451-.631-3.929-2.487,1.651-.349,2.051-.834,2.051-2.512q0-9.279,0-18.558c0-1.69-.661-2.345-2.339-2.346q-8.181,0-16.362,0c-1.806,0-2.392.578-2.394,2.351q-.008,7.168-.016,14.336c-1.759.008-3.518.024-5.278.022q-8.621-.008-17.242-.027M92.435,7.881q-8.313,0-16.626,0c-1.764,0-2.351.6-2.353,2.393q0,3.914,0,7.828c0,1.746.64,2.425,2.368,2.426q16.626.014,33.252,0c1.691,0,2.348-.683,2.352-2.354q.008-4,0-8c0-1.659-.632-2.289-2.28-2.289q-8.357,0-16.714,0m8.4,15.81c-2.871,0-5.743-.011-8.614.005a1.715,1.715,0,0,0-1.907,1.9c-.014,1.406-.007,2.812,0,4.218,0,1.458.665,2.165,2.141,2.17q8.438.026,16.876,0c1.423,0,2.116-.768,2.124-2.22q.011-1.933,0-3.867c-.01-1.535-.667-2.2-2.18-2.208-2.812-.007-5.625,0-8.438,0m.041,16.178q-4.665,0-9.33,0c-.644,0-1.24.1-1.217.9.022.754.582.925,1.238.924q9.286-.005,18.571,0c.7,0,1.3-.206,1.273-.99-.024-.765-.655-.842-1.294-.839-3.08.012-6.161.005-9.241.005M100.8,38.4c3.109,0,6.219-.007,9.328.005.647,0,1.268-.105,1.277-.861.009-.782-.6-.966-1.3-.966q-9.284.008-18.568,0c-.66,0-1.213.188-1.217.944-.005.8.6.881,1.238.879,3.08-.008,6.16,0,9.24,0m.092,6.489c3.137,0,6.274-.006,9.41,0,.628,0,1.074-.262,1.094-.878s-.4-.937-1.032-.937q-9.5,0-19,0c-.615,0-1.049.276-1.046.921s.463.892,1.071.887c.205,0,.41,0,.616,0H100.9M79.76,31.993c1.614,0,3.227,0,4.841,0,.658,0,1.236-.2,1.254-.925s-.54-.969-1.207-.968c-3.227,0-6.454,0-9.681,0-.639,0-1.222.186-1.2.963.022.761.592.925,1.24.925q2.376,0,4.752,0m.034,21.828q2.42,0,4.84,0c.666,0,1.23-.235,1.225-.956s-.578-.942-1.241-.941c-3.2,0-6.394,0-9.591,0-.628,0-1.24.14-1.254.913-.014.814.584.983,1.27.981,1.584,0,3.168,0,4.752,0m-.009,9.7c1.611,0,3.221,0,4.831,0,.617,0,1.175-.166,1.224-.85.054-.745-.516-.97-1.159-1.028-.058-.005-.117-.012-.175-.012-3.162,0-6.325-.012-9.487.009-.635,0-1.3.138-1.248,1,.048.77.63.884,1.27.881,1.581-.008,3.163,0,4.744,0m-.015-3.293c1.609,0,3.219-.015,4.828.007.668.01,1.238-.155,1.243-.895s-.582-.926-1.235-.925q-4.828,0-9.656,0c-.664,0-1.194.205-1.182.968.012.746.56.851,1.174.847,1.609-.011,3.219,0,4.828,0m.063-20.355c-1.61,0-3.22,0-4.83,0-.633,0-1.24.072-1.236.878,0,.757.55.947,1.209.947q4.83,0,9.66,0c.661,0,1.225-.212,1.207-.953-.016-.68-.536-.883-1.18-.875-1.61.019-3.22.006-4.83.006M79.765,28.7c1.609,0,3.218-.009,4.826,0,.649.005,1.218-.1,1.219-.9s-.569-.92-1.214-.92q-4.826,0-9.652,0c-.668,0-1.194.2-1.178.963.015.738.555.859,1.173.855,1.608-.011,3.218,0,4.826,0m-.042,21.824c1.642,0,3.284-.008,4.926,0,.627,0,1.141-.134,1.156-.876s-.487-.933-1.114-.934q-4.882,0-9.764,0c-.629,0-1.14.186-1.158.9-.019.8.551.917,1.2.912,1.583-.012,3.167,0,4.75,0M79.786,38.4c1.614,0,3.228-.008,4.841,0,.62,0,1.159-.112,1.185-.851.028-.78-.517-.97-1.176-.971q-4.841,0-9.682,0c-.668,0-1.2.216-1.188.973s.564.853,1.179.85c1.614-.01,3.228,0,4.841,0m-.108,18.622q2.462,0,4.924,0c.647,0,1.212-.135,1.2-.932-.01-.739-.522-.88-1.152-.878q-4.837.015-9.673,0c-.642,0-1.233.107-1.208.912.024.776.6.9,1.247.9,1.553-.009,3.107,0,4.661,0m25.709-23.612h-5.008c-.612,0-1.076.25-1.048.9a.906.906,0,0,0,1.019.87q4.964.006,9.928,0c.589,0,1.113-.262,1.1-.883-.011-.645-.492-.909-1.162-.9-1.61.029-3.221.009-4.832.01M79.8,35.2c1.642,0,3.285,0,4.928,0,.639,0,1.116-.236,1.086-.962-.028-.675-.49-.852-1.1-.85q-4.884.012-9.767,0c-.625,0-1.16.139-1.179.863-.021.773.526.955,1.19.952,1.613-.006,3.227,0,4.84,0m-.039,9.693c1.613,0,3.227-.009,4.84,0,.656.005,1.217-.121,1.211-.915s-.589-.9-1.231-.9q-4.8.007-9.592,0c-.656,0-1.224.14-1.218.919s.592.9,1.238.9c1.584-.009,3.168,0,4.752,0M76.282,25.5c.5,0,.991.015,1.486,0,.6-.022,1.025-.285,1-.949-.019-.611-.408-.862-.988-.861-1.02,0-2.04,0-3.06,0-.579,0-.965.265-.963.88a.874.874,0,0,0,.947.923c.523.027,1.049.006,1.573.007" transform="translate(-47.196 -1.941)" fill="#fdf1ed"/>
          <path id="Trazado_160852" data-name="Trazado 160852" d="M45.967,63.484q8.621.015,17.242.028c1.759,0,3.518-.014,5.278-.022q7.939.011,15.878.023A2.925,2.925,0,0,1,87.5,66.627q.026,1.8.05,3.592c.478,1.855,1.841,2.718,3.929,2.487a3.072,3.072,0,0,0,2.759-3.286q.011-16.678,0-33.356,0-14.83-.008-29.659a6.878,6.878,0,0,1,1.1-4.567c-.463-.026-.765-.057-1.067-.058-2.67,0-5.34-.012-8.01,0-.684,0-1.143-.2-1.232-.938C85.193.191,85.654,0,86.281,0c4.483.009,8.967-.021,13.449.018a4.906,4.906,0,0,1,5.039,5.155c.006,1.143-.035,2.287.012,3.427a3.651,3.651,0,0,1-.891,2.669,3.69,3.69,0,0,1-2.592.792c-.548-.017-1.1.028-1.648.046-1.046-.149-2.1-.024-3.146-.069-.382-.016-.508.149-.5.521.029,1.022.032,2.044.045,3.067q0,1.771-.008,3.543a18.143,18.143,0,0,0,0,2.8q0,7.305,0,14.61c-.015.35-.043.7-.043,1.051,0,10.467-.041,20.934.029,31.4a5.164,5.164,0,0,1-5.489,5.521c-6.89-.09-13.782-.029-20.673-.026-.319,0-.638.043-.957.066-.378-.025-.755-.07-1.132-.07-8.519,0-17.038-.031-25.556.017a5.709,5.709,0,0,1-4.863-2.092c-1.241-2.114-.942-4.42-.726-6.674a2.685,2.685,0,0,1,2.829-2.257c2.167-.022,4.334-.022,6.5-.032M86.738,72.6a5.525,5.525,0,0,1-1.014-3.882c.021-.5,0-1,0-1.5,0-1.7-.247-1.948-1.906-1.948H41.059c-.469,0-.939-.008-1.408,0-.943.019-1.338.389-1.369,1.329-.026.762-.007,1.525-.006,2.287,0,2.719,1.124,3.847,3.838,3.847q21.776,0,43.553,0a2.022,2.022,0,0,0,1.07-.137m12.47-62.321c.821,0,1.643.021,2.463-.005.938-.029,1.322-.427,1.333-1.367.014-1.29.017-2.58,0-3.87a3.173,3.173,0,0,0-3.377-3.263c-2.145-.032-3.56,1.2-3.612,3.211-.04,1.553.01,3.108-.02,4.662-.01.517.179.659.662.643.85-.028,1.7-.008,2.552-.009" transform="translate(-25.369 0)"/>
          <path id="Trazado_160853" data-name="Trazado 160853" d="M100.592.857c-.082.887-.7.934-1.4.934q-14.388-.011-28.776,0a7.254,7.254,0,0,0-1.4.108,3.048,3.048,0,0,0-2.46,2.921c-.013.322-.005.645-.005.968q0,26.043.007,52.087c0,.72-.028,1.364-.88,1.582a1.053,1.053,0,0,1-.9-1.246c.026-.456-.013-.916-.023-1.375.009-2.107.025-4.215.025-6.322q.006-16.865,0-33.729c0-.321-.021-.642-.032-.963q.015-5.228.031-10.455C64.8,2.033,66.808.024,70.165.022Q84.623.013,99.082.015c.671,0,1.322,0,1.51.843" transform="translate(-45.083 -0.01)"/>
          <path id="Trazado_160854" data-name="Trazado 160854" d="M251.15,60.422c-.732.569-.623,1.561-.879,2.445-.138.478-.764.53-1.2.2a.738.738,0,0,0-1.077-.019.912.912,0,0,1-1.413-1.034.684.684,0,0,0-.285-.966.831.831,0,0,1-.407-.979.861.861,0,0,1,.924-.661.674.674,0,0,0,.814-.583.861.861,0,0,1,.887-.713.886.886,0,0,1,.893.713.68.68,0,0,0,.812.585c.553-.019.867.284.933,1.016" transform="translate(-171.15 -40.453)" fill="#ef3c79"/>
          <path id="Trazado_160855" data-name="Trazado 160855" d="M40.372,16.7a1.02,1.02,0,0,1,.276-.716c1.762-2.151,2.571-2.132,4.258.092a.831.831,0,0,1-.125,1.3.852.852,0,0,1-1.31-.192c-.516-.678-.951-.709-1.461,0a.886.886,0,0,1-1.092.34.815.815,0,0,1-.547-.822" transform="translate(-28.105 -10.017)" fill="#00cbae"/>
          <path id="Trazado_160856" data-name="Trazado 160856" d="M241.336,85.254c-1.262.162-1.641-.269-1.234-1.4.484-.464.976-.919,1.448-1.395a.944.944,0,0,1,1.519-.028c.455.454.916.9,1.358,1.368a.836.836,0,0,1,.047,1.252.871.871,0,0,1-1.32.02c-.932-.759-.936-.753-1.819.183" transform="translate(-167.043 -57.128)" fill="#ef3c79"/>
          <path id="Trazado_160857" data-name="Trazado 160857" d="M232.622,51.439l1.674,0a11.5,11.5,0,0,0-1.556,3.7l-.126-.165.008-3.543" transform="translate(-161.939 -35.81)" fill="#fdf1ed"/>
          <path id="Trazado_160858" data-name="Trazado 160858" d="M232.491,63.1l.126.165q0,1.313,0,2.625l-.065.012-.066,0a18.067,18.067,0,0,1,0-2.8" transform="translate(-161.816 -43.929)" fill="#fec9c9"/>
          <path id="Trazado_160859" data-name="Trazado 160859" d="M244.939,209.3a1.039,1.039,0,0,1,.215-.648c1.585-2.153,2.928-2.123,4.365.108a.805.805,0,0,1,.1.9c-.3.521-.9.758-1.236.372-.8-.911-1.365-.713-2.162,0-.513.459-1.268-.04-1.281-.735" transform="translate(-170.519 -144.149)" fill="#00cbae"/>
          <path id="Trazado_160860" data-name="Trazado 160860" d="M40.024,149.852c.353-.6,0-1.007-.474-1.481a.8.8,0,0,1,.568-1.354c.58-.038.914-.19,1.075-.763a.757.757,0,0,1,.818-.533.835.835,0,0,1,.864.612.778.778,0,0,0,.937.657.747.747,0,0,1,.8.564.839.839,0,0,1-.3,1.021.8.8,0,0,0-.373,1.087.867.867,0,0,1-.328,1.017.772.772,0,0,1-1.048-.028c-.434-.4-.761-.185-1.166.033a.89.89,0,0,1-1.37-.833" transform="translate(-27.373 -101.447)" fill="#ef3c79"/>
          <path id="Trazado_160861" data-name="Trazado 160861" d="M105.406,19.549q8.357,0,16.714,0c1.648,0,2.277.63,2.28,2.289q.006,4,0,8c0,1.67-.661,2.352-2.352,2.354q-16.626.014-33.252,0c-1.728,0-2.366-.68-2.368-2.427q-.005-3.914,0-7.828c0-1.8.588-2.393,2.353-2.393h16.626" transform="translate(-60.167 -13.61)" fill="#ef3c79"/>
          <path id="Trazado_160862" data-name="Trazado 160862" d="M160.976,177.458q-.025-1.8-.05-3.592a2.925,2.925,0,0,0-3.134-3.115q-7.939-.016-15.878-.022.008-7.168.016-14.336c0-1.773.587-2.35,2.394-2.351q8.181,0,16.362,0c1.678,0,2.338.656,2.339,2.346q.007,9.279,0,18.558c0,1.679-.4,2.163-2.051,2.512m-12.038-16.024h-1.495c-.3,0-.606-.005-.73.345-.132.377.095.609.367.809.708.52,1.4,1.063,2.134,1.545a.787.787,0,0,1,.366,1.095c-.308.82-.532,1.671-.806,2.5-.1.317-.228.625.094.88.376.3.656.01.935-.188.716-.509,1.44-1.009,2.131-1.549a.7.7,0,0,1,1.054-.005c.668.566,1.4,1.054,2.123,1.558.25.175.5.463.86.217.384-.26.252-.628.159-.953a20.992,20.992,0,0,0-.694-2.171,1.06,1.06,0,0,1,.472-1.535c.7-.421,1.335-.949,2-1.434.246-.18.458-.392.352-.733s-.4-.386-.708-.385c-.791,0-1.588-.058-2.372.017-.807.077-1.236-.168-1.417-.991a23.437,23.437,0,0,0-.74-2.34c-.1-.295-.283-.537-.626-.517-.31.018-.427.283-.514.536-.172.5-.328,1-.492,1.5-.592,1.8-.592,1.8-2.451,1.8m11.281-3.694a.878.878,0,0,0,.877-.908.892.892,0,0,0-.974-1,.877.877,0,0,0-.921.959c.008.572.3.929,1.018.945" transform="translate(-98.797 -107.238)" fill="#00cbae"/>
          <path id="Trazado_160863" data-name="Trazado 160863" d="M152.408,71.576c2.813,0,5.625-.005,8.438,0,1.512,0,2.17.673,2.18,2.208q.012,1.933,0,3.867c-.008,1.453-.7,2.216-2.124,2.22q-8.438.027-16.876,0c-1.476,0-2.137-.712-2.141-2.17,0-1.406-.011-2.812,0-4.218a1.715,1.715,0,0,1,1.907-1.9c2.871-.016,5.742-.005,8.614-.006" transform="translate(-98.772 -49.827)" fill="#ef3c79"/>
          <path id="Trazado_160864" data-name="Trazado 160864" d="M152.5,124.82c3.081,0,6.161.006,9.242-.005.639,0,1.27.074,1.294.839.024.784-.576.99-1.273.99q-9.285-.006-18.571,0c-.656,0-1.217-.17-1.238-.924-.023-.8.573-.9,1.217-.9q4.665.009,9.33,0" transform="translate(-98.824 -86.892)" fill="#00cbae"/>
          <path id="Trazado_160865" data-name="Trazado 160865" d="M152.432,115.831c-3.08,0-6.16,0-9.24,0-.64,0-1.243-.077-1.238-.879,0-.755.558-.944,1.217-.944q9.284,0,18.568,0c.693,0,1.307.184,1.3.966-.009.756-.63.863-1.277.861-3.109-.012-6.218-.005-9.328-.005" transform="translate(-98.824 -79.37)" fill="#00cbae"/>
          <path id="Trazado_160866" data-name="Trazado 160866" d="M152.525,137.214h-8.883c-.205,0-.41,0-.616,0-.608,0-1.068-.229-1.071-.887s.431-.921,1.046-.921q9.5,0,19,0c.637,0,1.052.324,1.031.937s-.467.88-1.094.878c-3.137-.011-6.274,0-9.411,0" transform="translate(-98.825 -94.264)" fill="#00cbae"/>
          <path id="Trazado_160867" data-name="Trazado 160867" d="M93.445,94.576q-2.376,0-4.753,0c-.648,0-1.218-.163-1.24-.925-.022-.778.561-.962,1.2-.963,3.227-.009,6.454,0,9.681,0,.667,0,1.225.238,1.207.968s-.6.928-1.254.925c-1.614-.005-3.227,0-4.841,0" transform="translate(-60.882 -64.523)" fill="#00cbae"/>
          <path id="Trazado_160868" data-name="Trazado 160868" d="M93.492,166.411c-1.584,0-3.168,0-4.752,0-.686,0-1.284-.166-1.27-.981.014-.773.626-.911,1.254-.912,3.2-.006,6.394,0,9.591,0,.663,0,1.235.218,1.241.941s-.558.958-1.224.956q-2.42-.005-4.84,0" transform="translate(-60.894 -114.531)" fill="#ef3c79"/>
          <path id="Trazado_160869" data-name="Trazado 160869" d="M93.474,198.333c-1.581,0-3.163-.005-4.744,0-.64,0-1.222-.11-1.27-.88-.054-.863.614-1,1.248-1,3.163-.021,6.325-.01,9.487-.009.058,0,.117.007.175.012.642.057,1.213.283,1.159,1.028-.05.684-.607.852-1.224.85-1.61-.006-3.221,0-4.831,0" transform="translate(-60.885 -136.757)" fill="#ef3c79"/>
          <path id="Trazado_160870" data-name="Trazado 160870" d="M93.459,187.673c-1.609,0-3.219-.007-4.828,0-.614,0-1.162-.1-1.174-.847-.012-.763.518-.969,1.182-.968q4.828,0,9.656,0c.653,0,1.24.185,1.235.925s-.575.9-1.243.9c-1.609-.023-3.218-.008-4.828-.008" transform="translate(-60.885 -129.39)" fill="#ef3c79"/>
          <path id="Trazado_160871" data-name="Trazado 160871" d="M93.52,124.818c1.61,0,3.22.013,4.83-.006.644-.008,1.165.2,1.181.876.018.74-.546.953-1.207.953q-4.83,0-9.66,0c-.659,0-1.206-.19-1.209-.947,0-.806.6-.881,1.236-.878,1.61.007,3.22,0,4.83,0" transform="translate(-60.883 -86.89)" fill="#00cbae"/>
          <path id="Trazado_160872" data-name="Trazado 160872" d="M93.447,83.927c-1.609,0-3.218-.007-4.826,0-.617,0-1.157-.117-1.173-.855-.016-.765.511-.964,1.178-.963q4.826.007,9.653,0c.645,0,1.215.13,1.213.92s-.57.9-1.219.9c-1.609-.013-3.218,0-4.826,0" transform="translate(-60.879 -57.165)" fill="#00cbae"/>
          <path id="Trazado_160873" data-name="Trazado 160873" d="M93.414,155.771c-1.583,0-3.167-.008-4.75,0-.652,0-1.223-.109-1.2-.911.017-.715.529-.9,1.158-.9q4.882.005,9.764,0c.627,0,1.129.2,1.114.934s-.529.88-1.156.876c-1.642-.012-3.284,0-4.926,0" transform="translate(-60.887 -107.184)" fill="#ef3c79"/>
          <path id="Trazado_160874" data-name="Trazado 160874" d="M93.471,115.837c-1.614,0-3.228-.007-4.842,0-.615,0-1.17-.1-1.179-.85s.52-.973,1.188-.973q4.841,0,9.682,0c.659,0,1.2.191,1.176.971-.026.739-.565.856-1.185.851-1.614-.012-3.228,0-4.841,0" transform="translate(-60.881 -79.376)" fill="#00cbae"/>
          <path id="Trazado_160875" data-name="Trazado 160875" d="M93.371,177.15c-1.553,0-3.107-.006-4.661,0-.647,0-1.223-.121-1.247-.9-.025-.805.566-.913,1.208-.912q4.837,0,9.673,0c.63,0,1.142.139,1.152.878.01.8-.554.933-1.2.932q-2.462,0-4.924,0" transform="translate(-60.889 -122.067)" fill="#ef3c79"/>
          <path id="Trazado_160876" data-name="Trazado 160876" d="M177.646,103.556c1.611,0,3.222.019,4.832-.01.669-.012,1.151.252,1.162.9.011.621-.514.881-1.1.883q-4.964.011-9.929,0a.907.907,0,0,1-1.019-.87c-.028-.652.435-.9,1.048-.9h5.008" transform="translate(-119.455 -72.086)" fill="#fec9c9"/>
          <path id="Trazado_160877" data-name="Trazado 160877" d="M93.488,105.306c-1.613,0-3.226,0-4.84,0-.664,0-1.211-.179-1.19-.952.02-.725.555-.865,1.179-.864q4.884.012,9.767,0c.606,0,1.068.175,1.1.85.031.726-.447.96-1.086.962-1.643,0-3.285,0-4.928,0" transform="translate(-60.886 -72.048)" fill="#00cbae"/>
          <path id="Trazado_160878" data-name="Trazado 160878" d="M93.451,137.208c-1.584,0-3.168-.006-4.752,0-.647,0-1.232-.113-1.238-.9s.561-.921,1.217-.919q4.8.011,9.592,0c.642,0,1.225.1,1.231.9s-.555.92-1.211.915c-1.613-.012-3.227,0-4.84,0" transform="translate(-60.888 -94.258)" fill="#00cbae"/>
          <path id="Trazado_160879" data-name="Trazado 160879" d="M89.955,73.382c-.524,0-1.05.02-1.573-.006a.874.874,0,0,1-.947-.923c0-.616.384-.877.963-.88,1.02-.006,2.04,0,3.06,0,.58,0,.969.25.988.861.021.664-.4.926-1,.949-.495.018-.991,0-1.486,0" transform="translate(-60.869 -49.824)" fill="#00cbae"/>
          <path id="Trazado_160880" data-name="Trazado 160880" d="M90.927,222.161a2.019,2.019,0,0,1-1.07.137q-21.777.007-43.553,0c-2.714,0-3.837-1.128-3.838-3.847,0-.762-.019-1.526.006-2.287.032-.941.426-1.31,1.369-1.329.469-.009.939,0,1.408,0H88.01c1.66,0,1.905.252,1.906,1.948,0,.5.018,1,0,1.5a5.526,5.526,0,0,0,1.015,3.881" transform="translate(-29.558 -149.561)" fill="#fec9c9"/>
          <path id="Trazado_160881" data-name="Trazado 160881" d="M235.662,14.342c-.85,0-1.7-.019-2.552.009-.482.016-.672-.126-.662-.643.031-1.553-.02-3.109.02-4.662.052-2.01,1.467-3.243,3.612-3.211A3.173,3.173,0,0,1,239.459,9.1c.017,1.29.014,2.581,0,3.871-.01.94-.394,1.337-1.333,1.367-.82.026-1.642.005-2.463.006" transform="translate(-161.824 -4.062)" fill="#fec9c9"/>
          <path id="Trazado_160882" data-name="Trazado 160882" d="M159.846,169.591c1.859,0,1.859,0,2.451-1.8.165-.5.321-1,.492-1.5.087-.252.2-.518.514-.536.344-.019.528.222.627.517a23.406,23.406,0,0,1,.739,2.34c.181.823.61,1.068,1.417.991.784-.075,1.581-.013,2.372-.017.31,0,.6.041.708.385s-.105.553-.351.733c-.661.485-1.3,1.013-2,1.434a1.06,1.06,0,0,0-.472,1.536,21.011,21.011,0,0,1,.694,2.171c.093.326.225.694-.159.953-.364.246-.611-.042-.86-.217-.719-.5-1.454-.992-2.123-1.558a.7.7,0,0,0-1.054,0c-.692.54-1.415,1.041-2.131,1.549-.279.2-.559.486-.936.188-.322-.255-.2-.563-.094-.879.274-.833.5-1.684.805-2.5a.787.787,0,0,0-.366-1.095c-.733-.482-1.426-1.025-2.134-1.545-.272-.2-.5-.432-.367-.809.123-.351.431-.345.73-.345h1.495" transform="translate(-109.704 -115.396)" fill="#fdf1ed"/>
          <path id="Trazado_160883" data-name="Trazado 160883" d="M199.83,161.852c-.714-.015-1.01-.373-1.018-.945a.877.877,0,0,1,.921-.959.892.892,0,0,1,.974,1,.878.878,0,0,1-.877.908" transform="translate(-138.408 -111.351)" fill="#fdf1ed"/>
        </g>
      </g>
      <rect id="Rectángulo_39654" data-name="Rectángulo 39654" width="126" height="41" rx="20.5" transform="translate(-455 -7131)" fill="#fff"/>
      <rect id="Rectángulo_39655" data-name="Rectángulo 39655" width="126" height="41" rx="20.5" transform="translate(-309 -7131)" fill="#fff"/>
      <rect id="Rectángulo_39656" data-name="Rectángulo 39656" width="87" height="52" rx="26" transform="translate(-148 -7137)" fill="#fff"/>
      <rect id="Rectángulo_39657" data-name="Rectángulo 39657" width="87" height="32" rx="16" transform="translate(-10 -7126)" fill="#fff"/>
      <rect id="Rectángulo_39658" data-name="Rectángulo 39658" width="110" height="35" rx="17.5" transform="translate(117 -7126)" fill="#fff"/>
      <path id="Trazado_161542" data-name="Trazado 161542" d="M-50.436,0h-3.076V-12.8h3.076Zm4.729-9.51.1,1.116A3.225,3.225,0,0,1-42.9-9.686a2.713,2.713,0,0,1,2.219.888,4.226,4.226,0,0,1,.76,2.672V0h-2.971V-6a1.6,1.6,0,0,0-.29-1.059A1.342,1.342,0,0,0-44.231-7.4a1.413,1.413,0,0,0-1.292.686V0h-2.962V-9.51Zm11.224,5.985,1.5-5.985h3.12L-32.963,0h-3.023l-3.1-9.51h3.129Zm9.993,3.7a4.889,4.889,0,0,1-3.542-1.305,4.507,4.507,0,0,1-1.354-3.4v-.246a5.84,5.84,0,0,1,.541-2.575,3.955,3.955,0,0,1,1.578-1.727,4.763,4.763,0,0,1,2.461-.611,4.117,4.117,0,0,1,3.164,1.244,4.887,4.887,0,0,1,1.16,3.467v1.151h-5.889a2.135,2.135,0,0,0,.694,1.257,2.066,2.066,0,0,0,1.389.457,2.662,2.662,0,0,0,2.2-.984l1.354,1.6A3.784,3.784,0,0,1-22.307-.277,5.3,5.3,0,0,1-24.491.176ZM-24.825-7.4q-1.3,0-1.547,1.723h2.988v-.229a1.467,1.467,0,0,0-.36-1.1A1.434,1.434,0,0,0-24.825-7.4Zm10.512,4.729a.684.684,0,0,0-.4-.606,6.016,6.016,0,0,0-1.5-.475A6.853,6.853,0,0,1-18.04-4.4a3.062,3.062,0,0,1-1.1-.971,2.319,2.319,0,0,1-.378-1.31,2.628,2.628,0,0,1,1.081-2.158,4.453,4.453,0,0,1,2.83-.848,4.934,4.934,0,0,1,3.023.853,2.666,2.666,0,0,1,1.143,2.241H-14.41q0-1.143-1.2-1.143a1.194,1.194,0,0,0-.782.259.8.8,0,0,0-.316.646.737.737,0,0,0,.387.642,3.654,3.654,0,0,0,1.235.4,10.671,10.671,0,0,1,1.49.378A2.706,2.706,0,0,1-11.457-2.76,2.491,2.491,0,0,1-12.612-.642,5.068,5.068,0,0,1-15.6.176a5.172,5.172,0,0,1-2.18-.439,3.645,3.645,0,0,1-1.494-1.2,2.707,2.707,0,0,1-.536-1.591h2.769a1.145,1.145,0,0,0,.439.962,1.808,1.808,0,0,0,1.081.3,1.422,1.422,0,0,0,.91-.246A.787.787,0,0,0-14.313-2.672Zm7.69-9.2V-9.51h1.564v2.057H-6.623V-3.1a1.111,1.111,0,0,0,.193.747,1.037,1.037,0,0,0,.765.211A4.345,4.345,0,0,0-4.926-2.2V-.079A5.466,5.466,0,0,1-6.6.176,3.1,3.1,0,0,1-8.855-.545a2.954,2.954,0,0,1-.729-2.188v-4.72H-10.8V-9.51h1.213v-2.364ZM-.769,0H-3.74V-9.51H-.769ZM-3.916-11.971a1.334,1.334,0,0,1,.457-1.043,1.718,1.718,0,0,1,1.187-.407,1.718,1.718,0,0,1,1.187.407,1.334,1.334,0,0,1,.457,1.043,1.334,1.334,0,0,1-.457,1.043,1.718,1.718,0,0,1-1.187.407,1.718,1.718,0,0,1-1.187-.407A1.334,1.334,0,0,1-3.916-11.971ZM.708-4.825a6.421,6.421,0,0,1,.475-2.549A3.821,3.821,0,0,1,2.544-9.083a3.591,3.591,0,0,1,2.065-.6,2.855,2.855,0,0,1,2.32,1l.105-.826H9.725V-.36a4.009,4.009,0,0,1-.584,2.184A3.75,3.75,0,0,1,7.449,3.248a6.219,6.219,0,0,1-2.566.5,5.365,5.365,0,0,1-2.026-.4,3.657,3.657,0,0,1-1.5-1.028L2.6.58a2.716,2.716,0,0,0,2.18.976A1.764,1.764,0,0,0,6.746-.466v-.3a2.781,2.781,0,0,1-2.153.94A3.437,3.437,0,0,1,1.78-1.156,5.517,5.517,0,0,1,.708-4.72Zm2.971.185a3.383,3.383,0,0,0,.439,1.85,1.386,1.386,0,0,0,1.23.681,1.573,1.573,0,0,0,1.4-.642v-4a1.534,1.534,0,0,0-1.38-.65,1.4,1.4,0,0,0-1.239.708A3.858,3.858,0,0,0,3.678-4.641ZM16.765,0a3.344,3.344,0,0,1-.281-.853A2.754,2.754,0,0,1,14.2.176a3.374,3.374,0,0,1-2.285-.813,2.588,2.588,0,0,1-.94-2.043,2.66,2.66,0,0,1,1.143-2.338,5.821,5.821,0,0,1,3.322-.791h.914v-.5q0-1.316-1.134-1.316a.927.927,0,0,0-1.055,1.042H11.2a2.655,2.655,0,0,1,1.173-2.239,4.931,4.931,0,0,1,2.993-.86,4.323,4.323,0,0,1,2.874.888,3.086,3.086,0,0,1,1.081,2.435v4.21a4.311,4.311,0,0,0,.4,2V0ZM14.911-1.934a1.652,1.652,0,0,0,.918-.237,1.487,1.487,0,0,0,.523-.536V-4.228h-.861q-1.547,0-1.547,1.389a.848.848,0,0,0,.272.655A.986.986,0,0,0,14.911-1.934Zm10.072-.176a1.317,1.317,0,0,0,.967-.338,1.241,1.241,0,0,0,.334-.945h2.777A3.288,3.288,0,0,1,27.94-.826a4.168,4.168,0,0,1-2.887,1,4.22,4.22,0,0,1-3.27-1.3,5.125,5.125,0,0,1-1.2-3.6v-.123A5.792,5.792,0,0,1,21.12-7.4a3.872,3.872,0,0,1,1.534-1.7,4.573,4.573,0,0,1,2.373-.593,4.116,4.116,0,0,1,2.944,1.028,3.647,3.647,0,0,1,1.09,2.786H26.284A1.626,1.626,0,0,0,25.923-7a1.244,1.244,0,0,0-.967-.4q-1.151,0-1.345,1.468a10.357,10.357,0,0,0-.062,1.283,4.068,4.068,0,0,0,.343,1.986A1.187,1.187,0,0,0,24.983-2.109ZM33.438,0H30.467V-9.51h2.971ZM30.292-11.971a1.334,1.334,0,0,1,.457-1.043,1.718,1.718,0,0,1,1.187-.407,1.718,1.718,0,0,1,1.187.407,1.334,1.334,0,0,1,.457,1.043,1.334,1.334,0,0,1-.457,1.043,1.718,1.718,0,0,1-1.187.407,1.718,1.718,0,0,1-1.187-.407A1.334,1.334,0,0,1,30.292-11.971Zm4.6,7.128a5.613,5.613,0,0,1,.554-2.536,3.96,3.96,0,0,1,1.591-1.709,4.791,4.791,0,0,1,2.435-.6,4.373,4.373,0,0,1,3.366,1.323,5.076,5.076,0,0,1,1.23,3.6v.105a4.925,4.925,0,0,1-1.235,3.529A4.384,4.384,0,0,1,39.485.176a4.434,4.434,0,0,1-3.261-1.217,4.761,4.761,0,0,1-1.327-3.3Zm2.962.185a3.538,3.538,0,0,0,.413,1.934,1.376,1.376,0,0,0,1.222.615q1.582,0,1.617-2.435v-.3Q41.1-7.4,39.467-7.4q-1.485,0-1.608,2.206ZM39.872-13.5H43l-2.443,2.76-2.417,0Zm8.218,3.99.1,1.116A3.225,3.225,0,0,1,50.9-9.686a2.713,2.713,0,0,1,2.219.888,4.226,4.226,0,0,1,.76,2.672V0H50.911V-6a1.6,1.6,0,0,0-.29-1.059A1.342,1.342,0,0,0,49.566-7.4a1.413,1.413,0,0,0-1.292.686V0H45.312V-9.51Z" transform="translate(-392 -7104)" fill="#12263f"/>
      <path id="Trazado_161541" data-name="Trazado 161541" d="M-35.178-4.333a4.673,4.673,0,0,1-.721,2.36,4.35,4.35,0,0,1-1.85,1.586,6.3,6.3,0,0,1-2.72.563,5.025,5.025,0,0,1-3.973-1.644,6.786,6.786,0,0,1-1.45-4.641v-.633a7.746,7.746,0,0,1,.655-3.292,4.961,4.961,0,0,1,1.885-2.18,5.26,5.26,0,0,1,2.848-.769,5.516,5.516,0,0,1,3.744,1.226,4.844,4.844,0,0,1,1.608,3.379h-3.076a2.292,2.292,0,0,0-.589-1.679,2.422,2.422,0,0,0-1.687-.51,1.843,1.843,0,0,0-1.687.861,5.536,5.536,0,0,0-.562,2.751v.905A6.126,6.126,0,0,0-42.24-3.12a1.882,1.882,0,0,0,1.771.879,2.369,2.369,0,0,0,1.626-.5,2.126,2.126,0,0,0,.6-1.591Zm7.075-2.5-.976-.07a1.752,1.752,0,0,0-1.793.879V0h-2.962V-9.51h2.777l.1,1.222a2.294,2.294,0,0,1,2.083-1.4,2.888,2.888,0,0,1,.826.105Zm5.5,7a4.889,4.889,0,0,1-3.542-1.305,4.507,4.507,0,0,1-1.354-3.4v-.246a5.84,5.84,0,0,1,.541-2.575,3.955,3.955,0,0,1,1.578-1.727,4.763,4.763,0,0,1,2.461-.611,4.117,4.117,0,0,1,3.164,1.244,4.887,4.887,0,0,1,1.16,3.467v1.151h-5.889a2.135,2.135,0,0,0,.694,1.257,2.066,2.066,0,0,0,1.389.457,2.662,2.662,0,0,0,2.2-.984l1.354,1.6A3.784,3.784,0,0,1-20.417-.277,5.3,5.3,0,0,1-22.6.176ZM-22.935-7.4q-1.3,0-1.547,1.723h2.988v-.229a1.467,1.467,0,0,0-.36-1.1A1.434,1.434,0,0,0-22.935-7.4ZM-12.045,0a3.344,3.344,0,0,1-.281-.853A2.754,2.754,0,0,1-14.612.176,3.374,3.374,0,0,1-16.9-.637a2.588,2.588,0,0,1-.94-2.043,2.66,2.66,0,0,1,1.143-2.338,5.821,5.821,0,0,1,3.322-.791h.914v-.5q0-1.316-1.134-1.316a.927.927,0,0,0-1.055,1.042h-2.962a2.655,2.655,0,0,1,1.173-2.239,4.931,4.931,0,0,1,2.993-.86,4.323,4.323,0,0,1,2.874.888A3.086,3.086,0,0,1-9.488-6.363v4.21a4.311,4.311,0,0,0,.4,2V0ZM-13.9-1.934a1.652,1.652,0,0,0,.918-.237,1.487,1.487,0,0,0,.523-.536V-4.228h-.861q-1.547,0-1.547,1.389a.848.848,0,0,0,.272.655A.986.986,0,0,0-13.9-1.934Zm9.5-9.94V-9.51h1.564v2.057H-4.4V-3.1a1.111,1.111,0,0,0,.193.747,1.037,1.037,0,0,0,.765.211A4.345,4.345,0,0,0-2.7-2.2V-.079a5.466,5.466,0,0,1-1.67.255A3.1,3.1,0,0,1-6.631-.545a2.954,2.954,0,0,1-.729-2.188v-4.72H-8.574V-9.51h1.213v-2.364ZM1.455,0H-1.516V-9.51H1.455ZM-1.692-11.971a1.334,1.334,0,0,1,.457-1.043,1.718,1.718,0,0,1,1.187-.407,1.718,1.718,0,0,1,1.187.407A1.334,1.334,0,0,1,1.6-11.971a1.334,1.334,0,0,1-.457,1.043,1.718,1.718,0,0,1-1.187.407,1.718,1.718,0,0,1-1.187-.407A1.334,1.334,0,0,1-1.692-11.971ZM7.071-3.524l1.5-5.985h3.12L8.591,0H5.568l-3.1-9.51H5.594ZM15.7,0H12.731V-9.51H15.7ZM12.555-11.971a1.334,1.334,0,0,1,.457-1.043,1.718,1.718,0,0,1,1.187-.407,1.718,1.718,0,0,1,1.187.407,1.334,1.334,0,0,1,.457,1.043,1.334,1.334,0,0,1-.457,1.043,1.718,1.718,0,0,1-1.187.407,1.718,1.718,0,0,1-1.187-.407A1.334,1.334,0,0,1,12.555-11.971Zm4.6,7.146a5.809,5.809,0,0,1,.976-3.56,3.211,3.211,0,0,1,2.725-1.3,2.731,2.731,0,0,1,2.145,1V-13.5h2.971V0H23.3l-.149-1.02a2.8,2.8,0,0,1-2.32,1.2,3.205,3.205,0,0,1-2.689-1.3A5.993,5.993,0,0,1,17.152-4.825Zm2.962.185q0,2.531,1.477,2.531A1.458,1.458,0,0,0,23-2.936V-6.557A1.419,1.419,0,0,0,21.608-7.4q-1.371,0-1.485,2.215ZM33.007,0a3.344,3.344,0,0,1-.281-.853A2.754,2.754,0,0,1,30.441.176a3.374,3.374,0,0,1-2.285-.813,2.588,2.588,0,0,1-.94-2.043,2.66,2.66,0,0,1,1.143-2.338A5.821,5.821,0,0,1,31.68-5.81h.914v-.5q0-1.316-1.134-1.316a.927.927,0,0,0-1.055,1.042H27.444a2.655,2.655,0,0,1,1.173-2.239,4.931,4.931,0,0,1,2.993-.86,4.323,4.323,0,0,1,2.874.888,3.086,3.086,0,0,1,1.081,2.435v4.21a4.311,4.311,0,0,0,.4,2V0ZM31.153-1.934a1.652,1.652,0,0,0,.918-.237,1.487,1.487,0,0,0,.523-.536V-4.228h-.861q-1.547,0-1.547,1.389a.848.848,0,0,0,.272.655A.986.986,0,0,0,31.153-1.934Zm5.678-2.892a5.809,5.809,0,0,1,.976-3.56,3.211,3.211,0,0,1,2.725-1.3,2.731,2.731,0,0,1,2.145,1V-13.5h2.971V0H42.983l-.149-1.02a2.8,2.8,0,0,1-2.32,1.2,3.205,3.205,0,0,1-2.689-1.3A5.993,5.993,0,0,1,36.831-4.825Zm2.962.185q0,2.531,1.477,2.531a1.458,1.458,0,0,0,1.406-.826V-6.557A1.419,1.419,0,0,0,41.287-7.4q-1.371,0-1.485,2.215Z" transform="translate(-246 -7104)" fill="#12263f"/>
      <path id="Trazado_161540" data-name="Trazado 161540" d="M-26.965,0V-12.8h4.122a6.064,6.064,0,0,1,3.05.769,5.406,5.406,0,0,1,2.114,2.171,6.554,6.554,0,0,1,.769,3.142v.589a6.592,6.592,0,0,1-.743,3.151A5.429,5.429,0,0,1-19.745-.8a5.93,5.93,0,0,1-3.01.8Zm3.085-10.415v8.042h1.072a2.4,2.4,0,0,0,2.039-.945,4.63,4.63,0,0,0,.712-2.808V-6.68a4.592,4.592,0,0,0-.712-2.795,2.442,2.442,0,0,0-2.074-.94ZM-12.34,0h-2.971V-9.51h2.971Zm-3.146-11.971a1.334,1.334,0,0,1,.457-1.043,1.718,1.718,0,0,1,1.187-.407,1.718,1.718,0,0,1,1.187.407,1.334,1.334,0,0,1,.457,1.043,1.334,1.334,0,0,1-.457,1.043,1.718,1.718,0,0,1-1.187.407,1.718,1.718,0,0,1-1.187-.407A1.334,1.334,0,0,1-15.486-11.971Zm9.949,9.3a.684.684,0,0,0-.4-.606,6.016,6.016,0,0,0-1.5-.475A6.853,6.853,0,0,1-9.264-4.4a3.062,3.062,0,0,1-1.1-.971,2.319,2.319,0,0,1-.378-1.31A2.628,2.628,0,0,1-9.659-8.837a4.453,4.453,0,0,1,2.83-.848,4.934,4.934,0,0,1,3.023.853A2.666,2.666,0,0,1-2.663-6.592H-5.634q0-1.143-1.2-1.143a1.194,1.194,0,0,0-.782.259.8.8,0,0,0-.316.646.737.737,0,0,0,.387.642,3.654,3.654,0,0,0,1.235.4,10.671,10.671,0,0,1,1.49.378A2.706,2.706,0,0,1-2.681-2.76,2.491,2.491,0,0,1-3.836-.642,5.068,5.068,0,0,1-6.829.176a5.172,5.172,0,0,1-2.18-.439,3.645,3.645,0,0,1-1.494-1.2,2.707,2.707,0,0,1-.536-1.591h2.769a1.145,1.145,0,0,0,.439.962,1.808,1.808,0,0,0,1.081.3,1.422,1.422,0,0,0,.91-.246A.787.787,0,0,0-5.537-2.672ZM3.3.176A4.889,4.889,0,0,1-.237-1.129a4.507,4.507,0,0,1-1.354-3.4v-.246A5.84,5.84,0,0,1-1.05-7.348,3.955,3.955,0,0,1,.527-9.075a4.763,4.763,0,0,1,2.461-.611A4.117,4.117,0,0,1,6.152-8.442a4.887,4.887,0,0,1,1.16,3.467v1.151H1.424a2.135,2.135,0,0,0,.694,1.257,2.066,2.066,0,0,0,1.389.457,2.662,2.662,0,0,0,2.2-.984l1.354,1.6A3.784,3.784,0,0,1,5.489-.277,5.3,5.3,0,0,1,3.3.176ZM2.971-7.4q-1.3,0-1.547,1.723H4.412v-.229a1.467,1.467,0,0,0-.36-1.1A1.434,1.434,0,0,0,2.971-7.4ZM11.224-9.51l.1,1.116a3.225,3.225,0,0,1,2.716-1.292,2.713,2.713,0,0,1,2.219.888,4.226,4.226,0,0,1,.76,2.672V0H14.045V-6a1.6,1.6,0,0,0-.29-1.059A1.342,1.342,0,0,0,12.7-7.4a1.413,1.413,0,0,0-1.292.686V0H8.446V-9.51Zm4.913-3.92a2.562,2.562,0,0,1-.584,1.7,1.813,1.813,0,0,1-1.446.7,2.852,2.852,0,0,1-1.292-.369,2.7,2.7,0,0,0-1.151-.369.66.66,0,0,0-.479.193.8.8,0,0,0-.2.6l-1.644-.088a2.576,2.576,0,0,1,.584-1.687,1.793,1.793,0,0,1,1.437-.712,2.967,2.967,0,0,1,1.151.325,7.07,7.07,0,0,0,.9.369,1.74,1.74,0,0,0,.4.044.671.671,0,0,0,.483-.2.807.807,0,0,0,.2-.6Zm2.145,8.587a5.613,5.613,0,0,1,.554-2.536,3.96,3.96,0,0,1,1.591-1.709,4.791,4.791,0,0,1,2.435-.6,4.373,4.373,0,0,1,3.366,1.323,5.076,5.076,0,0,1,1.23,3.6v.105a4.925,4.925,0,0,1-1.235,3.529A4.384,4.384,0,0,1,22.878.176a4.434,4.434,0,0,1-3.261-1.217,4.761,4.761,0,0,1-1.327-3.3Zm2.962.185a3.538,3.538,0,0,0,.413,1.934,1.376,1.376,0,0,0,1.222.615q1.582,0,1.617-2.435v-.3Q24.5-7.4,22.86-7.4q-1.485,0-1.608,2.206ZM-18.2,17.418a4.96,4.96,0,0,1-2.083,1.274,8.984,8.984,0,0,1-3.006.483A5.36,5.36,0,0,1-27.3,17.638a6.226,6.226,0,0,1-1.608-4.28l-.009-1.107a7.637,7.637,0,0,1,.668-3.3,4.96,4.96,0,0,1,1.912-2.171,5.407,5.407,0,0,1,2.878-.76,5.669,5.669,0,0,1,3.713,1.094,4.637,4.637,0,0,1,1.542,3.265h-2.971a2.426,2.426,0,0,0-.686-1.529,2.212,2.212,0,0,0-1.494-.457,2.013,2.013,0,0,0-1.793.984,5.256,5.256,0,0,0-.642,2.813v.773a5.145,5.145,0,0,0,.655,2.878,2.316,2.316,0,0,0,2.061.962,2.592,2.592,0,0,0,1.793-.536V14.28h-2.145V12.162H-18.2Zm7.409-5.247-.976-.07a1.752,1.752,0,0,0-1.793.879V19h-2.962V9.49h2.777l.1,1.222a2.294,2.294,0,0,1,2.083-1.4,2.888,2.888,0,0,1,.826.105ZM-4.627,19a3.344,3.344,0,0,1-.281-.853,2.754,2.754,0,0,1-2.285,1.028,3.374,3.374,0,0,1-2.285-.813,2.588,2.588,0,0,1-.94-2.043,2.66,2.66,0,0,1,1.143-2.338,5.821,5.821,0,0,1,3.322-.791h.914v-.5q0-1.316-1.134-1.316a.927.927,0,0,0-1.055,1.042h-2.962a2.655,2.655,0,0,1,1.173-2.239,4.931,4.931,0,0,1,2.993-.86,4.323,4.323,0,0,1,2.874.888A3.086,3.086,0,0,1-2.07,12.637v4.21a4.311,4.311,0,0,0,.4,2V19Zm-1.854-1.934a1.652,1.652,0,0,0,.918-.237,1.487,1.487,0,0,0,.523-.536V14.772H-5.9q-1.547,0-1.547,1.389a.848.848,0,0,0,.272.655A.986.986,0,0,0-6.482,17.066ZM-5.744,5.5h3.129L-5.058,8.26l-2.417,0Zm6,13.5V11.547h-1.38V9.49H.259V9.174A3.631,3.631,0,0,1,1.507,6.265,4.987,4.987,0,0,1,4.75,5.315a11.509,11.509,0,0,1,3.094.51l-.4,2.338-.492-.132a7.832,7.832,0,0,0-2.021-.255q-1.7,0-1.7,1.547V9.49H5.093v2.057H3.23V19Zm8.947,0H6.227V9.49H9.207Zm5.827-2.109A1.317,1.317,0,0,0,16,16.552a1.241,1.241,0,0,0,.334-.945h2.777a3.288,3.288,0,0,1-1.121,2.566,4.168,4.168,0,0,1-2.887,1,4.22,4.22,0,0,1-3.27-1.3,5.125,5.125,0,0,1-1.2-3.6v-.123a5.792,5.792,0,0,1,.532-2.544,3.872,3.872,0,0,1,1.534-1.7,4.573,4.573,0,0,1,2.373-.593,4.116,4.116,0,0,1,2.944,1.028,3.647,3.647,0,0,1,1.09,2.786H16.334A1.626,1.626,0,0,0,15.974,12a1.244,1.244,0,0,0-.967-.4q-1.151,0-1.345,1.468a10.357,10.357,0,0,0-.062,1.283,4.068,4.068,0,0,0,.343,1.986A1.187,1.187,0,0,0,15.034,16.891Zm4.957-2.733a5.613,5.613,0,0,1,.554-2.536,3.96,3.96,0,0,1,1.591-1.709,4.791,4.791,0,0,1,2.435-.6,4.373,4.373,0,0,1,3.366,1.323,5.076,5.076,0,0,1,1.23,3.6v.105a4.925,4.925,0,0,1-1.235,3.529,4.384,4.384,0,0,1-3.344,1.305,4.434,4.434,0,0,1-3.261-1.217A4.761,4.761,0,0,1,20,14.658Zm2.962.185a3.538,3.538,0,0,0,.413,1.934,1.376,1.376,0,0,0,1.222.615q1.582,0,1.617-2.435v-.3q0-2.558-1.635-2.558-1.485,0-1.608,2.206Z" transform="translate(-104 -7114)" fill="#12263f"/>
      <path id="Trazado_161543" data-name="Trazado 161543" d="M-29.646-4.342V0H-32.73V-12.8h5.106a5.948,5.948,0,0,1,2.6.541,4.074,4.074,0,0,1,1.749,1.538,4.2,4.2,0,0,1,.62,2.263A3.7,3.7,0,0,1-24-5.462a5.561,5.561,0,0,1-3.678,1.121Zm0-2.382h2.021a1.906,1.906,0,0,0,1.367-.448,1.665,1.665,0,0,0,.47-1.266,2.059,2.059,0,0,0-.483-1.433,1.712,1.712,0,0,0-1.318-.545h-2.057ZM-15.4-6.829l-.976-.07a1.752,1.752,0,0,0-1.793.879V0h-2.962V-9.51h2.777l.1,1.222a2.294,2.294,0,0,1,2.083-1.4,2.888,2.888,0,0,1,.826.105Zm6.732,5.8a3.054,3.054,0,0,1-2.54,1.2,3,3,0,0,1-2.369-.91,3.826,3.826,0,0,1-.8-2.615V-9.51h2.962v6.179A1.065,1.065,0,0,0-10.23-2.109a1.548,1.548,0,0,0,1.45-.729V-9.51H-5.8V0H-8.578ZM.422.176A4.889,4.889,0,0,1-3.12-1.129a4.507,4.507,0,0,1-1.354-3.4v-.246a5.84,5.84,0,0,1,.541-2.575A3.955,3.955,0,0,1-2.355-9.075,4.763,4.763,0,0,1,.105-9.686,4.117,4.117,0,0,1,3.27-8.442,4.887,4.887,0,0,1,4.43-4.975v1.151H-1.459A2.135,2.135,0,0,0-.765-2.566a2.066,2.066,0,0,0,1.389.457,2.662,2.662,0,0,0,2.2-.984l1.354,1.6A3.784,3.784,0,0,1,2.606-.277,5.3,5.3,0,0,1,.422.176ZM.088-7.4q-1.3,0-1.547,1.723H1.529v-.229a1.467,1.467,0,0,0-.36-1.1A1.434,1.434,0,0,0,.088-7.4ZM14.449-4.676a5.8,5.8,0,0,1-.967,3.595A3.238,3.238,0,0,1,10.758.176,2.81,2.81,0,0,1,8.42-.976L8.3,0H5.643V-13.5H8.6v4.755a2.711,2.711,0,0,1,2.136-.94,3.239,3.239,0,0,1,2.742,1.274,5.826,5.826,0,0,1,.967,3.586Zm-2.971-.189a3.866,3.866,0,0,0-.365-1.952A1.229,1.229,0,0,0,9.993-7.4,1.418,1.418,0,0,0,8.6-6.637v3.773a1.426,1.426,0,0,0,1.406.755,1.258,1.258,0,0,0,1.327-1.018A7.309,7.309,0,0,0,11.479-4.865ZM21.111,0a3.344,3.344,0,0,1-.281-.853A2.754,2.754,0,0,1,18.545.176,3.374,3.374,0,0,1,16.26-.637a2.588,2.588,0,0,1-.94-2.043,2.66,2.66,0,0,1,1.143-2.338,5.821,5.821,0,0,1,3.322-.791H20.7v-.5q0-1.316-1.134-1.316A.927.927,0,0,0,18.51-6.587H15.548a2.655,2.655,0,0,1,1.173-2.239,4.931,4.931,0,0,1,2.993-.86,4.323,4.323,0,0,1,2.874.888,3.086,3.086,0,0,1,1.081,2.435v4.21a4.311,4.311,0,0,0,.4,2V0ZM19.257-1.934a1.652,1.652,0,0,0,.918-.237,1.487,1.487,0,0,0,.523-.536V-4.228h-.861q-1.547,0-1.547,1.389a.848.848,0,0,0,.272.655A.986.986,0,0,0,19.257-1.934Zm11.03-.738a.684.684,0,0,0-.4-.606,6.016,6.016,0,0,0-1.5-.475A6.853,6.853,0,0,1,26.561-4.4a3.062,3.062,0,0,1-1.1-.971,2.319,2.319,0,0,1-.378-1.31,2.628,2.628,0,0,1,1.081-2.158A4.453,4.453,0,0,1,29-9.686a4.934,4.934,0,0,1,3.023.853,2.666,2.666,0,0,1,1.143,2.241H30.19q0-1.143-1.2-1.143a1.194,1.194,0,0,0-.782.259.8.8,0,0,0-.316.646.737.737,0,0,0,.387.642,3.654,3.654,0,0,0,1.235.4A10.671,10.671,0,0,1,31-5.405,2.706,2.706,0,0,1,33.144-2.76,2.491,2.491,0,0,1,31.988-.642,5.068,5.068,0,0,1,29,.176a5.172,5.172,0,0,1-2.18-.439,3.645,3.645,0,0,1-1.494-1.2,2.707,2.707,0,0,1-.536-1.591h2.769a1.145,1.145,0,0,0,.439.962,1.808,1.808,0,0,0,1.081.3,1.422,1.422,0,0,0,.91-.246A.787.787,0,0,0,30.287-2.672Z" transform="translate(33 -7104)" fill="#12263f"/>
      <path id="Trazado_161544" data-name="Trazado 161544" d="M-36.721,0H-39.8V-12.8h3.076Zm4.808-9.51.1,1.116A3.27,3.27,0,0,1-29.1-9.686a2.407,2.407,0,0,1,2.435,1.433,3.165,3.165,0,0,1,2.795-1.433q2.892,0,2.971,3.5V0h-2.971V-6a1.813,1.813,0,0,0-.246-1.063,1.048,1.048,0,0,0-.9-.334,1.4,1.4,0,0,0-1.31.782l.009.123V0h-2.971V-5.985a1.906,1.906,0,0,0-.237-1.081,1.045,1.045,0,0,0-.905-.334,1.42,1.42,0,0,0-1.3.782V0H-34.69V-9.51ZM-10.38-4.685a5.735,5.735,0,0,1-1,3.538A3.2,3.2,0,0,1-14.071.176a2.742,2.742,0,0,1-2.153-.958V3.656h-2.962V-9.51h2.769l.088.879a2.742,2.742,0,0,1,2.241-1.055,3.224,3.224,0,0,1,2.733,1.3,5.805,5.805,0,0,1,.976,3.564Zm-2.962-.185q0-2.531-1.477-2.531a1.394,1.394,0,0,0-1.406.756V-2.9a1.439,1.439,0,0,0,1.424.791q1.415,0,1.459-2.443Zm10.02-1.96L-4.3-6.9a1.752,1.752,0,0,0-1.793.879V0H-9.053V-9.51h2.777l.1,1.222A2.294,2.294,0,0,1-4.1-9.686a2.888,2.888,0,0,1,.826.105Zm5.5,7A4.889,4.889,0,0,1-1.362-1.129a4.507,4.507,0,0,1-1.354-3.4v-.246a5.84,5.84,0,0,1,.541-2.575A3.955,3.955,0,0,1-.6-9.075a4.763,4.763,0,0,1,2.461-.611A4.117,4.117,0,0,1,5.027-8.442a4.887,4.887,0,0,1,1.16,3.467v1.151H.3A2.135,2.135,0,0,0,.993-2.566a2.066,2.066,0,0,0,1.389.457,2.662,2.662,0,0,0,2.2-.984l1.354,1.6A3.784,3.784,0,0,1,4.364-.277,5.3,5.3,0,0,1,2.18.176ZM1.846-7.4Q.545-7.4.3-5.678H3.287v-.229a1.467,1.467,0,0,0-.36-1.1A1.434,1.434,0,0,0,1.846-7.4ZM12.357-2.672a.684.684,0,0,0-.4-.606,6.016,6.016,0,0,0-1.5-.475A6.853,6.853,0,0,1,8.631-4.4a3.062,3.062,0,0,1-1.1-.971,2.319,2.319,0,0,1-.378-1.31A2.628,2.628,0,0,1,8.235-8.837a4.453,4.453,0,0,1,2.83-.848,4.934,4.934,0,0,1,3.023.853,2.666,2.666,0,0,1,1.143,2.241H12.261q0-1.143-1.2-1.143a1.194,1.194,0,0,0-.782.259.8.8,0,0,0-.316.646.737.737,0,0,0,.387.642,3.654,3.654,0,0,0,1.235.4,10.671,10.671,0,0,1,1.49.378A2.706,2.706,0,0,1,15.214-2.76,2.491,2.491,0,0,1,14.058-.642a5.068,5.068,0,0,1-2.993.817,5.172,5.172,0,0,1-2.18-.439,3.645,3.645,0,0,1-1.494-1.2A2.707,2.707,0,0,1,6.855-3.05H9.624a1.145,1.145,0,0,0,.439.962,1.808,1.808,0,0,0,1.081.3,1.422,1.422,0,0,0,.91-.246A.787.787,0,0,0,12.357-2.672ZM19.723,0H16.752V-9.51h2.971ZM16.576-11.971a1.334,1.334,0,0,1,.457-1.043,1.718,1.718,0,0,1,1.187-.407,1.718,1.718,0,0,1,1.187.407,1.334,1.334,0,0,1,.457,1.043,1.334,1.334,0,0,1-.457,1.043,1.718,1.718,0,0,1-1.187.407,1.718,1.718,0,0,1-1.187-.407A1.334,1.334,0,0,1,16.576-11.971Zm4.6,7.128a5.613,5.613,0,0,1,.554-2.536,3.96,3.96,0,0,1,1.591-1.709,4.791,4.791,0,0,1,2.435-.6,4.373,4.373,0,0,1,3.366,1.323,5.076,5.076,0,0,1,1.23,3.6v.105a4.925,4.925,0,0,1-1.235,3.529A4.384,4.384,0,0,1,25.77.176a4.434,4.434,0,0,1-3.261-1.217,4.761,4.761,0,0,1-1.327-3.3Zm2.962.185a3.538,3.538,0,0,0,.413,1.934,1.376,1.376,0,0,0,1.222.615q1.582,0,1.617-2.435v-.3q0-2.558-1.635-2.558-1.485,0-1.608,2.206ZM26.156-13.5h3.129l-2.443,2.76-2.417,0Zm8.218,3.99.1,1.116a3.225,3.225,0,0,1,2.716-1.292,2.713,2.713,0,0,1,2.219.888,4.226,4.226,0,0,1,.76,2.672V0H37.2V-6a1.6,1.6,0,0,0-.29-1.059A1.342,1.342,0,0,0,35.851-7.4a1.413,1.413,0,0,0-1.292.686V0H31.6V-9.51Z" transform="translate(172 -7104)" fill="#12263f"/>
      <path id="Icon_ionic-ios-arrow-back" data-name="Icon ionic-ios-arrow-back" d="M4.79,13.892,15.306,3.385A1.986,1.986,0,0,0,12.493.58L.578,12.486a1.982,1.982,0,0,0-.058,2.739L12.484,27.213a1.986,1.986,0,0,0,2.813-2.8Z" transform="translate(-313.111 -7166.438) rotate(180)" fill="#12263f"/>
      <path id="Icon_ionic-ios-arrow-back-2" data-name="Icon ionic-ios-arrow-back" d="M4.79,13.892,15.306,3.385A1.986,1.986,0,0,0,12.493.58L.578,12.486a1.982,1.982,0,0,0-.058,2.739L12.484,27.213a1.986,1.986,0,0,0,2.813-2.8Z" transform="translate(-165.885 -7166.438) rotate(180)" fill="#12263f"/>
      <path id="Icon_ionic-ios-arrow-back-3" data-name="Icon ionic-ios-arrow-back" d="M4.79,13.892,15.306,3.385A1.986,1.986,0,0,0,12.493.58L.578,12.486a1.982,1.982,0,0,0-.058,2.739L12.484,27.213a1.986,1.986,0,0,0,2.813-2.8Z" transform="translate(-28.199 -7166.438) rotate(180)" fill="#12263f"/>
      <path id="Icon_ionic-ios-arrow-back-4" data-name="Icon ionic-ios-arrow-back" d="M4.79,13.892,15.306,3.385A1.986,1.986,0,0,0,12.493.58L.578,12.486s-.769,1.961-.058,2.739L12.484,27.213a1.986,1.986,0,0,0,2.813-2.8Z" transform="translate(106.889 -7166.438) rotate(180)" fill="#12263f"/>
    </g>
    <rect id="Rectángulo_39665" data-name="Rectángulo 39665" width="715" height="186" transform="translate(705.5 3899)" fill="none"/>
  </g>
</svg>
