<svg xmlns="http://www.w3.org/2000/svg" xmlns:xlink="http://www.w3.org/1999/xlink" width="130" height="130" viewBox="0 0 130 130">
  <defs>
    <clipPath id="clip-path">
      <rect id="Rectángulo_39362" data-name="Rectángulo 39362" width="96.387" height="65.91" fill="#26ccda"/>
    </clipPath>
  </defs>
  <g id="Grupo_143532" data-name="Grupo 143532" transform="translate(-1133 -4140)">
    <circle id="Elipse_5447" data-name="Elipse 5447" cx="65" cy="65" r="65" transform="translate(1133 4140)" fill="#fff"/>
    <g id="Grupo_143531" data-name="Grupo 143531" transform="translate(1149.807 4170.091)">
      <g id="Grupo_143530" data-name="Grupo 143530" transform="translate(0 0)" clip-path="url(#clip-path)">
        <path id="Trazado_159211" data-name="Trazado 159211" d="M0,9.413A2.247,2.247,0,0,1,2.4,8c1.685.048,3.373.013,5.133.013,0-1.928,0-3.742,0-5.556S8.157,0,9.94,0Q48.2,0,86.452,0c1.751,0,2.4.641,2.4,2.368q.005,6.024,0,12.047v1.127c1.7,0,3.326,0,4.95,0,2.012,0,2.579.566,2.579,2.563q0,22.586,0,45.173c0,2.054-.562,2.609-2.636,2.61q-6.446,0-12.893,0c-1.685,0-2.348-.66-2.354-2.324-.006-1.691,0-3.381,0-5.2H42.075a8.924,8.924,0,0,1-1.034-.019,1.87,1.87,0,0,1,.041-3.726c.561-.049,1.128-.018,1.693-.019h12.12V11.843H3.813V54.595h19.65c.282,0,.566-.012.847.007a1.893,1.893,0,0,1,1.85,1.875,1.858,1.858,0,0,1-1.852,1.868c-1.724.04-3.45.013-5.175.015H17.885c0,1.668,0,3.286,0,4.9,0,2.068-.556,2.626-2.619,2.627-4.235,0-8.471-.031-12.7.02A2.544,2.544,0,0,1,0,64.572ZM92.574,26.905H58.782V47.018H92.574ZM58.735,15.471H85.046V3.812H11.354v4.2H12.62q21.78,0,43.56,0c1.988,0,2.555.578,2.556,2.586,0,1.6,0,3.195,0,4.871m33.838,3.9H58.78v3.642H92.573Zm-33.8,35.155h33.8V50.88h-33.8Zm-44.71,3.891H3.835v3.664H14.067Zm68.279,3.643h10.2V58.378h-10.2Z" transform="translate(0 0)" fill="#26ccda"/>
        <path id="Trazado_159212" data-name="Trazado 159212" d="M32.714,57.854q-9.647,0-19.3,0c-1.863,0-2.484-.62-2.484-2.478q0-15.2,0-30.4c0-1.759.623-2.4,2.362-2.4q19.484-.005,38.969,0c1.695,0,2.342.649,2.343,2.326q0,15.3,0,30.591c0,1.724-.655,2.365-2.409,2.366q-9.741,0-19.484,0M14.737,42.99c.3-.116.563-.2.811-.31a16.94,16.94,0,0,0,5.3-3.834A37.714,37.714,0,0,1,24.438,35.4a8.088,8.088,0,0,1,9.244-.931,18.41,18.41,0,0,1,1.909,1.011,4.208,4.208,0,0,0,4.461.121c.837-.415,1.606-.969,2.406-1.461,1.572-.968,3.093-2.033,4.732-2.868a24.338,24.338,0,0,1,3.6-1.207V26.4H14.737Zm24.1-3.116c-2.209.406-3.972-.474-5.715-1.444a17.25,17.25,0,0,0-1.772-.864,4.328,4.328,0,0,0-3.886.282,1.384,1.384,0,0,0-.828,1.4c.03,4.611.014,9.222.017,13.833,0,.305.029.609.045.929H38.84ZM50.777,54.041V33.879a28.509,28.509,0,0,0-3.2,1.4c-1.428.84-2.742,1.87-4.149,2.747a1.455,1.455,0,0,0-.786,1.426c.03,4.545.015,9.089.018,13.633,0,.305.028.61.045.959Zm-27.993.017V42.25a19.945,19.945,0,0,1-8.008,4.72v7.088Z" transform="translate(-3.404 -7.026)" fill="#26ccda"/>
        <path id="Trazado_159213" data-name="Trazado 159213" d="M46.674,79.282a1.876,1.876,0,1,1-1.834,1.869,1.9,1.9,0,0,1,1.834-1.869" transform="translate(-13.959 -24.681)" fill="#26ccda"/>
        <path id="Trazado_159214" data-name="Trazado 159214" d="M99.292,48.162h12.243c0-.578-.019-1.127,0-1.673a1.88,1.88,0,1,1,3.749-.017c.033,1.159.036,2.321,0,3.48a1.831,1.831,0,0,1-2.006,2q-7.854.046-15.708,0a1.855,1.855,0,0,1-2.032-2.073q-.045-1.691,0-3.386a1.88,1.88,0,1,1,3.749-.028c.024.527,0,1.056,0,1.7" transform="translate(-29.735 -13.839)" fill="#26ccda"/>
      </g>
    </g>
  </g>
</svg>
