<svg xmlns="http://www.w3.org/2000/svg" width="505" height="593" viewBox="0 0 505 593">
  <g id="Grupo_143799" data-name="Grupo 143799" transform="translate(-915 -375)">
    <rect id="Rectángulo_39502" data-name="Rectángulo 39502" width="505" height="593" rx="26" transform="translate(915 375)" fill="#f6f6f6"/>
    <g id="Grupo_143798" data-name="Grupo 143798" transform="translate(-1388.667 11135.063)">
      <path id="Trazado_159324" data-name="Trazado 159324" d="M6.964.476H4.159V-9.587H1.727v-2.225l5.238-.448ZM9.239,36.835H.838v-1.9L4.557,30.7a8.342,8.342,0,0,0,1.1-1.569A2.746,2.746,0,0,0,6,27.928a1.912,1.912,0,0,0-.315-1.16,1.176,1.176,0,0,0-1.013-.427,1.146,1.146,0,0,0-1.017.556A2.559,2.559,0,0,0,3.3,28.316H.548l-.017-.052A3.967,3.967,0,0,1,4.673,24.1a4.3,4.3,0,0,1,3.063,1.013A3.641,3.641,0,0,1,8.815,27.9a3.779,3.779,0,0,1-.6,2.108,26.135,26.135,0,0,1-2.191,2.712L4.557,34.55l.017.043H9.239ZM4.8,65.7a1.538,1.538,0,0,0,1.162-.423,1.621,1.621,0,0,0,.407-1.173,1.347,1.347,0,0,0-.415-1,1.526,1.526,0,0,0-1.121-.41,1.319,1.319,0,0,0-.9.323,1.074,1.074,0,0,0-.369.849H.838l-.017-.052a2.82,2.82,0,0,1,1.133-2.432,4.506,4.506,0,0,1,2.876-.931,4.935,4.935,0,0,1,3.15.936,3.185,3.185,0,0,1,1.183,2.652,2.689,2.689,0,0,1-.5,1.569,3.43,3.43,0,0,1-1.353,1.13,3.173,3.173,0,0,1,1.511,1.117,3.047,3.047,0,0,1,.531,1.815,3.243,3.243,0,0,1-1.274,2.712,5.15,5.15,0,0,1-3.25.987,4.882,4.882,0,0,1-2.972-.927,3.031,3.031,0,0,1-1.22-2.686l.017-.052H3.387a1.377,1.377,0,0,0,.407,1.018,1.408,1.408,0,0,0,1.038.405A1.789,1.789,0,0,0,6.072,70.7a1.4,1.4,0,0,0,.486-1.082A1.718,1.718,0,0,0,6.1,68.284a1.864,1.864,0,0,0-1.3-.418H3.47V65.7Zm3.378,38.946H9.4v2.259H8.176v2.647H5.371v-2.647H.564L.4,105.113l4.972-8.088V97H8.176Zm-5.371,0H5.371v-3.906l-.05-.009-.307.647ZM1,140.394l.7-7.036H8.782v2.259H3.976l-.307,2.613a2.787,2.787,0,0,1,.867-.405,4.5,4.5,0,0,1,1.15-.172,3.076,3.076,0,0,1,2.594,1.074,4.833,4.833,0,0,1,.909,3.143,4.532,4.532,0,0,1-1.013,3.022,3.939,3.939,0,0,1-3.187,1.2,4.9,4.9,0,0,1-3-.944,2.836,2.836,0,0,1-1.224-2.5l.008-.052,2.748-.172a1.365,1.365,0,0,0,.4,1.043,1.492,1.492,0,0,0,1.067.379,1.179,1.179,0,0,0,1.087-.492,2.827,2.827,0,0,0,.307-1.475,3.165,3.165,0,0,0-.357-1.63,1.22,1.22,0,0,0-1.129-.595,1.5,1.5,0,0,0-.9.25,1.3,1.3,0,0,0-.477.63Zm4.665,29.142a5.62,5.62,0,0,1,1.245.125,7.876,7.876,0,0,1,1.22.4l-.473,2.121q-.581-.181-1-.272a4.673,4.673,0,0,0-.971-.091,2.025,2.025,0,0,0-1.652.763,3.518,3.518,0,0,0-.623,2.264v.121a3.174,3.174,0,0,1,1.125-.733,4.08,4.08,0,0,1,1.5-.259,2.8,2.8,0,0,1,2.4,1.173,5.076,5.076,0,0,1,.851,3.053A4.157,4.157,0,0,1,8.1,181.254a4.1,4.1,0,0,1-3.046,1.2A4.13,4.13,0,0,1,1.839,181.1a5.324,5.324,0,0,1-1.224-3.708v-2.527a5.3,5.3,0,0,1,1.415-3.906A4.913,4.913,0,0,1,5.669,169.536ZM5.1,176.2a2.833,2.833,0,0,0-1.021.164,1.535,1.535,0,0,0-.664.466v.561a4.145,4.145,0,0,0,.432,2.091,1.343,1.343,0,0,0,1.212.729,1.2,1.2,0,0,0,1.029-.582,2.892,2.892,0,0,0,.017-2.9A1.185,1.185,0,0,0,5.1,176.2Zm4.125,32.117a14.594,14.594,0,0,0-2.635,4.2,12.863,12.863,0,0,0-.71,4.471v1.647H3.071v-1.647a11.831,11.831,0,0,1,.88-4.618,14.974,14.974,0,0,1,2.582-4.049H.481v-2.242H9.222Zm-.266,37.4a2.989,2.989,0,0,1-.44,1.613,3.212,3.212,0,0,1-1.212,1.13,3.709,3.709,0,0,1,1.527,1.212,2.961,2.961,0,0,1,.564,1.781,3.322,3.322,0,0,1-1.212,2.738,4.771,4.771,0,0,1-3.1.979,5.1,5.1,0,0,1-3.225-.983A3.266,3.266,0,0,1,.6,251.455a2.9,2.9,0,0,1,.581-1.781,3.78,3.78,0,0,1,1.594-1.212,3.208,3.208,0,0,1-1.282-1.125,2.909,2.909,0,0,1-.461-1.617,3.1,3.1,0,0,1,1.121-2.565,4.519,4.519,0,0,1,2.922-.9,4.237,4.237,0,0,1,2.814.9A3.164,3.164,0,0,1,8.957,245.72ZM6.591,251.3a1.739,1.739,0,0,0-.436-1.224,1.411,1.411,0,0,0-1.083-.474,1.608,1.608,0,0,0-1.187.474,1.659,1.659,0,0,0-.473,1.224,1.549,1.549,0,0,0,.473,1.186,1.689,1.689,0,0,0,1.2.444,1.437,1.437,0,0,0,1.075-.44A1.634,1.634,0,0,0,6.591,251.3Zm-.432-5.424a1.587,1.587,0,0,0-.291-1.018.966.966,0,0,0-.8-.362,1.161,1.161,0,0,0-.9.358,1.459,1.459,0,0,0-.328,1.022,1.631,1.631,0,0,0,.336,1.082,1.124,1.124,0,0,0,.909.4.913.913,0,0,0,.784-.4A1.828,1.828,0,0,0,6.159,245.876Zm-1.61,43.413a1.524,1.524,0,0,0,1.253-.625,2.738,2.738,0,0,0,.49-1.729v-.724a2.713,2.713,0,0,1-.946.78,2.6,2.6,0,0,1-1.154.263A3.161,3.161,0,0,1,1.606,286.1a4.734,4.734,0,0,1-.942-3.091,4.423,4.423,0,0,1,1.179-3.13,3.971,3.971,0,0,1,3.046-1.268,3.867,3.867,0,0,1,3.017,1.324,5.272,5.272,0,0,1,1.183,3.643v3.156A4.749,4.749,0,0,1,7.8,290.22a4.371,4.371,0,0,1-3.25,1.311,6.158,6.158,0,0,1-1.282-.142,6.893,6.893,0,0,1-1.274-.4l.481-2.078a6.239,6.239,0,0,0,1,.289A5.729,5.729,0,0,0,4.549,289.288Zm.257-4.13a1.888,1.888,0,0,0,.859-.19,1.777,1.777,0,0,0,.627-.517v-1.406a2.82,2.82,0,0,0-.394-1.63,1.2,1.2,0,0,0-1.017-.56,1.162,1.162,0,0,0-1.038.647,2.913,2.913,0,0,0-.382,1.509,3.072,3.072,0,0,0,.344,1.556A1.1,1.1,0,0,0,4.806,285.158Zm2.158,42.551H4.159V317.645H1.727v-2.225l5.238-.448ZM18.976,323.1a5.051,5.051,0,0,1-1.154,3.523,3.916,3.916,0,0,1-3.046,1.272,3.935,3.935,0,0,1-3.063-1.272,5.051,5.051,0,0,1-1.154-3.523v-3.329a5.075,5.075,0,0,1,1.146-3.523,3.91,3.91,0,0,1,3.055-1.272,3.935,3.935,0,0,1,3.055,1.276,5.031,5.031,0,0,1,1.162,3.518Zm-2.8-3.527a3.324,3.324,0,0,0-.378-1.75,1.171,1.171,0,0,0-1.042-.6,1.15,1.15,0,0,0-1.038.6,3.417,3.417,0,0,0-.365,1.75v3.708a3.423,3.423,0,0,0,.369,1.772,1.167,1.167,0,0,0,1.05.6,1.154,1.154,0,0,0,1.033-.6,3.423,3.423,0,0,0,.369-1.772Zm-9.214,44.5H4.159V354H1.727V351.78l5.238-.448Zm9.845,0H14V354H11.571V351.78l5.238-.448ZM6.964,400.427H4.159V390.364H1.727v-2.225l5.238-.448Zm12.119,0h-8.4v-1.9l3.719-4.243a8.342,8.342,0,0,0,1.1-1.569,2.746,2.746,0,0,0,.349-1.2,1.912,1.912,0,0,0-.315-1.16,1.176,1.176,0,0,0-1.013-.427,1.146,1.146,0,0,0-1.017.556,2.559,2.559,0,0,0-.361,1.419H10.393l-.017-.052a3.967,3.967,0,0,1,4.142-4.165,4.3,4.3,0,0,1,3.063,1.013,3.641,3.641,0,0,1,1.079,2.79,3.779,3.779,0,0,1-.6,2.108,26.135,26.135,0,0,1-2.191,2.712L14.4,398.142l.017.043h4.665Z" transform="translate(2349.667 -10637.063)" fill="#12263f"/>
      <path id="Trazado_159323" data-name="Trazado 159323" d="M-25.218,0V-12.086h4.424a4.929,4.929,0,0,1,3.569,1.39A4.746,4.746,0,0,1-15.788-7.13v2.175a4.742,4.742,0,0,1-1.436,3.569A4.938,4.938,0,0,1-20.793,0Zm2.806-9.928v7.77h1.619a1.923,1.923,0,0,0,1.573-.78A3.149,3.149,0,0,0-18.6-4.956V-7.147a3.122,3.122,0,0,0-.618-2,1.923,1.923,0,0,0-1.573-.78ZM-11.339,0h-2.814V-8.981h2.814Zm0-11.065h-2.814v-1.884h2.814Zm6.682,4.474L-5.57-6.6a1.555,1.555,0,0,0-.789.178,1.1,1.1,0,0,0-.457.5V0H-9.621V-8.981h2.64l.1,1.32a2.708,2.708,0,0,1,.747-1.1,1.64,1.64,0,0,1,1.087-.39,2.086,2.086,0,0,1,.34.025,2.574,2.574,0,0,1,.315.075ZM-1.934,0h-2.8V-2.357h2.8ZM3.935-4.474a5.711,5.711,0,0,1,.917-3.387A2.991,2.991,0,0,1,7.438-9.147a2.23,2.23,0,0,1,1.125.286,2.975,2.975,0,0,1,.9.818v-4.906h2.806V0H9.812L9.621-1.1a3.02,3.02,0,0,1-.95.942A2.371,2.371,0,0,1,7.421.174,3.019,3.019,0,0,1,4.848-1.054,5.311,5.311,0,0,1,3.935-4.3ZM6.74-4.3a3.73,3.73,0,0,0,.32,1.706,1.117,1.117,0,0,0,1.075.61,1.769,1.769,0,0,0,.776-.162,1.391,1.391,0,0,0,.552-.477V-6.25A1.528,1.528,0,0,0,8.915-6.8a1.5,1.5,0,0,0-.764-.191A1.12,1.12,0,0,0,7.072-6.3,4.241,4.241,0,0,0,6.74-4.474ZM17.847.174a4.17,4.17,0,0,1-3.2-1.237,4.4,4.4,0,0,1-1.158-3.129v-.315A5.026,5.026,0,0,1,14.58-7.861a3.877,3.877,0,0,1,3.158-1.287A3.637,3.637,0,0,1,20.557-8.06a4.233,4.233,0,0,1,1,2.98v1.469H16.411l-.017.05a1.744,1.744,0,0,0,.523,1.141,1.826,1.826,0,0,0,1.312.436,5.684,5.684,0,0,0,1.341-.133,8.451,8.451,0,0,0,1.224-.423l.672,1.71a5.134,5.134,0,0,1-1.561.714A7.2,7.2,0,0,1,17.847.174Zm-.108-7.164a1.158,1.158,0,0,0-.992.427A2.145,2.145,0,0,0,16.377-5.4l.017.042h2.424v-.216a1.867,1.867,0,0,0-.245-1.054A.938.938,0,0,0,17.739-6.989Zm-48,16.008.1,1.187a2.971,2.971,0,0,1,1.067-1,3.014,3.014,0,0,1,1.473-.353,2.746,2.746,0,0,1,1.444.365,2.244,2.244,0,0,1,.913,1.112,3.015,3.015,0,0,1,1.067-1.092,2.933,2.933,0,0,1,1.523-.386,2.494,2.494,0,0,1,2.063.942,4.619,4.619,0,0,1,.751,2.9V18h-2.814V12.7a2.333,2.333,0,0,0-.27-1.324.946.946,0,0,0-.809-.361,1.68,1.68,0,0,0-.718.145,1.515,1.515,0,0,0-.527.4q0,.141.008.245t.008.2V18h-2.806V12.7a2.36,2.36,0,0,0-.266-1.328.957.957,0,0,0-.822-.357,1.619,1.619,0,0,0-.693.145,1.515,1.515,0,0,0-.527.4V18H-32.9V9.019Zm15.987,9.156a4.17,4.17,0,0,1-3.2-1.237,4.4,4.4,0,0,1-1.158-3.129v-.315a5.026,5.026,0,0,1,1.092-3.354,3.877,3.877,0,0,1,3.158-1.287A3.637,3.637,0,0,1-11.559,9.94a4.233,4.233,0,0,1,1,2.98v1.469h-5.146l-.017.05A1.744,1.744,0,0,0-15.2,15.58a1.826,1.826,0,0,0,1.312.436,5.684,5.684,0,0,0,1.341-.133,8.451,8.451,0,0,0,1.224-.423l.672,1.71a5.134,5.134,0,0,1-1.561.714A7.2,7.2,0,0,1-14.269,18.174Zm-.108-7.164a1.158,1.158,0,0,0-.992.427,2.145,2.145,0,0,0-.369,1.158l.017.042H-13.3v-.216a1.867,1.867,0,0,0-.245-1.054A.938.938,0,0,0-14.377,11.011Zm7.645-1.992.1,1.187a2.971,2.971,0,0,1,1.067-1,3.014,3.014,0,0,1,1.473-.353,2.746,2.746,0,0,1,1.444.365,2.244,2.244,0,0,1,.913,1.112A3.015,3.015,0,0,1-.668,9.239,2.933,2.933,0,0,1,.855,8.853a2.494,2.494,0,0,1,2.063.942,4.619,4.619,0,0,1,.751,2.9V18H.855V12.7a2.333,2.333,0,0,0-.27-1.324.946.946,0,0,0-.809-.361,1.68,1.68,0,0,0-.718.145,1.515,1.515,0,0,0-.527.4q0,.141.008.245t.008.2V18H-4.258V12.7a2.36,2.36,0,0,0-.266-1.328.957.957,0,0,0-.822-.357,1.619,1.619,0,0,0-.693.145,1.515,1.515,0,0,0-.527.4V18H-9.372V9.019ZM4.9,13.426a4.748,4.748,0,0,1,1.146-3.3,4.077,4.077,0,0,1,3.2-1.274,4.087,4.087,0,0,1,3.2,1.274,4.748,4.748,0,0,1,1.146,3.3V13.6a4.744,4.744,0,0,1-1.146,3.3,4.073,4.073,0,0,1-3.187,1.27A4.1,4.1,0,0,1,6.043,16.9,4.744,4.744,0,0,1,4.9,13.6ZM7.7,13.6a3.713,3.713,0,0,0,.353,1.772,1.255,1.255,0,0,0,1.2.643,1.241,1.241,0,0,0,1.179-.647,3.681,3.681,0,0,0,.357-1.768v-.174a3.7,3.7,0,0,0-.357-1.756,1.25,1.25,0,0,0-1.2-.66,1.233,1.233,0,0,0-1.183.664A3.737,3.737,0,0,0,7.7,13.426Zm12.086-2.191-.913-.008a1.555,1.555,0,0,0-.789.178,1.1,1.1,0,0,0-.457.5V18H14.825V9.019h2.64l.1,1.32a2.708,2.708,0,0,1,.747-1.1,1.64,1.64,0,0,1,1.087-.39,2.086,2.086,0,0,1,.34.025,2.574,2.574,0,0,1,.315.075ZM23.757,18H20.943V9.019h2.814Zm0-11.065H20.943V5.051h2.814Zm6.906,11.057a3.389,3.389,0,0,1-.27-.639,4.9,4.9,0,0,1-.17-.747,3.432,3.432,0,0,1-.9,1.141,2.174,2.174,0,0,1-1.4.427,3.11,3.11,0,0,1-2.2-.726,2.566,2.566,0,0,1-.784-1.98,2.394,2.394,0,0,1,1-2.063,5.207,5.207,0,0,1,3.046-.726h1.154V12.04a1.279,1.279,0,0,0-.274-.88,1.067,1.067,0,0,0-.838-.307,1.012,1.012,0,0,0-.726.228.947.947,0,0,0-.237.71l-2.723-.008-.017-.05a2.343,2.343,0,0,1,1.025-2.054,4.594,4.594,0,0,1,2.86-.826,4.183,4.183,0,0,1,2.7.83,2.868,2.868,0,0,1,1.033,2.374v3.387a6.909,6.909,0,0,0,.12,1.328A7.113,7.113,0,0,0,33.436,18Zm-1.976-1.818a1.709,1.709,0,0,0,.909-.241,1.378,1.378,0,0,0,.552-.573V14.173H29.02a1.268,1.268,0,0,0-.971.324,1.164,1.164,0,0,0-.3.822.8.8,0,0,0,.261.618A.97.97,0,0,0,28.688,16.174Z" transform="translate(2358.667 -10696.063)" fill="#12263f"/>
      <path id="Trazado_159319" data-name="Trazado 159319" d="M-62.638-5.171H-66.9v3.013h5.1V0H-69.7V-12.086h7.919v2.158H-66.9v2.6h4.258ZM-55.7-2.523a.732.732,0,0,0-.378-.594,4.073,4.073,0,0,0-1.374-.469,5.423,5.423,0,0,1-2.366-.95,2.153,2.153,0,0,1-.8-1.772,2.525,2.525,0,0,1,1-2.013,4.1,4.1,0,0,1,2.7-.826,4.633,4.633,0,0,1,2.855.8A2.355,2.355,0,0,1-53.05-6.275l-.017.05H-55.79a1.112,1.112,0,0,0-.266-.805,1.175,1.175,0,0,0-.872-.274,1.14,1.14,0,0,0-.739.241.755.755,0,0,0-.3.614.731.731,0,0,0,.344.606,3.9,3.9,0,0,0,1.39.448,5.585,5.585,0,0,1,2.44.967A2.218,2.218,0,0,1-53-2.606a2.379,2.379,0,0,1-1.075,2,4.715,4.715,0,0,1-2.843.784,4.264,4.264,0,0,1-2.9-.93,2.561,2.561,0,0,1-1.017-2.075l.017-.05h2.54a1.126,1.126,0,0,0,.386.921,1.7,1.7,0,0,0,1.05.282,1.4,1.4,0,0,0,.855-.22A.739.739,0,0,0-55.7-2.523ZM-43.363-4.3a5.307,5.307,0,0,1-.913,3.25A3.023,3.023,0,0,1-46.85.174,2.555,2.555,0,0,1-48-.075,2.56,2.56,0,0,1-48.875-.8v4.25h-2.806V-8.981h2.648L-48.95-8a2.729,2.729,0,0,1,.892-.847,2.343,2.343,0,0,1,1.191-.3,2.991,2.991,0,0,1,2.586,1.287,5.711,5.711,0,0,1,.917,3.387Zm-2.8-.174A4.241,4.241,0,0,0-46.493-6.3a1.108,1.108,0,0,0-1.062-.689,1.688,1.688,0,0,0-.8.174,1.286,1.286,0,0,0-.519.506v3.752a1.2,1.2,0,0,0,.527.432,2.049,2.049,0,0,0,.809.141,1.1,1.1,0,0,0,1.058-.61,3.73,3.73,0,0,0,.32-1.706Zm9.222,4.466a3.388,3.388,0,0,1-.27-.639,4.9,4.9,0,0,1-.17-.747,3.432,3.432,0,0,1-.9,1.141,2.174,2.174,0,0,1-1.4.427,3.11,3.11,0,0,1-2.2-.726,2.566,2.566,0,0,1-.784-1.98,2.394,2.394,0,0,1,1-2.063,5.207,5.207,0,0,1,3.046-.726h1.154V-5.96a1.279,1.279,0,0,0-.274-.88,1.067,1.067,0,0,0-.838-.307,1.012,1.012,0,0,0-.726.228.947.947,0,0,0-.237.71l-2.723-.008-.017-.05a2.343,2.343,0,0,1,1.025-2.054,4.594,4.594,0,0,1,2.86-.826,4.183,4.183,0,0,1,2.7.83,2.868,2.868,0,0,1,1.033,2.374v3.387a6.909,6.909,0,0,0,.12,1.328A7.113,7.113,0,0,0-34.166,0Zm-1.976-1.818a1.709,1.709,0,0,0,.909-.241,1.378,1.378,0,0,0,.552-.573V-3.827h-1.129a1.268,1.268,0,0,0-.971.324,1.164,1.164,0,0,0-.3.822.8.8,0,0,0,.261.618A.97.97,0,0,0-38.914-1.826Zm9.646-.158a1.1,1.1,0,0,0,.855-.311,1.3,1.3,0,0,0,.282-.9h2.557l.017.05A2.949,2.949,0,0,1-26.575-.751a3.923,3.923,0,0,1-2.694.926,3.974,3.974,0,0,1-3.158-1.266,4.827,4.827,0,0,1-1.108-3.3v-.191a4.842,4.842,0,0,1,1.1-3.3,3.944,3.944,0,0,1,3.146-1.27,3.863,3.863,0,0,1,2.735.95,3.278,3.278,0,0,1,.992,2.6l-.017.05h-2.557a1.738,1.738,0,0,0-.291-1.042,1,1,0,0,0-.863-.4,1.153,1.153,0,0,0-1.133.652,4.029,4.029,0,0,0-.32,1.756v.191a4.015,4.015,0,0,0,.32,1.768A1.171,1.171,0,0,0-29.269-1.984ZM-21.474,0h-2.814V-8.981h2.814Zm0-11.065h-2.814v-1.884h2.814Zm1.345,6.491a4.748,4.748,0,0,1,1.146-3.3,4.077,4.077,0,0,1,3.2-1.274,4.087,4.087,0,0,1,3.2,1.274,4.748,4.748,0,0,1,1.146,3.3V-4.4a4.744,4.744,0,0,1-1.146,3.3A4.073,4.073,0,0,1-15.771.174,4.1,4.1,0,0,1-18.984-1.1a4.744,4.744,0,0,1-1.146-3.3Zm2.806.174a3.713,3.713,0,0,0,.353,1.772,1.255,1.255,0,0,0,1.2.643,1.241,1.241,0,0,0,1.179-.647A3.681,3.681,0,0,0-14.236-4.4v-.174a3.7,3.7,0,0,0-.357-1.756,1.25,1.25,0,0,0-1.2-.66,1.233,1.233,0,0,0-1.183.664,3.737,3.737,0,0,0-.353,1.751Zm11.8,1.876A.732.732,0,0,0-5.9-3.117a4.073,4.073,0,0,0-1.374-.469,5.423,5.423,0,0,1-2.366-.95,2.153,2.153,0,0,1-.8-1.772,2.525,2.525,0,0,1,1-2.013,4.1,4.1,0,0,1,2.7-.826,4.633,4.633,0,0,1,2.855.8A2.355,2.355,0,0,1-2.872-6.275l-.017.05H-5.611a1.112,1.112,0,0,0-.266-.805A1.175,1.175,0,0,0-6.749-7.3a1.14,1.14,0,0,0-.739.241.755.755,0,0,0-.3.614.731.731,0,0,0,.344.606,3.9,3.9,0,0,0,1.39.448,5.585,5.585,0,0,1,2.44.967,2.218,2.218,0,0,1,.789,1.822A2.379,2.379,0,0,1-3.9-.61,4.715,4.715,0,0,1-6.74.174a4.264,4.264,0,0,1-2.9-.93,2.561,2.561,0,0,1-1.017-2.075l.017-.05H-8.1a1.126,1.126,0,0,0,.386.921,1.7,1.7,0,0,0,1.05.282,1.4,1.4,0,0,0,.855-.22A.739.739,0,0,0-5.52-2.523Zm7.877-2.05A4.748,4.748,0,0,1,3.5-7.873,4.077,4.077,0,0,1,6.7-9.147,4.087,4.087,0,0,1,9.9-7.873a4.748,4.748,0,0,1,1.146,3.3V-4.4A4.744,4.744,0,0,1,9.9-1.1,4.073,4.073,0,0,1,6.715.174,4.1,4.1,0,0,1,3.5-1.1,4.744,4.744,0,0,1,2.357-4.4ZM5.163-4.4a3.713,3.713,0,0,0,.353,1.772,1.255,1.255,0,0,0,1.2.643,1.241,1.241,0,0,0,1.179-.647A3.681,3.681,0,0,0,8.251-4.4v-.174a3.7,3.7,0,0,0-.357-1.756,1.25,1.25,0,0,0-1.2-.66,1.233,1.233,0,0,0-1.183.664,3.737,3.737,0,0,0-.353,1.751Zm14.078-3.47a2.977,2.977,0,0,1,.992-.942,2.545,2.545,0,0,1,1.291-.336,2.681,2.681,0,0,1,2.191.971,4.7,4.7,0,0,1,.8,3.013V0H21.707V-5.18A2.694,2.694,0,0,0,21.441-6.6a.908.908,0,0,0-.805-.39,2.242,2.242,0,0,0-.822.137,1.487,1.487,0,0,0-.573.386V0H16.436V-12.949h2.806ZM31.485-1.345A2.952,2.952,0,0,1,30.451-.22a2.72,2.72,0,0,1-1.465.394A2.66,2.66,0,0,1,26.8-.805a4.775,4.775,0,0,1-.793-3.03V-8.981h2.8v5.163a2.723,2.723,0,0,0,.27,1.444.944.944,0,0,0,.834.39,2.29,2.29,0,0,0,.789-.125,1.524,1.524,0,0,0,.581-.374v-6.5h2.806V0H31.825ZM39.611.174a4.17,4.17,0,0,1-3.2-1.237,4.4,4.4,0,0,1-1.158-3.129v-.315a5.026,5.026,0,0,1,1.092-3.354A3.877,3.877,0,0,1,39.5-9.147,3.637,3.637,0,0,1,42.322-8.06a4.233,4.233,0,0,1,1,2.98v1.469H38.175l-.017.05a1.744,1.744,0,0,0,.523,1.141,1.826,1.826,0,0,0,1.312.436,5.684,5.684,0,0,0,1.341-.133,8.451,8.451,0,0,0,1.224-.423L43.23-.83a5.134,5.134,0,0,1-1.561.714A7.2,7.2,0,0,1,39.611.174ZM39.5-6.989a1.158,1.158,0,0,0-.992.427A2.145,2.145,0,0,0,38.142-5.4l.017.042h2.424v-.216a1.867,1.867,0,0,0-.245-1.054A.938.938,0,0,0,39.5-6.989Zm8.849,5.005a1.1,1.1,0,0,0,.855-.311,1.3,1.3,0,0,0,.282-.9h2.557l.017.05A2.949,2.949,0,0,1,51.046-.751a3.923,3.923,0,0,1-2.694.926,3.973,3.973,0,0,1-3.158-1.266,4.827,4.827,0,0,1-1.108-3.3v-.191a4.842,4.842,0,0,1,1.1-3.3,3.944,3.944,0,0,1,3.146-1.27,3.863,3.863,0,0,1,2.735.95,3.278,3.278,0,0,1,.992,2.6l-.017.05H49.489A1.738,1.738,0,0,0,49.2-6.587a1,1,0,0,0-.863-.4,1.153,1.153,0,0,0-1.133.652,4.029,4.029,0,0,0-.32,1.756v.191a4.015,4.015,0,0,0,.32,1.768A1.171,1.171,0,0,0,48.352-1.984Zm4.482-2.59a4.748,4.748,0,0,1,1.146-3.3,4.077,4.077,0,0,1,3.2-1.274,4.087,4.087,0,0,1,3.2,1.274,4.748,4.748,0,0,1,1.146,3.3V-4.4A4.744,4.744,0,0,1,60.38-1.1,4.073,4.073,0,0,1,57.192.174,4.1,4.1,0,0,1,53.98-1.1a4.744,4.744,0,0,1-1.146-3.3ZM55.64-4.4a3.713,3.713,0,0,0,.353,1.772,1.255,1.255,0,0,0,1.2.643,1.241,1.241,0,0,0,1.179-.647A3.681,3.681,0,0,0,58.728-4.4v-.174a3.7,3.7,0,0,0-.357-1.756,1.25,1.25,0,0,0-1.2-.66,1.233,1.233,0,0,0-1.183.664,3.737,3.737,0,0,0-.353,1.751Zm11.8,1.876a.732.732,0,0,0-.378-.594,4.073,4.073,0,0,0-1.374-.469,5.423,5.423,0,0,1-2.366-.95,2.153,2.153,0,0,1-.8-1.772,2.525,2.525,0,0,1,1-2.013,4.1,4.1,0,0,1,2.7-.826,4.633,4.633,0,0,1,2.855.8,2.355,2.355,0,0,1,1.013,2.071l-.017.05H67.353a1.112,1.112,0,0,0-.266-.805,1.175,1.175,0,0,0-.872-.274,1.14,1.14,0,0,0-.739.241.755.755,0,0,0-.3.614.731.731,0,0,0,.344.606,3.9,3.9,0,0,0,1.39.448,5.585,5.585,0,0,1,2.44.967,2.218,2.218,0,0,1,.789,1.822,2.379,2.379,0,0,1-1.075,2,4.715,4.715,0,0,1-2.843.784,4.264,4.264,0,0,1-2.9-.93,2.561,2.561,0,0,1-1.017-2.075l.017-.05h2.54a1.126,1.126,0,0,0,.386.921,1.7,1.7,0,0,0,1.05.282,1.4,1.4,0,0,0,.855-.22A.739.739,0,0,0,67.444-2.523ZM-67.448,15.842h5.188V18h-7.994V5.914h2.806ZM-57.985,18H-60.8V9.019h2.814Zm0-11.065H-60.8V5.051h2.814ZM-47.949,13.7a5.441,5.441,0,0,1-.88,3.262,3.015,3.015,0,0,1-2.606,1.212,2.517,2.517,0,0,1-1.278-.315,2.78,2.78,0,0,1-.938-.913L-53.818,18h-2.449V5.051h2.806V9.89a2.706,2.706,0,0,1,.867-.768,2.343,2.343,0,0,1,1.141-.27,2.984,2.984,0,0,1,2.619,1.27,5.855,5.855,0,0,1,.884,3.4Zm-2.8-.174a4.617,4.617,0,0,0-.3-1.855,1.11,1.11,0,0,0-1.112-.66,1.683,1.683,0,0,0-.784.17,1.273,1.273,0,0,0-.519.494v3.777a1.223,1.223,0,0,0,.527.423,2,2,0,0,0,.793.141,1.116,1.116,0,0,0,1.112-.577,4.122,4.122,0,0,0,.282-1.739Zm9-2.117-.913-.008a1.555,1.555,0,0,0-.789.178,1.1,1.1,0,0,0-.457.5V18h-2.806V9.019h2.64l.1,1.32a2.708,2.708,0,0,1,.747-1.1,1.64,1.64,0,0,1,1.087-.39,2.086,2.086,0,0,1,.34.025,2.574,2.574,0,0,1,.315.075Zm4.856,6.765a4.17,4.17,0,0,1-3.2-1.237,4.4,4.4,0,0,1-1.158-3.129v-.315a5.026,5.026,0,0,1,1.092-3.354A3.877,3.877,0,0,1-37,8.853,3.637,3.637,0,0,1-34.183,9.94a4.233,4.233,0,0,1,1,2.98v1.469h-5.146l-.017.05a1.744,1.744,0,0,0,.523,1.141,1.826,1.826,0,0,0,1.312.436,5.684,5.684,0,0,0,1.341-.133,8.451,8.451,0,0,0,1.224-.423l.672,1.71a5.134,5.134,0,0,1-1.561.714A7.2,7.2,0,0,1-36.893,18.174ZM-37,11.011a1.158,1.158,0,0,0-.992.427,2.145,2.145,0,0,0-.369,1.158l.017.042h2.424v-.216a1.867,1.867,0,0,0-.245-1.054A.938.938,0,0,0-37,11.011Zm9.687,4.466a.732.732,0,0,0-.378-.594,4.073,4.073,0,0,0-1.374-.469,5.423,5.423,0,0,1-2.366-.95,2.153,2.153,0,0,1-.8-1.772,2.525,2.525,0,0,1,1-2.013,4.1,4.1,0,0,1,2.7-.826,4.633,4.633,0,0,1,2.855.8,2.355,2.355,0,0,1,1.013,2.071l-.017.05h-2.723a1.112,1.112,0,0,0-.266-.805,1.175,1.175,0,0,0-.872-.274,1.14,1.14,0,0,0-.739.241.755.755,0,0,0-.3.614.731.731,0,0,0,.344.606,3.9,3.9,0,0,0,1.39.448,5.585,5.585,0,0,1,2.44.967,2.218,2.218,0,0,1,.789,1.822,2.379,2.379,0,0,1-1.075,2,4.715,4.715,0,0,1-2.843.784,4.264,4.264,0,0,1-2.9-.93,2.561,2.561,0,0,1-1.017-2.075l.017-.05h2.54a1.126,1.126,0,0,0,.386.921,1.7,1.7,0,0,0,1.05.282,1.4,1.4,0,0,0,.855-.22A.739.739,0,0,0-27.314,15.477ZM-16.124,18h-2.814V9.019h2.814Zm0-11.065h-2.814V5.051h2.814Zm4.3,2.083.108,1.262a3.252,3.252,0,0,1,1.087-1.05,2.814,2.814,0,0,1,1.444-.378,2.532,2.532,0,0,1,2.063.9A4.435,4.435,0,0,1-6.379,12.6V18H-9.185V12.588a2.058,2.058,0,0,0-.274-1.216.939.939,0,0,0-.8-.361,1.972,1.972,0,0,0-.805.158,1.608,1.608,0,0,0-.6.448V18h-2.8V9.019ZM-1.631,6.786V9.019H-.212v1.942H-1.631v4.117a1.007,1.007,0,0,0,.2.693.682.682,0,0,0,.527.212,2.82,2.82,0,0,0,.344-.017A2.982,2.982,0,0,0-.237,15.9l.191,2.075a6.773,6.773,0,0,1-.764.154,6.151,6.151,0,0,1-.805.046,2.8,2.8,0,0,1-2.1-.739,3.261,3.261,0,0,1-.718-2.341V10.961H-5.69V9.019h1.253V6.786ZM5.134,18.174a4.17,4.17,0,0,1-3.2-1.237A4.4,4.4,0,0,1,.776,13.808v-.315a5.026,5.026,0,0,1,1.092-3.354A3.877,3.877,0,0,1,5.026,8.853,3.637,3.637,0,0,1,7.844,9.94a4.233,4.233,0,0,1,1,2.98v1.469H3.7l-.017.05A1.744,1.744,0,0,0,4.2,15.58a1.826,1.826,0,0,0,1.312.436,5.684,5.684,0,0,0,1.341-.133,8.451,8.451,0,0,0,1.224-.423l.672,1.71a5.134,5.134,0,0,1-1.561.714A7.2,7.2,0,0,1,5.134,18.174Zm-.108-7.164a1.158,1.158,0,0,0-.992.427A2.145,2.145,0,0,0,3.665,12.6l.017.042H6.105v-.216a1.867,1.867,0,0,0-.245-1.054A.938.938,0,0,0,5.026,11.011Zm9.969.4-.913-.008a1.555,1.555,0,0,0-.789.178,1.1,1.1,0,0,0-.457.5V18H10.031V9.019h2.64l.1,1.32a2.708,2.708,0,0,1,.747-1.1,1.64,1.64,0,0,1,1.087-.39,2.086,2.086,0,0,1,.34.025,2.574,2.574,0,0,1,.315.075Zm3.669-2.391.1,1.187a2.971,2.971,0,0,1,1.067-1A3.014,3.014,0,0,1,21.3,8.853a2.746,2.746,0,0,1,1.444.365,2.244,2.244,0,0,1,.913,1.112,3.015,3.015,0,0,1,1.067-1.092,2.933,2.933,0,0,1,1.523-.386,2.494,2.494,0,0,1,2.063.942,4.619,4.619,0,0,1,.751,2.9V18H26.251V12.7a2.333,2.333,0,0,0-.27-1.324.946.946,0,0,0-.809-.361,1.68,1.68,0,0,0-.718.145,1.515,1.515,0,0,0-.527.4q0,.141.008.245t.008.2V18H21.138V12.7a2.36,2.36,0,0,0-.266-1.328.957.957,0,0,0-.822-.357,1.619,1.619,0,0,0-.693.145,1.515,1.515,0,0,0-.527.4V18H16.025V9.019Zm15.987,9.156a4.17,4.17,0,0,1-3.2-1.237,4.4,4.4,0,0,1-1.158-3.129v-.315a5.026,5.026,0,0,1,1.092-3.354,3.877,3.877,0,0,1,3.158-1.287A3.637,3.637,0,0,1,37.362,9.94a4.233,4.233,0,0,1,1,2.98v1.469H33.216l-.017.05a1.744,1.744,0,0,0,.523,1.141,1.826,1.826,0,0,0,1.312.436,5.684,5.684,0,0,0,1.341-.133A8.451,8.451,0,0,0,37.6,15.46l.672,1.71a5.134,5.134,0,0,1-1.561.714A7.2,7.2,0,0,1,34.652,18.174Zm-.108-7.164a1.158,1.158,0,0,0-.992.427,2.145,2.145,0,0,0-.369,1.158l.017.042h2.424v-.216a1.867,1.867,0,0,0-.245-1.054A.938.938,0,0,0,34.544,11.011Zm4.632,2.515a5.711,5.711,0,0,1,.917-3.387,2.991,2.991,0,0,1,2.586-1.287,2.23,2.23,0,0,1,1.125.286,2.975,2.975,0,0,1,.9.818V5.051H47.51V18H45.052l-.191-1.1a3.02,3.02,0,0,1-.95.942,2.371,2.371,0,0,1-1.249.328,3.019,3.019,0,0,1-2.573-1.229,5.311,5.311,0,0,1-.913-3.246Zm2.806.174a3.73,3.73,0,0,0,.32,1.706,1.117,1.117,0,0,0,1.075.61,1.769,1.769,0,0,0,.776-.162,1.391,1.391,0,0,0,.552-.477V11.75a1.528,1.528,0,0,0-.548-.548,1.5,1.5,0,0,0-.764-.191,1.12,1.12,0,0,0-1.079.689,4.241,4.241,0,0,0-.332,1.826ZM52.042,18H49.228V9.019h2.814Zm0-11.065H49.228V5.051h2.814Zm1.345,6.491a4.748,4.748,0,0,1,1.146-3.3,4.655,4.655,0,0,1,6.4,0,4.748,4.748,0,0,1,1.146,3.3V13.6a4.744,4.744,0,0,1-1.146,3.3,4.666,4.666,0,0,1-6.4,0,4.744,4.744,0,0,1-1.146-3.3Zm2.806.174a3.713,3.713,0,0,0,.353,1.772,1.255,1.255,0,0,0,1.2.643,1.241,1.241,0,0,0,1.179-.647A3.681,3.681,0,0,0,59.28,13.6v-.174a3.7,3.7,0,0,0-.357-1.756,1.25,1.25,0,0,0-1.2-.66,1.233,1.233,0,0,0-1.183.664,3.737,3.737,0,0,0-.353,1.751ZM68,15.477a.732.732,0,0,0-.378-.594,4.073,4.073,0,0,0-1.374-.469,5.423,5.423,0,0,1-2.366-.95,2.153,2.153,0,0,1-.8-1.772,2.525,2.525,0,0,1,1-2.013,4.1,4.1,0,0,1,2.7-.826,4.633,4.633,0,0,1,2.855.8,2.355,2.355,0,0,1,1.013,2.071l-.017.05H67.9a1.112,1.112,0,0,0-.266-.805,1.175,1.175,0,0,0-.872-.274,1.14,1.14,0,0,0-.739.241.755.755,0,0,0-.3.614.731.731,0,0,0,.344.606,3.9,3.9,0,0,0,1.39.448,5.585,5.585,0,0,1,2.44.967,2.218,2.218,0,0,1,.789,1.822,2.379,2.379,0,0,1-1.075,2,4.715,4.715,0,0,1-2.843.784,4.264,4.264,0,0,1-2.9-.93,2.561,2.561,0,0,1-1.017-2.075l.017-.05h2.54a1.126,1.126,0,0,0,.386.921,1.7,1.7,0,0,0,1.05.282,1.4,1.4,0,0,0,.855-.22A.739.739,0,0,0,68,15.477Z" transform="translate(2764.667 -10460.063) rotate(-90)" fill="#12263f"/>
      <path id="Trazado_159322" data-name="Trazado 159322" d="M-10.712-4.076l.017.05A3.885,3.885,0,0,1-11.862-.892a4.947,4.947,0,0,1-3.4,1.067,4.84,4.84,0,0,1-3.6-1.37,4.874,4.874,0,0,1-1.357-3.586V-7.3a4.982,4.982,0,0,1,1.307-3.582,4.551,4.551,0,0,1,3.457-1.374A5.328,5.328,0,0,1-11.9-11.189a3.775,3.775,0,0,1,1.224,3.113l-.025.05h-2.731A2.221,2.221,0,0,0-13.9-9.621a2.111,2.111,0,0,0-1.552-.481,1.642,1.642,0,0,0-1.453.76,3.591,3.591,0,0,0-.506,2.021v2.54a3.38,3.38,0,0,0,.556,2.034,1.852,1.852,0,0,0,1.594.764,1.775,1.775,0,0,0,1.39-.481,2.414,2.414,0,0,0,.427-1.61ZM-6.371,0H-9.185V-12.949h2.814ZM.535-.008a3.388,3.388,0,0,1-.27-.639A4.9,4.9,0,0,1,.1-1.395a3.432,3.432,0,0,1-.9,1.141A2.174,2.174,0,0,1-2.2.174,3.11,3.11,0,0,1-4.4-.552a2.566,2.566,0,0,1-.784-1.98,2.394,2.394,0,0,1,1-2.063,5.207,5.207,0,0,1,3.046-.726H.021V-5.96a1.279,1.279,0,0,0-.274-.88,1.067,1.067,0,0,0-.838-.307,1.012,1.012,0,0,0-.726.228.947.947,0,0,0-.237.71l-2.723-.008-.017-.05A2.343,2.343,0,0,1-3.769-8.322a4.594,4.594,0,0,1,2.86-.826,4.183,4.183,0,0,1,2.7.83A2.868,2.868,0,0,1,2.826-5.943v3.387a6.909,6.909,0,0,0,.12,1.328A7.113,7.113,0,0,0,3.308,0ZM-1.44-1.826a1.709,1.709,0,0,0,.909-.241A1.378,1.378,0,0,0,.021-2.64V-3.827H-1.108a1.268,1.268,0,0,0-.971.324,1.164,1.164,0,0,0-.3.822.8.8,0,0,0,.261.618A.97.97,0,0,0-1.44-1.826ZM7.6-3.7l.166.955.05.008L8-3.7,9.185-8.981h2.947L9.21,0H6.363L3.441-8.981H6.4ZM16.855.174a4.17,4.17,0,0,1-3.2-1.237A4.4,4.4,0,0,1,12.5-4.192v-.315a5.026,5.026,0,0,1,1.092-3.354,3.877,3.877,0,0,1,3.158-1.287A3.637,3.637,0,0,1,19.565-8.06a4.233,4.233,0,0,1,1,2.98v1.469H15.419l-.017.05a1.744,1.744,0,0,0,.523,1.141,1.826,1.826,0,0,0,1.312.436,5.684,5.684,0,0,0,1.341-.133A8.451,8.451,0,0,0,19.8-2.54l.672,1.71a5.134,5.134,0,0,1-1.561.714A7.2,7.2,0,0,1,16.855.174Zm-.108-7.164a1.158,1.158,0,0,0-.992.427A2.145,2.145,0,0,0,15.385-5.4l.017.042h2.424v-.216a1.867,1.867,0,0,0-.245-1.054A.938.938,0,0,0,16.747-6.989Z" transform="translate(2452.667 -10666.063)" fill="#12263f"/>
      <path id="Trazado_159321" data-name="Trazado 159321" d="M-21.225,0V-12.086H-16.8a4.929,4.929,0,0,1,3.569,1.39A4.746,4.746,0,0,1-11.8-7.13v2.175a4.742,4.742,0,0,1-1.436,3.569A4.938,4.938,0,0,1-16.8,0Zm2.806-9.928v7.77H-16.8a1.923,1.923,0,0,0,1.573-.78,3.149,3.149,0,0,0,.618-2.017V-7.147a3.122,3.122,0,0,0-.618-2,1.923,1.923,0,0,0-1.573-.78ZM-5.1-.008a3.388,3.388,0,0,1-.27-.639,4.9,4.9,0,0,1-.17-.747,3.432,3.432,0,0,1-.9,1.141,2.174,2.174,0,0,1-1.4.427,3.11,3.11,0,0,1-2.2-.726,2.566,2.566,0,0,1-.784-1.98,2.394,2.394,0,0,1,1-2.063,5.207,5.207,0,0,1,3.046-.726h1.154V-5.96a1.279,1.279,0,0,0-.274-.88,1.067,1.067,0,0,0-.838-.307,1.012,1.012,0,0,0-.726.228.947.947,0,0,0-.237.71l-2.723-.008-.017-.05A2.343,2.343,0,0,1-9.4-8.322a4.594,4.594,0,0,1,2.86-.826,4.183,4.183,0,0,1,2.7.83A2.868,2.868,0,0,1-2.806-5.943v3.387a6.909,6.909,0,0,0,.12,1.328A7.113,7.113,0,0,0-2.324,0ZM-7.072-1.826a1.709,1.709,0,0,0,.909-.241,1.378,1.378,0,0,0,.552-.573V-3.827H-6.74a1.268,1.268,0,0,0-.971.324,1.164,1.164,0,0,0-.3.822.8.8,0,0,0,.261.618A.97.97,0,0,0-7.072-1.826Zm9.023-9.388v2.233H3.37v1.942H1.951v4.117a1.007,1.007,0,0,0,.2.693.682.682,0,0,0,.527.212,2.82,2.82,0,0,0,.344-.017A2.982,2.982,0,0,0,3.345-2.1L3.536-.025a6.773,6.773,0,0,1-.764.154,6.15,6.15,0,0,1-.805.046,2.8,2.8,0,0,1-2.1-.739A3.261,3.261,0,0,1-.855-2.905V-7.039H-2.108V-8.981H-.855v-2.233ZM4.358-4.574A4.748,4.748,0,0,1,5.5-7.873,4.077,4.077,0,0,1,8.7-9.147a4.087,4.087,0,0,1,3.2,1.274,4.748,4.748,0,0,1,1.146,3.3V-4.4A4.744,4.744,0,0,1,11.9-1.1,4.073,4.073,0,0,1,8.716.174,4.1,4.1,0,0,1,5.5-1.1,4.744,4.744,0,0,1,4.358-4.4ZM7.164-4.4a3.713,3.713,0,0,0,.353,1.772,1.255,1.255,0,0,0,1.2.643,1.241,1.241,0,0,0,1.179-.647A3.681,3.681,0,0,0,10.251-4.4v-.174a3.7,3.7,0,0,0-.357-1.756,1.25,1.25,0,0,0-1.2-.66,1.233,1.233,0,0,0-1.183.664,3.737,3.737,0,0,0-.353,1.751Zm11.8,1.876a.732.732,0,0,0-.378-.594,4.073,4.073,0,0,0-1.374-.469,5.423,5.423,0,0,1-2.366-.95,2.153,2.153,0,0,1-.8-1.772,2.525,2.525,0,0,1,1-2.013,4.1,4.1,0,0,1,2.7-.826,4.633,4.633,0,0,1,2.855.8,2.355,2.355,0,0,1,1.013,2.071l-.017.05H18.876a1.112,1.112,0,0,0-.266-.805,1.175,1.175,0,0,0-.872-.274A1.14,1.14,0,0,0,17-7.064a.755.755,0,0,0-.3.614.731.731,0,0,0,.344.606,3.9,3.9,0,0,0,1.39.448,5.585,5.585,0,0,1,2.44.967,2.218,2.218,0,0,1,.789,1.822,2.379,2.379,0,0,1-1.075,2,4.715,4.715,0,0,1-2.843.784,4.264,4.264,0,0,1-2.9-.93,2.561,2.561,0,0,1-1.017-2.075l.017-.05h2.54a1.126,1.126,0,0,0,.386.921,1.7,1.7,0,0,0,1.05.282,1.4,1.4,0,0,0,.855-.22A.739.739,0,0,0,18.967-2.523Z" transform="translate(2589.667 -10667.063)" fill="#12263f"/>
      <path id="Trazado_159325" data-name="Trazado 159325" d="M9.239,35.522H.838v-1.9L4.557,29.36a8.374,8.374,0,0,0,1.1-1.575A2.763,2.763,0,0,0,6,26.582a1.924,1.924,0,0,0-.315-1.164,1.174,1.174,0,0,0-1.013-.428,1.145,1.145,0,0,0-1.017.558A2.575,2.575,0,0,0,3.3,26.972H.548L.531,26.92a3.974,3.974,0,0,1,4.142-4.18,4.3,4.3,0,0,1,3.063,1.017,3.661,3.661,0,0,1,1.079,2.8,3.8,3.8,0,0,1-.6,2.116,26.213,26.213,0,0,1-2.191,2.722L4.557,33.229l.017.043H9.239ZM8.176,103.579H9.4v2.267H8.176V108.5H5.371v-2.657H.564l-.166-1.8,4.972-8.118V95.9H8.176Zm-5.371,0H5.371v-3.92l-.05-.009-.307.649ZM1,139.455l.7-7.062H8.782v2.267H3.976l-.307,2.622a2.782,2.782,0,0,1,.867-.407,4.486,4.486,0,0,1,1.15-.173A3.071,3.071,0,0,1,8.28,137.78a4.863,4.863,0,0,1,.909,3.154,4.559,4.559,0,0,1-1.013,3.033,3.931,3.931,0,0,1-3.187,1.207,4.889,4.889,0,0,1-3-.948,2.85,2.85,0,0,1-1.224-2.505l.008-.052L3.52,141.5a1.372,1.372,0,0,0,.4,1.047,1.489,1.489,0,0,0,1.067.381,1.178,1.178,0,0,0,1.087-.493,2.846,2.846,0,0,0,.307-1.48,3.186,3.186,0,0,0-.357-1.636,1.219,1.219,0,0,0-1.129-.6,1.494,1.494,0,0,0-.9.251,1.3,1.3,0,0,0-.477.632ZM8.957,245.162a3.008,3.008,0,0,1-.44,1.618A3.216,3.216,0,0,1,7.3,247.914a3.711,3.711,0,0,1,1.527,1.216,2.979,2.979,0,0,1,.564,1.787,3.339,3.339,0,0,1-1.212,2.748,4.76,4.76,0,0,1-3.1.982,5.09,5.09,0,0,1-3.225-.987A3.282,3.282,0,0,1,.6,250.917a2.922,2.922,0,0,1,.581-1.787,3.781,3.781,0,0,1,1.594-1.216,3.212,3.212,0,0,1-1.282-1.129,2.927,2.927,0,0,1-.461-1.623,3.118,3.118,0,0,1,1.121-2.575,4.508,4.508,0,0,1,2.922-.9,4.227,4.227,0,0,1,2.814.9A3.181,3.181,0,0,1,8.957,245.162Zm-2.366,5.6a1.749,1.749,0,0,0-.436-1.229,1.409,1.409,0,0,0-1.083-.476,1.6,1.6,0,0,0-1.187.476,1.669,1.669,0,0,0-.473,1.229,1.557,1.557,0,0,0,.473,1.19,1.685,1.685,0,0,0,1.2.446,1.434,1.434,0,0,0,1.075-.441A1.644,1.644,0,0,0,6.591,250.761Zm-.432-5.444a1.6,1.6,0,0,0-.291-1.021.965.965,0,0,0-.8-.363,1.158,1.158,0,0,0-.9.359,1.468,1.468,0,0,0-.328,1.026,1.641,1.641,0,0,0,.336,1.086,1.123,1.123,0,0,0,.909.4.912.912,0,0,0,.784-.4A1.84,1.84,0,0,0,6.159,245.317Zm-1.61,43.57A1.522,1.522,0,0,0,5.8,288.26a2.755,2.755,0,0,0,.49-1.735V285.8a2.715,2.715,0,0,1-.946.783,2.591,2.591,0,0,1-1.154.264,3.156,3.156,0,0,1-2.586-1.155,4.763,4.763,0,0,1-.942-3.1,4.448,4.448,0,0,1,1.179-3.141,3.964,3.964,0,0,1,3.046-1.272A3.861,3.861,0,0,1,7.906,279.5a5.3,5.3,0,0,1,1.183,3.656v3.167a4.776,4.776,0,0,1-1.291,3.5,4.363,4.363,0,0,1-3.25,1.315,6.135,6.135,0,0,1-1.282-.143,6.875,6.875,0,0,1-1.274-.4l.481-2.086a6.22,6.22,0,0,0,1,.29A5.709,5.709,0,0,0,4.549,288.887Zm.257-4.145a1.883,1.883,0,0,0,.859-.19,1.779,1.779,0,0,0,.627-.519v-1.411a2.838,2.838,0,0,0-.394-1.636,1.2,1.2,0,0,0-1.017-.563,1.162,1.162,0,0,0-1.038.649,2.932,2.932,0,0,0-.382,1.514,3.092,3.092,0,0,0,.344,1.562A1.094,1.094,0,0,0,4.806,284.742Zm2.158,42.7H4.159v-10.1H1.727v-2.233l5.238-.45Zm12.011-4.63a5.081,5.081,0,0,1-1.154,3.535,3.909,3.909,0,0,1-3.046,1.277,3.929,3.929,0,0,1-3.063-1.277,5.081,5.081,0,0,1-1.154-3.535v-3.341A5.1,5.1,0,0,1,11.7,315.94a3.9,3.9,0,0,1,3.055-1.277,3.929,3.929,0,0,1,3.055,1.281,5.061,5.061,0,0,1,1.162,3.531Zm-2.8-3.54a3.346,3.346,0,0,0-.378-1.757,1.171,1.171,0,0,0-1.042-.606,1.149,1.149,0,0,0-1.038.606,3.44,3.44,0,0,0-.365,1.757V323a3.446,3.446,0,0,0,.369,1.778,1.167,1.167,0,0,0,1.05.6,1.153,1.153,0,0,0,1.033-.6A3.446,3.446,0,0,0,16.178,323ZM6.964,400.427H4.159v-10.1H1.727v-2.233l5.238-.45Zm12.119,0h-8.4v-1.9l3.719-4.258a8.374,8.374,0,0,0,1.1-1.575,2.763,2.763,0,0,0,.349-1.2,1.924,1.924,0,0,0-.315-1.164,1.174,1.174,0,0,0-1.013-.428,1.145,1.145,0,0,0-1.017.558,2.576,2.576,0,0,0-.361,1.424H10.393l-.017-.052a3.974,3.974,0,0,1,4.142-4.18,4.3,4.3,0,0,1,3.063,1.017,3.661,3.661,0,0,1,1.079,2.8,3.8,3.8,0,0,1-.6,2.116,26.213,26.213,0,0,1-2.191,2.722L14.4,398.133l.017.043h4.665Z" transform="translate(2439.667 -10637.063)" fill="#12263f"/>
      <path id="Trazado_159320" data-name="Trazado 159320" d="M3.769,30.741v4.84H.963V22.953H5.171A5.069,5.069,0,0,1,8.5,23.968a3.407,3.407,0,0,1,1.229,2.775,2.85,2.85,0,0,1-.494,1.683A3.523,3.523,0,0,1,7.778,29.57a2.7,2.7,0,0,1,1.6,1.1,3.512,3.512,0,0,1,.486,1.912v.8A5.249,5.249,0,0,0,10,34.505a1.507,1.507,0,0,0,.49.9v.173H7.6a1.443,1.443,0,0,1-.432-.945,8.773,8.773,0,0,1-.1-1.275V32.6a1.918,1.918,0,0,0-.457-1.379,1.765,1.765,0,0,0-1.336-.477Zm0-2.255H5.188a1.874,1.874,0,0,0,1.295-.4,1.477,1.477,0,0,0,.448-1.158A1.707,1.707,0,0,0,6.47,25.68a1.731,1.731,0,0,0-1.3-.473h-1.4Zm11.854,7.277a4.077,4.077,0,0,1-3.2-1.292,4.716,4.716,0,0,1-1.158-3.27v-.33a5.406,5.406,0,0,1,1.092-3.5,3.8,3.8,0,0,1,3.158-1.344,3.556,3.556,0,0,1,2.818,1.136,4.548,4.548,0,0,1,1,3.114v1.535H14.186l-.017.052a1.858,1.858,0,0,0,.523,1.193A1.778,1.778,0,0,0,16,33.508a5.45,5.45,0,0,0,1.341-.139,8.207,8.207,0,0,0,1.224-.442l.672,1.787a5.036,5.036,0,0,1-1.561.746A6.915,6.915,0,0,1,15.622,35.763Zm-.108-7.485a1.137,1.137,0,0,0-.992.447,2.31,2.31,0,0,0-.369,1.21l.017.043h2.424v-.225a2.02,2.02,0,0,0-.245-1.1A.922.922,0,0,0,15.514,28.278Zm4.624,2.628a6.167,6.167,0,0,1,.917-3.539,2.951,2.951,0,0,1,2.586-1.344,2.231,2.231,0,0,1,1.245.351,3.041,3.041,0,0,1,.93.993L26,26.2h2.474v9.28a3.543,3.543,0,0,1-1.216,2.875,5.058,5.058,0,0,1-3.349,1.019,5.78,5.78,0,0,1-1.461-.2,7.93,7.93,0,0,1-1.461-.538l.481-2.168a6.474,6.474,0,0,0,1.158.412,5.375,5.375,0,0,0,1.266.134,2.012,2.012,0,0,0,1.332-.373,1.471,1.471,0,0,0,.436-1.18v-.729a2.6,2.6,0,0,1-.884.772,2.463,2.463,0,0,1-1.15.26,2.974,2.974,0,0,1-2.573-1.284,5.73,5.73,0,0,1-.913-3.391Zm2.8.182a4.048,4.048,0,0,0,.32,1.782,1.116,1.116,0,0,0,1.083.637,1.9,1.9,0,0,0,.784-.147,1.291,1.291,0,0,0,.535-.442V28.972a1.423,1.423,0,0,0-.531-.516,1.581,1.581,0,0,0-.772-.178A1.126,1.126,0,0,0,23.271,29a4.561,4.561,0,0,0-.336,1.9Zm10.077,4.493H30.2V26.2h2.814Zm0-11.561H30.2V22.051h2.814Zm6.4,8.925a.77.77,0,0,0-.378-.62,3.961,3.961,0,0,0-1.374-.49,5.3,5.3,0,0,1-2.366-.993,2.293,2.293,0,0,1-.8-1.852,2.682,2.682,0,0,1,1-2.1,3.979,3.979,0,0,1,2.7-.863,4.49,4.49,0,0,1,2.855.837,2.5,2.5,0,0,1,1.013,2.164l-.017.052H39.321a1.2,1.2,0,0,0-.266-.841,1.144,1.144,0,0,0-.872-.286,1.108,1.108,0,0,0-.739.252.8.8,0,0,0-.3.642.772.772,0,0,0,.344.633,3.785,3.785,0,0,0,1.39.468,5.456,5.456,0,0,1,2.44,1.01,2.365,2.365,0,0,1,.789,1.9,2.517,2.517,0,0,1-1.075,2.086,4.568,4.568,0,0,1-2.843.82,4.146,4.146,0,0,1-2.9-.971,2.722,2.722,0,0,1-1.017-2.168l.017-.052h2.54a1.2,1.2,0,0,0,.386.963,1.646,1.646,0,0,0,1.05.295,1.357,1.357,0,0,0,.855-.23A.786.786,0,0,0,39.412,32.944Zm7.238-9.081V26.2H48.07v2.029H46.65v4.3a1.086,1.086,0,0,0,.2.724.667.667,0,0,0,.527.221,2.7,2.7,0,0,0,.344-.017,2.869,2.869,0,0,0,.328-.069l.191,2.168a6.517,6.517,0,0,1-.764.16,5.89,5.89,0,0,1-.805.048,2.734,2.734,0,0,1-2.1-.772,3.508,3.508,0,0,1-.718-2.446V28.226H42.591V26.2h1.253V23.863ZM54.4,28.694l-.913-.009a1.5,1.5,0,0,0-.789.186,1.134,1.134,0,0,0-.457.525v6.184H49.431V26.2h2.64l.1,1.379a2.836,2.836,0,0,1,.747-1.145A1.6,1.6,0,0,1,54,26.023a2,2,0,0,1,.34.026,2.482,2.482,0,0,1,.315.078Zm.49,2.108a5.1,5.1,0,0,1,1.146-3.448,4.511,4.511,0,0,1,6.4,0A5.1,5.1,0,0,1,63.576,30.8v.182a5.1,5.1,0,0,1-1.146,3.452,4.522,4.522,0,0,1-6.4,0,5.1,5.1,0,0,1-1.146-3.452Zm2.806.182a4.028,4.028,0,0,0,.353,1.852,1.244,1.244,0,0,0,1.2.672,1.231,1.231,0,0,0,1.179-.676,3.992,3.992,0,0,0,.357-1.847V30.8a4.007,4.007,0,0,0-.357-1.834,1.24,1.24,0,0,0-1.2-.69,1.224,1.224,0,0,0-1.183.694,4.053,4.053,0,0,0-.353,1.83Zm11.555-5.872.847-2.16h1.386v4.718H69.245Zm2.723,0,.847-2.16H74.2v4.718H71.968ZM82.3,33.126H78.708l-.7,2.454H75.056L79,22.953h1.5v.009l.008-.009h1.5l3.951,12.628H83.008Zm-2.947-2.255h2.3l-1.129-3.92h-.05ZM87.714,25.5l-.847,2.168H85.481V22.953h2.233Zm2.789,0-.847,2.168H88.271V22.953H90.5ZM3.769,103.88v4.84H.963V96.092H5.171A5.069,5.069,0,0,1,8.5,97.106a3.407,3.407,0,0,1,1.229,2.775,2.85,2.85,0,0,1-.494,1.683,3.523,3.523,0,0,1-1.457,1.145,2.7,2.7,0,0,1,1.6,1.1,3.512,3.512,0,0,1,.486,1.912v.8A5.249,5.249,0,0,0,10,107.644a1.507,1.507,0,0,0,.49.9v.173H7.6a1.443,1.443,0,0,1-.432-.945,8.773,8.773,0,0,1-.1-1.275v-.763a1.918,1.918,0,0,0-.457-1.379,1.765,1.765,0,0,0-1.336-.477Zm0-2.255H5.188a1.874,1.874,0,0,0,1.295-.4,1.477,1.477,0,0,0,.448-1.158,1.707,1.707,0,0,0-.461-1.245,1.731,1.731,0,0,0-1.3-.473h-1.4ZM15.622,108.9a4.077,4.077,0,0,1-3.2-1.292,4.716,4.716,0,0,1-1.158-3.27v-.33a5.406,5.406,0,0,1,1.092-3.5,3.8,3.8,0,0,1,3.158-1.344,3.556,3.556,0,0,1,2.818,1.136,4.548,4.548,0,0,1,1,3.114v1.535H14.186l-.017.052a1.858,1.858,0,0,0,.523,1.193,1.778,1.778,0,0,0,1.312.455,5.45,5.45,0,0,0,1.341-.139,8.206,8.206,0,0,0,1.224-.442l.672,1.787a5.036,5.036,0,0,1-1.561.746A6.914,6.914,0,0,1,15.622,108.9Zm-.108-7.485a1.137,1.137,0,0,0-.992.447,2.31,2.31,0,0,0-.369,1.21l.017.043h2.424v-.225a2.02,2.02,0,0,0-.245-1.1A.922.922,0,0,0,15.514,101.417Zm4.624,2.628a6.167,6.167,0,0,1,.917-3.539,2.951,2.951,0,0,1,2.586-1.344,2.231,2.231,0,0,1,1.245.351,3.041,3.041,0,0,1,.93.993L26,99.335h2.474v9.28a3.543,3.543,0,0,1-1.216,2.875,5.058,5.058,0,0,1-3.349,1.019,5.78,5.78,0,0,1-1.461-.2,7.931,7.931,0,0,1-1.461-.538l.481-2.168a6.474,6.474,0,0,0,1.158.412,5.375,5.375,0,0,0,1.266.134,2.012,2.012,0,0,0,1.332-.373,1.471,1.471,0,0,0,.436-1.18v-.729a2.6,2.6,0,0,1-.884.772,2.463,2.463,0,0,1-1.15.26,2.974,2.974,0,0,1-2.573-1.284,5.73,5.73,0,0,1-.913-3.391Zm2.8.182a4.048,4.048,0,0,0,.32,1.782,1.116,1.116,0,0,0,1.083.637,1.9,1.9,0,0,0,.784-.147,1.291,1.291,0,0,0,.535-.442v-3.946a1.423,1.423,0,0,0-.531-.516,1.581,1.581,0,0,0-.772-.178,1.126,1.126,0,0,0-1.083.724,4.561,4.561,0,0,0-.336,1.9Zm10.077,4.493H30.2V99.335h2.814Zm0-11.561H30.2V95.19h2.814Zm6.4,8.925a.77.77,0,0,0-.378-.62,3.961,3.961,0,0,0-1.374-.49,5.3,5.3,0,0,1-2.366-.993,2.293,2.293,0,0,1-.8-1.852,2.682,2.682,0,0,1,1-2.1,3.979,3.979,0,0,1,2.7-.863,4.49,4.49,0,0,1,2.855.837,2.5,2.5,0,0,1,1.013,2.164l-.017.052H39.321a1.2,1.2,0,0,0-.266-.841,1.144,1.144,0,0,0-.872-.286,1.108,1.108,0,0,0-.739.252.8.8,0,0,0-.3.642.772.772,0,0,0,.344.633,3.785,3.785,0,0,0,1.39.468,5.456,5.456,0,0,1,2.44,1.01,2.365,2.365,0,0,1,.789,1.9,2.517,2.517,0,0,1-1.075,2.086,4.568,4.568,0,0,1-2.843.82,4.146,4.146,0,0,1-2.9-.971,2.722,2.722,0,0,1-1.017-2.168l.017-.052h2.54a1.2,1.2,0,0,0,.386.963,1.646,1.646,0,0,0,1.05.295,1.357,1.357,0,0,0,.855-.23A.786.786,0,0,0,39.412,106.083ZM46.65,97v2.333H48.07v2.029H46.65v4.3a1.086,1.086,0,0,0,.2.724.667.667,0,0,0,.527.221,2.7,2.7,0,0,0,.344-.017,2.87,2.87,0,0,0,.328-.069l.191,2.168a6.517,6.517,0,0,1-.764.16,5.89,5.89,0,0,1-.805.048,2.734,2.734,0,0,1-2.1-.772,3.509,3.509,0,0,1-.718-2.446v-4.319H42.591V99.335h1.253V97Zm7.745,4.831-.913-.009a1.5,1.5,0,0,0-.789.186,1.134,1.134,0,0,0-.457.525v6.184H49.431V99.335h2.64l.1,1.379a2.836,2.836,0,0,1,.747-1.145A1.6,1.6,0,0,1,54,99.162a2,2,0,0,1,.34.026,2.483,2.483,0,0,1,.315.078Zm.49,2.108a5.1,5.1,0,0,1,1.146-3.448,4.511,4.511,0,0,1,6.4,0,5.1,5.1,0,0,1,1.146,3.448v.182a5.1,5.1,0,0,1-1.146,3.452,4.522,4.522,0,0,1-6.4,0,5.1,5.1,0,0,1-1.146-3.452Zm2.806.182a4.028,4.028,0,0,0,.353,1.852,1.244,1.244,0,0,0,1.2.672,1.231,1.231,0,0,0,1.179-.676,3.992,3.992,0,0,0,.357-1.847v-.182a4.007,4.007,0,0,0-.357-1.834,1.24,1.24,0,0,0-1.2-.689,1.224,1.224,0,0,0-1.183.694,4.053,4.053,0,0,0-.353,1.83Zm11.555-5.872.847-2.16h1.386v4.718H69.245Zm2.723,0,.847-2.16H74.2v4.718H71.968Zm4.889,10.468V96.092h3.959a6.091,6.091,0,0,1,3.507.872,2.953,2.953,0,0,1,1.258,2.6,3.171,3.171,0,0,1-.4,1.6,2.48,2.48,0,0,1-1.245,1.054,2.5,2.5,0,0,1,1.6,1.006,3.057,3.057,0,0,1,.519,1.761,3.356,3.356,0,0,1-1.187,2.793,5.352,5.352,0,0,1-3.4.945Zm2.806-5.421v3.166h1.8a2.082,2.082,0,0,0,1.345-.369,1.38,1.38,0,0,0,.448-1.132,1.715,1.715,0,0,0-.394-1.223,1.8,1.8,0,0,0-1.3-.442h-1.9Zm0-1.943h1.1a2.536,2.536,0,0,0,1.511-.369,1.278,1.278,0,0,0,.5-1.1,1.386,1.386,0,0,0-.481-1.175,2.423,2.423,0,0,0-1.478-.369H79.663Zm10.326-2.715-.847,2.168H87.756V96.092h2.233Zm2.789,0-.847,2.168H90.545V96.092h2.233ZM3.769,140.45v4.84H.963V132.661H5.171A5.069,5.069,0,0,1,8.5,133.676a3.407,3.407,0,0,1,1.229,2.775,2.85,2.85,0,0,1-.494,1.683,3.523,3.523,0,0,1-1.457,1.145,2.7,2.7,0,0,1,1.6,1.1,3.512,3.512,0,0,1,.486,1.912v.8A5.249,5.249,0,0,0,10,144.214a1.507,1.507,0,0,0,.49.9v.173H7.6a1.443,1.443,0,0,1-.432-.945,8.773,8.773,0,0,1-.1-1.275v-.763a1.918,1.918,0,0,0-.457-1.379,1.765,1.765,0,0,0-1.336-.477Zm0-2.255H5.188a1.874,1.874,0,0,0,1.295-.4,1.477,1.477,0,0,0,.448-1.158,1.707,1.707,0,0,0-.461-1.245,1.731,1.731,0,0,0-1.3-.473h-1.4Zm11.854,7.277a4.077,4.077,0,0,1-3.2-1.292,4.716,4.716,0,0,1-1.158-3.27v-.33a5.406,5.406,0,0,1,1.092-3.5,3.8,3.8,0,0,1,3.158-1.344,3.556,3.556,0,0,1,2.818,1.136,4.548,4.548,0,0,1,1,3.114v1.535H14.186l-.017.052a1.858,1.858,0,0,0,.523,1.193,1.778,1.778,0,0,0,1.312.455,5.45,5.45,0,0,0,1.341-.139,8.209,8.209,0,0,0,1.224-.442l.672,1.787a5.036,5.036,0,0,1-1.561.746A6.915,6.915,0,0,1,15.622,145.471Zm-.108-7.485a1.137,1.137,0,0,0-.992.447,2.31,2.31,0,0,0-.369,1.21l.017.043h2.424v-.226a2.02,2.02,0,0,0-.245-1.1A.922.922,0,0,0,15.514,137.986Zm4.624,2.628a6.167,6.167,0,0,1,.917-3.539,2.951,2.951,0,0,1,2.586-1.344,2.231,2.231,0,0,1,1.245.351,3.041,3.041,0,0,1,.93.993L26,135.9h2.474v9.28a3.543,3.543,0,0,1-1.216,2.875,5.058,5.058,0,0,1-3.349,1.019,5.78,5.78,0,0,1-1.461-.2,7.93,7.93,0,0,1-1.461-.538l.481-2.168a6.473,6.473,0,0,0,1.158.412,5.375,5.375,0,0,0,1.266.134,2.012,2.012,0,0,0,1.332-.373,1.471,1.471,0,0,0,.436-1.18v-.729a2.6,2.6,0,0,1-.884.772,2.463,2.463,0,0,1-1.15.26,2.974,2.974,0,0,1-2.573-1.284,5.73,5.73,0,0,1-.913-3.391Zm2.8.182a4.048,4.048,0,0,0,.32,1.782,1.116,1.116,0,0,0,1.083.637,1.9,1.9,0,0,0,.784-.147,1.291,1.291,0,0,0,.535-.442V138.68a1.423,1.423,0,0,0-.531-.516,1.581,1.581,0,0,0-.772-.178,1.126,1.126,0,0,0-1.083.724,4.561,4.561,0,0,0-.336,1.9Zm10.077,4.493H30.2V135.9h2.814Zm0-11.561H30.2v-1.969h2.814Zm6.4,8.925a.77.77,0,0,0-.378-.62,3.961,3.961,0,0,0-1.374-.49,5.3,5.3,0,0,1-2.366-.993,2.293,2.293,0,0,1-.8-1.852,2.682,2.682,0,0,1,1-2.1,3.979,3.979,0,0,1,2.7-.863,4.49,4.49,0,0,1,2.855.837,2.5,2.5,0,0,1,1.013,2.164l-.017.052H39.321a1.2,1.2,0,0,0-.266-.841,1.144,1.144,0,0,0-.872-.286,1.108,1.108,0,0,0-.739.252.8.8,0,0,0-.3.642.772.772,0,0,0,.344.633,3.784,3.784,0,0,0,1.39.468,5.456,5.456,0,0,1,2.44,1.01,2.365,2.365,0,0,1,.789,1.9,2.517,2.517,0,0,1-1.075,2.086,4.568,4.568,0,0,1-2.843.82,4.146,4.146,0,0,1-2.9-.971,2.722,2.722,0,0,1-1.017-2.168l.017-.052h2.54a1.2,1.2,0,0,0,.386.963,1.646,1.646,0,0,0,1.05.295,1.357,1.357,0,0,0,.855-.23A.786.786,0,0,0,39.412,142.652Zm7.238-9.081V135.9H48.07v2.029H46.65v4.3a1.086,1.086,0,0,0,.2.724.667.667,0,0,0,.527.221,2.7,2.7,0,0,0,.344-.017,2.869,2.869,0,0,0,.328-.069l.191,2.168a6.517,6.517,0,0,1-.764.16,5.888,5.888,0,0,1-.805.048,2.734,2.734,0,0,1-2.1-.772,3.508,3.508,0,0,1-.718-2.446v-4.319H42.591V135.9h1.253v-2.333ZM54.4,138.4l-.913-.009a1.5,1.5,0,0,0-.789.186,1.134,1.134,0,0,0-.457.525v6.184H49.431V135.9h2.64l.1,1.379a2.836,2.836,0,0,1,.747-1.145A1.6,1.6,0,0,1,54,135.731a2,2,0,0,1,.34.026,2.481,2.481,0,0,1,.315.078Zm.49,2.108a5.1,5.1,0,0,1,1.146-3.448,4.511,4.511,0,0,1,6.4,0,5.1,5.1,0,0,1,1.146,3.448v.182a5.1,5.1,0,0,1-1.146,3.452,4.522,4.522,0,0,1-6.4,0,5.1,5.1,0,0,1-1.146-3.452Zm2.806.182a4.028,4.028,0,0,0,.353,1.852,1.244,1.244,0,0,0,1.2.672,1.231,1.231,0,0,0,1.179-.676,3.992,3.992,0,0,0,.357-1.847v-.182a4.007,4.007,0,0,0-.357-1.834,1.24,1.24,0,0,0-1.2-.69,1.224,1.224,0,0,0-1.183.694,4.053,4.053,0,0,0-.353,1.83Zm11.555-5.872.847-2.16h1.386v4.718H69.245Zm2.723,0,.847-2.16H74.2v4.718H71.968Zm14.169,6.21.017.052a4.159,4.159,0,0,1-1.166,3.274,4.809,4.809,0,0,1-3.4,1.114,4.728,4.728,0,0,1-3.6-1.431,5.221,5.221,0,0,1-1.357-3.747v-2.637a5.342,5.342,0,0,1,1.307-3.742,4.452,4.452,0,0,1,3.457-1.435,5.174,5.174,0,0,1,3.557,1.119,4.035,4.035,0,0,1,1.224,3.252l-.025.052H83.423a2.391,2.391,0,0,0-.473-1.665,2.053,2.053,0,0,0-1.552-.5,1.623,1.623,0,0,0-1.453.794,3.883,3.883,0,0,0-.506,2.112v2.654a3.649,3.649,0,0,0,.556,2.125,1.825,1.825,0,0,0,1.594.8,1.731,1.731,0,0,0,1.39-.5,2.605,2.605,0,0,0,.427-1.683Zm3.86-5.82-.847,2.168H87.764v-4.718H90Zm2.789,0-.847,2.168H90.553v-4.718h2.233ZM3.769,250.158V255H.963V242.37H5.171A5.069,5.069,0,0,1,8.5,243.384a3.407,3.407,0,0,1,1.229,2.775,2.85,2.85,0,0,1-.494,1.683,3.523,3.523,0,0,1-1.457,1.145,2.7,2.7,0,0,1,1.6,1.1A3.512,3.512,0,0,1,9.861,252v.8A5.249,5.249,0,0,0,10,253.922a1.507,1.507,0,0,0,.49.9V255H7.6a1.443,1.443,0,0,1-.432-.945,8.773,8.773,0,0,1-.1-1.275v-.763a1.918,1.918,0,0,0-.457-1.379,1.765,1.765,0,0,0-1.336-.477Zm0-2.255H5.188a1.874,1.874,0,0,0,1.295-.4,1.477,1.477,0,0,0,.448-1.158A1.707,1.707,0,0,0,6.47,245.1a1.731,1.731,0,0,0-1.3-.473h-1.4Zm11.854,7.277a4.077,4.077,0,0,1-3.2-1.292,4.716,4.716,0,0,1-1.158-3.27v-.33a5.406,5.406,0,0,1,1.092-3.5,3.8,3.8,0,0,1,3.158-1.344,3.556,3.556,0,0,1,2.818,1.136,4.548,4.548,0,0,1,1,3.114v1.535H14.186l-.017.052a1.858,1.858,0,0,0,.523,1.193,1.778,1.778,0,0,0,1.312.455,5.45,5.45,0,0,0,1.341-.139,8.208,8.208,0,0,0,1.224-.442l.672,1.787a5.036,5.036,0,0,1-1.561.746A6.915,6.915,0,0,1,15.622,255.18Zm-.108-7.485a1.137,1.137,0,0,0-.992.447,2.31,2.31,0,0,0-.369,1.21l.017.043h2.424v-.225a2.02,2.02,0,0,0-.245-1.1A.922.922,0,0,0,15.514,247.695Zm4.624,2.628a6.167,6.167,0,0,1,.917-3.539,2.951,2.951,0,0,1,2.586-1.344,2.231,2.231,0,0,1,1.245.351,3.041,3.041,0,0,1,.93.993L26,245.613h2.474v9.28a3.543,3.543,0,0,1-1.216,2.875,5.058,5.058,0,0,1-3.349,1.019,5.78,5.78,0,0,1-1.461-.2,7.929,7.929,0,0,1-1.461-.538l.481-2.168a6.472,6.472,0,0,0,1.158.412,5.375,5.375,0,0,0,1.266.134,2.012,2.012,0,0,0,1.332-.373,1.471,1.471,0,0,0,.436-1.18v-.729a2.6,2.6,0,0,1-.884.772,2.463,2.463,0,0,1-1.15.26,2.974,2.974,0,0,1-2.573-1.284,5.73,5.73,0,0,1-.913-3.391Zm2.8.182a4.048,4.048,0,0,0,.32,1.782,1.116,1.116,0,0,0,1.083.637,1.9,1.9,0,0,0,.784-.147,1.291,1.291,0,0,0,.535-.442v-3.946a1.423,1.423,0,0,0-.531-.516,1.581,1.581,0,0,0-.772-.178,1.126,1.126,0,0,0-1.083.724,4.561,4.561,0,0,0-.336,1.9ZM33.012,255H30.2v-9.384h2.814Zm0-11.561H30.2v-1.969h2.814Zm6.4,8.925a.77.77,0,0,0-.378-.62,3.961,3.961,0,0,0-1.374-.49,5.3,5.3,0,0,1-2.366-.993,2.293,2.293,0,0,1-.8-1.852,2.682,2.682,0,0,1,1-2.1,3.979,3.979,0,0,1,2.7-.863,4.49,4.49,0,0,1,2.855.837,2.5,2.5,0,0,1,1.013,2.164l-.017.052H39.321a1.2,1.2,0,0,0-.266-.841,1.144,1.144,0,0,0-.872-.286,1.108,1.108,0,0,0-.739.252.8.8,0,0,0-.3.642.772.772,0,0,0,.344.633,3.785,3.785,0,0,0,1.39.468,5.456,5.456,0,0,1,2.44,1.01,2.365,2.365,0,0,1,.789,1.9,2.517,2.517,0,0,1-1.075,2.086,4.568,4.568,0,0,1-2.843.82,4.146,4.146,0,0,1-2.9-.971,2.722,2.722,0,0,1-1.017-2.168l.017-.052h2.54a1.2,1.2,0,0,0,.386.963,1.646,1.646,0,0,0,1.05.295,1.357,1.357,0,0,0,.855-.23A.786.786,0,0,0,39.412,252.361Zm7.238-9.081v2.333H48.07v2.029H46.65v4.3a1.086,1.086,0,0,0,.2.724.667.667,0,0,0,.527.221,2.7,2.7,0,0,0,.344-.017,2.866,2.866,0,0,0,.328-.069l.191,2.168a6.517,6.517,0,0,1-.764.16,5.89,5.89,0,0,1-.805.048,2.735,2.735,0,0,1-2.1-.772,3.508,3.508,0,0,1-.718-2.446v-4.319H42.591v-2.029h1.253V243.28Zm7.745,4.831-.913-.009a1.5,1.5,0,0,0-.789.186,1.134,1.134,0,0,0-.457.525V255H49.431v-9.384h2.64l.1,1.379a2.836,2.836,0,0,1,.747-1.145A1.6,1.6,0,0,1,54,245.44a2,2,0,0,1,.34.026,2.481,2.481,0,0,1,.315.078Zm.49,2.108a5.1,5.1,0,0,1,1.146-3.448,4.511,4.511,0,0,1,6.4,0,5.1,5.1,0,0,1,1.146,3.448v.182a5.1,5.1,0,0,1-1.146,3.452,4.522,4.522,0,0,1-6.4,0,5.1,5.1,0,0,1-1.146-3.452Zm2.806.182a4.028,4.028,0,0,0,.353,1.852,1.244,1.244,0,0,0,1.2.672,1.231,1.231,0,0,0,1.179-.676,3.992,3.992,0,0,0,.357-1.847v-.182a4.007,4.007,0,0,0-.357-1.834,1.24,1.24,0,0,0-1.2-.689,1.224,1.224,0,0,0-1.183.694,4.053,4.053,0,0,0-.353,1.83Zm11.555-5.872.847-2.16h1.386v4.718H69.245Zm2.723,0,.847-2.16H74.2v4.718H71.968ZM76.857,255V242.37h4.424a4.817,4.817,0,0,1,3.569,1.453,5.075,5.075,0,0,1,1.436,3.725v2.272a5.071,5.071,0,0,1-1.436,3.729A4.824,4.824,0,0,1,81.281,255Zm2.806-10.373v8.118h1.619a1.9,1.9,0,0,0,1.573-.815,3.393,3.393,0,0,0,.618-2.108v-2.29a3.363,3.363,0,0,0-.618-2.09,1.9,1.9,0,0,0-1.573-.815Zm10.592.295-.847,2.168H88.021V242.37h2.233Zm2.789,0-.847,2.168H90.811V242.37h2.233ZM3.769,286.727v4.84H.963V278.939H5.171A5.069,5.069,0,0,1,8.5,279.954a3.407,3.407,0,0,1,1.229,2.775,2.851,2.851,0,0,1-.494,1.683,3.523,3.523,0,0,1-1.457,1.145,2.7,2.7,0,0,1,1.6,1.1,3.512,3.512,0,0,1,.486,1.912v.8A5.249,5.249,0,0,0,10,290.491a1.507,1.507,0,0,0,.49.9v.173H7.6a1.443,1.443,0,0,1-.432-.945,8.773,8.773,0,0,1-.1-1.275v-.763a1.918,1.918,0,0,0-.457-1.379,1.765,1.765,0,0,0-1.336-.477Zm0-2.255H5.188a1.874,1.874,0,0,0,1.295-.4,1.477,1.477,0,0,0,.448-1.158,1.707,1.707,0,0,0-.461-1.245,1.731,1.731,0,0,0-1.3-.473h-1.4Zm11.854,7.277a4.077,4.077,0,0,1-3.2-1.292,4.716,4.716,0,0,1-1.158-3.27v-.33a5.406,5.406,0,0,1,1.092-3.5,3.8,3.8,0,0,1,3.158-1.344,3.556,3.556,0,0,1,2.818,1.136,4.548,4.548,0,0,1,1,3.114v1.535H14.186l-.017.052a1.858,1.858,0,0,0,.523,1.193,1.778,1.778,0,0,0,1.312.455,5.451,5.451,0,0,0,1.341-.139,8.206,8.206,0,0,0,1.224-.442l.672,1.787a5.036,5.036,0,0,1-1.561.746A6.914,6.914,0,0,1,15.622,291.749Zm-.108-7.485a1.137,1.137,0,0,0-.992.447,2.31,2.31,0,0,0-.369,1.21l.017.043h2.424v-.225a2.02,2.02,0,0,0-.245-1.1A.922.922,0,0,0,15.514,284.264Zm4.624,2.628a6.167,6.167,0,0,1,.917-3.539,2.951,2.951,0,0,1,2.586-1.344,2.231,2.231,0,0,1,1.245.351,3.041,3.041,0,0,1,.93.993L26,282.183h2.474v9.28a3.543,3.543,0,0,1-1.216,2.875,5.058,5.058,0,0,1-3.349,1.019,5.779,5.779,0,0,1-1.461-.2,7.929,7.929,0,0,1-1.461-.538l.481-2.168a6.477,6.477,0,0,0,1.158.412A5.375,5.375,0,0,0,23.89,293a2.012,2.012,0,0,0,1.332-.373,1.471,1.471,0,0,0,.436-1.18v-.729a2.6,2.6,0,0,1-.884.772,2.463,2.463,0,0,1-1.15.26,2.974,2.974,0,0,1-2.573-1.284,5.73,5.73,0,0,1-.913-3.391Zm2.8.182a4.048,4.048,0,0,0,.32,1.782,1.116,1.116,0,0,0,1.083.637,1.9,1.9,0,0,0,.784-.147,1.291,1.291,0,0,0,.535-.442v-3.946a1.423,1.423,0,0,0-.531-.516,1.581,1.581,0,0,0-.772-.178,1.126,1.126,0,0,0-1.083.724,4.561,4.561,0,0,0-.336,1.9Zm10.077,4.493H30.2v-9.384h2.814Zm0-11.561H30.2v-1.969h2.814Zm6.4,8.924a.77.77,0,0,0-.378-.62,3.96,3.96,0,0,0-1.374-.49,5.3,5.3,0,0,1-2.366-.993,2.293,2.293,0,0,1-.8-1.852,2.682,2.682,0,0,1,1-2.1,3.979,3.979,0,0,1,2.7-.863,4.49,4.49,0,0,1,2.855.837,2.5,2.5,0,0,1,1.013,2.164l-.017.052H39.321a1.2,1.2,0,0,0-.266-.841,1.144,1.144,0,0,0-.872-.286,1.108,1.108,0,0,0-.739.251.8.8,0,0,0-.3.642.772.772,0,0,0,.344.633,3.784,3.784,0,0,0,1.39.468,5.456,5.456,0,0,1,2.44,1.01,2.365,2.365,0,0,1,.789,1.9,2.517,2.517,0,0,1-1.075,2.086,4.568,4.568,0,0,1-2.843.82,4.146,4.146,0,0,1-2.9-.971,2.722,2.722,0,0,1-1.017-2.168l.017-.052h2.54a1.2,1.2,0,0,0,.386.963,1.647,1.647,0,0,0,1.05.295,1.357,1.357,0,0,0,.855-.23A.786.786,0,0,0,39.412,288.93Zm7.238-9.081v2.333H48.07v2.029H46.65v4.3a1.086,1.086,0,0,0,.2.724.667.667,0,0,0,.527.221,2.7,2.7,0,0,0,.344-.017,2.869,2.869,0,0,0,.328-.069l.191,2.168a6.523,6.523,0,0,1-.764.16,5.89,5.89,0,0,1-.805.048,2.735,2.735,0,0,1-2.1-.772,3.509,3.509,0,0,1-.718-2.446v-4.319H42.591v-2.029h1.253V279.85Zm7.745,4.831-.913-.009a1.5,1.5,0,0,0-.789.186,1.134,1.134,0,0,0-.457.525v6.184H49.431v-9.384h2.64l.1,1.379a2.836,2.836,0,0,1,.747-1.145A1.6,1.6,0,0,1,54,282.009a2,2,0,0,1,.34.026,2.484,2.484,0,0,1,.315.078Zm.49,2.108a5.1,5.1,0,0,1,1.146-3.448,4.511,4.511,0,0,1,6.4,0,5.1,5.1,0,0,1,1.146,3.448v.182a5.1,5.1,0,0,1-1.146,3.452,4.522,4.522,0,0,1-6.4,0,5.1,5.1,0,0,1-1.146-3.452Zm2.806.182a4.028,4.028,0,0,0,.353,1.852,1.244,1.244,0,0,0,1.2.672,1.231,1.231,0,0,0,1.179-.676,3.992,3.992,0,0,0,.357-1.847v-.182a4.007,4.007,0,0,0-.357-1.834,1.24,1.24,0,0,0-1.2-.69,1.224,1.224,0,0,0-1.183.694,4.053,4.053,0,0,0-.353,1.83ZM69.245,281.1l.847-2.16h1.386v4.718H69.245Zm2.723,0,.847-2.16H74.2v4.718H71.968Zm11.953,5.065H79.663v3.148h5.1v2.255H76.857V278.939h7.919v2.255H79.663v2.715h4.258Zm4.715-4.675-.847,2.168H86.4v-4.718h2.233Zm2.789,0-.847,2.168H89.192v-4.718h2.233ZM3.769,323.3v4.84H.963V315.509H5.171A5.069,5.069,0,0,1,8.5,316.523,3.407,3.407,0,0,1,9.729,319.3a2.85,2.85,0,0,1-.494,1.683,3.523,3.523,0,0,1-1.457,1.145,2.7,2.7,0,0,1,1.6,1.1,3.512,3.512,0,0,1,.486,1.912v.8A5.249,5.249,0,0,0,10,327.061a1.507,1.507,0,0,0,.49.9v.173H7.6a1.443,1.443,0,0,1-.432-.945,8.773,8.773,0,0,1-.1-1.275v-.763a1.918,1.918,0,0,0-.457-1.379,1.765,1.765,0,0,0-1.336-.477Zm0-2.255H5.188a1.874,1.874,0,0,0,1.295-.4,1.477,1.477,0,0,0,.448-1.158,1.707,1.707,0,0,0-.461-1.245,1.731,1.731,0,0,0-1.3-.473h-1.4Zm11.854,7.277a4.077,4.077,0,0,1-3.2-1.292,4.716,4.716,0,0,1-1.158-3.27v-.33a5.406,5.406,0,0,1,1.092-3.5,3.8,3.8,0,0,1,3.158-1.344,3.556,3.556,0,0,1,2.818,1.136,4.548,4.548,0,0,1,1,3.114v1.535H14.186l-.017.052a1.858,1.858,0,0,0,.523,1.193,1.778,1.778,0,0,0,1.312.455,5.451,5.451,0,0,0,1.341-.139,8.2,8.2,0,0,0,1.224-.442l.672,1.787a5.037,5.037,0,0,1-1.561.746A6.915,6.915,0,0,1,15.622,328.319Zm-.108-7.485a1.137,1.137,0,0,0-.992.447,2.31,2.31,0,0,0-.369,1.21l.017.043h2.424v-.225a2.02,2.02,0,0,0-.245-1.1A.922.922,0,0,0,15.514,320.834Zm4.624,2.628a6.167,6.167,0,0,1,.917-3.539,2.951,2.951,0,0,1,2.586-1.344,2.231,2.231,0,0,1,1.245.351,3.041,3.041,0,0,1,.93.993L26,318.752h2.474v9.28a3.543,3.543,0,0,1-1.216,2.875,5.058,5.058,0,0,1-3.349,1.019,5.779,5.779,0,0,1-1.461-.2,7.931,7.931,0,0,1-1.461-.538l.481-2.168a6.472,6.472,0,0,0,1.158.412,5.375,5.375,0,0,0,1.266.134,2.012,2.012,0,0,0,1.332-.373,1.471,1.471,0,0,0,.436-1.18v-.729a2.6,2.6,0,0,1-.884.772,2.463,2.463,0,0,1-1.15.26,2.974,2.974,0,0,1-2.573-1.284,5.73,5.73,0,0,1-.913-3.391Zm2.8.182a4.048,4.048,0,0,0,.32,1.782,1.116,1.116,0,0,0,1.083.637,1.9,1.9,0,0,0,.784-.147,1.291,1.291,0,0,0,.535-.442v-3.946a1.423,1.423,0,0,0-.531-.516,1.581,1.581,0,0,0-.772-.178,1.126,1.126,0,0,0-1.083.724,4.561,4.561,0,0,0-.336,1.9Zm10.077,4.493H30.2v-9.384h2.814Zm0-11.561H30.2v-1.969h2.814Zm6.4,8.924a.77.77,0,0,0-.378-.62,3.961,3.961,0,0,0-1.374-.49,5.3,5.3,0,0,1-2.366-.993,2.293,2.293,0,0,1-.8-1.852,2.682,2.682,0,0,1,1-2.1,3.979,3.979,0,0,1,2.7-.863,4.49,4.49,0,0,1,2.855.837,2.5,2.5,0,0,1,1.013,2.164l-.017.052H39.321a1.2,1.2,0,0,0-.266-.841,1.143,1.143,0,0,0-.872-.286,1.108,1.108,0,0,0-.739.252.8.8,0,0,0-.3.642.772.772,0,0,0,.344.633,3.785,3.785,0,0,0,1.39.468,5.456,5.456,0,0,1,2.44,1.01,2.365,2.365,0,0,1,.789,1.9,2.517,2.517,0,0,1-1.075,2.086,4.568,4.568,0,0,1-2.843.82,4.146,4.146,0,0,1-2.9-.971,2.722,2.722,0,0,1-1.017-2.168l.017-.052h2.54a1.2,1.2,0,0,0,.386.963,1.647,1.647,0,0,0,1.05.295,1.357,1.357,0,0,0,.855-.23A.786.786,0,0,0,39.412,325.5Zm7.238-9.081v2.333H48.07v2.029H46.65v4.3a1.085,1.085,0,0,0,.2.724.667.667,0,0,0,.527.221,2.7,2.7,0,0,0,.344-.017,2.875,2.875,0,0,0,.328-.069l.191,2.168a6.516,6.516,0,0,1-.764.16,5.89,5.89,0,0,1-.805.048,2.734,2.734,0,0,1-2.1-.772,3.509,3.509,0,0,1-.718-2.446v-4.319H42.591v-2.029h1.253v-2.333ZM54.4,321.25l-.913-.009a1.5,1.5,0,0,0-.789.186,1.134,1.134,0,0,0-.457.525v6.184H49.431v-9.384h2.64l.1,1.379a2.836,2.836,0,0,1,.747-1.145A1.6,1.6,0,0,1,54,318.579a2,2,0,0,1,.34.026,2.479,2.479,0,0,1,.315.078Zm.49,2.108a5.1,5.1,0,0,1,1.146-3.448,4.511,4.511,0,0,1,6.4,0,5.1,5.1,0,0,1,1.146,3.448v.182a5.1,5.1,0,0,1-1.146,3.452,4.522,4.522,0,0,1-6.4,0,5.1,5.1,0,0,1-1.146-3.452Zm2.806.182a4.028,4.028,0,0,0,.353,1.852,1.244,1.244,0,0,0,1.2.672,1.231,1.231,0,0,0,1.179-.676,3.992,3.992,0,0,0,.357-1.847v-.182a4.007,4.007,0,0,0-.357-1.834,1.24,1.24,0,0,0-1.2-.69,1.224,1.224,0,0,0-1.183.694,4.053,4.053,0,0,0-.353,1.83Zm11.555-5.872.847-2.16h1.386v4.718H69.245Zm2.723,0,.847-2.16H74.2v4.718H71.968Zm12.119,5.386H79.663v5.082H76.857V315.509h8.077v2.255H79.663V320.8h4.424Zm4.549-5-.847,2.168H86.4v-4.718h2.233Zm2.789,0-.847,2.168H89.192v-4.718h2.233ZM3.769,396.436v4.84H.963V388.647H5.171A5.069,5.069,0,0,1,8.5,389.662a3.407,3.407,0,0,1,1.229,2.775,2.85,2.85,0,0,1-.494,1.683,3.523,3.523,0,0,1-1.457,1.145,2.7,2.7,0,0,1,1.6,1.1,3.512,3.512,0,0,1,.486,1.912v.8A5.248,5.248,0,0,0,10,400.2a1.507,1.507,0,0,0,.49.9v.173H7.6a1.443,1.443,0,0,1-.432-.945,8.772,8.772,0,0,1-.1-1.275v-.763a1.918,1.918,0,0,0-.457-1.379,1.765,1.765,0,0,0-1.336-.477Zm0-2.255H5.188a1.874,1.874,0,0,0,1.295-.4,1.477,1.477,0,0,0,.448-1.158,1.707,1.707,0,0,0-.461-1.245,1.731,1.731,0,0,0-1.3-.473h-1.4Zm11.854,7.277a4.077,4.077,0,0,1-3.2-1.292,4.716,4.716,0,0,1-1.158-3.27v-.33a5.406,5.406,0,0,1,1.092-3.5,3.8,3.8,0,0,1,3.158-1.344,3.556,3.556,0,0,1,2.818,1.136,4.548,4.548,0,0,1,1,3.114V397.5H14.186l-.017.052a1.858,1.858,0,0,0,.523,1.193A1.778,1.778,0,0,0,16,399.2a5.451,5.451,0,0,0,1.341-.139,8.206,8.206,0,0,0,1.224-.442l.672,1.787a5.036,5.036,0,0,1-1.561.746A6.914,6.914,0,0,1,15.622,401.457Zm-.108-7.485a1.137,1.137,0,0,0-.992.447,2.31,2.31,0,0,0-.369,1.21l.017.043h2.424v-.226a2.02,2.02,0,0,0-.245-1.1A.922.922,0,0,0,15.514,393.973Zm4.624,2.628a6.167,6.167,0,0,1,.917-3.539,2.951,2.951,0,0,1,2.586-1.344,2.231,2.231,0,0,1,1.245.351,3.041,3.041,0,0,1,.93.993L26,391.891h2.474v9.28a3.544,3.544,0,0,1-1.216,2.875,5.058,5.058,0,0,1-3.349,1.019,5.78,5.78,0,0,1-1.461-.2,7.931,7.931,0,0,1-1.461-.538l.481-2.168a6.474,6.474,0,0,0,1.158.412,5.375,5.375,0,0,0,1.266.134,2.012,2.012,0,0,0,1.332-.373,1.471,1.471,0,0,0,.436-1.18v-.729a2.6,2.6,0,0,1-.884.772,2.463,2.463,0,0,1-1.15.26,2.974,2.974,0,0,1-2.573-1.284,5.73,5.73,0,0,1-.913-3.391Zm2.8.182a4.048,4.048,0,0,0,.32,1.782,1.116,1.116,0,0,0,1.083.637,1.9,1.9,0,0,0,.784-.147,1.291,1.291,0,0,0,.535-.442v-3.946a1.423,1.423,0,0,0-.531-.516,1.581,1.581,0,0,0-.772-.178,1.126,1.126,0,0,0-1.083.724,4.561,4.561,0,0,0-.336,1.9Zm10.077,4.493H30.2v-9.384h2.814Zm0-11.561H30.2v-1.969h2.814Zm6.4,8.925a.77.77,0,0,0-.378-.62,3.96,3.96,0,0,0-1.374-.49,5.3,5.3,0,0,1-2.366-.993,2.293,2.293,0,0,1-.8-1.852,2.682,2.682,0,0,1,1-2.1,3.979,3.979,0,0,1,2.7-.863,4.49,4.49,0,0,1,2.855.837,2.5,2.5,0,0,1,1.013,2.164l-.017.052H39.321a1.2,1.2,0,0,0-.266-.841,1.144,1.144,0,0,0-.872-.286,1.108,1.108,0,0,0-.739.251.8.8,0,0,0-.3.642.772.772,0,0,0,.344.633,3.784,3.784,0,0,0,1.39.468,5.456,5.456,0,0,1,2.44,1.01,2.364,2.364,0,0,1,.789,1.9,2.517,2.517,0,0,1-1.075,2.086,4.568,4.568,0,0,1-2.843.82,4.146,4.146,0,0,1-2.9-.971,2.722,2.722,0,0,1-1.017-2.168l.017-.052h2.54a1.2,1.2,0,0,0,.386.963,1.646,1.646,0,0,0,1.05.295,1.357,1.357,0,0,0,.855-.23A.786.786,0,0,0,39.412,398.639Zm7.238-9.081v2.333H48.07v2.029H46.65v4.3a1.086,1.086,0,0,0,.2.724.667.667,0,0,0,.527.221,2.7,2.7,0,0,0,.344-.017,2.876,2.876,0,0,0,.328-.069l.191,2.168a6.517,6.517,0,0,1-.764.16,5.89,5.89,0,0,1-.805.048,2.734,2.734,0,0,1-2.1-.772,3.508,3.508,0,0,1-.718-2.446v-4.319H42.591v-2.029h1.253v-2.333Zm7.745,4.831-.913-.009a1.5,1.5,0,0,0-.789.186,1.134,1.134,0,0,0-.457.525v6.184H49.431v-9.384h2.64l.1,1.379a2.836,2.836,0,0,1,.747-1.145A1.6,1.6,0,0,1,54,391.718a2,2,0,0,1,.34.026,2.484,2.484,0,0,1,.315.078Zm.49,2.108a5.1,5.1,0,0,1,1.146-3.448,4.511,4.511,0,0,1,6.4,0,5.1,5.1,0,0,1,1.146,3.448v.182a5.1,5.1,0,0,1-1.146,3.452,4.522,4.522,0,0,1-6.4,0,5.1,5.1,0,0,1-1.146-3.452Zm2.806.182a4.028,4.028,0,0,0,.353,1.852,1.244,1.244,0,0,0,1.2.672,1.23,1.23,0,0,0,1.179-.677,3.992,3.992,0,0,0,.357-1.847V396.5a4.007,4.007,0,0,0-.357-1.834,1.24,1.24,0,0,0-1.2-.69,1.224,1.224,0,0,0-1.183.694,4.053,4.053,0,0,0-.353,1.83Zm11.555-5.872.847-2.16h1.386v4.718H69.245Zm2.723,0,.847-2.16H74.2v4.718H71.968ZM86.4,399.532a5.065,5.065,0,0,1-1.776,1.362,6.681,6.681,0,0,1-2.947.564,4.872,4.872,0,0,1-3.652-1.44,5.13,5.13,0,0,1-1.4-3.738v-2.637a5.217,5.217,0,0,1,1.365-3.729,4.615,4.615,0,0,1,3.515-1.448,5.029,5.029,0,0,1,3.5,1.08,3.681,3.681,0,0,1,1.141,2.953l-.017.052H83.5a1.823,1.823,0,0,0-.473-1.379,2,2,0,0,0-1.428-.451,1.87,1.87,0,0,0-1.577.807,3.437,3.437,0,0,0-.6,2.1v2.654a3.482,3.482,0,0,0,.594,2.121,1.951,1.951,0,0,0,1.664.8,4.5,4.5,0,0,0,1.216-.13,1.915,1.915,0,0,0,.7-.347V396.47H81.456v-1.943H86.4Zm3.976-8.335-.847,2.168H88.146v-4.718h2.233Zm2.789,0-.847,2.168H90.935v-4.718h2.233Z" transform="translate(2540.667 -10637.063)" fill="#12263f"/>
      <path id="Rectángulo_39525" data-name="Rectángulo 39525" d="M1,1.072V475.089H84V1.072H1M0,0H85V476.161H0Z" transform="translate(2408.667 -10690.224)" fill="#707070"/>
      <path id="Rectángulo_39526" data-name="Rectángulo 39526" d="M1,1V443H192V1H1M0,0H193V444H0Z" transform="translate(2493.667 -10658.063)" fill="#707070"/>
      <path id="Trazado_159319-2" data-name="Trazado 159319" d="M15.32,9.437,2.358,22.839H278.5l12.962-13.4H15.32m-.424-1H293.819l-14.9,15.4H0Z" transform="translate(2407.975 -10714.063)" fill="#707070"/>
      <path id="Trazado_159320-2" data-name="Trazado 159320" d="M14.556-20.486,1.048-7.265,1,465.027,13.73,444.276l.826-464.762m1-2.382-.831,467.428L0,468.57.048-7.686Z" transform="translate(2686.234 -10682.758)" fill="#707070"/>
      <path id="Rectángulo_39527" data-name="Rectángulo 39527" d="M1,1V32H277V1H1M0,0H278V33H0Z" transform="translate(2408.667 -10658.063)" fill="#707070"/>
      <path id="Rectángulo_39533" data-name="Rectángulo 39533" d="M1,1V33H277V1H1M0,0H278V34H0Z" transform="translate(2408.667 -10691.063)" fill="#707070"/>
      <path id="Rectángulo_39531" data-name="Rectángulo 39531" d="M1,1V33H277V1H1M0,0H278V34H0Z" transform="translate(2408.667 -10442.063)" fill="#707070"/>
      <path id="Rectángulo_39528" data-name="Rectángulo 39528" d="M1,1V32H277V1H1M0,0H278V33H0Z" transform="translate(2408.667 -10586.063)" fill="#707070"/>
      <path id="Rectángulo_39530" data-name="Rectángulo 39530" d="M1,1V32H277V1H1M0,0H278V33H0Z" transform="translate(2408.667 -10369.063)" fill="#707070"/>
      <path id="Rectángulo_39529" data-name="Rectángulo 39529" d="M1,1V33H277V1H1M0,0H278V34H0Z" transform="translate(2408.667 -10514.063)" fill="#707070"/>
      <path id="Rectángulo_39532" data-name="Rectángulo 39532" d="M1,1V32H277V1H1M0,0H278V33H0Z" transform="translate(2408.667 -10297.063)" fill="#707070"/>
      <path id="Línea_952" data-name="Línea 952" d="M.354,15.2l-.707-.707L14.492-.354,15.2.354Z" transform="translate(2686.591 -10640.246)" fill="#707070"/>
      <path id="Línea_966" data-name="Línea 966" d="M.354,15.2l-.707-.707L14.492-.354,15.2.354Z" transform="translate(2686.591 -10672.905)" fill="#707070"/>
      <path id="Línea_954" data-name="Línea 954" d="M.354,15.2l-.707-.707L14.492-.354,15.2.354Z" transform="translate(2686.591 -10527.916)" fill="#707070"/>
      <path id="Línea_957" data-name="Línea 957" d="M.354,15.2l-.707-.707L14.492-.354,15.2.354Z" transform="translate(2686.591 -10423.01)" fill="#707070"/>
      <path id="Línea_953" data-name="Línea 953" d="M.359,15.193l-.719-.7L13.991-.348l.719.7Z" transform="translate(2686.729 -10600.658)" fill="#707070"/>
      <path id="Línea_956" data-name="Línea 956" d="M.359,15.193l-.719-.7L13.991-.348l.719.7Z" transform="translate(2686.729 -10567.504)" fill="#707070"/>
      <path id="Línea_959" data-name="Línea 959" d="M.359,15.193l-.719-.7L13.991-.348l.719.7Z" transform="translate(2686.729 -10456.165)" fill="#707070"/>
      <path id="Línea_955" data-name="Línea 955" d="M.359,15.193l-.719-.7L13.991-.348l.719.7Z" transform="translate(2686.729 -10494.763)" fill="#707070"/>
      <path id="Línea_958" data-name="Línea 958" d="M.359,15.193l-.719-.7L13.991-.348l.719.7Z" transform="translate(2686.729 -10383.423)" fill="#707070"/>
      <path id="Línea_960" data-name="Línea 960" d="M.359,15.193l-.719-.7L13.991-.348l.719.7Z" transform="translate(2686.729 -10350.764)" fill="#707070"/>
      <path id="Línea_961" data-name="Línea 961" d="M.359,15.193l-.719-.7L13.991-.348l.719.7Z" transform="translate(2686.729 -10311.176)" fill="#707070"/>
      <path id="Línea_962" data-name="Línea 962" d="M.359,15.193l-.719-.7L13.991-.348l.719.7Z" transform="translate(2686.729 -10278.517)" fill="#707070"/>
      <path id="Trazado_159321-2" data-name="Trazado 159321" d="M2740.194-10218.248h-42.333v-1h41.333v-355.126h-41.333v-1h42.333Z" transform="translate(-3.847 -66.857)" fill="#707070"/>
      <path id="Línea_963" data-name="Línea 963" d="M42.556.5H0v-1H42.556Z" transform="translate(2693.656 -10431.423)" fill="#707070"/>
      <path id="Línea_964" data-name="Línea 964" d="M42.556.5H0v-1H42.556Z" transform="translate(2693.656 -10473.979)" fill="#707070"/>
      <path id="Línea_965" data-name="Línea 965" d="M42.556.5H0v-1H42.556Z" transform="translate(2693.656 -10577.4)" fill="#707070"/>
    </g>
  </g>
</svg>
