<svg xmlns="http://www.w3.org/2000/svg" xmlns:xlink="http://www.w3.org/1999/xlink" width="130" height="130" viewBox="0 0 130 130">
  <defs>
    <clipPath id="clip-path">
      <rect id="Rectángulo_39363" data-name="Rectángulo 39363" width="88.397" height="69.751" fill="#26ccda"/>
    </clipPath>
  </defs>
  <g id="Grupo_143536" data-name="Grupo 143536" transform="translate(8374 7560)">
    <circle id="Elipse_5449" data-name="Elipse 5449" cx="65" cy="65" r="65" transform="translate(-8374 -7560)" fill="#fff"/>
    <g id="Grupo_143535" data-name="Grupo 143535" transform="translate(-8354 -7530)">
      <g id="Grupo_143534" data-name="Grupo 143534" clip-path="url(#clip-path)">
        <path id="Trazado_159215" data-name="Trazado 159215" d="M89.326,3.5v62.76H40.01V64.6c0-1.294.021-2.59-.008-3.884a1.707,1.707,0,0,0-1.732-1.855,1.73,1.73,0,0,0-1.71,1.882c-.015.373,0,.748,0,1.122v4.368H29.479c0-.953,0-1.843,0-2.732,0-.978.032-1.958-.016-2.934a1.677,1.677,0,0,0-1.7-1.706,1.7,1.7,0,0,0-1.723,1.687c-.03.343-.012.69-.012,1.035,0,1.545,0,3.09,0,4.658H15.494v-.99c0-1.87.013-3.741-.006-5.611a1.77,1.77,0,0,0-1.731-1.962,1.794,1.794,0,0,0-1.715,1.983c-.005.173,0,.346,0,.518q0,3.539,0,7.078c0,1.984.514,2.492,2.516,2.492H90.345c1.987,0,2.5-.512,2.5-2.511q0-32.369,0-64.739c0-1.99-.512-2.5-2.507-2.5H45.448Q29.867,0,14.287,0c-1.64,0-2.242.6-2.244,2.244,0,2.589-.009,5.18,0,7.769.005,1.251.7,2.06,1.728,2.057s1.711-.812,1.718-2.067c.011-1.9,0-3.8,0-5.7V3.5H26.025c0,.585,0,1.125,0,1.665,0,1.323-.03,2.648.017,3.97a1.708,1.708,0,0,0,3.413.112,12.278,12.278,0,0,0,.023-1.294c0-1.484,0-2.968,0-4.43h7.078c0,1.68,0,3.291,0,4.9,0,1.577.58,2.411,1.694,2.439,1.137.028,1.758-.84,1.759-2.459s0-3.259,0-4.888h7.079V4.607q0,27.579,0,55.157a7.625,7.625,0,0,0,.03,1.034,1.688,1.688,0,0,0,1.681,1.54,1.671,1.671,0,0,0,1.705-1.51,6.957,6.957,0,0,0,.035-1.033q0-27.621,0-55.244V3.5H57.62v1.07q0,24,0,47.993a4.906,4.906,0,0,0,.105,1.2,1.637,1.637,0,0,0,1.658,1.248,1.611,1.611,0,0,0,1.575-1.245,4.94,4.94,0,0,0,.106-1.2q.008-24,0-47.992V3.5h7.078V4.548q0,27.665,0,55.33a5.111,5.111,0,0,0,.1,1.2,1.68,1.68,0,0,0,3.261-.023,5.38,5.38,0,0,0,.089-1.2q.006-27.665,0-55.33V3.515h7.251V4.6q0,23.91,0,47.82a8.8,8.8,0,0,0,.018.949,1.708,1.708,0,0,0,3.413.034,7.912,7.912,0,0,0,.021-.948q0-23.954,0-47.907V3.5ZM59.313,62.338a1.73,1.73,0,0,0,1.75-1.658,1.714,1.714,0,0,0-3.428-.069,1.728,1.728,0,0,0,1.678,1.728M82.3,60.687a1.714,1.714,0,1,0-3.427-.083,1.714,1.714,0,0,0,3.427.083" transform="translate(-4.444 0)" fill="#26ccda"/>
        <path id="Trazado_159216" data-name="Trazado 159216" d="M0,52.929c.728-1.41,1.388-1.665,2.849-1.039a7.547,7.547,0,0,0,6.507-.076,11.6,11.6,0,0,1,10.621.016,7.322,7.322,0,0,0,6.5.03,13.023,13.023,0,0,1,5.93-1.349c-.248-.32-.427-.528-.58-.754a1.7,1.7,0,0,1,.179-2.2,1.531,1.531,0,0,1,2.118-.169c1.375,1.258,2.7,2.58,3.953,3.958a1.616,1.616,0,0,1-.328,2.25q-1.562,1.61-3.175,3.17a1.724,1.724,0,1,1-2.5-2.352c.085-.1.171-.208.329-.4a7.336,7.336,0,0,0-3.909.746,11.241,11.241,0,0,1-7.791.95,11.663,11.663,0,0,1-2.27-.794,8.2,8.2,0,0,0-7.543-.01,10.67,10.67,0,0,1-9.02.278A9.417,9.417,0,0,1,0,53.792v-.863" transform="translate(0 -17.363)" fill="#26ccda"/>
        <path id="Trazado_159217" data-name="Trazado 159217" d="M0,74.844c.732-1.343,1.455-1.592,2.894-.978a7.406,7.406,0,0,0,6.347-.048,11.83,11.83,0,0,1,10.791-.007,7.289,7.289,0,0,0,6.5-.015,13.654,13.654,0,0,1,5.83-1.342c-.255-.35-.43-.566-.58-.8a1.679,1.679,0,0,1,.194-2.133,1.524,1.524,0,0,1,2.112-.2c1.378,1.256,2.7,2.578,3.963,3.951a1.453,1.453,0,0,1-.113,2.05q-1.739,1.856-3.592,3.606A1.692,1.692,0,0,1,32,78.915a1.72,1.72,0,0,1-.093-2.346c.129-.179.273-.347.488-.619a7.809,7.809,0,0,0-3.836.744,10.724,10.724,0,0,1-6,1.231,12.626,12.626,0,0,1-3.813-.945,9.016,9.016,0,0,0-8.2.024,10.365,10.365,0,0,1-8.859.063A8.081,8.081,0,0,1,0,75.707v-.863" transform="translate(0 -25.466)" fill="#26ccda"/>
        <path id="Trazado_159218" data-name="Trazado 159218" d="M0,30.844c.742-1.349,1.451-1.593,2.892-.979a7.394,7.394,0,0,0,6.344-.045,11.892,11.892,0,0,1,10.865.017,7.148,7.148,0,0,0,6.337,0,14.207,14.207,0,0,1,5.906-1.389c-.221-.329-.389-.551-.527-.79A1.676,1.676,0,0,1,32.1,25.6a1.558,1.558,0,0,1,2.051-.2c1.371,1.261,2.7,2.578,3.95,3.956a1.592,1.592,0,0,1-.327,2.18q-1.527,1.584-3.112,3.111a1.722,1.722,0,1,1-2.573-2.281c.078-.108.151-.219.278-.4A9.377,9.377,0,0,0,27.826,33a11.063,11.063,0,0,1-9.114.026,16.518,16.518,0,0,0-2.757-.949,8.074,8.074,0,0,0-5.256.877,10.954,10.954,0,0,1-8.226.452A3.573,3.573,0,0,1,0,31.707Z" transform="translate(0 -9.263)" fill="#26ccda"/>
        <path id="Trazado_159219" data-name="Trazado 159219" d="M89.326,3.5H82.309V4.552q0,23.954,0,47.907a7.912,7.912,0,0,1-.022.948,1.708,1.708,0,0,1-3.413-.034,8.79,8.79,0,0,1-.017-.948q0-23.91,0-47.82V3.515H71.6V4.524q0,27.666,0,55.331a5.34,5.34,0,0,1-.089,1.2,1.68,1.68,0,0,1-3.261.023,5.119,5.119,0,0,1-.1-1.2q-.007-27.665,0-55.33V3.5H61.073V4.579q0,24,0,47.993a4.9,4.9,0,0,1-.107,1.195,1.609,1.609,0,0,1-1.575,1.245,1.636,1.636,0,0,1-1.658-1.248,4.9,4.9,0,0,1-.106-1.195q-.008-24,0-47.993V3.506H50.541V4.552q0,27.622,0,55.244a7.046,7.046,0,0,1-.035,1.033,1.7,1.7,0,0,1-3.387-.031,7.728,7.728,0,0,1-.029-1.034q0-27.579,0-55.157V3.516H40.01q0,2.444,0,4.889c0,1.619-.622,2.487-1.759,2.458-1.113-.027-1.693-.862-1.694-2.438,0-1.611,0-3.222,0-4.9H29.478c0,1.462,0,2.946,0,4.43a12.1,12.1,0,0,1-.023,1.293,1.707,1.707,0,0,1-3.412-.112c-.047-1.322-.016-2.646-.017-3.97,0-.539,0-1.079,0-1.665H15.493v.807c0,1.9.008,3.8,0,5.7-.007,1.254-.693,2.064-1.718,2.067s-1.723-.806-1.728-2.057c-.011-2.589-.007-5.179,0-7.768,0-1.64.6-2.244,2.245-2.244q15.58,0,31.161,0H90.332c2,0,2.508.51,2.508,2.5V67.239c0,2-.509,2.512-2.5,2.512H14.556c-2,0-2.516-.509-2.516-2.493q0-3.539,0-7.078c0-.173,0-.346,0-.518a1.8,1.8,0,0,1,1.716-1.983,1.77,1.77,0,0,1,1.73,1.962c.019,1.87.006,3.74.006,5.61v.99H26.025c0-1.568,0-3.112,0-4.658,0-.345-.018-.692.013-1.035a1.7,1.7,0,0,1,1.723-1.687,1.677,1.677,0,0,1,1.7,1.706c.049.976.016,1.956.017,2.934,0,.889,0,1.78,0,2.732h7.079V61.867c0-.374-.011-.748,0-1.122a1.731,1.731,0,0,1,1.71-1.882A1.708,1.708,0,0,1,40,60.717c.029,1.294.008,2.589.008,3.885v1.655H89.326Z" transform="translate(-4.444 0)" fill="#26ccda"/>
        <path id="Trazado_159220" data-name="Trazado 159220" d="M86,96.828A1.728,1.728,0,0,1,84.321,95.1a1.714,1.714,0,1,1,3.427.069A1.729,1.729,0,0,1,86,96.828" transform="translate(-31.13 -34.489)" fill="#26ccda"/>
        <path id="Trazado_159221" data-name="Trazado 159221" d="M121.412,95.176a1.714,1.714,0,0,1-3.427-.083,1.714,1.714,0,1,1,3.427.083" transform="translate(-43.558 -34.489)" fill="#26ccda"/>
      </g>
    </g>
  </g>
</svg>
