<svg id="Grupo_143814" data-name="Grupo 143814" xmlns="http://www.w3.org/2000/svg" xmlns:xlink="http://www.w3.org/1999/xlink" width="63.922" height="78.097" viewBox="0 0 63.922 78.097">
  <defs>
    <clipPath id="clip-path">
      <rect id="Rect치ngulo_39530" data-name="Rect치ngulo 39530" width="63.922" height="78.097" fill="#f57c00"/>
    </clipPath>
  </defs>
  <g id="Grupo_143814-2" data-name="Grupo 143814" clip-path="url(#clip-path)">
    <path id="Trazado_159516" data-name="Trazado 159516" d="M6.516,78.1c-.053-6.2.064-12.412-.235-18.6a49.4,49.4,0,0,0-1.683-8.5C3.262,45.179,1.751,39.4.524,33.567a26.315,26.315,0,0,1,.982-13.914A28.379,28.379,0,0,1,12.546,5,27.185,27.185,0,0,1,24.644.282,28.018,28.018,0,0,1,48.906,8.357a27.161,27.161,0,0,1,8.122,16.261c.231,1.756.2,3.547.311,5.32a4.378,4.378,0,0,0,.239,1.325c1.97,4.954,3.965,9.9,5.949,14.846,1.2,3-.427,5.431-3.638,5.439-1.651,0-3.3,0-5.07,0,0,.34,0,.636,0,.931-.012,2.237.051,4.478-.053,6.712A7.35,7.35,0,0,1,47.8,66.021c-.99.04-1.984.009-2.975.018a2.83,2.83,0,0,0-3.041,3.055c-.014,3-.008,6-.011,9Zm32.957-2.354c0-.323,0-.6,0-.87,0-2.06-.039-4.121.021-6.18a5.035,5.035,0,0,1,4.914-4.949c.864-.038,1.73-.014,2.594-.019a5.106,5.106,0,0,0,5.483-5.477c.008-2.722,0-5.443,0-8.164v-.843c2.537,0,4.952,0,7.367,0,1.6,0,2.111-.757,1.512-2.253q-3.1-7.743-6.2-15.488a2.463,2.463,0,0,1-.2-1.023A26.393,26.393,0,0,0,40.843,5.285,25.61,25.61,0,0,0,27,2.372,25.687,25.687,0,0,0,15.722,5.754,26.005,26.005,0,0,0,4.649,17.976a24.464,24.464,0,0,0-1.833,15.2C4.07,39.211,5.544,45.207,7.065,51.186A55.29,55.29,0,0,1,8.907,66.647c-.086,2.744-.015,5.493-.015,8.24v.857Z" transform="translate(0 0)" fill="#f57c00"/>
    <path id="Trazado_159517" data-name="Trazado 159517" d="M18.011,28.954h3.041c.178,0,.468.066.516-.013A21.644,21.644,0,0,0,22.678,26.9a.715.715,0,0,0-.15-.631c-.781-.8-1.6-1.562-2.334-2.271l5.96-5.952c.644.666,1.418,1.434,2.152,2.24.315.346.571.26.982.179,1.683-.33,2.05-1.386,1.825-2.9a11.953,11.953,0,0,1-.013-1.7h8.33c0,1.079.02,2.162-.01,3.244-.012.447.177.608.549.839a2.172,2.172,0,0,0,3.338-.745A15.338,15.338,0,0,1,44.433,17.9l5.9,5.939-2.71,2.526,1.072,2.6h3.825v8.284c-1.054,0-2.088.026-3.12-.011-.53-.019-.724.2-1.006.649-.857,1.369-.52,2.337.715,3.209A9.827,9.827,0,0,1,50.29,42.23l-5.9,5.895c-.656-.662-1.435-1.425-2.184-2.217-.287-.3-.547-.416-.919-.172a1.435,1.435,0,0,1-.551.254c-1.2.167-1.448.9-1.327,1.982a21.517,21.517,0,0,1,.017,2.344H31.1c0-1.049-.033-2.087.013-3.121.025-.56-.16-.866-.7-.964a.347.347,0,0,1-.145-.045c-1.219-.915-2.084-.388-2.881.652a14.572,14.572,0,0,1-1.29,1.324l-5.911-5.979c.688-.65,1.466-1.409,2.274-2.135.317-.284.284-.52.2-.917-.359-1.637-1.33-2.184-2.928-1.9a10.243,10.243,0,0,1-1.716.015Zm2.336,5.992H23.5L25.7,40.274l-2.182,2.083,2.639,2.654,2.059-2.292,5.247,2.165v3.127H37.1c0-.951-.023-1.861.016-2.769a.817.817,0,0,1,.345-.624c1.567-.628,3.153-1.209,4.933-1.878l1.985,2.127L47.1,42.161l-2.19-2c.641-1.647,1.265-3.139,1.789-4.665.157-.459.325-.6.777-.582.9.029,1.807.008,2.72.008V31.244H46.9c-.306-.948-.525-1.814-.866-2.63-.349-.835-.817-1.62-1.3-2.563l2.292-2.1L44.374,21.3,42.36,23.484c-1.653-.651-3.115-1.283-4.62-1.788-.532-.179-.667-.391-.649-.894.032-.877.009-1.756.009-2.618H33.444c0,.966.029,1.881-.02,2.791a.872.872,0,0,1-.436.632c-1.543.626-3.106,1.2-4.956,1.908l-1.919-2.163-2.617,2.624c.609.593,1.3,1.235,1.944,1.916a.71.71,0,0,1,.128.622c-.671,1.549-1.379,3.081-2.141,4.762H20.347Z" transform="translate(-7.282 -6.415)" fill="#f57c00"/>
    <rect id="Rect치ngulo_39529" data-name="Rect치ngulo 39529" width="12.896" height="2.215" transform="translate(24.136 72.573)" fill="#f57c00"/>
    <path id="Trazado_159518" data-name="Trazado 159518" d="M77.05,19.889,75.1,21.14A23.33,23.33,0,0,0,67.758,14l1.206-2a25,25,0,0,1,8.086,7.884" transform="translate(-27.397 -4.854)" fill="#f57c00"/>
    <path id="Trazado_159519" data-name="Trazado 159519" d="M32.98,121.824v2.285H28.946c-2.124,0-2.124,0-1.776-2.285Z" transform="translate(-10.916 -49.257)" fill="#f57c00"/>
    <path id="Trazado_159520" data-name="Trazado 159520" d="M85.815,33.079l-2.23.656c-.483-1.214-.947-2.382-1.445-3.635L84.2,29.042l1.615,4.037" transform="translate(-33.212 -11.743)" fill="#f57c00"/>
    <path id="Trazado_159521" data-name="Trazado 159521" d="M49.993,38.409a9.432,9.432,0,1,1-18.856-.392,9.591,9.591,0,0,1,9.434-9.088,9.492,9.492,0,0,1,9.422,9.48m-9.394,7a7.03,7.03,0,1,0-.06-14.059,7.03,7.03,0,1,0,.06,14.059" transform="translate(-12.588 -11.697)" fill="#f57c00"/>
    <path id="Trazado_159522" data-name="Trazado 159522" d="M48.518,41.523a4.833,4.833,0,1,1-4.831-4.869,4.856,4.856,0,0,1,4.831,4.869M46.2,41.507a2.518,2.518,0,0,0-5.036,0,2.57,2.57,0,0,0,2.525,2.53A2.541,2.541,0,0,0,46.2,41.507" transform="translate(-15.709 -14.82)" fill="#f57c00"/>
  </g>
</svg>
